<?xml version="1.0" encoding="UTF-8"?>
<!DOCTYPE svg PUBLIC "-//W3C//DTD SVG 1.1//EN" "http://www.w3.org/Graphics/SVG/1.1/DTD/svg11.dtd">
<svg xmlns="http://www.w3.org/2000/svg" version="1.1" width="2480px" height="2480px" style="shape-rendering:geometricPrecision; text-rendering:geometricPrecision; image-rendering:optimizeQuality; fill-rule:evenodd; clip-rule:evenodd" xmlns:xlink="http://www.w3.org/1999/xlink">
<g><path style="opacity:0.985" fill="#a2daff" d="M 694.5,230.5 C 696.199,230.34 697.866,230.506 699.5,231C 703.128,235.675 704.128,240.841 702.5,246.5C 703.277,270.841 708.444,294.174 718,316.5C 726.78,329.14 738.946,335.307 754.5,335C 757.167,338.333 757.167,341.667 754.5,345C 732.75,345.5 718.583,356.334 712,377.5C 705.673,398.113 702.84,419.113 703.5,440.5C 702.82,442.889 701.986,445.222 701,447.5C 697.195,450.539 694.195,449.872 692,445.5C 691.882,422.36 688.548,399.693 682,377.5C 675.417,356.334 661.25,345.5 639.5,345C 636.833,341.667 636.833,338.333 639.5,335C 660.014,334.476 673.848,324.643 681,305.5C 688.037,282.354 691.703,258.687 692,234.5C 692.662,233.016 693.496,231.683 694.5,230.5 Z"/></g>
<g><path style="opacity:0.969" fill="#060606" d="M 300.5,1005.5 C 298.035,998.074 296.868,990.408 297,982.5C 284.099,972.936 272.433,961.936 262,949.5C 250.144,929.387 245.644,907.72 248.5,884.5C 226.756,877.417 204.422,873.917 181.5,874C 169.621,872.144 159.454,866.977 151,858.5C 143.15,839.325 149.317,825.825 169.5,818C 176.76,816.509 184.093,815.509 191.5,815C 180.701,812.512 170.368,808.846 160.5,804C 145.784,793.865 141.617,780.698 148,764.5C 150.592,761.238 153.759,758.738 157.5,757C 148.179,748.879 146.012,739.046 151,727.5C 156.494,719.829 163.994,715.329 173.5,714C 179.167,713.333 184.833,713.333 190.5,714C 200.82,716.783 211.154,719.116 221.5,721C 204.108,709.927 200.275,695.427 210,677.5C 213.688,673.572 218.188,671.072 223.5,670C 232.5,669.333 241.5,669.333 250.5,670C 269.904,676.701 287.904,686.035 304.5,698C 317.937,709.098 331.104,720.598 344,732.5C 360.486,752.122 374.486,773.456 386,796.5C 391.545,816.571 397.211,836.571 403,856.5C 404.409,863.436 405.242,870.436 405.5,877.5C 409.939,877.754 414.272,878.588 418.5,880C 421.228,882.392 424.228,884.392 427.5,886C 461.475,912.32 495.808,938.153 530.5,963.5C 544.967,970.972 559.967,972.138 575.5,967C 572.699,958.266 571.365,949.266 571.5,940C 571.706,931.106 572.539,922.273 574,913.5C 574.792,911.413 575.959,909.579 577.5,908C 598.507,895.996 620.84,887.33 644.5,882C 663.5,879.525 682.5,877.025 701.5,874.5C 704.449,875.302 707.449,875.636 710.5,875.5C 710.76,870.405 710.76,865.405 710.5,860.5C 712.102,855.221 712.936,849.888 713,844.5C 700.963,838.041 689.129,831.208 677.5,824C 655.836,804.186 642.336,779.686 637,750.5C 626.344,696.394 637.511,647.394 670.5,603.5C 676.319,598.182 681.985,592.682 687.5,587C 696.679,579.502 707.012,574.168 718.5,571C 722.66,569.088 726.66,566.921 730.5,564.5C 731.446,564.987 732.446,565.32 733.5,565.5C 750.693,561.243 767.859,556.91 785,552.5C 785.772,552.645 786.439,552.978 787,553.5C 793.01,551.698 799.177,550.532 805.5,550C 843.264,479.876 892.598,418.876 953.5,367C 977.454,348.704 1002.45,332.037 1028.5,317C 1088.39,287.598 1151.55,268.432 1218,259.5C 1218.33,259.833 1218.67,260.167 1219,260.5C 1294.66,249.778 1369.83,250.278 1444.5,262C 1481.94,269.489 1519.28,277.489 1556.5,286C 1603.17,301.002 1648.51,319.335 1692.5,341C 1714.38,354.44 1736.71,367.107 1759.5,379C 1819.96,424.024 1866.13,480.858 1898,549.5C 1914.94,585.314 1928.1,622.481 1937.5,661C 1938.95,662.565 1940.62,663.898 1942.5,665C 1955.06,669.946 1967.06,675.946 1978.5,683C 2003.43,700.647 2019.6,724.48 2027,754.5C 2038.02,802.307 2032.02,847.973 2009,891.5C 1999.62,906.883 1987.78,920.05 1973.5,931C 1966.77,935.032 1959.77,938.532 1952.5,941.5C 1947.97,985.082 1941.64,1028.42 1933.5,1071.5C 1944.86,1083.7 1955.36,1096.7 1965,1110.5C 1969.56,1120.62 1974.89,1130.28 1981,1139.5C 1987.9,1152.62 1994.23,1165.96 2000,1179.5C 2003.22,1188.48 2003.22,1197.48 2000,1206.5C 1996.14,1214.38 1991.64,1221.88 1986.5,1229C 2008.94,1253.44 2032.11,1277.28 2056,1300.5C 2062.3,1308.14 2068.64,1315.81 2075,1323.5C 2077.41,1330.75 2080.58,1337.58 2084.5,1344C 2084.85,1351.74 2086.52,1359.4 2089.5,1367C 2091.73,1387.84 2088.9,1409.01 2081,1430.5C 2078.02,1436.15 2075.02,1441.82 2072,1447.5C 2065.73,1453.33 2059.9,1459.66 2054.5,1466.5C 2045.97,1473.36 2036.8,1479.36 2027,1484.5C 2026.59,1484.04 2026.09,1483.71 2025.5,1483.5C 2022.86,1483.84 2020.36,1485.18 2018,1487.5C 2017.67,1487.17 2017.33,1486.83 2017,1486.5C 2013.23,1487.56 2009.23,1488.89 2005,1490.5C 2004.59,1490.04 2004.09,1489.71 2003.5,1489.5C 2000.96,1490.12 1998.46,1490.78 1996,1491.5C 1995.59,1491.04 1995.09,1490.71 1994.5,1490.5C 1989.13,1491.41 1983.97,1492.08 1979,1492.5C 1972.53,1491.01 1966.03,1490.01 1959.5,1489.5C 1951.2,1485.9 1942.87,1482.4 1934.5,1479C 1915.44,1470.28 1899.28,1457.78 1886,1441.5C 1881.33,1434.83 1876.67,1428.17 1872,1421.5C 1867.58,1414.89 1863.91,1407.89 1861,1400.5C 1853.74,1394.45 1846.57,1388.28 1839.5,1382C 1839.83,1381.67 1840.17,1381.33 1840.5,1381C 1835.95,1377.11 1831.11,1373.61 1826,1370.5C 1805.08,1407.09 1781.75,1442.09 1756,1475.5C 1755.33,1477.5 1755.33,1479.5 1756,1481.5C 1764.89,1506.77 1769.23,1532.77 1769,1559.5C 1765.93,1595.53 1748.76,1622.37 1717.5,1640C 1712.7,1644.39 1707.03,1647.05 1700.5,1648C 1678.97,1654.33 1657.3,1655 1635.5,1650C 1623.83,1646.33 1612.17,1642.67 1600.5,1639C 1593.76,1635.88 1587.26,1632.38 1581,1628.5C 1589.41,1663.09 1599.08,1697.42 1610,1731.5C 1631.54,1720.33 1654.37,1715.99 1678.5,1718.5C 1684.84,1702.32 1696.5,1692.15 1713.5,1688C 1730.14,1683.76 1746.8,1682.42 1763.5,1684C 1774.74,1672.71 1788.07,1665.05 1803.5,1661C 1823.03,1657.73 1839.2,1663.56 1852,1678.5C 1862.97,1692.09 1871.63,1707.09 1878,1723.5C 1884.98,1745.11 1891.15,1766.94 1896.5,1789C 1896.26,1789.87 1895.93,1790.71 1895.5,1791.5C 1901.59,1816.62 1903.42,1841.96 1901,1867.5C 1893.43,1915.4 1867.93,1928.57 1824.5,1907C 1822.4,1905.23 1820.07,1903.9 1817.5,1903C 1811.24,1896.95 1805.07,1890.78 1799,1884.5C 1780.55,1896.66 1760.38,1901.82 1738.5,1900C 1729.41,1908.43 1719.74,1916.09 1709.5,1923C 1697.78,1933.38 1684.78,1942.04 1670.5,1949C 1669.98,1949.56 1669.64,1950.23 1669.5,1951C 1671.24,1954.48 1673.24,1957.82 1675.5,1961C 1691.85,1966.27 1705.68,1975.43 1717,1988.5C 1719.4,1992.63 1721.24,1996.97 1722.5,2001.5C 1739.28,1997.12 1754.78,2000.45 1769,2011.5C 1769.86,2013.09 1770.53,2014.75 1771,2016.5C 1778.02,2024.18 1783.36,2032.84 1787,2042.5C 1791.56,2058.39 1794.06,2074.22 1794.5,2090C 1793.79,2095.95 1793.13,2101.95 1792.5,2108C 1793.12,2110.64 1792.78,2113.31 1791.5,2116C 1789.93,2154.93 1781.76,2192.43 1767,2228.5C 1760.9,2240.86 1752.73,2251.69 1742.5,2261C 1724.15,2272.63 1706.49,2271.97 1689.5,2259C 1683.66,2252.86 1678.16,2246.36 1673,2239.5C 1668.49,2228.45 1663.82,2217.45 1659,2206.5C 1655.33,2193.84 1651.67,2181.17 1648,2168.5C 1608.49,2175.73 1571.99,2168.23 1538.5,2146C 1518.84,2129.35 1503.34,2109.51 1492,2086.5C 1454.71,2075.96 1418.54,2062.46 1383.5,2046C 1370.92,2038.91 1357.92,2032.58 1344.5,2027C 1334.18,2019.17 1323.51,2011.84 1312.5,2005C 1301.07,1994.9 1289.07,1985.57 1276.5,1977C 1239.27,1943.13 1209.77,1903.63 1188,1858.5C 1178.3,1842.96 1168.8,1827.3 1159.5,1811.5C 1123.7,1743.9 1085.87,1677.56 1046,1612.5C 1001.98,1600.67 961.48,1581.34 924.5,1554.5C 865.787,1509.68 819.287,1454.68 785,1389.5C 746.035,1312.73 721.535,1232.73 711.5,1149.5C 709.61,1149.3 708.11,1149.96 707,1151.5C 689.741,1158.05 672.241,1164.88 654.5,1172C 633.765,1178.01 613.098,1184.01 592.5,1190C 560.834,1197.05 529.167,1197.05 497.5,1190C 457.953,1174.91 422.62,1153.24 391.5,1125C 377.712,1107.21 363.546,1089.71 349,1072.5C 333.302,1049.75 317.135,1027.41 300.5,1005.5 Z M 1679.5,1553.5 C 1684.48,1566.33 1680.48,1570.16 1667.5,1565C 1672.08,1561.59 1676.08,1557.75 1679.5,1553.5 Z"/></g>
<g><path style="opacity:1" fill="#fdfdfd" d="M 1804.5,432.5 C 1806.43,436.1 1809.1,439.1 1812.5,441.5C 1827.39,456.387 1840.39,472.721 1851.5,490.5C 1851.63,491.239 1851.46,491.906 1851,492.5C 1822.04,463.47 1788.21,455.97 1749.5,470C 1729.04,477.468 1711.54,489.301 1697,505.5C 1684.07,523.775 1673.74,543.441 1666,564.5C 1663.74,575.797 1661.74,587.13 1660,598.5C 1660.29,639.781 1663.96,680.781 1671,721.5C 1673.95,762.601 1677.95,803.601 1683,844.5C 1685.65,897.901 1684.65,951.235 1680,1004.5C 1677.03,1032.91 1673.53,1061.24 1669.5,1089.5C 1655.22,1088.2 1640.89,1087.36 1626.5,1087C 1323.22,1055.84 1019.89,1025.34 716.5,995.5C 716.333,971.498 716.5,947.498 717,923.5C 721.27,885.874 725.103,848.207 728.5,810.5C 730.316,804.629 731.816,798.629 733,792.5C 733.497,789.854 733.664,787.187 733.5,784.5C 733.833,781.833 734.167,779.167 734.5,776.5C 736.956,772.262 737.956,767.596 737.5,762.5C 762.713,644.898 812.879,539.565 888,446.5C 921.939,406.877 960.439,372.71 1003.5,344C 1019.38,334.224 1035.72,325.224 1052.5,317C 1065.8,312.52 1078.8,307.187 1091.5,301C 1107.9,295.868 1124.23,290.535 1140.5,285C 1154.45,281.786 1168.45,278.786 1182.5,276C 1198.96,274.441 1215.29,272.108 1231.5,269C 1251.9,267.614 1272.23,265.614 1292.5,263C 1342.02,262.768 1391.36,265.768 1440.5,272C 1477.17,279.668 1513.84,287.334 1550.5,295C 1594.71,308.94 1637.71,325.94 1679.5,346C 1703.67,360.253 1728,374.253 1752.5,388C 1770.84,401.667 1788.17,416.5 1804.5,432.5 Z"/></g>
<g><path style="opacity:1" fill="#080706" d="M 1295.5,1003.5 C 1290.07,1001.99 1284.4,1001.32 1278.5,1001.5C 1273.4,1000.04 1268.07,999.376 1262.5,999.5C 1253.47,998.781 1244.47,997.781 1235.5,996.5C 1226.7,994.944 1217.7,993.944 1208.5,993.5C 1200.15,993.457 1191.82,993.124 1183.5,992.5C 1173.36,991.137 1163.03,990.47 1152.5,990.5C 1069.97,981.58 987.299,973.58 904.5,966.5C 900.433,964.946 896.1,964.28 891.5,964.5C 864.216,961.003 836.882,957.836 809.5,955C 797.333,952.639 785.333,949.639 773.5,946C 758.773,938.417 750.606,926.25 749,909.5C 750.26,879.068 753.26,848.734 758,818.5C 760.86,803.392 764.194,788.392 768,773.5C 770.394,755.92 774.061,738.587 779,721.5C 807.13,630.568 849.463,547.235 906,471.5C 916.824,458.676 928.324,446.51 940.5,435C 946.477,431.021 951.81,426.354 956.5,421C 1001.96,390.593 1050.29,365.259 1101.5,345C 1118.92,340.646 1136.25,335.979 1153.5,331C 1194.53,325.332 1235.53,325.332 1276.5,331C 1293.53,334.241 1310.53,337.575 1327.5,341C 1346.76,345.631 1365.42,351.964 1383.5,360C 1401.86,369.845 1420.52,379.178 1439.5,388C 1456.52,399.51 1473.19,411.51 1489.5,424C 1523.68,456.153 1552.52,492.32 1576,532.5C 1592.78,562.401 1607.12,593.401 1619,625.5C 1625.74,647.629 1631.74,669.962 1637,692.5C 1639.51,713.374 1643.17,734.04 1648,754.5C 1650.47,772.113 1652.47,789.78 1654,807.5C 1655.4,848.645 1655.9,889.645 1655.5,930.5C 1655.11,946.403 1652.94,962.07 1649,977.5C 1641.5,998.333 1627.33,1012.5 1606.5,1020C 1592.62,1024.06 1578.45,1026.23 1564,1026.5C 1506.42,1025.38 1449.09,1021.05 1392,1013.5C 1390.29,1013.65 1388.63,1013.98 1387,1014.5C 1356.41,1011.38 1325.91,1007.71 1295.5,1003.5 Z"/></g>
<g><path style="opacity:1" fill="#a0d9fd" d="M 1202.5,336.5 C 1229.43,335.63 1256.1,337.797 1282.5,343C 1251.06,344.566 1220.06,348.899 1189.5,356C 1156.59,367.969 1124.26,381.302 1092.5,396C 1075.67,406.585 1058.67,416.918 1041.5,427C 1024.88,440.273 1008.22,453.606 991.5,467C 963.515,492.628 939.682,521.462 920,553.5C 913.556,567.868 906.556,581.868 899,595.5C 896.155,601.696 895.989,607.863 898.5,614C 885.643,623.185 876.143,635.018 870,649.5C 866.354,658.741 866.854,667.741 871.5,676.5C 862.121,686.266 853.955,696.933 847,708.5C 841.785,718.973 840.118,729.973 842,741.5C 824.305,756.881 815.972,776.215 817,799.5C 817.78,802.512 818.947,805.345 820.5,808C 811.557,817.717 805.057,828.883 801,841.5C 799.366,849.72 800.866,857.22 805.5,864C 798.338,872.485 792.838,881.985 789,892.5C 786.501,902.676 789.335,910.843 797.5,917C 793.494,923.852 790.16,931.019 787.5,938.5C 772.22,937.224 763.053,928.891 760,913.5C 759.946,880.254 762.946,847.254 769,814.5C 775.541,784.126 782.208,753.793 789,723.5C 816.453,633.922 858.12,551.922 914,477.5C 925.167,465.667 936.333,453.833 947.5,442C 953.633,437.699 959.3,432.866 964.5,427.5C 1007.79,398.541 1053.79,374.374 1102.5,355C 1121.86,350.128 1141.19,345.128 1160.5,340C 1174.6,338.207 1188.6,337.04 1202.5,336.5 Z"/></g>
<g><path style="opacity:1" fill="#e597b9" d="M 1037.5,470.5 C 1036.55,471.919 1036.22,473.585 1036.5,475.5C 1035.21,475.263 1034.21,475.596 1033.5,476.5C 1020.14,477.561 1008.14,482.061 997.5,490C 993.631,493.534 990.131,497.367 987,501.5C 985.898,505.416 985.231,509.416 985,513.5C 974.584,516.793 964.75,521.293 955.5,527C 949.535,531.959 944.702,537.792 941,544.5C 940.457,549.243 940.457,553.91 941,558.5C 935.105,561.237 929.605,564.571 924.5,568.5C 924.167,568.333 923.833,568.167 923.5,568C 935.061,547.704 948.228,528.537 963,510.5C 981.506,491.328 1000.67,472.828 1020.5,455C 1082.81,407.355 1152.47,375.021 1229.5,358C 1254.89,354.552 1280.39,352.385 1306,351.5C 1321.62,351.284 1336.79,353.451 1351.5,358C 1362.5,362.333 1373.5,366.667 1384.5,371C 1399.45,380.308 1415.11,388.308 1431.5,395C 1458.26,410.741 1482.42,429.908 1504,452.5C 1512.23,461.312 1520.23,470.312 1528,479.5C 1563.57,527.164 1591.57,579.164 1612,635.5C 1617.21,654.798 1622.21,674.131 1627,693.5C 1630.94,718.884 1635.28,744.217 1640,769.5C 1641.4,781.822 1642.73,794.155 1644,806.5C 1645.55,847.486 1645.89,888.486 1645,929.5C 1644.94,938.932 1644.11,948.266 1642.5,957.5C 1612.79,961.328 1583.79,958.161 1555.5,948C 1547.58,944.803 1539.58,941.803 1531.5,939C 1528.83,937.999 1526.49,936.499 1524.5,934.5C 1533.53,922.641 1542.36,910.641 1551,898.5C 1573.47,853.555 1591.47,806.888 1605,758.5C 1606,749.312 1607.84,740.312 1610.5,731.5C 1609.5,727.164 1606.83,725.664 1602.5,727C 1601.3,727.903 1600.47,729.069 1600,730.5C 1596.17,755.811 1589.84,780.478 1581,804.5C 1572.39,824.719 1564.06,845.053 1556,865.5C 1550.57,876.688 1544.91,887.688 1539,898.5C 1531.95,907.218 1525.28,916.218 1519,925.5C 1516.15,929.141 1512.99,929.308 1509.5,926C 1499.27,918.933 1490.93,910.1 1484.5,899.5C 1494.74,882.033 1505.24,864.7 1516,847.5C 1550.59,784.137 1566.76,716.637 1564.5,645C 1561.65,644.056 1559.15,644.556 1557,646.5C 1555.2,678.844 1548.53,710.178 1537,740.5C 1526.57,769.393 1511.07,795.059 1490.5,817.5C 1480.27,825.866 1468.93,828.033 1456.5,824C 1455.64,823.311 1454.98,822.478 1454.5,821.5C 1526.95,738.58 1545.62,644.747 1510.5,540C 1501.59,513.343 1490.09,487.843 1476,463.5C 1459.83,440.667 1440.33,421.167 1417.5,405C 1392.5,392.503 1366.17,384.837 1338.5,382C 1321.57,386.131 1306.24,393.464 1292.5,404C 1271.01,421.476 1254.01,442.476 1241.5,467C 1230.45,465.234 1220.29,461.067 1211,454.5C 1212.04,449.728 1213.7,445.061 1216,440.5C 1224.51,427.001 1234.34,414.501 1245.5,403C 1258.38,391.129 1273.05,382.129 1289.5,376C 1292.21,374.136 1293.04,371.636 1292,368.5C 1290.87,367.056 1289.37,366.39 1287.5,366.5C 1267.89,373.289 1250.72,383.956 1236,398.5C 1224.53,391.881 1212.7,391.047 1200.5,396C 1195.9,400.263 1191.73,404.763 1188,409.5C 1177.4,405.517 1166.57,404.684 1155.5,407C 1145.84,410.994 1140.34,418.161 1139,428.5C 1130.64,426.523 1122.14,426.023 1113.5,427C 1102.53,429.125 1096.86,435.625 1096.5,446.5C 1077.72,445.821 1060.39,450.321 1044.5,460C 1041.26,463.001 1038.93,466.501 1037.5,470.5 Z"/></g>
<g><path style="opacity:1" fill="#edab3a" d="M 1539.5,760.5 C 1539.83,760.5 1540.17,760.5 1540.5,760.5C 1527.46,806.578 1506.96,848.912 1479,887.5C 1475.85,892.098 1474.19,897.098 1474,902.5C 1489.37,924.527 1509.54,940.694 1534.5,951C 1564.1,963.321 1594.94,969.487 1627,969.5C 1631.53,969.404 1636.03,969.07 1640.5,968.5C 1635.7,987.098 1624.7,1000.6 1607.5,1009C 1590.43,1014.48 1572.93,1016.98 1555,1016.5C 1479.39,1011.86 1403.89,1005.7 1328.5,998C 1317.36,995.274 1306.03,993.774 1294.5,993.5C 1290.43,991.946 1286.1,991.28 1281.5,991.5C 1275.06,989.961 1268.4,989.294 1261.5,989.5C 1252.82,988.499 1244.15,987.499 1235.5,986.5C 1229.73,985.054 1223.73,984.388 1217.5,984.5C 1209.52,983.724 1201.52,983.39 1193.5,983.5C 1183.69,982.261 1173.69,981.594 1163.5,981.5C 1152.94,979.764 1142.27,978.764 1131.5,978.5C 1125.73,977.054 1119.73,976.388 1113.5,976.5C 1100.47,975.413 1087.47,974.08 1074.5,972.5C 1066.06,970.697 1057.4,969.697 1048.5,969.5C 1036.34,968.592 1024.34,967.592 1012.5,966.5C 1003.74,964.548 994.743,963.548 985.5,963.5C 980.507,963.084 975.507,962.751 970.5,962.5C 961.379,960.942 952.046,960.275 942.5,960.5C 930.335,959.301 918.335,957.968 906.5,956.5C 899.473,954.221 892.139,953.221 884.5,953.5C 855.403,950.486 826.403,946.819 797.5,942.5C 799.426,935.974 801.926,929.641 805,923.5C 809.62,917.229 813.787,910.729 817.5,904C 816.472,899.794 813.805,898.461 809.5,900C 807.667,902.5 805.833,905 804,907.5C 801.512,908.412 799.845,907.412 799,904.5C 798.333,901.167 798.333,897.833 799,894.5C 801.554,887.724 804.887,881.391 809,875.5C 814.766,869.904 820.266,864.237 825.5,858.5C 824.732,855.438 822.732,853.772 819.5,853.5C 817.523,854.46 815.523,855.46 813.5,856.5C 812.914,856.291 812.414,855.957 812,855.5C 810.466,851.289 810.133,846.956 811,842.5C 817.493,826.33 827.493,812.663 841,801.5C 841.843,795.808 839.343,793.641 833.5,795C 831.667,796.833 829.833,798.667 828,800.5C 825.192,789.994 826.525,779.994 832,770.5C 840.59,756.245 851.59,744.245 865,734.5C 865.718,730.541 864.051,728.208 860,727.5C 857.107,728.711 854.44,730.378 852,732.5C 851.18,724.948 852.847,717.948 857,711.5C 865.78,696.379 877.114,683.379 891,672.5C 891.993,666.498 889.493,664.332 883.5,666C 882.315,667.353 880.981,668.52 879.5,669.5C 877.579,665.711 877.079,661.711 878,657.5C 882.66,644.162 890.494,632.996 901.5,624C 907.333,620.167 913.167,616.333 919,612.5C 920.668,606.507 918.502,604.007 912.5,605C 910.833,606.167 909.167,607.333 907.5,608.5C 907.167,607.5 906.833,606.5 906.5,605.5C 907.935,599.963 910.435,594.963 914,590.5C 920.207,584.625 926.707,579.125 933.5,574C 941.464,569.435 949.63,565.268 958,561.5C 959.295,555.123 956.628,552.123 950,552.5C 949.541,549.07 950.541,546.07 953,543.5C 959.05,536.784 966.216,531.617 974.5,528C 982.818,524.992 991.151,522.326 999.5,520C 1001.49,516.016 1000.49,513.183 996.5,511.5C 995.369,509.926 995.202,508.259 996,506.5C 999.878,500.955 1004.71,496.455 1010.5,493C 1024.31,487.526 1038.64,484.859 1053.5,485C 1056.75,478.722 1054.75,475.555 1047.5,475.5C 1047.55,470.593 1049.88,467.093 1054.5,465C 1063.51,460.164 1073.18,457.664 1083.5,457.5C 1092.01,457.14 1100.34,456.473 1108.5,455.5C 1110.24,454.359 1111.24,452.692 1111.5,450.5C 1110.05,447.878 1108.38,445.378 1106.5,443C 1108.03,439.56 1110.7,437.56 1114.5,437C 1119.09,435.607 1123.76,435.274 1128.5,436C 1137.05,438.694 1145.72,440.36 1154.5,441C 1156.19,439.087 1156.69,436.92 1156,434.5C 1153.05,432.225 1150.89,429.391 1149.5,426C 1149.86,424.775 1150.36,423.609 1151,422.5C 1157.34,415.703 1165.17,413.536 1174.5,416C 1180.9,417.199 1186.9,419.532 1192.5,423C 1197.07,424.65 1199.73,423.15 1200.5,418.5C 1198.49,411.291 1201.16,406.457 1208.5,404C 1213.83,403.333 1219.17,403.333 1224.5,404C 1225.83,404.667 1227.17,405.333 1228.5,406C 1215.24,420.62 1205.24,437.287 1198.5,456C 1199.1,457.605 1200.1,458.938 1201.5,460C 1214.06,469.029 1227.89,475.195 1243,478.5C 1245.03,478.646 1246.7,477.98 1248,476.5C 1264.75,440.421 1290.91,413.588 1326.5,396C 1335.92,392.16 1345.59,391.494 1355.5,394C 1404.77,402.636 1441.94,428.47 1467,471.5C 1474.92,482.317 1481.58,493.984 1487,506.5C 1503.58,543.504 1513.92,582.171 1518,622.5C 1519.93,698.426 1494.93,763.76 1443,818.5C 1442.33,820.5 1442.33,822.5 1443,824.5C 1450.76,834.629 1460.93,838.462 1473.5,836C 1488.34,831.831 1500.5,823.664 1510,811.5C 1521.36,795.454 1531.19,778.454 1539.5,760.5 Z"/></g>
<g><path style="opacity:0.98" fill="#a2dbff" d="M 556.5,426.5 C 559.099,426.549 561.266,427.549 563,429.5C 562.938,446.846 566.605,463.512 574,479.5C 578.103,485.632 583.603,489.965 590.5,492.5C 594.112,498.445 592.445,501.945 585.5,503C 582.5,505.5 579.5,508 576.5,510.5C 570.594,520.383 566.76,531.049 565,542.5C 563.75,549.881 563.083,557.215 563,564.5C 559.667,568.5 556.333,568.5 553,564.5C 552.94,549.519 550.273,534.852 545,520.5C 541.573,510.905 535.073,504.572 525.5,501.5C 521.888,495.555 523.555,492.055 530.5,491C 533.5,488.5 536.5,486 539.5,483.5C 545.406,473.617 549.24,462.951 551,451.5C 552.25,444.119 552.917,436.785 553,429.5C 554.145,428.364 555.312,427.364 556.5,426.5 Z"/></g>
<g><path style="opacity:1" fill="#9a9a9a" d="M 1804.5,432.5 C 1807.9,434.9 1810.57,437.9 1812.5,441.5C 1809.1,439.1 1806.43,436.1 1804.5,432.5 Z"/></g>
<g><path style="opacity:1" fill="#553e18" d="M 1108.5,455.5 C 1100.34,456.473 1092.01,457.14 1083.5,457.5C 1091.6,455.769 1099.93,455.102 1108.5,455.5 Z"/></g>
<g><path style="opacity:1" fill="#d5d5d5" d="M 1851.5,490.5 C 1881.95,535.075 1904.62,583.408 1919.5,635.5C 1919.41,638.152 1920.08,640.485 1921.5,642.5C 1921.41,645.152 1922.08,647.485 1923.5,649.5C 1924.1,652.041 1924.1,654.374 1923.5,656.5C 1903.89,646.363 1883.55,637.863 1862.5,631C 1826.72,624.692 1795.72,634.026 1769.5,659C 1738.87,690.102 1720.37,727.269 1714,770.5C 1705.66,820.864 1713.33,868.531 1737,913.5C 1762.51,956.036 1800.18,975.036 1850,970.5C 1877.97,969.108 1905.81,966.274 1933.5,962C 1935.68,961.837 1937.51,961.004 1939,959.5C 1939.05,968.863 1938.38,978.196 1937,987.5C 1932.39,1013.48 1927.89,1039.48 1923.5,1065.5C 1876.78,1025.75 1823.78,1014.58 1764.5,1032C 1748.88,1038.22 1734.38,1046.39 1721,1056.5C 1711.14,1067.72 1701.64,1079.22 1692.5,1091C 1684.76,1091.43 1677.1,1090.93 1669.5,1089.5C 1673.53,1061.24 1677.03,1032.91 1680,1004.5C 1684.65,951.235 1685.65,897.901 1683,844.5C 1677.95,803.601 1673.95,762.601 1671,721.5C 1663.96,680.781 1660.29,639.781 1660,598.5C 1661.74,587.13 1663.74,575.797 1666,564.5C 1673.74,543.441 1684.07,523.775 1697,505.5C 1711.54,489.301 1729.04,477.468 1749.5,470C 1788.21,455.97 1822.04,463.47 1851,492.5C 1851.46,491.906 1851.63,491.239 1851.5,490.5 Z"/></g>
<g><path style="opacity:1" fill="#7e585e" d="M 1037.5,470.5 C 1037.5,472.5 1037.5,474.5 1037.5,476.5C 1036.17,476.5 1034.83,476.5 1033.5,476.5C 1034.21,475.596 1035.21,475.263 1036.5,475.5C 1036.22,473.585 1036.55,471.919 1037.5,470.5 Z"/></g>
<g><path style="opacity:1" fill="#030200" d="M 1039.5,515.5 C 1065.09,515.398 1089.09,521.564 1111.5,534C 1131.55,543.706 1149.05,556.873 1164,573.5C 1168.06,579.236 1171.73,585.236 1175,591.5C 1177.39,597.837 1176.72,603.837 1173,609.5C 1168.86,612.772 1164.36,613.272 1159.5,611C 1131.23,586.57 1098.23,574.57 1060.5,575C 1047.83,574.723 1035.16,574.723 1022.5,575C 1012.68,567.418 1013.34,560.751 1024.5,555C 1031.1,551.601 1038.1,549.601 1045.5,549C 1055.83,548.667 1066.17,548.333 1076.5,548C 1061.87,544.118 1047.2,540.452 1032.5,537C 1025.91,532.207 1024.91,526.54 1029.5,520C 1032.89,518.38 1036.23,516.88 1039.5,515.5 Z"/></g>
<g><path style="opacity:1" fill="#020100" d="M 1346.5,529.5 C 1357.39,528.863 1368.06,530.03 1378.5,533C 1386.22,542.932 1383.88,549.598 1371.5,553C 1360.7,554.355 1350.04,556.355 1339.5,559C 1358.57,559.173 1376.91,562.84 1394.5,570C 1401.59,575.741 1402.26,582.074 1396.5,589C 1393.79,590.872 1390.79,591.705 1387.5,591.5C 1359.87,588.342 1332.2,587.842 1304.5,590C 1279.42,594.913 1255.76,603.58 1233.5,616C 1226.94,617.583 1221.78,615.75 1218,610.5C 1216.58,607.97 1216.25,605.303 1217,602.5C 1220.43,592.394 1226.26,583.894 1234.5,577C 1268,552.083 1305.33,536.25 1346.5,529.5 Z"/></g>
<g><path style="opacity:1" fill="#fcfcfc" d="M 779.5,605.5 C 743.064,606.853 707.398,612.853 672.5,623.5C 671.702,623.043 671.369,622.376 671.5,621.5C 681.818,605.349 695.485,592.849 712.5,584C 741.863,575.318 771.363,567.485 801,560.5C 793.344,575.149 786.177,590.149 779.5,605.5 Z"/></g>
<g><path style="opacity:1" fill="#050302" d="M 1305.5,604.5 C 1311.48,606.27 1317.48,608.27 1323.5,610.5C 1347.1,620.411 1361.76,637.745 1367.5,662.5C 1368.33,669.131 1368.66,675.798 1368.5,682.5C 1368.17,685.167 1367.83,687.833 1367.5,690.5C 1368.5,690.5 1369.5,690.5 1370.5,690.5C 1372.51,691.924 1374.85,692.59 1377.5,692.5C 1386.81,694.83 1396.15,697.164 1405.5,699.5C 1405.5,701.167 1405.5,702.833 1405.5,704.5C 1402.15,704.665 1398.82,704.498 1395.5,704C 1385.88,701.011 1376.21,698.178 1366.5,695.5C 1364.97,695.529 1363.8,696.196 1363,697.5C 1361.61,702.6 1359.45,707.267 1356.5,711.5C 1354.41,712.585 1353.08,714.251 1352.5,716.5C 1351.23,717.077 1351.23,717.743 1352.5,718.5C 1364.5,725.165 1376.17,732.332 1387.5,740C 1389.23,741.789 1389.9,743.956 1389.5,746.5C 1387.8,746.66 1386.13,746.494 1384.5,746C 1372.07,738.567 1359.9,730.734 1348,722.5C 1342.23,728.267 1336.4,734.1 1330.5,740C 1309.11,751.627 1286.77,753.627 1263.5,746C 1250.03,739.619 1239.2,730.119 1231,717.5C 1229.63,738.802 1222.46,757.802 1209.5,774.5C 1217.42,777.594 1225.76,779.761 1234.5,781C 1275.46,792.203 1313.79,809.203 1349.5,832C 1360.83,841.333 1372.17,850.667 1383.5,860C 1403.72,879.537 1420.88,901.37 1435,925.5C 1439.5,944.667 1432.67,950.5 1414.5,943C 1397.69,933.427 1380.69,924.094 1363.5,915C 1355.3,910.71 1346.63,908.043 1337.5,907C 1324.5,901.996 1311,899.83 1297,900.5C 1286.51,901.061 1276.01,901.394 1265.5,901.5C 1252.92,901.784 1240.58,903.117 1228.5,905.5C 1182.44,911.547 1137.11,908.047 1092.5,895C 1076.66,889.035 1060.66,883.368 1044.5,878C 1037.26,876.294 1029.93,875.127 1022.5,874.5C 1015.05,874.623 1008.05,876.457 1001.5,880C 988.32,889.758 975.32,899.758 962.5,910C 947.912,913.279 941.412,907.446 943,892.5C 944.715,886.736 946.715,881.07 949,875.5C 985.849,812.522 1040.68,777.189 1113.5,769.5C 1112.08,767.664 1110.91,765.664 1110,763.5C 1108.53,758.095 1106.86,752.761 1105,747.5C 1103.76,741.341 1103.26,735.341 1103.5,729.5C 1095.18,730.124 1086.85,730.457 1078.5,730.5C 1078.17,730.5 1077.83,730.5 1077.5,730.5C 1075.09,729.232 1072.43,728.565 1069.5,728.5C 1051.68,722.685 1039.35,711.018 1032.5,693.5C 1030.31,692.561 1028.31,692.895 1026.5,694.5C 1021.61,695.796 1016.94,697.462 1012.5,699.5C 1007.58,700.559 1002.92,702.226 998.5,704.5C 994.733,703.59 993.733,701.424 995.5,698C 1006.34,692.747 1017.68,688.913 1029.5,686.5C 1027.2,677.319 1026.2,667.986 1026.5,658.5C 1015.12,659.983 1003.78,661.65 992.5,663.5C 984.904,661.836 984.571,659.003 991.5,655C 1002.74,653.017 1014.07,651.683 1025.5,651C 1030.5,625.333 1044.16,605.666 1066.5,592C 1108,578.655 1138.83,591.488 1159,630.5C 1160.28,634.84 1161.45,639.173 1162.5,643.5C 1169.9,641.637 1177.23,639.47 1184.5,637C 1199.8,634.905 1211.97,640.072 1221,652.5C 1232.27,620.927 1254.77,604.594 1288.5,603.5C 1294.17,603.797 1299.84,604.13 1305.5,604.5 Z"/></g>
<g><path style="opacity:1" fill="#fbfbfb" d="M 1150.5,640.5 C 1150.41,643.152 1151.08,645.485 1152.5,647.5C 1153.63,648.858 1153.63,650.192 1152.5,651.5C 1134.75,664.409 1121.25,680.742 1112,700.5C 1109.57,706.007 1107.74,711.674 1106.5,717.5C 1103.54,718.159 1100.54,718.492 1097.5,718.5C 1090.83,718.666 1084.16,718.5 1077.5,718C 1074.65,716.57 1071.65,715.737 1068.5,715.5C 1058,711.503 1050.17,704.503 1045,694.5C 1029.84,661.966 1035.34,633.466 1061.5,609C 1077.95,596.799 1095.95,594.133 1115.5,601C 1133.02,609.021 1144.69,622.188 1150.5,640.5 Z"/></g>
<g><path style="opacity:1" fill="#d5d5d5" d="M 779.5,605.5 C 769.373,630.434 759.206,655.434 749,680.5C 744.468,695.096 740.135,709.763 736,724.5C 732.664,737.015 730.164,749.681 728.5,762.5C 727.232,764.905 726.565,767.572 726.5,770.5C 726.5,771.167 726.5,771.833 726.5,772.5C 724.96,774.838 724.294,777.505 724.5,780.5C 721.326,798.196 717.993,815.863 714.5,833.5C 699.345,826.51 685.845,817.177 674,805.5C 665.334,794.154 658.334,781.821 653,768.5C 645.18,741.299 642.847,713.632 646,685.5C 649.851,662.159 658.351,640.825 671.5,621.5C 671.369,622.376 671.702,623.043 672.5,623.5C 707.398,612.853 743.064,606.853 779.5,605.5 Z"/></g>
<g><path style="opacity:1" fill="#b9862e" d="M 1305.5,604.5 C 1312.74,603.649 1318.74,605.649 1323.5,610.5C 1317.48,608.27 1311.48,606.27 1305.5,604.5 Z"/></g>
<g><path style="opacity:1" fill="#fcfcfc" d="M 1353.5,655.5 C 1356.66,666.293 1357.32,677.293 1355.5,688.5C 1342.45,721.017 1318.28,738.351 1283,740.5C 1265.78,737.943 1252.12,729.61 1242,715.5C 1239.54,711.566 1237.37,707.566 1235.5,703.5C 1235.74,701.102 1235.07,699.102 1233.5,697.5C 1230.07,688.211 1228.4,678.544 1228.5,668.5C 1228.54,665.415 1228.88,662.415 1229.5,659.5C 1231.41,655.767 1232.74,651.767 1233.5,647.5C 1242.17,629.468 1256.5,618.634 1276.5,615C 1304.57,611.241 1327.73,620.074 1346,641.5C 1349.29,645.744 1351.79,650.41 1353.5,655.5 Z"/></g>
<g><path style="opacity:1" fill="#040404" d="M 1075.5,623.5 C 1099.59,621.303 1108.42,631.97 1102,655.5C 1092.49,670.666 1079.99,673.5 1064.5,664C 1055.7,650.915 1056.7,638.581 1067.5,627C 1070.31,625.907 1072.98,624.74 1075.5,623.5 Z"/></g>
<g><path style="opacity:1" fill="#030304" d="M 1266.5,635.5 C 1290.6,633.334 1299.44,644.001 1293,667.5C 1283.54,682.652 1271.04,685.486 1255.5,676C 1246.7,662.915 1247.7,650.581 1258.5,639C 1261.31,637.907 1263.98,636.74 1266.5,635.5 Z"/></g>
<g><path style="opacity:1" fill="#6f6f6f" d="M 1919.5,635.5 C 1920.92,637.515 1921.59,639.848 1921.5,642.5C 1920.08,640.485 1919.41,638.152 1919.5,635.5 Z"/></g>
<g><path style="opacity:1" fill="#fdfdfd" d="M 1946.5,677.5 C 1946.35,680.85 1944.52,682.516 1941,682.5C 1937.77,682.303 1934.94,681.303 1932.5,679.5C 1932.42,678.25 1931.76,677.417 1930.5,677C 1926.17,676.333 1921.83,676.333 1917.5,677C 1890.09,686.915 1869.76,704.748 1856.5,730.5C 1846.67,725.422 1836.67,720.588 1826.5,716C 1803.02,707.675 1779.68,699.509 1756.5,691.5C 1766.98,674.853 1780.65,661.353 1797.5,651C 1802.95,647.938 1808.62,645.438 1814.5,643.5C 1817.43,643.435 1820.09,642.768 1822.5,641.5C 1840.44,637.966 1858.11,639.132 1875.5,645C 1898.89,656.362 1922.56,667.195 1946.5,677.5 Z"/></g>
<g><path style="opacity:1" fill="#878787" d="M 1822.5,641.5 C 1820.09,642.768 1817.43,643.435 1814.5,643.5C 1816.84,641.96 1819.5,641.294 1822.5,641.5 Z"/></g>
<g><path style="opacity:1" fill="#9b958c" d="M 1150.5,640.5 C 1151.92,642.515 1152.59,644.848 1152.5,647.5C 1151.08,645.485 1150.41,643.152 1150.5,640.5 Z"/></g>
<g><path style="opacity:1" fill="#767676" d="M 1921.5,642.5 C 1922.92,644.515 1923.59,646.848 1923.5,649.5C 1922.08,647.485 1921.41,645.152 1921.5,642.5 Z"/></g>
<g><path style="opacity:1" fill="#e697ba" d="M 1187.5,646.5 C 1201.61,646.428 1211.77,652.761 1218,665.5C 1218.69,677.229 1219.86,688.895 1221.5,700.5C 1222.75,725.504 1216.25,748.171 1202,768.5C 1194.74,775.881 1186.24,781.381 1176.5,785C 1159.14,788.198 1143.47,784.531 1129.5,774C 1121.45,766.219 1116.62,756.719 1115,745.5C 1114.12,736.438 1114.45,727.438 1116,718.5C 1123.99,694.848 1137.82,675.348 1157.5,660C 1166.98,654.09 1176.98,649.59 1187.5,646.5 Z"/></g>
<g><path style="opacity:1" fill="#bdb9b2" d="M 1233.5,647.5 C 1232.74,651.767 1231.41,655.767 1229.5,659.5C 1229.86,655.085 1231.19,651.085 1233.5,647.5 Z"/></g>
<g><path style="opacity:1" fill="#606060" d="M 1923.5,649.5 C 1925.38,651.915 1925.71,654.582 1924.5,657.5C 1923.89,657.376 1923.56,657.043 1923.5,656.5C 1924.1,654.374 1924.1,652.041 1923.5,649.5 Z"/></g>
<g><path style="opacity:1" fill="#99702a" d="M 1367.5,662.5 C 1369.05,666.034 1369.71,669.867 1369.5,674C 1369.5,677.021 1369.16,679.854 1368.5,682.5C 1368.66,675.798 1368.33,669.131 1367.5,662.5 Z"/></g>
<g><path style="opacity:1" fill="#b7b3ad" d="M 1353.5,655.5 C 1355.13,657.858 1356.3,660.524 1357,663.5C 1357.58,667.824 1358.08,672.157 1358.5,676.5C 1358.5,680.882 1357.5,684.882 1355.5,688.5C 1357.32,677.293 1356.66,666.293 1353.5,655.5 Z"/></g>
<g><path style="opacity:1" fill="#d4d4d4" d="M 1946.5,677.5 C 1956.71,683.538 1967.04,689.372 1977.5,695C 1997.61,712.142 2010.78,733.642 2017,759.5C 2028.36,810.044 2019.69,856.71 1991,899.5C 1973.2,922.651 1949.7,934.484 1920.5,935C 1912.21,934.126 1904.54,931.459 1897.5,927C 1881.37,915.87 1869.21,901.37 1861,883.5C 1853.33,862.826 1848.83,841.493 1847.5,819.5C 1847.68,805.683 1849.01,792.016 1851.5,778.5C 1856.24,754.428 1866.07,732.762 1881,713.5C 1891.69,701.569 1904.53,692.736 1919.5,687C 1923.17,686.667 1926.83,686.333 1930.5,686C 1932.23,684.211 1932.9,682.044 1932.5,679.5C 1934.94,681.303 1937.77,682.303 1941,682.5C 1944.52,682.516 1946.35,680.85 1946.5,677.5 Z"/></g>
<g><path style="opacity:1" fill="#fcfcfc" d="M 381.5,823.5 C 381.288,827.345 382.288,830.679 384.5,833.5C 388.68,848.206 392.347,863.04 395.5,878C 394.148,885.392 391.981,892.559 389,899.5C 377.606,922.892 361.773,942.725 341.5,959C 330.399,967.032 318.066,971.699 304.5,973C 298.855,968.695 293.188,964.362 287.5,960C 282.801,954.821 277.968,949.655 273,944.5C 261,923.842 257,901.842 261,878.5C 259.955,877.627 259.122,876.627 258.5,875.5C 256.095,874.232 253.428,873.565 250.5,873.5C 244.28,871.19 237.947,869.023 231.5,867C 214.244,863.843 196.911,861.676 179.5,860.5C 177.898,858.926 175.898,858.259 173.5,858.5C 171.345,858.628 169.345,858.128 167.5,857C 163.351,853.183 160.351,848.683 158.5,843.5C 161.209,835.297 166.875,830.464 175.5,829C 183.305,827.505 190.972,827.339 198.5,828.5C 203.598,829.957 208.931,830.624 214.5,830.5C 228.802,832.693 242.802,836.026 256.5,840.5C 261.56,840.613 263.394,838.279 262,833.5C 259.926,831.548 257.759,829.715 255.5,828C 243.477,822.883 231.644,817.383 220,811.5C 205.798,807.408 191.631,803.242 177.5,799C 170.589,795.959 164.423,791.793 159,786.5C 154.656,778.862 155.823,772.362 162.5,767C 165.366,765.543 168.366,765.21 171.5,766C 179.363,769.066 187.363,771.732 195.5,774C 205.868,777.845 216.202,781.845 226.5,786C 235.515,791.507 244.182,797.507 252.5,804C 255.606,804.844 258.439,804.344 261,802.5C 271.086,815.262 280.419,828.595 289,842.5C 288.484,858.747 290.15,874.747 294,890.5C 296.563,896.628 299.897,902.295 304,907.5C 308.829,913.196 312.663,912.696 315.5,906C 312.724,901.873 309.89,897.707 307,893.5C 300.57,877.138 298.57,860.138 301,842.5C 290.843,824.684 279.51,807.684 267,791.5C 263.793,784.202 260.793,776.869 258,769.5C 257.884,752.64 265.384,748.14 280.5,756C 292.742,766.24 303.575,777.74 313,790.5C 320.833,798.333 328.667,806.167 336.5,814C 339.852,816.533 343.519,818.366 347.5,819.5C 352.151,818.807 353.651,816.141 352,811.5C 333.294,797.128 316.961,780.461 303,761.5C 292.967,751.072 281.133,743.572 267.5,739C 255.997,729.417 243.664,721.084 230.5,714C 225.572,709.296 221.238,704.129 217.5,698.5C 216.167,695.5 216.167,692.5 217.5,689.5C 219.107,686.557 221.107,683.89 223.5,681.5C 240.172,679.502 255.838,682.669 270.5,691C 276.835,695.503 283.502,699.503 290.5,703C 302.789,712.287 314.789,721.954 326.5,732C 349.377,754.914 366.877,781.414 379,811.5C 379.945,815.494 380.778,819.494 381.5,823.5 Z"/></g>
<g><path style="opacity:0.011" fill="#000000" d="M 356.5,682.5 C 358.564,682.762 359.897,683.929 360.5,686C 357.597,687.601 356.264,686.434 356.5,682.5 Z"/></g>
<g><path style="opacity:1" fill="#8d6727" d="M 1370.5,690.5 C 1373.15,690.41 1375.49,691.076 1377.5,692.5C 1374.85,692.59 1372.51,691.924 1370.5,690.5 Z"/></g>
<g><path style="opacity:1" fill="#d5d5d5" d="M 1756.5,691.5 C 1779.68,699.509 1803.02,707.675 1826.5,716C 1836.67,720.588 1846.67,725.422 1856.5,730.5C 1848.28,751.313 1841.78,772.647 1837,794.5C 1835.28,826.561 1840.28,857.561 1852,887.5C 1863.33,913.836 1882.17,932.336 1908.5,943C 1893.66,947.293 1878.66,950.793 1863.5,953.5C 1860.22,953.42 1857.22,954.087 1854.5,955.5C 1815.97,965.464 1783.81,955.464 1758,925.5C 1736.55,896.491 1724.55,863.824 1722,827.5C 1718.69,784.362 1727.03,743.696 1747,705.5C 1749.94,700.594 1753.11,695.928 1756.5,691.5 Z"/></g>
<g><path style="opacity:1" fill="#a5792d" d="M 1026.5,694.5 C 1022.37,697.324 1017.7,698.991 1012.5,699.5C 1016.94,697.462 1021.61,695.796 1026.5,694.5 Z"/></g>
<g><path style="opacity:1" fill="#5d6065" d="M 1233.5,697.5 C 1235.07,699.102 1235.74,701.102 1235.5,703.5C 1233.93,701.898 1233.26,699.898 1233.5,697.5 Z"/></g>
<g><path style="opacity:1" fill="#8b6626" d="M 1356.5,711.5 C 1355.92,713.749 1354.59,715.415 1352.5,716.5C 1353.08,714.251 1354.41,712.585 1356.5,711.5 Z"/></g>
<g><path style="opacity:1" fill="#b3b3b3" d="M 1068.5,715.5 C 1071.65,715.737 1074.65,716.57 1077.5,718C 1084.16,718.5 1090.83,718.666 1097.5,718.5C 1090.68,719.655 1083.68,719.821 1076.5,719C 1073.52,718.295 1070.86,717.129 1068.5,715.5 Z"/></g>
<g><path style="opacity:1" fill="#040404" d="M 1934.5,724.5 C 1934.33,729.181 1934,733.848 1933.5,738.5C 1933.5,740.833 1933.5,743.167 1933.5,745.5C 1936.5,745.5 1939.5,745.5 1942.5,745.5C 1942.33,739.491 1942.5,733.491 1943,727.5C 1946.18,725.477 1949.68,724.977 1953.5,726C 1954,726.5 1954.5,727 1955,727.5C 1955.5,734.826 1955.67,742.159 1955.5,749.5C 1967.58,751.291 1977.75,756.624 1986,765.5C 1992.86,781.103 1990.02,794.603 1977.5,806C 1989.54,815.244 1993.7,827.41 1990,842.5C 1985.64,856.518 1976.14,864.351 1961.5,866C 1955.17,866.333 1948.83,866.667 1942.5,867C 1941.7,873.196 1940.53,879.362 1939,885.5C 1935.56,887.733 1931.89,888.067 1928,886.5C 1927.02,884.634 1926.52,882.634 1926.5,880.5C 1927.05,877.183 1927.39,873.85 1927.5,870.5C 1928.47,868.393 1928.8,866.059 1928.5,863.5C 1927.5,863.5 1926.5,863.5 1925.5,863.5C 1923.5,863.167 1921.5,862.833 1919.5,862.5C 1917.96,868.937 1917.29,875.604 1917.5,882.5C 1916.75,884.246 1915.42,885.246 1913.5,885.5C 1910.36,885.181 1907.52,884.181 1905,882.5C 1904.94,875.176 1905.11,867.843 1905.5,860.5C 1901.82,858.75 1897.82,858.083 1893.5,858.5C 1889.35,858.399 1885.52,857.399 1882,855.5C 1881.17,850.136 1881.34,844.802 1882.5,839.5C 1886.82,838.888 1891.15,838.222 1895.5,837.5C 1897.86,835.976 1899.69,833.976 1901,831.5C 1903.51,809.855 1905.18,788.189 1906,766.5C 1902.75,763.661 1899.08,761.661 1895,760.5C 1894.33,755.5 1894.33,750.5 1895,745.5C 1895.71,744.619 1896.54,743.953 1897.5,743.5C 1905.17,743.5 1912.83,743.5 1920.5,743.5C 1920.5,740.833 1920.5,738.167 1920.5,735.5C 1920.5,735.167 1920.5,734.833 1920.5,734.5C 1921.32,731.316 1921.99,727.983 1922.5,724.5C 1926.4,723.209 1930.4,723.209 1934.5,724.5 Z"/></g>
<g><path style="opacity:1" fill="#f9f9f9" d="M 195.5,762.5 C 193.485,761.076 191.152,760.41 188.5,760.5C 182.131,757.819 175.798,754.986 169.5,752C 162.017,747.252 159.517,740.752 162,732.5C 166.413,727.527 171.913,724.861 178.5,724.5C 203.772,728.59 228.106,735.923 251.5,746.5C 251.833,747 252.167,747.5 252.5,748C 247.595,755.455 245.762,763.622 247,772.5C 249.5,778 252,783.5 254.5,789C 254.167,789.5 253.833,790 253.5,790.5C 235.337,778.672 216.004,769.339 195.5,762.5 Z"/></g>
<g><path style="opacity:1" fill="#926924" d="M 1069.5,728.5 C 1072.43,728.565 1075.09,729.232 1077.5,730.5C 1074.5,730.706 1071.84,730.04 1069.5,728.5 Z"/></g>
<g><path style="opacity:1" fill="#bf8a2f" d="M 1103.5,729.5 C 1103.39,730.117 1103.06,730.617 1102.5,731C 1094.32,731.823 1086.32,731.656 1078.5,730.5C 1086.85,730.457 1095.18,730.124 1103.5,729.5 Z"/></g>
<g><path style="opacity:1" fill="#777777" d="M 1934.5,724.5 C 1935.79,729.246 1935.46,733.913 1933.5,738.5C 1934,733.848 1934.33,729.181 1934.5,724.5 Z"/></g>
<g><path style="opacity:1" fill="#595959" d="M 1922.5,724.5 C 1921.99,727.983 1921.32,731.316 1920.5,734.5C 1920.34,731.482 1920.5,728.482 1921,725.5C 1921.38,724.944 1921.88,724.611 1922.5,724.5 Z"/></g>
<g><path style="opacity:1" fill="#767676" d="M 1920.5,735.5 C 1920.5,738.167 1920.5,740.833 1920.5,743.5C 1912.83,743.5 1905.17,743.5 1897.5,743.5C 1904.65,742.508 1911.98,742.175 1919.5,742.5C 1919.2,739.941 1919.53,737.607 1920.5,735.5 Z"/></g>
<g><path style="opacity:1" fill="#6b6b6b" d="M 1540.5,760.5 C 1540.17,760.5 1539.83,760.5 1539.5,760.5C 1540.56,757.489 1541.73,754.489 1543,751.5C 1543.07,754.786 1542.24,757.786 1540.5,760.5 Z"/></g>
<g><path style="opacity:1" fill="#888888" d="M 188.5,760.5 C 191.152,760.41 193.485,761.076 195.5,762.5C 192.848,762.59 190.515,761.924 188.5,760.5 Z"/></g>
<g><path style="opacity:1" fill="#cfcfcf" d="M 1937.5,768.5 C 1944.64,769.868 1951.64,771.701 1958.5,774C 1961.36,777.681 1962.19,781.848 1961,786.5C 1959.87,791.631 1956.7,794.798 1951.5,796C 1944.39,797.688 1937.39,797.855 1930.5,796.5C 1932.13,787.25 1932.79,777.917 1932.5,768.5C 1934.17,768.5 1935.83,768.5 1937.5,768.5 Z"/></g>
<g><path style="opacity:1" fill="#676767" d="M 728.5,762.5 C 728.706,765.495 728.04,768.162 726.5,770.5C 726.565,767.572 727.232,764.905 728.5,762.5 Z"/></g>
<g><path style="opacity:1" fill="#a0a0a0" d="M 737.5,762.5 C 737.956,767.596 736.956,772.262 734.5,776.5C 735.509,771.717 736.509,767.05 737.5,762.5 Z"/></g>
<g><path style="opacity:1" fill="#777777" d="M 726.5,772.5 C 726.435,775.428 725.768,778.095 724.5,780.5C 724.294,777.505 724.96,774.838 726.5,772.5 Z"/></g>
<g><path style="opacity:1" fill="#999999" d="M 1937.5,768.5 C 1935.83,768.5 1934.17,768.5 1932.5,768.5C 1932.79,777.917 1932.13,787.25 1930.5,796.5C 1929.85,795.551 1929.51,794.385 1929.5,793C 1930.86,784.551 1931.52,776.051 1931.5,767.5C 1933.74,767.205 1935.74,767.539 1937.5,768.5 Z"/></g>
<g><path style="opacity:1" fill="#b4b4b4" d="M 733.5,784.5 C 733.664,787.187 733.497,789.854 733,792.5C 731.816,798.629 730.316,804.629 728.5,810.5C 729.252,801.525 730.919,792.858 733.5,784.5 Z"/></g>
<g><path style="opacity:1" fill="#8b8b8b" d="M 1851.5,778.5 C 1849.01,792.016 1847.68,805.683 1847.5,819.5C 1846.04,805.598 1847.38,791.932 1851.5,778.5 Z"/></g>
<g><path style="opacity:1" fill="#757575" d="M 1947.5,817.5 C 1941.17,817.5 1934.83,817.5 1928.5,817.5C 1928.74,818.791 1928.4,819.791 1927.5,820.5C 1927.5,819.167 1927.5,817.833 1927.5,816.5C 1934.35,816.176 1941.02,816.509 1947.5,817.5 Z"/></g>
<g><path style="opacity:1" fill="#585858" d="M 197.5,815.5 C 199.812,816.32 202.146,817.153 204.5,818C 201.306,819.081 198.973,818.247 197.5,815.5 Z"/></g>
<g><path style="opacity:1" fill="#d0d0d0" d="M 1947.5,817.5 C 1968.01,823.746 1969.68,833.246 1952.5,846C 1943.89,846.611 1935.39,846.111 1927,844.5C 1926.26,836.465 1926.43,828.465 1927.5,820.5C 1928.4,819.791 1928.74,818.791 1928.5,817.5C 1934.83,817.5 1941.17,817.5 1947.5,817.5 Z"/></g>
<g><path style="opacity:1" fill="#8b8b8b" d="M 381.5,823.5 C 382.79,826.642 383.79,829.975 384.5,833.5C 382.288,830.679 381.288,827.345 381.5,823.5 Z"/></g>
<g><path style="opacity:1" fill="#9a9a9a" d="M 198.5,828.5 C 204.051,828.527 209.384,829.194 214.5,830.5C 208.931,830.624 203.598,829.957 198.5,828.5 Z"/></g>
<g><path style="opacity:1" fill="#c13e81" d="M 1231.5,863.5 C 1243.34,863.176 1255.01,862.509 1266.5,861.5C 1283.16,860.619 1299.83,860.453 1316.5,861C 1330.9,862.676 1344.9,866.009 1358.5,871C 1381.52,882.67 1401.68,898.17 1419,917.5C 1422.9,922.953 1425.4,928.953 1426.5,935.5C 1423.73,935.579 1421.06,935.079 1418.5,934C 1403.69,926.001 1389.02,917.834 1374.5,909.5C 1354.57,898.682 1333.24,892.515 1310.5,891C 1294.16,890.589 1277.83,890.756 1261.5,891.5C 1249.59,891.948 1237.93,893.281 1226.5,895.5C 1222.48,895.646 1218.48,895.979 1214.5,896.5C 1197.51,897.222 1180.51,897.555 1163.5,897.5C 1158.83,897.167 1154.17,896.833 1149.5,896.5C 1145.08,895.028 1140.41,894.362 1135.5,894.5C 1106.09,889.306 1077.76,880.806 1050.5,869C 1034.88,863.762 1019.21,863.429 1003.5,868C 989.789,876.201 977.123,885.868 965.5,897C 955.312,904.705 951.478,902.539 954,890.5C 961.928,873.236 974.094,859.736 990.5,850C 1014.48,835.859 1040.15,831.859 1067.5,838C 1092.65,847.272 1118.32,854.938 1144.5,861C 1153.2,861.947 1161.87,863.114 1170.5,864.5C 1190.74,864.249 1211.08,863.916 1231.5,863.5 Z"/></g>
<g><path style="opacity:1" fill="#414141" d="M 1893.5,858.5 C 1897.82,858.083 1901.82,858.75 1905.5,860.5C 1901.24,860.656 1897.24,859.989 1893.5,858.5 Z"/></g>
<g><path style="opacity:1" fill="#979797" d="M 173.5,858.5 C 175.898,858.259 177.898,858.926 179.5,860.5C 177.102,860.741 175.102,860.074 173.5,858.5 Z"/></g>
<g><path style="opacity:1" fill="#852a58" d="M 1266.5,861.5 C 1255.01,862.509 1243.34,863.176 1231.5,863.5C 1242.96,861.812 1254.62,861.145 1266.5,861.5 Z"/></g>
<g><path style="opacity:1" fill="#747474" d="M 1925.5,863.5 C 1926.5,863.5 1927.5,863.5 1928.5,863.5C 1928.8,866.059 1928.47,868.393 1927.5,870.5C 1927.82,867.789 1927.15,865.456 1925.5,863.5 Z"/></g>
<g><path style="opacity:1" fill="#8e8e8e" d="M 250.5,873.5 C 253.428,873.565 256.095,874.232 258.5,875.5C 255.505,875.706 252.838,875.04 250.5,873.5 Z"/></g>
<g><path style="opacity:1" fill="#828282" d="M 1919.5,862.5 C 1919.6,869.386 1918.94,876.053 1917.5,882.5C 1917.29,875.604 1917.96,868.937 1919.5,862.5 Z"/></g>
<g><path style="opacity:1" fill="#8db2c9" d="M 707.5,1091.5 C 707.802,1094.06 707.468,1096.39 706.5,1098.5C 699.701,1072.94 691.201,1047.94 681,1023.5C 667.262,997.013 652.262,971.346 636,946.5C 629.721,940.765 623.554,934.931 617.5,929C 614.833,927.333 612.167,925.667 609.5,924C 601.643,920.952 596.477,923.452 594,931.5C 593.045,940.688 593.879,949.688 596.5,958.5C 593.005,961.243 589.005,962.91 584.5,963.5C 582.551,949.906 582.051,936.24 583,922.5C 583.151,919.881 583.985,917.547 585.5,915.5C 604.965,904.605 625.631,896.772 647.5,892C 668.414,888.994 689.414,886.827 710.5,885.5C 707.098,919.396 705.598,953.396 706,987.5C 705.333,1012.17 705.333,1036.83 706,1061.5C 707.256,1071.46 707.756,1081.46 707.5,1091.5 Z"/></g>
<g><path style="opacity:1" fill="#d4d4d4" d="M 403.5,887.5 C 406.522,887.804 409.522,888.304 412.5,889C 418.698,893.363 425.031,897.53 431.5,901.5C 435.224,907.995 436.391,914.995 435,922.5C 421.915,969.91 392.415,1002.08 346.5,1019C 338.804,1020.86 331.137,1020.86 323.5,1019C 318.79,1011.75 313.957,1004.58 309,997.5C 308.246,994.361 307.246,991.361 306,988.5C 305.333,986.833 305.333,985.167 306,983.5C 330.96,977.713 352.127,965.379 369.5,946.5C 385.226,929.383 396.56,909.716 403.5,887.5 Z"/></g>
<g><path style="opacity:1" fill="#301321" d="M 1261.5,891.5 C 1250.05,893.554 1238.39,894.888 1226.5,895.5C 1237.93,893.281 1249.59,891.948 1261.5,891.5 Z"/></g>
<g><path style="opacity:1" fill="#6c2348" d="M 1135.5,894.5 C 1140.41,894.362 1145.08,895.028 1149.5,896.5C 1144.57,896.771 1139.9,896.104 1135.5,894.5 Z"/></g>
<g><path style="opacity:1" fill="#5b1d3d" d="M 1214.5,896.5 C 1204.2,897.962 1193.7,898.629 1183,898.5C 1176.32,898.5 1169.82,898.166 1163.5,897.5C 1180.51,897.555 1197.51,897.222 1214.5,896.5 Z"/></g>
<g><path style="opacity:1" fill="#c08c33" d="M 1265.5,901.5 C 1253.37,903.403 1241.04,904.736 1228.5,905.5C 1240.58,903.117 1252.92,901.784 1265.5,901.5 Z"/></g>
<g><path style="opacity:1" fill="#fefefe" d="M 445.5,912.5 C 463.602,927.056 482.269,940.889 501.5,954C 512.288,962.479 522.788,971.313 533,980.5C 551.129,1002.22 560.129,1027.22 560,1055.5C 555.482,1093.39 537.982,1123.56 507.5,1146C 495.016,1154.16 481.349,1157.83 466.5,1157C 446.721,1151.94 429.054,1142.94 413.5,1130C 383.274,1099.65 356.274,1066.82 332.5,1031.5C 346.876,1030.65 360.209,1026.49 372.5,1019C 400.877,1002.95 422.044,980.119 436,950.5C 441.378,938.323 444.544,925.656 445.5,912.5 Z"/></g>
<g><path style="opacity:1" fill="#946c29" d="M 884.5,953.5 C 892.139,953.221 899.473,954.221 906.5,956.5C 898.944,956.14 891.611,955.14 884.5,953.5 Z"/></g>
<g><path style="opacity:1" fill="#575757" d="M 1863.5,953.5 C 1860.78,954.913 1857.78,955.58 1854.5,955.5C 1857.22,954.087 1860.22,953.42 1863.5,953.5 Z"/></g>
<g><path style="opacity:1" fill="#fdfdfd" d="M 628.5,957.5 C 629.239,957.369 629.906,957.536 630.5,958C 633.118,960.739 635.618,963.573 638,966.5C 651.683,989.194 664.35,1012.53 676,1036.5C 687.814,1070.44 698.314,1104.78 707.5,1139.5C 698.085,1143.04 688.751,1146.87 679.5,1151C 665.548,1155.23 651.881,1159.89 638.5,1165C 646.017,1145.54 648.517,1125.37 646,1104.5C 641.714,1071.64 630.714,1041.3 613,1013.5C 603.917,999.749 592.751,987.916 579.5,978C 595.663,970.58 611.996,963.747 628.5,957.5 Z"/></g>
<g><path style="opacity:1" fill="#674b1c" d="M 942.5,960.5 C 952.046,960.275 961.379,960.942 970.5,962.5C 960.981,962.323 951.648,961.656 942.5,960.5 Z"/></g>
<g><path style="opacity:1" fill="#707070" d="M 891.5,964.5 C 896.1,964.28 900.433,964.946 904.5,966.5C 899.951,966.376 895.618,965.709 891.5,964.5 Z"/></g>
<g><path style="opacity:1" fill="#a6792d" d="M 985.5,963.5 C 994.743,963.548 1003.74,964.548 1012.5,966.5C 1003.26,966.385 994.263,965.385 985.5,963.5 Z"/></g>
<g><path style="opacity:1" fill="#8d6727" d="M 1048.5,969.5 C 1057.4,969.697 1066.06,970.697 1074.5,972.5C 1065.62,972.139 1056.95,971.139 1048.5,969.5 Z"/></g>
<g><path style="opacity:1" fill="#745520" d="M 1113.5,976.5 C 1119.73,976.388 1125.73,977.054 1131.5,978.5C 1125.27,978.612 1119.27,977.946 1113.5,976.5 Z"/></g>
<g><path style="opacity:1" fill="#d4d4d4" d="M 544.5,980.5 C 558.467,978.576 570.801,982.409 581.5,992C 602.899,1012.95 618.066,1037.79 627,1066.5C 630.961,1079.26 633.961,1092.26 636,1105.5C 638.43,1127.58 635.263,1148.74 626.5,1169C 613.371,1172.2 600.371,1175.87 587.5,1180C 567.704,1184.78 547.704,1186.11 527.5,1184C 514.428,1181.53 501.428,1178.86 488.5,1176C 480.941,1172.77 473.608,1169.11 466.5,1165C 485.455,1167.46 502.455,1162.79 517.5,1151C 527.667,1142.17 537.167,1132.67 546,1122.5C 557.27,1104.28 564.937,1084.62 569,1063.5C 572.205,1032.3 564.038,1004.63 544.5,980.5 Z"/></g>
<g><path style="opacity:1" fill="#64491b" d="M 1163.5,981.5 C 1173.69,981.594 1183.69,982.261 1193.5,983.5C 1183.3,983.646 1173.3,982.979 1163.5,981.5 Z"/></g>
<g><path style="opacity:1" fill="#8e6827" d="M 1217.5,984.5 C 1223.73,984.388 1229.73,985.054 1235.5,986.5C 1229.27,986.612 1223.27,985.946 1217.5,984.5 Z"/></g>
<g><path style="opacity:1" fill="#ad7e2f" d="M 1261.5,989.5 C 1268.4,989.294 1275.06,989.961 1281.5,991.5C 1274.61,991.603 1267.95,990.936 1261.5,989.5 Z"/></g>
<g><path style="opacity:1" fill="#333333" d="M 1152.5,990.5 C 1163.03,990.47 1173.36,991.137 1183.5,992.5C 1172.95,992.841 1162.62,992.175 1152.5,990.5 Z"/></g>
<g><path style="opacity:1" fill="#836024" d="M 1281.5,991.5 C 1286.1,991.28 1290.43,991.946 1294.5,993.5C 1289.92,993.562 1285.59,992.895 1281.5,991.5 Z"/></g>
<g><path style="opacity:1" fill="#575757" d="M 1208.5,993.5 C 1217.7,993.944 1226.7,994.944 1235.5,996.5C 1226.26,996.385 1217.26,995.385 1208.5,993.5 Z"/></g>
<g><path style="opacity:1" fill="#434343" d="M 1262.5,999.5 C 1268.07,999.376 1273.4,1000.04 1278.5,1001.5C 1272.95,1001.47 1267.62,1000.81 1262.5,999.5 Z"/></g>
<g><path style="opacity:1" fill="#828282" d="M 1278.5,1001.5 C 1284.4,1001.32 1290.07,1001.99 1295.5,1003.5C 1289.63,1003.4 1283.96,1002.74 1278.5,1001.5 Z"/></g>
<g><path style="opacity:0.008" fill="#000000" d="M 300.5,1005.5 C 300.361,1007.34 299.694,1007.67 298.5,1006.5C 298.957,1005.7 299.624,1005.37 300.5,1005.5 Z"/></g>
<g><path style="opacity:1" fill="#fefefe" d="M 1181.5,1611.5 C 1172.79,1613.02 1163.96,1613.69 1155,1613.5C 1134.18,1612.17 1113.35,1611.17 1092.5,1610.5C 1079.48,1607.83 1066.48,1605 1053.5,1602C 1038.58,1597.25 1023.58,1592.91 1008.5,1589C 953.066,1565.53 905.232,1531.36 865,1486.5C 804.681,1415.53 763.181,1334.86 740.5,1244.5C 740.59,1241.85 739.924,1239.51 738.5,1237.5C 730.329,1204.64 724.329,1171.3 720.5,1137.5C 720.414,1130.96 719.747,1124.63 718.5,1118.5C 716.156,1080.9 715.156,1043.23 715.5,1005.5C 752.623,1008.47 789.623,1012.3 826.5,1017C 893.228,1070.38 957.562,1126.72 1019.5,1186C 1048.7,1210.2 1076.37,1236.2 1102.5,1264C 1107.67,1268.5 1112.83,1273 1118,1277.5C 1118.67,1282.17 1118.67,1286.83 1118,1291.5C 1114.53,1315.35 1111.37,1339.18 1108.5,1363C 1110.14,1366.26 1111.31,1369.76 1112,1373.5C 1113.21,1376.76 1115.04,1379.59 1117.5,1382C 1121.5,1384.22 1125.67,1386.06 1130,1387.5C 1145.02,1391.62 1159.85,1396.12 1174.5,1401C 1209.79,1405.55 1245.13,1409.88 1280.5,1414C 1305.14,1416.63 1329.8,1418.97 1354.5,1421C 1362.38,1428.78 1371.71,1431.61 1382.5,1429.5C 1384.03,1429.53 1385.2,1430.2 1386,1431.5C 1397.42,1451.09 1410.59,1469.42 1425.5,1486.5C 1356.49,1552.9 1275.16,1594.57 1181.5,1611.5 Z"/></g>
<g><path style="opacity:1" fill="#8db3ca" d="M 842.5,1018.5 C 881.69,1021.5 921.024,1025.34 960.5,1030C 961.833,1030.67 963.167,1031.33 964.5,1032C 1001.5,1065.67 1038.5,1099.33 1075.5,1133C 1092.17,1146.67 1108.83,1160.33 1125.5,1174C 1127.37,1176.07 1128.7,1178.4 1129.5,1181C 1125.38,1208.03 1122.55,1235.2 1121,1262.5C 1120.75,1263.62 1120.25,1264.62 1119.5,1265.5C 1099.02,1246.52 1079.02,1227.02 1059.5,1207C 1035.97,1188.14 1013.64,1167.81 992.5,1146C 947.758,1105.92 902.424,1066.59 856.5,1028C 851.952,1024.61 847.286,1021.45 842.5,1018.5 Z"/></g>
<g><path style="opacity:1" fill="#fdfdfd" d="M 979.5,1032.5 C 980.097,1031.86 980.93,1031.53 982,1031.5C 1157.78,1049.75 1333.62,1067.59 1509.5,1085C 1495.32,1093.25 1481.65,1102.25 1468.5,1112C 1466.06,1113.3 1463.56,1114.47 1461,1115.5C 1454.44,1112.8 1447.94,1109.97 1441.5,1107C 1406.81,1104.82 1372.15,1102.15 1337.5,1099C 1287.52,1093.11 1237.52,1087.45 1187.5,1082C 1176.19,1080.8 1164.85,1080.47 1153.5,1081C 1146.63,1082.34 1141.8,1086.17 1139,1092.5C 1136.92,1116.9 1134.08,1141.24 1130.5,1165.5C 1088.86,1132.04 1048.86,1096.54 1010.5,1059C 1000.29,1049.96 989.961,1041.12 979.5,1032.5 Z"/></g>
<g><path style="opacity:1" fill="#fefefe" d="M 1814.5,1034.5 C 1821.34,1037.14 1828.34,1039.64 1835.5,1042C 1844.85,1046.7 1854.19,1051.37 1863.5,1056C 1875.5,1064 1887.5,1072 1899.5,1080C 1914,1093.18 1926.5,1108.01 1937,1124.5C 1941.7,1131.7 1946.2,1139.03 1950.5,1146.5C 1940.42,1147.06 1930.42,1148.22 1920.5,1150C 1902.32,1153.97 1884.32,1158.3 1866.5,1163C 1847.65,1132.81 1826.48,1104.31 1803,1077.5C 1790.53,1064.35 1775.69,1054.85 1758.5,1049C 1757.75,1048.33 1757.41,1047.5 1757.5,1046.5C 1775.76,1039.04 1794.76,1035.04 1814.5,1034.5 Z"/></g>
<g><path style="opacity:1" fill="#8db3ca" d="M 1814.5,1034.5 C 1843.19,1034.01 1869.86,1041.17 1894.5,1056C 1917.9,1071.74 1937.74,1091.24 1954,1114.5C 1959.2,1125.02 1965.2,1135.02 1972,1144.5C 1979.43,1158.8 1986.1,1173.46 1992,1188.5C 1990.16,1200.5 1985.66,1211.5 1978.5,1221.5C 1976.13,1219.26 1974.13,1216.76 1972.5,1214C 1978.77,1202.23 1978.93,1190.4 1973,1178.5C 1965.37,1168.45 1955.21,1164.12 1942.5,1165.5C 1935.48,1165.73 1928.48,1166.23 1921.5,1167C 1899.84,1171.25 1878.51,1176.75 1857.5,1183.5C 1853.24,1182.2 1849.24,1180.53 1845.5,1178.5C 1844.65,1177.03 1843.32,1176.2 1841.5,1176C 1837.85,1175.28 1834.19,1174.78 1830.5,1174.5C 1818.86,1173.66 1807.86,1175.83 1797.5,1181C 1793.63,1184.53 1790.13,1188.37 1787,1192.5C 1786.02,1197.69 1786.52,1202.69 1788.5,1207.5C 1747.74,1224.92 1705.41,1236.75 1661.5,1243C 1650.85,1243.98 1640.19,1244.48 1629.5,1244.5C 1633.08,1226.92 1638.58,1209.92 1646,1193.5C 1665.28,1144.77 1692.78,1101.43 1728.5,1063.5C 1737.7,1057.07 1747.37,1051.4 1757.5,1046.5C 1757.41,1047.5 1757.75,1048.33 1758.5,1049C 1775.69,1054.85 1790.53,1064.35 1803,1077.5C 1826.48,1104.31 1847.65,1132.81 1866.5,1163C 1884.32,1158.3 1902.32,1153.97 1920.5,1150C 1930.42,1148.22 1940.42,1147.06 1950.5,1146.5C 1946.2,1139.03 1941.7,1131.7 1937,1124.5C 1926.5,1108.01 1914,1093.18 1899.5,1080C 1887.5,1072 1875.5,1064 1863.5,1056C 1854.19,1051.37 1844.85,1046.7 1835.5,1042C 1828.34,1039.64 1821.34,1037.14 1814.5,1034.5 Z"/></g>
<g><path style="opacity:1" fill="#8db2c9" d="M 1524.5,1087.5 C 1560.6,1090.01 1596.6,1093.51 1632.5,1098C 1605.17,1115.33 1577.83,1132.67 1550.5,1150C 1529.93,1164.87 1509.1,1179.37 1488,1193.5C 1489.74,1174.92 1490.74,1156.25 1491,1137.5C 1489.62,1135.25 1488.12,1133.08 1486.5,1131C 1481.74,1127.92 1477.08,1124.75 1472.5,1121.5C 1489.21,1109.15 1506.55,1097.81 1524.5,1087.5 Z"/></g>
<g><path style="opacity:1" fill="#fefefe" d="M 1425.5,1116.5 C 1424.67,1120.44 1424.01,1124.44 1423.5,1128.5C 1419.54,1153.39 1415.7,1178.39 1412,1203.5C 1410.21,1219.11 1409.21,1234.78 1409,1250.5C 1407.03,1267.9 1404.7,1285.24 1402,1302.5C 1397.29,1310.22 1391.46,1317.05 1384.5,1323C 1359.02,1345.24 1333.35,1367.24 1307.5,1389C 1304.69,1390.66 1301.69,1391.83 1298.5,1392.5C 1240.22,1387.01 1182.22,1380.17 1124.5,1372C 1123.33,1370.83 1122.17,1369.67 1121,1368.5C 1120.33,1361.83 1120.33,1355.17 1121,1348.5C 1129.69,1266.13 1138.69,1183.8 1148,1101.5C 1147.53,1096.26 1149.69,1092.76 1154.5,1091C 1196.06,1092.47 1237.39,1096.47 1278.5,1103C 1327.47,1107.97 1376.47,1112.47 1425.5,1116.5 Z"/></g>
<g><path style="opacity:1" fill="#515d65" d="M 707.5,1091.5 C 708.49,1096.36 708.99,1101.36 709,1106.5C 707.976,1103.86 707.143,1101.2 706.5,1098.5C 707.468,1096.39 707.802,1094.06 707.5,1091.5 Z"/></g>
<g><path style="opacity:1" fill="#d4d4d4" d="M 1633.5,1118.5 C 1634.17,1115.17 1634.83,1111.83 1635.5,1108.5C 1640.37,1103.9 1646.03,1100.56 1652.5,1098.5C 1662.13,1099.71 1671.8,1100.54 1681.5,1101C 1682.31,1101.31 1682.97,1101.81 1683.5,1102.5C 1658.76,1138.47 1639.43,1177.3 1625.5,1219C 1623.34,1226.83 1621.17,1234.66 1619,1242.5C 1615.7,1246.07 1615.87,1249.57 1619.5,1253C 1626.11,1254.05 1632.78,1254.55 1639.5,1254.5C 1656.26,1253.76 1672.93,1252.09 1689.5,1249.5C 1684.45,1274.3 1683.28,1299.3 1686,1324.5C 1688.93,1342.53 1696.77,1358.03 1709.5,1371C 1715.34,1375.62 1722.01,1378.28 1729.5,1379C 1739.31,1380.61 1748.64,1379.27 1757.5,1375C 1769.92,1366.75 1780.92,1356.92 1790.5,1345.5C 1799.83,1350.83 1808.83,1356.67 1817.5,1363C 1781.39,1429.84 1735.39,1489.18 1679.5,1541C 1671.28,1548.23 1662.78,1555.06 1654,1561.5C 1632.92,1553.88 1613.75,1543.05 1596.5,1529C 1583.5,1517.33 1570.5,1505.67 1557.5,1494C 1543.33,1479.83 1529.17,1465.67 1515,1451.5C 1507.98,1443.31 1501.14,1434.98 1494.5,1426.5C 1564.29,1335.91 1613.29,1234.91 1641.5,1123.5C 1640.75,1119.01 1638.08,1117.34 1633.5,1118.5 Z"/></g>
<g><path style="opacity:1" fill="#fdfdfd" d="M 1635.5,1108.5 C 1634.83,1111.83 1634.17,1115.17 1633.5,1118.5C 1631.87,1123.43 1630.54,1128.43 1629.5,1133.5C 1628.08,1135.51 1627.41,1137.85 1627.5,1140.5C 1624.91,1148.7 1622.58,1157.03 1620.5,1165.5C 1618.27,1168.35 1616.94,1171.69 1616.5,1175.5C 1588.52,1264.59 1545.68,1345.92 1488,1419.5C 1475.48,1405.59 1464.31,1390.75 1454.5,1375C 1457.27,1367.45 1458.11,1359.62 1457,1351.5C 1456.77,1349.22 1455.93,1347.22 1454.5,1345.5C 1464.24,1337.02 1470.07,1326.36 1472,1313.5C 1472.81,1305.18 1473.48,1296.84 1474,1288.5C 1478.52,1261.25 1482.52,1233.91 1486,1206.5C 1510.11,1191.2 1533.61,1175.03 1556.5,1158C 1583,1141.64 1609.33,1125.14 1635.5,1108.5 Z"/></g>
<g><path style="opacity:1" fill="#d4d4d4" d="M 1425.5,1116.5 C 1430.86,1116.67 1436.19,1117.17 1441.5,1118C 1456.44,1122.88 1469.6,1130.72 1481,1141.5C 1480.25,1158.59 1478.42,1175.59 1475.5,1192.5C 1475.83,1194.5 1476.17,1196.5 1476.5,1198.5C 1471.33,1237.83 1466.17,1277.17 1461,1316.5C 1459.1,1324.65 1454.93,1331.32 1448.5,1336.5C 1440.88,1330.59 1432.21,1328.09 1422.5,1329C 1416.65,1329.55 1410.98,1330.88 1405.5,1333C 1380.81,1344.02 1362.31,1361.52 1350,1385.5C 1348.41,1391.4 1347.57,1397.4 1347.5,1403.5C 1336.86,1401.07 1326.19,1398.57 1315.5,1396C 1343.83,1371.67 1372.17,1347.33 1400.5,1323C 1404.7,1318.1 1408.53,1312.93 1412,1307.5C 1416.81,1274.32 1420.15,1240.99 1422,1207.5C 1426.23,1182.75 1429.73,1157.92 1432.5,1133C 1430.85,1128.47 1427.85,1126.97 1423.5,1128.5C 1424.01,1124.44 1424.67,1120.44 1425.5,1116.5 Z"/></g>
<g><path style="opacity:1" fill="#090706" d="M 1193.5,1121.5 C 1217.32,1119.81 1232.48,1130.48 1239,1153.5C 1239.92,1166.91 1237.25,1179.58 1231,1191.5C 1222.21,1207.48 1208.71,1214.31 1190.5,1212C 1182.29,1209.43 1175.45,1204.93 1170,1198.5C 1166.87,1193.58 1164.87,1188.25 1164,1182.5C 1160.48,1161.73 1165.98,1143.89 1180.5,1129C 1184.6,1125.95 1188.94,1123.45 1193.5,1121.5 Z"/></g>
<g><path style="opacity:1" fill="#4b4b4b" d="M 718.5,1118.5 C 719.747,1124.63 720.414,1130.96 720.5,1137.5C 719.004,1131.39 718.337,1125.06 718.5,1118.5 Z"/></g>
<g><path style="opacity:1" fill="#edad41" d="M 1196.5,1131.5 C 1212.02,1130.18 1222.52,1136.84 1228,1151.5C 1229.93,1159.56 1229.6,1167.56 1227,1175.5C 1224.61,1181.29 1221.94,1186.95 1219,1192.5C 1210.74,1202.03 1200.57,1204.86 1188.5,1201C 1177.17,1194.68 1172.17,1185.02 1173.5,1172C 1172.3,1153.21 1179.97,1139.71 1196.5,1131.5 Z"/></g>
<g><path style="opacity:1" fill="#080808" d="M 1291.5,1134.5 C 1315.32,1132.81 1330.48,1143.48 1337,1166.5C 1337.92,1179.91 1335.25,1192.58 1329,1204.5C 1320.21,1220.48 1306.71,1227.31 1288.5,1225C 1280.29,1222.43 1273.45,1217.93 1268,1211.5C 1264.87,1206.58 1262.87,1201.25 1262,1195.5C 1258.48,1174.73 1263.98,1156.89 1278.5,1142C 1282.6,1138.95 1286.94,1136.45 1291.5,1134.5 Z"/></g>
<g><path style="opacity:1" fill="#646464" d="M 1629.5,1133.5 C 1629.59,1136.15 1628.92,1138.49 1627.5,1140.5C 1627.41,1137.85 1628.08,1135.51 1629.5,1133.5 Z"/></g>
<g><path style="opacity:1" fill="#d4d4d4" d="M 1294.5,1144.5 C 1310.02,1143.18 1320.52,1149.84 1326,1164.5C 1327.93,1172.56 1327.6,1180.56 1325,1188.5C 1322.61,1194.29 1319.94,1199.95 1317,1205.5C 1308.74,1215.03 1298.57,1217.86 1286.5,1214C 1275.48,1207.95 1270.48,1198.62 1271.5,1186C 1270.01,1166.79 1277.68,1152.96 1294.5,1144.5 Z"/></g>
<g><path style="opacity:1" fill="#909090" d="M 1620.5,1165.5 C 1619.57,1168.45 1618.74,1171.45 1618,1174.5C 1617.62,1175.06 1617.12,1175.39 1616.5,1175.5C 1616.94,1171.69 1618.27,1168.35 1620.5,1165.5 Z"/></g>
<g><path style="opacity:1" fill="#5b7382" d="M 1830.5,1174.5 C 1834.19,1174.78 1837.85,1175.28 1841.5,1176C 1843.32,1176.2 1844.65,1177.03 1845.5,1178.5C 1840.34,1177.35 1835.34,1176.01 1830.5,1174.5 Z"/></g>
<g><path style="opacity:1" fill="#d2d2d2" d="M 1914.5,1179.5 C 1917.52,1179.34 1920.52,1179.5 1923.5,1180C 1932.72,1188.71 1941.38,1197.88 1949.5,1207.5C 1940.75,1214.39 1931.42,1220.55 1921.5,1226C 1917.83,1229 1914.17,1232 1910.5,1235C 1905.72,1235.65 1901.05,1235.15 1896.5,1233.5C 1890.41,1217.14 1880.74,1203.3 1867.5,1192C 1882.77,1186.01 1898.43,1181.85 1914.5,1179.5 Z"/></g>
<g><path style="opacity:0.004" fill="#000000" d="M 456.5,1180.5 C 457.833,1181.17 457.833,1181.17 456.5,1180.5 Z"/></g>
<g><path style="opacity:0.012" fill="#000000" d="M 458.5,1181.5 C 459.833,1182.17 459.833,1182.17 458.5,1181.5 Z"/></g>
<g><path style="opacity:0.008" fill="#000000" d="M 461.5,1182.5 C 462.833,1183.17 462.833,1183.17 461.5,1182.5 Z"/></g>
<g><path style="opacity:1" fill="#fafafa" d="M 1878.5,1237.5 C 1875.65,1237.55 1873.32,1238.55 1871.5,1240.5C 1863.24,1242.26 1855.91,1245.92 1849.5,1251.5C 1846.45,1242.25 1841.12,1234.42 1833.5,1228C 1823.49,1222 1813.49,1216 1803.5,1210C 1795.3,1202.91 1795.64,1196.24 1804.5,1190C 1818.81,1183.06 1833.15,1183.4 1847.5,1191C 1865.97,1201.29 1878.3,1216.46 1884.5,1236.5C 1882.38,1236.33 1880.38,1236.66 1878.5,1237.5 Z"/></g>
<g><path style="opacity:1" fill="#d3d3d3" d="M 1828.5,1239.5 C 1812.71,1238.98 1797.04,1240.14 1781.5,1243C 1753.24,1248.55 1725.24,1255.05 1697.5,1262.5C 1698.56,1257.22 1699.22,1251.89 1699.5,1246.5C 1731.83,1238.95 1763.5,1228.95 1794.5,1216.5C 1803.73,1223.95 1813.73,1230.11 1824.5,1235C 1826.04,1236.37 1827.37,1237.87 1828.5,1239.5 Z"/></g>
<g><path style="opacity:1" fill="#d2d2d2" d="M 1955.5,1216.5 C 1956.87,1216.34 1958.21,1216.51 1959.5,1217C 1976.67,1234.83 1993.83,1252.67 2011,1270.5C 2011.67,1271.17 2011.67,1271.83 2011,1272.5C 1995.73,1268.09 1980.23,1264.59 1964.5,1262C 1955.58,1261.1 1946.75,1261.6 1938,1263.5C 1937.17,1263.17 1936.33,1262.83 1935.5,1262.5C 1933.11,1253.37 1928.44,1245.7 1921.5,1239.5C 1932.2,1230.82 1943.54,1223.15 1955.5,1216.5 Z"/></g>
<g><path style="opacity:1" fill="#5d5d5d" d="M 1878.5,1237.5 C 1876.49,1239.07 1874.16,1240.07 1871.5,1240.5C 1873.32,1238.55 1875.65,1237.55 1878.5,1237.5 Z"/></g>
<g><path style="opacity:1" fill="#fcfcfc" d="M 1828.5,1239.5 C 1834.82,1245.23 1838.82,1252.4 1840.5,1261C 1836.09,1266.75 1833.59,1273.25 1833,1280.5C 1832.33,1281.25 1831.5,1281.59 1830.5,1281.5C 1825.54,1280.75 1820.54,1280.41 1815.5,1280.5C 1808.53,1280.01 1802.19,1277.85 1796.5,1274C 1785.62,1270.29 1774.62,1266.96 1763.5,1264C 1760.18,1263.5 1756.85,1263.33 1753.5,1263.5C 1751.14,1263.34 1748.81,1263.5 1746.5,1264C 1745.06,1264.38 1744.06,1265.21 1743.5,1266.5C 1742.45,1266.35 1741.45,1266.52 1740.5,1267C 1738.26,1268.77 1736.59,1270.94 1735.5,1273.5C 1733.41,1274.58 1732.08,1276.25 1731.5,1278.5C 1725.88,1293.83 1729.55,1306.66 1742.5,1317C 1754.7,1325.6 1767.36,1333.43 1780.5,1340.5C 1772.89,1350.95 1763.56,1359.45 1752.5,1366C 1740.19,1371 1728.19,1370.34 1716.5,1364C 1699.22,1345.48 1691.88,1323.48 1694.5,1298C 1694.14,1286.03 1695.14,1274.19 1697.5,1262.5C 1725.24,1255.05 1753.24,1248.55 1781.5,1243C 1797.04,1240.14 1812.71,1238.98 1828.5,1239.5 Z"/></g>
<g><path style="opacity:1" fill="#626262" d="M 738.5,1237.5 C 739.924,1239.51 740.59,1241.85 740.5,1244.5C 739.076,1242.49 738.41,1240.15 738.5,1237.5 Z"/></g>
<g><path style="opacity:1" fill="#959595" d="M 1906.5,1246.5 C 1899.14,1246.36 1891.8,1246.7 1884.5,1247.5C 1888.56,1245.98 1892.89,1245.32 1897.5,1245.5C 1900.69,1245.5 1903.69,1245.84 1906.5,1246.5 Z"/></g>
<g><path style="opacity:1" fill="#fbfbfb" d="M 1906.5,1246.5 C 1910.05,1247.52 1913.39,1249.02 1916.5,1251C 1918.42,1253.73 1920.42,1256.23 1922.5,1258.5C 1922.93,1262.82 1923.26,1267.16 1923.5,1271.5C 1923.13,1273.44 1922.46,1275.27 1921.5,1277C 1918.02,1278.24 1914.69,1279.74 1911.5,1281.5C 1907.1,1281.93 1903.1,1283.26 1899.5,1285.5C 1890.47,1289.04 1881.13,1291.71 1871.5,1293.5C 1866.85,1293 1862.18,1292.67 1857.5,1292.5C 1846.16,1287.31 1843.32,1278.98 1849,1267.5C 1853.23,1261.47 1858.73,1256.97 1865.5,1254C 1871.65,1251.25 1877.99,1249.09 1884.5,1247.5C 1891.8,1246.7 1899.14,1246.36 1906.5,1246.5 Z"/></g>
<g><path style="opacity:1" fill="#585858" d="M 1753.5,1263.5 C 1750.27,1264.49 1746.94,1265.49 1743.5,1266.5C 1744.06,1265.21 1745.06,1264.38 1746.5,1264C 1748.81,1263.5 1751.14,1263.34 1753.5,1263.5 Z"/></g>
<g><path style="opacity:1" fill="#8a8a8a" d="M 1922.5,1258.5 C 1924.41,1262.75 1924.74,1267.09 1923.5,1271.5C 1923.26,1267.16 1922.93,1262.82 1922.5,1258.5 Z"/></g>
<g><path style="opacity:1" fill="#fafafa" d="M 1983.5,1480.5 C 1980.36,1479.68 1977.03,1479.18 1973.5,1479C 1974.42,1478.72 1975.08,1478.22 1975.5,1477.5C 1995.71,1473.47 2011.54,1462.8 2023,1445.5C 2034.52,1427.28 2041.02,1407.45 2042.5,1386C 2040.77,1354.54 2028.1,1328.54 2004.5,1308C 1990.84,1298.56 1975.84,1292.22 1959.5,1289C 1956.08,1283.93 1951.41,1280.27 1945.5,1278C 1941.82,1277.21 1938.15,1276.38 1934.5,1275.5C 1934.71,1274.91 1935.04,1274.41 1935.5,1274C 1945.04,1271.64 1954.7,1270.97 1964.5,1272C 1979.3,1274.7 1993.96,1278.03 2008.5,1282C 2018.5,1286.22 2027.83,1291.55 2036.5,1298C 2047.77,1308.27 2057.94,1319.44 2067,1331.5C 2081.14,1363.34 2082.14,1395.67 2070,1428.5C 2060.58,1444.91 2048.08,1458.41 2032.5,1469C 2017.28,1477.35 2000.94,1481.18 1983.5,1480.5 Z"/></g>
<g><path style="opacity:1" fill="#fbfbfb" d="M 1749.5,1275.5 C 1757.32,1275.03 1764.99,1275.87 1772.5,1278C 1787.4,1284.41 1802.73,1289.41 1818.5,1293C 1825.63,1293.66 1832.63,1293.32 1839.5,1292C 1844.3,1299.12 1850.97,1303.46 1859.5,1305C 1865.66,1305.73 1871.66,1305.4 1877.5,1304C 1870.59,1310.24 1864.43,1317.07 1859,1324.5C 1856.87,1329.87 1854.54,1335.2 1852,1340.5C 1849.9,1353.27 1854.06,1363.27 1864.5,1370.5C 1864.61,1371.12 1864.94,1371.62 1865.5,1372C 1869.69,1372.81 1873.69,1372.65 1877.5,1371.5C 1882.3,1370.51 1886.96,1369.01 1891.5,1367C 1897.1,1362.22 1903.1,1358.06 1909.5,1354.5C 1910.29,1356.31 1910.29,1358.31 1909.5,1360.5C 1905.5,1373.52 1907.67,1385.52 1916,1396.5C 1918.87,1398.85 1922.04,1400.52 1925.5,1401.5C 1928.98,1402.64 1932.64,1402.81 1936.5,1402C 1939.67,1401.68 1942.33,1400.51 1944.5,1398.5C 1957.76,1389.41 1969.26,1378.41 1979,1365.5C 1979.84,1359.1 1977.01,1356.6 1970.5,1358C 1962.83,1366.33 1955.17,1374.67 1947.5,1383C 1943.13,1386.19 1938.46,1388.85 1933.5,1391C 1926.27,1391.95 1921.93,1388.78 1920.5,1381.5C 1919.67,1376.55 1919.34,1371.55 1919.5,1366.5C 1920,1364.52 1920.5,1362.52 1921,1360.5C 1926.19,1350.93 1932.69,1342.43 1940.5,1335C 1944.73,1331.92 1949.07,1329.08 1953.5,1326.5C 1958.12,1325.51 1962.78,1324.85 1967.5,1324.5C 1971.61,1324.92 1975.27,1326.42 1978.5,1329C 1989.13,1337.8 1995.8,1348.96 1998.5,1362.5C 1998.22,1365.83 1998.88,1368.83 2000.5,1371.5C 2006.57,1395.05 2000.91,1415.22 1983.5,1432C 1972.81,1439.68 1960.81,1442.68 1947.5,1441C 1940.56,1438.85 1933.56,1436.85 1926.5,1435C 1917.33,1429.58 1908.33,1423.92 1899.5,1418C 1873.72,1393.88 1847.05,1370.88 1819.5,1349C 1807.06,1341.45 1794.39,1334.45 1781.5,1328C 1780.02,1327.02 1778.69,1325.85 1777.5,1324.5C 1764.35,1320.18 1753.18,1312.85 1744,1302.5C 1740.84,1297.26 1739.84,1291.59 1741,1285.5C 1741.2,1283.68 1742.03,1282.35 1743.5,1281.5C 1745.83,1279.83 1747.83,1277.83 1749.5,1275.5 Z"/></g>
<g><path style="opacity:1" fill="#6d6d6d" d="M 1735.5,1273.5 C 1734.92,1275.75 1733.59,1277.42 1731.5,1278.5C 1732.08,1276.25 1733.41,1274.58 1735.5,1273.5 Z"/></g>
<g><path style="opacity:1" fill="#949494" d="M 1749.5,1275.5 C 1747.83,1277.83 1745.83,1279.83 1743.5,1281.5C 1744.5,1278.5 1746.5,1276.5 1749.5,1275.5 Z"/></g>
<g><path style="opacity:1" fill="#929292" d="M 1815.5,1280.5 C 1820.54,1280.41 1825.54,1280.75 1830.5,1281.5C 1825.43,1282.72 1820.43,1282.38 1815.5,1280.5 Z"/></g>
<g><path style="opacity:1" fill="#3e3e3e" d="M 1911.5,1281.5 C 1911.39,1282.12 1911.06,1282.62 1910.5,1283C 1906.79,1283.74 1903.13,1284.57 1899.5,1285.5C 1903.1,1283.26 1907.1,1281.93 1911.5,1281.5 Z"/></g>
<g><path style="opacity:1" fill="#b4b4b4" d="M 1939.5,1288.5 C 1933.01,1288.08 1926.68,1288.75 1920.5,1290.5C 1921.35,1289.03 1922.68,1288.2 1924.5,1288C 1929.68,1287.18 1934.68,1287.35 1939.5,1288.5 Z"/></g>
<g><path style="opacity:1" fill="#fbfbfb" d="M 1939.5,1288.5 C 1940.87,1288.34 1942.21,1288.51 1943.5,1289C 1949.74,1294.24 1954.9,1300.41 1959,1307.5C 1959.5,1309.47 1959.66,1311.47 1959.5,1313.5C 1957.8,1313.34 1956.13,1313.51 1954.5,1314C 1947.55,1316.81 1940.89,1320.14 1934.5,1324C 1920.93,1336.24 1906.27,1346.91 1890.5,1356C 1888.75,1356.35 1887.09,1356.85 1885.5,1357.5C 1883.03,1357.75 1881.03,1358.75 1879.5,1360.5C 1870.29,1364.2 1864.96,1361.2 1863.5,1351.5C 1863.5,1347.47 1863.84,1343.47 1864.5,1339.5C 1869.65,1328.74 1876.65,1319.24 1885.5,1311C 1893.15,1304.84 1901.15,1299.18 1909.5,1294C 1912.89,1291.92 1916.56,1290.76 1920.5,1290.5C 1926.68,1288.75 1933.01,1288.08 1939.5,1288.5 Z"/></g>
<g><path style="opacity:1" fill="#939393" d="M 1857.5,1292.5 C 1862.18,1292.67 1866.85,1293 1871.5,1293.5C 1866.74,1294.89 1862.07,1294.56 1857.5,1292.5 Z"/></g>
<g><path style="opacity:1" fill="#d0d0d0" d="M 2013.5,1394.5 C 2014.83,1388.43 2014.5,1382.43 2012.5,1376.5C 2011.05,1361.99 2006.89,1348.32 2000,1335.5C 1994.83,1329 1989,1323.17 1982.5,1318C 1978.88,1316.19 1975.22,1314.69 1971.5,1313.5C 1971.22,1310.09 1970.55,1306.76 1969.5,1303.5C 1979.52,1305.02 1988.85,1308.86 1997.5,1315C 2037.68,1353.23 2042.85,1395.73 2013,1442.5C 1995.06,1463.38 1972.23,1472.55 1944.5,1470C 1919.35,1461.35 1900.01,1445.52 1886.5,1422.5C 1887,1421.48 1887.67,1421.31 1888.5,1422C 1907.46,1440.31 1930.13,1450.81 1956.5,1453.5C 1985.03,1450.49 2003.53,1435.15 2012,1407.5C 2013.19,1403.25 2013.69,1398.92 2013.5,1394.5 Z"/></g>
<g><path style="opacity:1" fill="#b7b7b7" d="M 1967.5,1324.5 C 1962.78,1324.85 1958.12,1325.51 1953.5,1326.5C 1957.89,1323.57 1962.55,1322.9 1967.5,1324.5 Z"/></g>
<g><path style="opacity:1" fill="#d1d1d1" d="M 1424.5,1338.5 C 1441.45,1338.96 1448.95,1347.62 1447,1364.5C 1439.16,1354.45 1429.32,1351.95 1417.5,1357C 1403.49,1362.01 1391.33,1369.85 1381,1380.5C 1371.17,1393.02 1370,1406.18 1377.5,1420C 1362.28,1419.45 1355.78,1411.61 1358,1396.5C 1359.18,1388.15 1362.51,1380.81 1368,1374.5C 1382.61,1355.69 1401.45,1343.69 1424.5,1338.5 Z"/></g>
<g><path style="opacity:1" fill="#777777" d="M 1864.5,1339.5 C 1863.84,1343.47 1863.5,1347.47 1863.5,1351.5C 1862.84,1350.21 1862.51,1348.71 1862.5,1347C 1862.41,1344.18 1863.07,1341.68 1864.5,1339.5 Z"/></g>
<g><path style="opacity:1" fill="#979797" d="M 1909.5,1360.5 C 1910.29,1358.31 1910.29,1356.31 1909.5,1354.5C 1910.37,1352.38 1911.37,1352.21 1912.5,1354C 1911.96,1356.48 1910.96,1358.65 1909.5,1360.5 Z"/></g>
<g><path style="opacity:1" fill="#5c5c5c" d="M 1885.5,1357.5 C 1883.97,1359.25 1881.97,1360.25 1879.5,1360.5C 1881.03,1358.75 1883.03,1357.75 1885.5,1357.5 Z"/></g>
<g><path style="opacity:1" fill="#fdfdfd" d="M 1426.5,1364.5 C 1428.53,1364.34 1430.53,1364.5 1432.5,1365C 1443.27,1378.05 1453.44,1391.55 1463,1405.5C 1477.33,1422.5 1491.67,1439.5 1506,1456.5C 1510.17,1460.67 1514.33,1464.83 1518.5,1469C 1499.74,1474.42 1484.91,1485.26 1474,1501.5C 1470.67,1507.17 1468.17,1513.17 1466.5,1519.5C 1449.55,1499.38 1432.38,1479.38 1415,1459.5C 1404.36,1442.19 1393.7,1424.85 1383,1407.5C 1382.89,1396.54 1387.06,1387.37 1395.5,1380C 1404.89,1372.82 1415.22,1367.66 1426.5,1364.5 Z"/></g>
<g><path style="opacity:1" fill="#969696" d="M 1998.5,1362.5 C 1999.66,1365.27 2000.32,1368.27 2000.5,1371.5C 1998.88,1368.83 1998.22,1365.83 1998.5,1362.5 Z"/></g>
<g><path style="opacity:1" fill="#5c5c5c" d="M 1864.5,1370.5 C 1868.77,1371.37 1873.1,1371.71 1877.5,1371.5C 1873.69,1372.65 1869.69,1372.81 1865.5,1372C 1864.94,1371.62 1864.61,1371.12 1864.5,1370.5 Z"/></g>
<g><path style="opacity:1" fill="#9e9e9e" d="M 1919.5,1366.5 C 1919.34,1371.55 1919.67,1376.55 1920.5,1381.5C 1919.78,1381.08 1919.28,1380.42 1919,1379.5C 1918.19,1374.98 1918.35,1370.65 1919.5,1366.5 Z"/></g>
<g><path style="opacity:1" fill="#6a6a6a" d="M 2012.5,1376.5 C 2014.5,1382.43 2014.83,1388.43 2013.5,1394.5C 2013.41,1388.48 2013.07,1382.48 2012.5,1376.5 Z"/></g>
<g><path style="opacity:1" fill="#7d7d7d" d="M 1944.5,1398.5 C 1942.33,1400.51 1939.67,1401.68 1936.5,1402C 1932.64,1402.81 1928.98,1402.64 1925.5,1401.5C 1932.07,1401.88 1938.4,1400.88 1944.5,1398.5 Z"/></g>
<g><path style="opacity:0.012" fill="#000000" d="M 1878.5,1437.5 C 1880.83,1438.16 1881.5,1439.49 1880.5,1441.5C 1878.89,1440.68 1878.22,1439.35 1878.5,1437.5 Z"/></g>
<g><path style="opacity:1" fill="#fdfdfd" d="M 1522.5,1477.5 C 1524.2,1477.34 1525.87,1477.51 1527.5,1478C 1548.25,1498.42 1569.25,1518.42 1590.5,1538C 1603.65,1546.47 1616.81,1554.97 1630,1563.5C 1634.92,1579.92 1632.92,1595.59 1624,1610.5C 1617.59,1621.62 1608.09,1626.12 1595.5,1624C 1586.34,1619.25 1577.34,1614.25 1568.5,1609C 1535.32,1586.17 1504.82,1560.01 1477,1530.5C 1476.33,1526.5 1476.33,1522.5 1477,1518.5C 1485.9,1497.81 1501.07,1484.15 1522.5,1477.5 Z"/></g>
<g><path style="opacity:1" fill="#a9a9a9" d="M 1975.5,1477.5 C 1975.08,1478.22 1974.42,1478.72 1973.5,1479C 1977.03,1479.18 1980.36,1479.68 1983.5,1480.5C 1977.78,1480.63 1972.11,1480.13 1966.5,1479C 1969.51,1478.5 1972.51,1478 1975.5,1477.5 Z"/></g>
<g><path style="opacity:1" fill="#fafafa" d="M 1745.5,1486.5 C 1746.12,1486.61 1746.62,1486.94 1747,1487.5C 1752.03,1503.59 1756.03,1519.92 1759,1536.5C 1759.36,1548.21 1758.69,1559.88 1757,1571.5C 1749.62,1553.14 1735.96,1543.81 1716,1543.5C 1707.45,1543.52 1699.62,1545.85 1692.5,1550.5C 1691.65,1548.39 1690.98,1546.23 1690.5,1544C 1709.62,1525.71 1727.95,1506.55 1745.5,1486.5 Z"/></g>
<g><path style="opacity:1" fill="#d3d3d3" d="M 1343.5,1613.5 C 1342.71,1617.13 1341.21,1620.47 1339,1623.5C 1338.5,1628.82 1338.33,1634.16 1338.5,1639.5C 1332.04,1637.96 1329.37,1640.62 1330.5,1647.5C 1304.06,1645.57 1277.73,1642.74 1251.5,1639C 1226.88,1634.34 1202.21,1630.84 1177.5,1628.5C 1148.84,1623.5 1120.5,1617.5 1092.5,1610.5C 1113.35,1611.17 1134.18,1612.17 1155,1613.5C 1163.96,1613.69 1172.79,1613.02 1181.5,1611.5C 1180.58,1615.53 1182.08,1617.86 1186,1618.5C 1198.29,1617.48 1210.45,1615.65 1222.5,1613C 1301.99,1590.6 1371.66,1551.1 1431.5,1494.5C 1442.46,1506.42 1452.96,1518.75 1463,1531.5C 1474.57,1544.08 1487.07,1555.58 1500.5,1566C 1454.42,1559.39 1410.09,1565.39 1367.5,1584C 1350.78,1591.18 1337.45,1602.35 1327.5,1617.5C 1328.27,1622.15 1330.93,1623.65 1335.5,1622C 1337.67,1618.67 1340.33,1615.83 1343.5,1613.5 Z"/></g>
<g><path style="opacity:0.967" fill="#a2dbff" d="M 2142.5,1507.5 C 2145.2,1507.45 2147.36,1508.45 2149,1510.5C 2147.4,1528.37 2152.9,1543.53 2165.5,1556C 2168.64,1556.6 2171.64,1557.6 2174.5,1559C 2177.83,1559.33 2181.17,1559.67 2184.5,1560C 2187.17,1563.33 2187.17,1566.67 2184.5,1570C 2166.21,1570.27 2155.04,1579.44 2151,1597.5C 2149.98,1604.8 2149.31,1612.13 2149,1619.5C 2145.67,1623.5 2142.33,1623.5 2139,1619.5C 2139.39,1606.8 2136.73,1594.8 2131,1583.5C 2128.05,1580.43 2125.22,1577.26 2122.5,1574C 2119.36,1573.4 2116.36,1572.4 2113.5,1571C 2110.17,1570.67 2106.83,1570.33 2103.5,1570C 2099.5,1566.67 2099.5,1563.33 2103.5,1560C 2106.83,1559.67 2110.17,1559.33 2113.5,1559C 2116.25,1557.25 2119.25,1556.25 2122.5,1556C 2125.23,1552.7 2128.06,1549.53 2131,1546.5C 2136.66,1535.18 2139.33,1523.18 2139,1510.5C 2139.98,1509.19 2141.15,1508.19 2142.5,1507.5 Z"/></g>
<g><path style="opacity:0.004" fill="#fefffe" d="M 2134.5,1527.5 C 2135.83,1528.17 2135.83,1528.17 2134.5,1527.5 Z"/></g>
<g><path style="opacity:0.004" fill="#fefffe" d="M 2152.5,1527.5 C 2153.83,1528.17 2153.83,1528.17 2152.5,1527.5 Z"/></g>
<g><path style="opacity:0.985" fill="#a2daff" d="M 2028.5,1530.5 C 2030.2,1530.34 2031.87,1530.51 2033.5,1531C 2037.13,1535.67 2038.13,1540.84 2036.5,1546.5C 2037.28,1570.84 2042.44,1594.17 2052,1616.5C 2060.78,1629.14 2072.95,1635.31 2088.5,1635C 2091.17,1638.33 2091.17,1641.67 2088.5,1645C 2066.75,1645.5 2052.58,1656.33 2046,1677.5C 2039.67,1698.11 2036.84,1719.11 2037.5,1740.5C 2036.82,1742.89 2035.99,1745.22 2035,1747.5C 2031.19,1750.54 2028.19,1749.87 2026,1745.5C 2025.88,1722.36 2022.55,1699.69 2016,1677.5C 2009.42,1656.33 1995.25,1645.5 1973.5,1645C 1970.83,1641.67 1970.83,1638.33 1973.5,1635C 1994.01,1634.48 2007.85,1624.64 2015,1605.5C 2022.04,1582.35 2025.7,1558.69 2026,1534.5C 2026.66,1533.02 2027.5,1531.68 2028.5,1530.5 Z"/></g>
<g><path style="opacity:1" fill="#fdfdfd" d="M 1709.5,1553.5 C 1735.59,1552.27 1749.09,1564.6 1750,1590.5C 1741.72,1605.12 1730.89,1617.62 1717.5,1628C 1691.35,1643.14 1663.68,1646.81 1634.5,1639C 1627.72,1636.85 1621.06,1634.52 1614.5,1632C 1625.17,1626.32 1632.67,1617.82 1637,1606.5C 1642.38,1594.31 1644.22,1581.65 1642.5,1568.5C 1654.26,1572.7 1666.26,1576.2 1678.5,1579C 1682.18,1580.03 1685.35,1579.19 1688,1576.5C 1690.95,1564.73 1698.11,1557.06 1709.5,1553.5 Z"/></g>
<g><path style="opacity:1" fill="#fefefe" d="M 1338.5,1639.5 C 1338.33,1634.16 1338.5,1628.82 1339,1623.5C 1341.21,1620.47 1342.71,1617.13 1343.5,1613.5C 1352.62,1603.58 1363.62,1596.08 1376.5,1591C 1412.38,1576.01 1449.71,1570.68 1488.5,1575C 1497.57,1576.62 1506.57,1578.62 1515.5,1581C 1531.55,1594.11 1548.05,1606.61 1565,1618.5C 1577.62,1661.37 1590.46,1704.2 1603.5,1747C 1602.42,1753.72 1600.59,1760.22 1598,1766.5C 1580.35,1798.49 1557.19,1825.99 1528.5,1849C 1511.85,1859 1494.18,1866.66 1475.5,1872C 1458.8,1875.25 1442.14,1875.25 1425.5,1872C 1422.92,1871.22 1420.92,1869.72 1419.5,1867.5C 1417.46,1866.96 1415.46,1866.29 1413.5,1865.5C 1384.25,1801.25 1362.08,1734.58 1347,1665.5C 1344.06,1656.84 1341.22,1648.18 1338.5,1639.5 Z"/></g>
<g><path style="opacity:0.004" fill="#fefffe" d="M 2134.5,1601.5 C 2135.83,1602.17 2135.83,1602.17 2134.5,1601.5 Z"/></g>
<g><path style="opacity:0.004" fill="#fefffe" d="M 2152.5,1601.5 C 2153.83,1602.17 2153.83,1602.17 2152.5,1601.5 Z"/></g>
<g><path style="opacity:1" fill="#fefefe" d="M 1392.5,1843.5 C 1390.98,1843.51 1389.82,1844.18 1389,1845.5C 1388.1,1851.51 1387.27,1857.51 1386.5,1863.5C 1384.98,1863.51 1383.82,1864.18 1383,1865.5C 1379.45,1874.1 1374.28,1881.6 1367.5,1888C 1347.56,1904.64 1324.9,1915.97 1299.5,1922C 1283.12,1924.17 1266.78,1923.84 1250.5,1921C 1244.72,1920.11 1239.39,1918.11 1234.5,1915C 1224,1898.5 1213.5,1882 1203,1865.5C 1155.69,1781.5 1108.53,1697.83 1061.5,1614.5C 1092.83,1621.29 1124.16,1628.12 1155.5,1635C 1182.78,1639.37 1210.12,1643.37 1237.5,1647C 1255.16,1653.33 1272.82,1659.66 1290.5,1666C 1306.66,1670.62 1322.99,1674.46 1339.5,1677.5C 1348.19,1716.08 1359.03,1754.08 1372,1791.5C 1379.33,1808.67 1386.17,1826 1392.5,1843.5 Z"/></g>
<g><path style="opacity:0.043" fill="#000000" d="M 1739.5,1626.5 C 1740.83,1627.17 1740.83,1627.17 1739.5,1626.5 Z"/></g>
<g><path style="opacity:0.051" fill="#000000" d="M 1739.5,1627.5 C 1738.83,1628.17 1738.83,1628.17 1739.5,1627.5 Z"/></g>
<g><path style="opacity:0.016" fill="#000000" d="M 1738.5,1628.5 C 1737.83,1629.17 1737.83,1629.17 1738.5,1628.5 Z"/></g>
<g><path style="opacity:1" fill="#d4d4d4" d="M 1809.5,1670.5 C 1822.08,1669.86 1832.75,1674.03 1841.5,1683C 1851.78,1694.36 1859.94,1707.19 1866,1721.5C 1871.07,1736.03 1875.73,1750.7 1880,1765.5C 1883.55,1783.13 1886.88,1800.8 1890,1818.5C 1892.83,1840.38 1891.83,1862.05 1887,1883.5C 1877.99,1905.96 1862.15,1912.46 1839.5,1903C 1834.51,1900.84 1829.84,1898.17 1825.5,1895C 1822.38,1891.28 1818.72,1888.28 1814.5,1886C 1811.81,1883.44 1809.48,1880.61 1807.5,1877.5C 1808.42,1875.02 1809.92,1874.35 1812,1875.5C 1827.02,1858.82 1835.69,1839.15 1838,1816.5C 1838.62,1769.64 1822.45,1729.81 1789.5,1697C 1784.98,1693.13 1779.98,1690.13 1774.5,1688C 1785.19,1679.99 1796.85,1674.16 1809.5,1670.5 Z"/></g>
<g><path style="opacity:1" fill="#fefefe" d="M 1732.5,1694.5 C 1748.82,1693.2 1764.49,1695.7 1779.5,1702C 1797.7,1718.21 1811.2,1737.71 1820,1760.5C 1823.14,1772.72 1825.8,1785.05 1828,1797.5C 1829.21,1816.79 1825.54,1835.12 1817,1852.5C 1804.16,1870.98 1786.66,1882.81 1764.5,1888C 1754.52,1889.63 1744.52,1889.96 1734.5,1889C 1712.28,1909.44 1687.95,1926.94 1661.5,1941.5C 1655.31,1939.75 1651.64,1941.75 1650.5,1947.5C 1645.97,1949.73 1641.3,1951.23 1636.5,1952C 1658.28,1927.38 1670.78,1898.55 1674,1865.5C 1676.43,1833.23 1669.43,1803.23 1653,1775.5C 1647.79,1768.63 1641.63,1762.79 1634.5,1758C 1628.68,1755.34 1622.68,1753.17 1616.5,1751.5C 1614.13,1748.55 1613.29,1745.21 1614,1741.5C 1633.11,1730.88 1653.61,1726.38 1675.5,1728C 1687.26,1729.82 1698.93,1732.15 1710.5,1735C 1717.46,1737.03 1720.13,1734.69 1718.5,1728C 1709.15,1724.1 1699.49,1721.26 1689.5,1719.5C 1695.01,1708.06 1704.01,1700.9 1716.5,1698C 1722.01,1697 1727.34,1695.83 1732.5,1694.5 Z"/></g>
<g><path style="opacity:1" fill="#d5d5d5" d="M 1619.5,1762.5 C 1632.65,1767.34 1642.48,1776 1649,1788.5C 1664.93,1819.76 1668.59,1852.43 1660,1886.5C 1655.49,1906.06 1647.16,1923.73 1635,1939.5C 1627.51,1947.65 1619.01,1954.49 1609.5,1960C 1582.02,1966.47 1554.69,1965.81 1527.5,1958C 1515.5,1954 1503.5,1950 1491.5,1946C 1472.42,1936.6 1455.92,1923.77 1442,1907.5C 1436.09,1900.01 1430.42,1892.34 1425,1884.5C 1424.31,1883.67 1424.48,1883 1425.5,1882.5C 1442.84,1885.26 1460.18,1885.1 1477.5,1882C 1493.52,1876.82 1509.19,1870.82 1524.5,1864C 1559.83,1838.01 1588,1805.84 1609,1767.5C 1611.34,1774.51 1613.67,1781.51 1616,1788.5C 1618.46,1791.1 1620.96,1791.1 1623.5,1788.5C 1624.56,1785.9 1624.73,1783.23 1624,1780.5C 1621.16,1774.82 1619.66,1768.82 1619.5,1762.5 Z"/></g>
<g><path style="opacity:1" fill="#d5d5d5" d="M 1392.5,1843.5 C 1399.11,1859.21 1406.61,1874.54 1415,1889.5C 1426.67,1904.65 1439.17,1919.15 1452.5,1933C 1465.43,1943.3 1479.43,1951.8 1494.5,1958.5C 1484.67,1982.5 1469.67,2002.67 1449.5,2019C 1429.85,2029.89 1408.85,2035.22 1386.5,2035C 1382.05,2033.27 1377.71,2031.27 1373.5,2029C 1356.63,2018.73 1339.63,2008.73 1322.5,1999C 1307.83,1987.67 1293.17,1976.33 1278.5,1965C 1267.98,1953.98 1257.65,1942.82 1247.5,1931.5C 1248.17,1931.17 1248.83,1930.83 1249.5,1930.5C 1279.72,1937.6 1308.72,1934.1 1336.5,1920C 1352.72,1911.44 1367.55,1900.94 1381,1888.5C 1385.06,1882.76 1388.73,1876.76 1392,1870.5C 1393.33,1865.66 1391.49,1863.33 1386.5,1863.5C 1387.27,1857.51 1388.1,1851.51 1389,1845.5C 1389.82,1844.18 1390.98,1843.51 1392.5,1843.5 Z"/></g>
<g><path style="opacity:1" fill="#fefefe" d="M 1658.5,1955.5 C 1662.81,1958.57 1664.64,1962.9 1664,1968.5C 1666.14,1969.73 1667.81,1971.39 1669,1973.5C 1674.1,1984.99 1677.43,1996.99 1679,2009.5C 1684.16,2014.08 1687.33,2012.91 1688.5,2006C 1687.2,1994.81 1684.2,1984.15 1679.5,1974C 1706.8,1985.2 1719.8,2005.86 1718.5,2036C 1717.96,2078.73 1702.62,2115.06 1672.5,2145C 1656.01,2155.95 1637.85,2161.45 1618,2161.5C 1589.3,2160.05 1563.47,2150.88 1540.5,2134C 1526.76,2121.49 1515.42,2107.15 1506.5,2091C 1509.44,2091.31 1512.44,2091.81 1515.5,2092.5C 1521.34,2091.65 1522.68,2088.82 1519.5,2084C 1480.99,2074.39 1443.66,2061.39 1407.5,2045C 1426.74,2041.2 1444.41,2033.87 1460.5,2023C 1479.01,2007.16 1492.84,1988 1502,1965.5C 1502.78,1963.79 1504.11,1962.79 1506,1962.5C 1556.22,1979.39 1605.72,1977.39 1654.5,1956.5C 1656.3,1957.93 1657.63,1957.6 1658.5,1955.5 Z"/></g>
<g><path style="opacity:1" fill="#838383" d="M 1730.5,2011.5 C 1732.47,2010.84 1734.64,2010.5 1737,2010.5C 1740.78,2010.38 1744.28,2011.05 1747.5,2012.5C 1741.86,2011.78 1736.2,2011.45 1730.5,2011.5 Z"/></g>
<g><path style="opacity:1" fill="#d4d4d4" d="M 1730.5,2011.5 C 1736.2,2011.45 1741.86,2011.78 1747.5,2012.5C 1750.02,2012.76 1752.35,2013.59 1754.5,2015C 1771.53,2030.23 1780.69,2049.39 1782,2072.5C 1783.21,2109.06 1779.54,2145.06 1771,2180.5C 1766.19,2202.78 1757.53,2223.45 1745,2242.5C 1728.71,2262.31 1711.04,2263.65 1692,2246.5C 1680.48,2230.95 1672.31,2213.78 1667.5,2195C 1673.94,2184.64 1680.77,2174.47 1688,2164.5C 1706.16,2130.68 1719.16,2095.01 1727,2057.5C 1729.11,2043.27 1728.95,2029.1 1726.5,2015C 1726.42,2012.24 1727.76,2011.08 1730.5,2011.5 Z"/></g>
<g><path style="opacity:0.016" fill="#000000" d="M 1451.5,2086.5 C 1452.83,2087.17 1452.83,2087.17 1451.5,2086.5 Z"/></g>
<g><path style="opacity:0.01" fill="#000000" d="M 1455.5,2088.5 C 1454.76,2088.63 1454.09,2088.46 1453.5,2088C 1454.44,2087.31 1455.1,2087.47 1455.5,2088.5 Z"/></g>
<g><path style="opacity:0.022" fill="#000000" d="M 1455.5,2088.5 C 1456.24,2088.37 1456.91,2088.54 1457.5,2089C 1456.56,2089.69 1455.9,2089.53 1455.5,2088.5 Z"/></g>
<g><path style="opacity:0.037" fill="#000000" d="M 1460.5,2090.5 C 1459.76,2090.63 1459.09,2090.46 1458.5,2090C 1459.44,2089.31 1460.1,2089.47 1460.5,2090.5 Z"/></g>
<g><path style="opacity:0.033" fill="#000000" d="M 1460.5,2090.5 C 1461.24,2090.37 1461.91,2090.54 1462.5,2091C 1461.56,2091.69 1460.9,2091.53 1460.5,2090.5 Z"/></g>
<g><path style="opacity:0.004" fill="#000000" d="M 1464.5,2091.5 C 1465.83,2092.17 1465.83,2092.17 1464.5,2091.5 Z"/></g>
<g><path style="opacity:0.004" fill="#000000" d="M 1469.5,2094.5 C 1469.9,2093.47 1470.56,2093.31 1471.5,2094C 1470.91,2094.46 1470.24,2094.63 1469.5,2094.5 Z"/></g>
</svg>
