<?xml version="1.0" encoding="UTF-8"?>
<!DOCTYPE svg PUBLIC "-//W3C//DTD SVG 1.1//EN" "http://www.w3.org/Graphics/SVG/1.1/DTD/svg11.dtd">
<svg xmlns="http://www.w3.org/2000/svg" version="1.1" width="2480px" height="2480px" style="shape-rendering:geometricPrecision; text-rendering:geometricPrecision; image-rendering:optimizeQuality; fill-rule:evenodd; clip-rule:evenodd" xmlns:xlink="http://www.w3.org/1999/xlink">
<g><path style="opacity:0.02" fill="#000000" d="M 1970.5,459.5 C 1969.83,458.167 1969.83,458.167 1970.5,459.5 Z"/></g>
<g><path style="opacity:0.127" fill="#000000" d="M 1970.5,459.5 C 1973.4,460.129 1976.06,461.129 1978.5,462.5C 1975.28,462.655 1972.62,461.655 1970.5,459.5 Z"/></g>
<g><path style="opacity:0.157" fill="#000000" d="M 1978.5,462.5 C 1979.79,462.263 1980.79,462.596 1981.5,463.5C 1980.21,463.737 1979.21,463.404 1978.5,462.5 Z"/></g>
<g><path style="opacity:0.039" fill="#000000" d="M 1981.5,463.5 C 1982.83,464.167 1982.83,464.167 1981.5,463.5 Z"/></g>
<g><path style="opacity:0.976" fill="#030303" d="M 1731.5,844.5 C 1731.5,845.167 1731.83,845.5 1732.5,845.5C 1733.08,847.749 1734.41,849.415 1736.5,850.5C 1757.8,877.086 1776.64,905.42 1793,935.5C 1796.84,942.148 1796.01,948.148 1790.5,953.5C 1786.83,955.667 1783.17,957.833 1779.5,960C 1787.98,966.486 1795.82,973.653 1803,981.5C 1807.55,989.349 1809.05,997.682 1807.5,1006.5C 1815.51,1012.68 1822.68,1019.68 1829,1027.5C 1834.16,1036.57 1835.82,1046.24 1834,1056.5C 1840.81,1062.98 1846.48,1070.31 1851,1078.5C 1855.72,1087.86 1855.55,1097.03 1850.5,1106C 1861.88,1114.78 1867.55,1126.45 1867.5,1141C 1866.82,1144.89 1865.82,1148.72 1864.5,1152.5C 1874.27,1166.7 1879.44,1182.37 1880,1199.5C 1879.06,1203.21 1877.23,1206.37 1874.5,1209C 1883.83,1224.3 1886.99,1240.8 1884,1258.5C 1883.12,1261.1 1881.62,1263.27 1879.5,1265C 1880.79,1267.09 1881.96,1269.25 1883,1271.5C 1884.33,1272.17 1885.67,1272.83 1887,1273.5C 1897.93,1272.13 1908.76,1272.97 1919.5,1276C 1943.43,1282.14 1965.76,1291.8 1986.5,1305C 1993.74,1311.57 2000.24,1318.74 2006,1326.5C 2010.26,1336.79 2013.43,1347.45 2015.5,1358.5C 2014.61,1369.03 2012.27,1379.19 2008.5,1389C 2019.7,1411.3 2025.7,1434.97 2026.5,1460C 2026.1,1472.57 2024.94,1486.07 2023,1500.5C 2018.7,1520.3 2008.54,1536.13 1992.5,1548C 1985.32,1552.06 1977.65,1554.73 1969.5,1556C 1992.51,1592.21 1998.34,1631.05 1987,1672.5C 1977.52,1693.98 1963.02,1711.14 1943.5,1724C 1955.78,1723.99 1967.78,1723.49 1979.5,1722.5C 1982.75,1722.77 1985.92,1723.44 1989,1724.5C 2018.51,1722.21 2048.17,1722.54 2078,1725.5C 2093.1,1725.55 2108.27,1725.38 2123.5,1725C 2124.25,1723.51 2125.09,1723.35 2126,1724.5C 2121.88,1690.98 2118.21,1657.32 2115,1623.5C 2114.54,1619.55 2113.7,1615.72 2112.5,1612C 2109.88,1564.93 2105.38,1518.1 2099,1471.5C 2096.86,1442.48 2094.53,1413.48 2092,1384.5C 2091.41,1378.71 2090.24,1373.04 2088.5,1367.5C 2085.47,1365.46 2082.3,1365.13 2079,1366.5C 2077.11,1365.87 2075.44,1364.87 2074,1363.5C 2073.33,1352.17 2073.33,1340.83 2074,1329.5C 2075.21,1327.95 2076.71,1326.78 2078.5,1326C 2085.83,1325.67 2093.17,1325.33 2100.5,1325C 2108.83,1315.33 2117.17,1305.67 2125.5,1296C 2148.51,1295.86 2171.84,1295.52 2195.5,1295C 2188.07,1260.13 2193.57,1227.29 2212,1196.5C 2223.08,1178.66 2234.42,1161 2246,1143.5C 2253.69,1129.3 2259.85,1114.46 2264.5,1099C 2261.96,1095.71 2258.63,1093.38 2254.5,1092C 2248.64,1089.6 2242.64,1087.6 2236.5,1086C 2222.46,1084.49 2208.46,1083.16 2194.5,1082C 2160.09,1076.05 2130.26,1061.21 2105,1037.5C 2101.42,1033.35 2098.09,1029.01 2095,1024.5C 2062.17,947.653 2078,883.153 2142.5,831C 2147.84,830.011 2150.34,832.178 2150,837.5C 2142.69,845.143 2135.02,852.476 2127,859.5C 2113.71,874.137 2103.71,890.804 2097,909.5C 2084.95,947.519 2088.29,985.185 2107,1022.5C 2112.83,1029.67 2119.33,1036.17 2126.5,1042C 2140.53,1050.68 2155.19,1058.35 2170.5,1065C 2192.45,1070.76 2214.78,1074.1 2237.5,1075C 2248.03,1077.56 2258.03,1081.4 2267.5,1086.5C 2276.01,1061.65 2272.18,1038.65 2256,1017.5C 2249.18,1010.77 2241.84,1004.77 2234,999.5C 2233.12,995.255 2234.79,992.588 2239,991.5C 2243.29,991.888 2247.13,993.388 2250.5,996C 2275.68,1017.86 2286.18,1045.36 2282,1078.5C 2275.83,1102 2267.5,1124.67 2257,1146.5C 2244,1166.83 2231,1187.17 2218,1207.5C 2215.67,1212.83 2213.33,1218.17 2211,1223.5C 2208.14,1234.43 2205.47,1245.43 2203,1256.5C 2202.33,1265.17 2202.33,1273.83 2203,1282.5C 2203.46,1286.39 2204.63,1290.06 2206.5,1293.5C 2246.62,1294.14 2287.29,1294.98 2328.5,1296C 2330.88,1296.51 2333.21,1297.18 2335.5,1298C 2341.17,1307 2346.83,1316 2352.5,1325C 2359.75,1325.81 2366.91,1325.65 2374,1324.5C 2377.44,1324.94 2380.11,1326.61 2382,1329.5C 2382.67,1339.83 2382.67,1350.17 2382,1360.5C 2378.18,1365.4 2373.01,1367.4 2366.5,1366.5C 2363.91,1391.17 2361.24,1415.84 2358.5,1440.5C 2359.22,1442.69 2359.55,1444.69 2359.5,1446.5C 2350.93,1539.28 2341.6,1632.28 2331.5,1725.5C 2336.76,1725.8 2341.93,1725.47 2347,1724.5C 2349.74,1725.28 2352.57,1725.78 2355.5,1726C 2358.17,1729 2358.17,1732 2355.5,1735C 2351.45,1736.1 2347.28,1736.6 2343,1736.5C 2301.24,1734.77 2259.74,1733.94 2218.5,1734C 2210.45,1734.61 2202.45,1735.45 2194.5,1736.5C 2154.17,1736.27 2114.67,1736.27 2076,1736.5C 2047.29,1733.47 2018.29,1733.13 1989,1735.5C 1960.96,1735.04 1932.63,1735.04 1904,1735.5C 1896.33,1736.17 1888.67,1736.83 1881,1737.5C 1868,1736.83 1855,1736.17 1842,1735.5C 1830.67,1735.5 1819.33,1735.5 1808,1735.5C 1801.76,1736.58 1795.43,1737.25 1789,1737.5C 1748.51,1735.94 1707.84,1734.94 1667,1734.5C 1611.32,1735.56 1555.32,1735.56 1499,1734.5C 1490.27,1735.04 1481.6,1735.71 1473,1736.5C 1469.11,1736.73 1465.11,1736.39 1461,1735.5C 1436.22,1736.42 1411.39,1737.42 1386.5,1738.5C 1381.04,1736.94 1375.37,1736.27 1369.5,1736.5C 1348.36,1737.85 1327.19,1738.52 1306,1738.5C 1213.12,1737.64 1120.78,1736.98 1029,1736.5C 1014.05,1737.2 999.053,1737.86 984,1738.5C 965.554,1738.02 946.221,1737.69 926,1737.5C 910.083,1738.7 894.083,1739.37 878,1739.5C 788.157,1739.66 699.157,1739.33 611,1738.5C 594.234,1739.29 577.4,1739.95 560.5,1740.5C 549.262,1740.03 538.095,1739.36 527,1738.5C 435.023,1739.45 343.689,1740.12 253,1740.5C 242.194,1739.52 231.361,1738.52 220.5,1737.5C 217.4,1733.5 218.067,1730.33 222.5,1728C 229.793,1728.08 237.126,1728.08 244.5,1728C 240.071,1721.31 236.571,1714.14 234,1706.5C 230.302,1692.58 235.302,1683.91 249,1680.5C 252.409,1681.62 255.909,1681.79 259.5,1681C 250.8,1674.97 244.3,1667.14 240,1657.5C 236.782,1642.19 233.782,1626.85 231,1611.5C 206.406,1454.56 181.073,1297.89 155,1141.5C 152.533,1120.9 149.7,1100.4 146.5,1080C 148.277,1060.4 159.277,1049.9 179.5,1048.5C 201.371,1049.09 223.205,1049.42 245,1049.5C 258.396,1048.93 271.063,1048.26 283,1047.5C 303.836,1048.81 324.669,1049.81 345.5,1050.5C 347.5,1050.17 349.5,1049.83 351.5,1049.5C 358.728,1050.08 365.894,1050.74 373,1051.5C 390.598,1050.68 408.264,1050.01 426,1049.5C 441.371,1050.17 457.038,1049.84 473,1048.5C 522.216,1048.59 571.216,1048.59 620,1048.5C 640.813,1050.03 661.646,1050.53 682.5,1050C 681.825,1047.76 682.325,1045.59 684,1043.5C 689.747,1034.42 696.247,1025.92 703.5,1018C 700.345,1013.88 698.345,1009.21 697.5,1004C 699.442,998.953 700.942,993.787 702,988.5C 710.5,981.333 719,974.167 727.5,967C 720.933,961.54 716.933,954.54 715.5,946C 716.711,942.948 717.545,939.781 718,936.5C 724.042,926.915 730.209,917.415 736.5,908C 730.361,900.06 726.361,891.227 724.5,881.5C 724.507,878.408 725.007,875.408 726,872.5C 728.333,869.167 730.667,865.833 733,862.5C 773.981,819.496 820.148,783.329 871.5,754C 889.102,745.866 906.435,737.199 923.5,728C 933.248,724.195 942.914,720.195 952.5,716C 937.552,711.378 929.719,701.211 929,685.5C 927.418,666.933 928.751,648.599 933,630.5C 936.129,622.32 938.795,613.987 941,605.5C 944.57,598.191 947.736,590.691 950.5,583C 946.972,555.478 948.805,528.311 956,501.5C 959.801,487.712 967.967,477.545 980.5,471C 984.284,469.929 988.118,469.096 992,468.5C 1018.69,471.95 1043.19,481.117 1065.5,496C 1109.54,527.249 1141.21,568.082 1160.5,618.5C 1168.35,619.897 1175.85,622.231 1183,625.5C 1189.1,622.201 1195.6,620.201 1202.5,619.5C 1207.77,600.617 1216.94,583.95 1230,569.5C 1252.09,545.725 1276.26,524.559 1302.5,506C 1332.39,486.107 1365.39,476.607 1401.5,477.5C 1437.87,478.887 1454.54,497.887 1451.5,534.5C 1450.48,555.344 1447.98,576.011 1444,596.5C 1443.17,598.667 1441.67,600.167 1439.5,601C 1454.28,630.512 1463.28,661.679 1466.5,694.5C 1490.74,694.749 1514.41,698.583 1537.5,706C 1566.64,714.348 1594.97,724.348 1622.5,736C 1639.54,743.688 1655.87,752.688 1671.5,763C 1677.38,767.21 1682.21,772.377 1686,778.5C 1689.02,786.112 1687.18,792.279 1680.5,797C 1698.76,811.466 1715.76,827.299 1731.5,844.5 Z"/></g>
<g><path style="opacity:1" fill="#7d92f7" d="M 987.5,479.5 C 1014.48,481.822 1039.15,490.655 1061.5,506C 1085.04,523.872 1105.54,544.706 1123,568.5C 1134.61,585.713 1144.11,604.046 1151.5,623.5C 1143.58,630.988 1137.91,639.988 1134.5,650.5C 1100.18,635.069 1064.18,627.235 1026.5,627C 1023.48,629.264 1022.81,632.097 1024.5,635.5C 1049.15,637.365 1073.48,641.198 1097.5,647C 1109.26,651.084 1120.92,655.251 1132.5,659.5C 1131,671.625 1131.66,683.625 1134.5,695.5C 1134.18,696.647 1133.52,697.481 1132.5,698C 1088.41,706.559 1043.91,711.392 999,712.5C 986.431,712.055 973.931,710.888 961.5,709C 955.577,706.124 950.077,702.624 945,698.5C 940.01,689.196 937.843,679.196 938.5,668.5C 938.523,656.318 940.023,644.318 943,632.5C 946.09,623.296 948.757,613.963 951,604.5C 952.097,602.947 953.43,601.614 955,600.5C 960.858,589.447 966.692,578.447 972.5,567.5C 972.167,563.011 969.833,561.511 965.5,563C 963.3,565.234 961.467,567.734 960,570.5C 958.179,547.044 960.512,524.044 967,501.5C 970.988,491.351 977.821,484.017 987.5,479.5 Z"/></g>
<g><path style="opacity:1" fill="#7d92f7" d="M 1393.5,487.5 C 1408.19,486.127 1421.35,489.794 1433,498.5C 1434.92,501.339 1436.59,504.339 1438,507.5C 1440.05,516.209 1441.22,525.042 1441.5,534C 1440.35,553.049 1437.85,571.882 1434,590.5C 1431.55,585.716 1428.05,581.883 1423.5,579C 1418.01,578.514 1416.17,581.014 1418,586.5C 1422.65,591.138 1426.32,596.471 1429,602.5C 1443.95,632.525 1453.12,664.192 1456.5,697.5C 1454.77,701.868 1452.93,706.202 1451,710.5C 1443.38,715.821 1434.88,718.988 1425.5,720C 1363.93,721.221 1302.93,715.888 1242.5,704C 1235.68,702.117 1229.02,699.95 1222.5,697.5C 1219.52,686.921 1216.86,676.255 1214.5,665.5C 1228.75,657.69 1243.75,651.524 1259.5,647C 1274.64,642.439 1289.98,638.772 1305.5,636C 1309.1,634.666 1310.27,632.166 1309,628.5C 1307.41,626.703 1305.41,625.703 1303,625.5C 1271.94,632.133 1241.77,641.467 1212.5,653.5C 1211.79,642.838 1211.62,632.171 1212,621.5C 1217.08,605.992 1224.75,591.992 1235,579.5C 1254.99,557.507 1276.82,537.674 1300.5,520C 1319,506.498 1339.34,496.832 1361.5,491C 1372.37,490.31 1383.04,489.143 1393.5,487.5 Z"/></g>
<g><path style="opacity:1" fill="#7c91f5" d="M 1158.5,630.5 C 1163.69,630.273 1168.69,631.107 1173.5,633C 1168.03,637.467 1168.2,641.301 1174,644.5C 1175.23,644.355 1176.39,644.022 1177.5,643.5C 1183.53,635.987 1191.2,631.987 1200.5,631.5C 1201.91,643.819 1203.41,656.152 1205,668.5C 1206.87,678.196 1209.37,687.696 1212.5,697C 1190.74,703.693 1168.74,704.859 1146.5,700.5C 1137.69,677.165 1140.19,655.165 1154,634.5C 1155.67,633.267 1157.17,631.933 1158.5,630.5 Z"/></g>
<g><path style="opacity:1" fill="#696969" d="M 1464.5,704.5 C 1480.66,704.88 1496.66,706.713 1512.5,710C 1561.7,723.115 1608.7,741.448 1653.5,765C 1661.3,769.652 1668.46,775.152 1675,781.5C 1675.64,782.609 1676.14,783.775 1676.5,785C 1675,787.833 1672.83,790 1670,791.5C 1659.51,785.683 1649.01,779.85 1638.5,774C 1632.29,773.048 1630.29,775.548 1632.5,781.5C 1653.28,792.063 1672.61,804.896 1690.5,820C 1728.14,854.296 1758.98,893.796 1783,938.5C 1783.58,941.257 1783.25,943.923 1782,946.5C 1766.59,954.635 1750.76,961.801 1734.5,968C 1723.61,971.192 1712.61,973.525 1701.5,975C 1699.22,970.943 1697.05,966.777 1695,962.5C 1692.3,952.088 1689.3,941.754 1686,931.5C 1672.52,903.204 1657.52,875.871 1641,849.5C 1636.71,844.425 1632.55,839.258 1628.5,834C 1621.95,833.237 1619.78,836.07 1622,842.5C 1636.22,859.053 1647.55,877.387 1656,897.5C 1663.81,923.23 1669.31,949.396 1672.5,976C 1672.61,982.55 1669.61,986.884 1663.5,989C 1660.12,989.875 1656.78,990.875 1653.5,992C 1620.55,997.829 1587.55,1003.33 1554.5,1008.5C 1551.31,1008.14 1549.15,1006.48 1548,1003.5C 1540.64,967.737 1529.64,933.07 1515,899.5C 1511.92,893.009 1508.59,886.675 1505,880.5C 1498.39,877.682 1495.73,879.682 1497,886.5C 1508.14,907.581 1517.14,929.581 1524,952.5C 1530.3,979.177 1536.8,1005.84 1543.5,1032.5C 1543.18,1033.65 1542.52,1034.48 1541.5,1035C 1532.22,1036.52 1522.89,1036.85 1513.5,1036C 1513,1035.5 1512.5,1035 1512,1034.5C 1504.83,998.977 1495.49,963.977 1484,929.5C 1473.72,906.276 1462.39,883.609 1450,861.5C 1428.64,832.8 1404.47,806.633 1377.5,783C 1370.23,778.726 1363.23,774.059 1356.5,769C 1300.2,741.968 1241.04,725.135 1179,718.5C 1102.33,719.46 1029.83,737.293 961.5,772C 947.5,780.667 933.5,789.333 919.5,798C 906.114,808.386 892.447,818.386 878.5,828C 854.428,849.061 832.928,872.228 814,897.5C 806.833,907.83 800.166,918.497 794,929.5C 791,933.167 788,936.833 785,940.5C 778.534,953.934 771.701,967.1 764.5,980C 748.243,973.925 736.077,963.092 728,947.5C 727.333,945.5 727.333,943.5 728,941.5C 741.044,918.728 756.044,897.394 773,877.5C 790.865,857.968 809.698,839.468 829.5,822C 841.673,812.081 854.673,803.414 868.5,796C 871.774,793.396 872.107,790.563 869.5,787.5C 867.232,786.456 864.899,786.289 862.5,787C 852.162,792.834 842.162,799.167 832.5,806C 815.339,821.495 798.505,837.328 782,853.5C 777.066,860.769 771.066,867.102 764,872.5C 756.621,880.877 749.621,889.544 743,898.5C 738.062,892.641 735.396,885.975 735,878.5C 736.271,875.567 737.938,872.901 740,870.5C 772.405,836.753 807.905,806.919 846.5,781C 873.486,766.172 900.82,751.838 928.5,738C 944.243,731.864 960.243,726.53 976.5,722C 989.636,720.52 1002.8,720.354 1016,721.5C 1057.01,720.379 1097.51,715.379 1137.5,706.5C 1141.21,709.685 1145.54,711.518 1150.5,712C 1166.53,713.956 1182.53,713.622 1198.5,711C 1204.39,709.256 1210.39,708.089 1216.5,707.5C 1247.77,715.325 1279.43,721.158 1311.5,725C 1340.3,727.829 1369.13,729.996 1398,731.5C 1407.16,730.834 1416.32,730.334 1425.5,730C 1439.21,728.879 1451.37,724.046 1462,715.5C 1463.15,711.888 1463.98,708.222 1464.5,704.5 Z"/></g>
<g><path style="opacity:1" fill="#eeae41" d="M 1562.5,1016.5 C 1568.11,1016.93 1573.45,1016.26 1578.5,1014.5C 1583.73,1013.35 1589.06,1012.68 1594.5,1012.5C 1601.18,1011.83 1607.85,1011 1614.5,1010C 1615.42,1009.72 1616.08,1009.22 1616.5,1008.5C 1617.5,1008.5 1618.5,1008.5 1619.5,1008.5C 1626.86,1013.18 1634.52,1017.35 1642.5,1021C 1645.62,1024.72 1649.28,1027.72 1653.5,1030C 1661,1035.84 1665.16,1043.34 1666,1052.5C 1664.67,1055.17 1662.67,1057.17 1660,1058.5C 1658.63,1060.7 1658.29,1063.03 1659,1065.5C 1670.97,1073.82 1679.64,1084.82 1685,1098.5C 1689.22,1106.6 1689.22,1114.6 1685,1122.5C 1683.95,1126.48 1685.29,1129.48 1689,1131.5C 1696.27,1142.71 1701.94,1154.71 1706,1167.5C 1707,1170.8 1707.33,1174.13 1707,1177.5C 1705.17,1179.07 1703.01,1179.91 1700.5,1180C 1698.09,1183.04 1697.93,1186.21 1700,1189.5C 1709.86,1201.88 1715.86,1215.88 1718,1231.5C 1715.44,1235.62 1711.77,1238.29 1707,1239.5C 1706.33,1242.5 1706.33,1245.5 1707,1248.5C 1717.19,1262.54 1721.85,1278.2 1721,1295.5C 1719.73,1299.11 1717.39,1301.77 1714,1303.5C 1713.34,1305.8 1712.84,1308.13 1712.5,1310.5C 1716.07,1317.79 1718.57,1325.45 1720,1333.5C 1720.71,1341.28 1720.05,1348.95 1718,1356.5C 1716.27,1357.25 1714.43,1357.75 1712.5,1358C 1711.2,1358.8 1710.53,1359.97 1710.5,1361.5C 1712.86,1371.78 1715.02,1382.11 1717,1392.5C 1717.67,1399.5 1717.67,1406.5 1717,1413.5C 1716.75,1414.62 1716.25,1415.62 1715.5,1416.5C 1706.22,1419.32 1703.39,1425.32 1707,1434.5C 1712.73,1446.18 1715.89,1458.51 1716.5,1471.5C 1712.88,1473.95 1709.38,1476.62 1706,1479.5C 1700.94,1469.04 1695.6,1458.71 1690,1448.5C 1675.59,1430.81 1657.75,1426.31 1636.5,1435C 1634.07,1436.63 1631.57,1438.13 1629,1439.5C 1625.21,1436.72 1621.71,1433.55 1618.5,1430C 1602.72,1420.59 1586.55,1420.09 1570,1428.5C 1560.66,1417.09 1548.5,1411.09 1533.5,1410.5C 1527.92,1387.72 1513.59,1374.56 1490.5,1371C 1480.79,1370.18 1471.12,1370.51 1461.5,1372C 1426.67,1388.84 1404.17,1416.01 1394,1453.5C 1394.26,1464.62 1397.93,1474.62 1405,1483.5C 1414.97,1490.42 1425.47,1491.25 1436.5,1486C 1442,1483.75 1447,1480.75 1451.5,1477C 1460.37,1468.46 1469.54,1460.3 1479,1452.5C 1482.28,1454.71 1483.61,1457.71 1483,1461.5C 1470.19,1489.07 1464.53,1518.07 1466,1548.5C 1443.67,1532.16 1419.17,1519.99 1392.5,1512C 1356.98,1511.84 1346.81,1528 1362,1560.5C 1370.46,1572.63 1380.63,1583.13 1392.5,1592C 1419.87,1612.52 1449.53,1629.19 1481.5,1642C 1494.31,1645.88 1506.98,1650.05 1519.5,1654.5C 1510.45,1663.38 1501.95,1672.72 1494,1682.5C 1483.96,1696.75 1473.79,1710.92 1463.5,1725C 1448.17,1725.6 1432.83,1726.1 1417.5,1726.5C 1410.65,1726.82 1403.98,1726.49 1397.5,1725.5C 1405.13,1716.57 1409.79,1706.24 1411.5,1694.5C 1410.32,1684.55 1404.65,1679.05 1394.5,1678C 1389.18,1677.5 1383.84,1677.33 1378.5,1677.5C 1378.67,1671.16 1378.5,1664.82 1378,1658.5C 1377.81,1656.29 1377.31,1654.29 1376.5,1652.5C 1364.63,1613.14 1338.63,1588.64 1298.5,1579C 1307.04,1571.12 1315.87,1563.62 1325,1556.5C 1349.42,1526.95 1357.25,1493.45 1348.5,1456C 1343.47,1440.31 1335.14,1426.64 1323.5,1415C 1308.94,1402.72 1292.61,1393.55 1274.5,1387.5C 1261.64,1384.39 1248.64,1382.06 1235.5,1380.5C 1231.44,1379.59 1227.77,1378.26 1224.5,1376.5C 1222.69,1349.72 1221.85,1322.72 1222,1295.5C 1221.62,1294.94 1221.12,1294.61 1220.5,1294.5C 1220.57,1292.97 1219.91,1291.97 1218.5,1291.5C 1213.23,1290.15 1207.73,1289.49 1202,1289.5C 1191.5,1290.09 1181,1290.59 1170.5,1291C 1168.94,1291.21 1167.61,1291.71 1166.5,1292.5C 1166.17,1293.17 1165.83,1293.83 1165.5,1294.5C 1164.5,1320.99 1164.17,1347.66 1164.5,1374.5C 1158.82,1374.33 1153.16,1374.5 1147.5,1375C 1145.94,1375.21 1144.61,1375.71 1143.5,1376.5C 1140.83,1376.5 1138.17,1376.5 1135.5,1376.5C 1135.67,1350.16 1135.5,1323.83 1135,1297.5C 1134.96,1295.03 1134.13,1293.03 1132.5,1291.5C 1127.23,1290.15 1121.73,1289.49 1116,1289.5C 1105.5,1290.09 1095,1290.59 1084.5,1291C 1082.94,1291.21 1081.61,1291.71 1080.5,1292.5C 1079.51,1320.76 1079.18,1349.09 1079.5,1377.5C 1051.5,1377.33 1023.5,1377.5 995.5,1378C 993.703,1379.59 992.703,1381.59 992.5,1384C 992.992,1398.57 993.825,1413.07 995,1427.5C 998.072,1431.39 1001.91,1432.39 1006.5,1430.5C 1013.71,1430.85 1020.71,1432.19 1027.5,1434.5C 1033.77,1439.76 1037.94,1446.43 1040,1454.5C 1041.01,1471.15 1041.51,1487.82 1041.5,1504.5C 1040.21,1562.83 1040.21,1621.17 1041.5,1679.5C 1022.17,1679.5 1002.83,1679.5 983.5,1679.5C 983.443,1678.39 983.11,1677.39 982.5,1676.5C 984.333,1674.5 984.833,1672.17 984,1669.5C 971.692,1645.55 958.359,1622.21 944,1599.5C 934.9,1588.4 925.067,1577.9 914.5,1568C 911.904,1566.86 909.237,1566.03 906.5,1565.5C 902.568,1560.87 897.901,1557.2 892.5,1554.5C 885.222,1513.05 879.389,1471.39 875,1429.5C 870.272,1402.29 866.272,1374.95 863,1347.5C 851.818,1292.26 843.485,1236.59 838,1180.5C 832.741,1146.09 827.074,1111.76 821,1077.5C 817.398,1068.43 811.564,1061.26 803.5,1056C 800.637,1054.6 797.637,1053.6 794.5,1053C 760.873,1050.99 727.206,1050.16 693.5,1050.5C 701.375,1034.8 712.541,1021.8 727,1011.5C 727.993,1005.5 725.493,1003.33 719.5,1005C 716.971,1007.03 714.304,1008.86 711.5,1010.5C 707.59,1005.48 707.756,1000.48 712,995.5C 718.608,986.87 726.608,979.87 736,974.5C 743.406,980.791 751.573,985.958 760.5,990C 764.434,990.526 768.1,989.693 771.5,987.5C 779.444,974.613 786.611,961.279 793,947.5C 810.194,917.46 830.694,889.793 854.5,864.5C 887.101,834.037 922.434,807.204 960.5,784C 1032.37,745.374 1109.03,727.374 1190.5,730C 1248.8,737.547 1304.14,754.547 1356.5,781C 1361.33,784.581 1366.33,787.915 1371.5,791C 1405.26,820.404 1433.43,854.237 1456,892.5C 1465.21,912.927 1473.88,933.593 1482,954.5C 1489.1,983.381 1496.43,1012.05 1504,1040.5C 1507.46,1044.76 1511.96,1046.59 1517.5,1046C 1528.08,1047.23 1538.42,1046.23 1548.5,1043C 1549.93,1042.53 1551.1,1041.7 1552,1040.5C 1552.8,1032.74 1552.3,1025.07 1550.5,1017.5C 1554.47,1016.84 1558.47,1016.5 1562.5,1016.5 Z"/></g>
<g><path style="opacity:0.908" fill="#000000" d="M 2225.5,769.5 C 2232,768.499 2234.5,771.165 2233,777.5C 2228.61,780.187 2224.11,782.687 2219.5,785C 2196.87,805.293 2178.37,828.793 2164,855.5C 2153.81,878.416 2151.81,902.082 2158,926.5C 2161.73,934.955 2165.73,943.288 2170,951.5C 2175.17,957.005 2180.67,962.172 2186.5,967C 2199.58,972.806 2212.58,978.806 2225.5,985C 2229.6,989.986 2228.43,993.153 2222,994.5C 2198.67,988.605 2178.67,976.938 2162,959.5C 2140.92,925.46 2137.92,889.793 2153,852.5C 2165.03,831.101 2179.03,811.101 2195,792.5C 2203.67,782.635 2213.84,774.968 2225.5,769.5 Z"/></g>
<g><path style="opacity:0.004" fill="#000000" d="M 1686.5,771.5 C 1687.83,772.167 1687.83,772.167 1686.5,771.5 Z"/></g>
<g><path style="opacity:0.01" fill="#000000" d="M 1746.5,845.5 C 1743.33,842.817 1741.49,839.484 1741,835.5C 1743.05,838.423 1745.21,841.257 1747.5,844C 1746.94,844.383 1746.61,844.883 1746.5,845.5 Z"/></g>
<g><path style="opacity:0.009" fill="#000000" d="M 1731.5,842.5 C 1728.98,841.4 1727.98,839.733 1728.5,837.5C 1730.26,838.688 1731.26,840.355 1731.5,842.5 Z"/></g>
<g><path style="opacity:0.013" fill="#000000" d="M 1731.5,842.5 C 1732.91,842.973 1733.57,843.973 1733.5,845.5C 1733.17,845.5 1732.83,845.5 1732.5,845.5C 1731.83,845.5 1731.5,845.167 1731.5,844.5C 1731.5,843.833 1731.5,843.167 1731.5,842.5 Z"/></g>
<g><path style="opacity:0.008" fill="#000000" d="M 1733.5,845.5 C 1734.17,845.5 1734.5,845.833 1734.5,846.5C 1734.17,846.167 1733.83,845.833 1733.5,845.5 Z"/></g>
<g><path style="opacity:0.004" fill="#000000" d="M 1746.5,845.5 C 1747.83,846.167 1747.83,846.167 1746.5,845.5 Z"/></g>
<g><path style="opacity:0.004" fill="#000000" d="M 1734.5,846.5 C 1735.83,847.167 1735.83,847.167 1734.5,846.5 Z"/></g>
<g><path style="opacity:0.005" fill="#000000" d="M 1747.5,847.5 C 1749.34,847.639 1749.67,848.306 1748.5,849.5C 1747.7,849.043 1747.37,848.376 1747.5,847.5 Z"/></g>
<g><path style="opacity:0.004" fill="#000000" d="M 1736.5,849.5 C 1737.83,850.167 1737.83,850.167 1736.5,849.5 Z"/></g>
<g><path style="opacity:1" fill="#050302" d="M 1334.5,925.5 C 1329.32,924.185 1323.99,924.185 1318.5,925.5C 1318.62,926.107 1318.96,926.44 1319.5,926.5C 1322.87,931.221 1325.87,936.221 1328.5,941.5C 1329.33,941.833 1330.17,942.167 1331,942.5C 1340.11,940.816 1349.27,940.316 1358.5,941C 1362.95,941.776 1364.45,944.276 1363,948.5C 1362.23,949.849 1361.06,950.682 1359.5,951C 1357.3,951.373 1355.14,951.873 1353,952.5C 1347.55,951.57 1342.05,951.237 1336.5,951.5C 1334.83,951.5 1333.17,951.5 1331.5,951.5C 1331.22,953.415 1331.55,955.081 1332.5,956.5C 1334.15,965.136 1334.65,973.802 1334,982.5C 1340.76,985.462 1347.59,988.296 1354.5,991C 1356.3,996.534 1354.3,999.201 1348.5,999C 1342.79,996.931 1337.13,994.765 1331.5,992.5C 1313.6,1038.29 1280.27,1056.79 1231.5,1048C 1219.04,1044.77 1208.04,1038.94 1198.5,1030.5C 1197.39,1042.37 1195.22,1054.04 1192,1065.5C 1188.24,1072.68 1183.74,1079.35 1178.5,1085.5C 1207.66,1090.21 1236.66,1095.71 1265.5,1102C 1277.84,1104.84 1289.18,1109.84 1299.5,1117C 1305,1121.83 1310.5,1126.67 1316,1131.5C 1354.84,1175.67 1392.18,1221 1428,1267.5C 1430.39,1271.05 1432.56,1274.72 1434.5,1278.5C 1435.65,1282.86 1435.65,1287.19 1434.5,1291.5C 1433.61,1294.66 1431.45,1296.32 1428,1296.5C 1419.72,1295.96 1411.89,1293.8 1404.5,1290C 1372.34,1271.51 1344.84,1247.67 1322,1218.5C 1307.8,1203.97 1293.3,1189.8 1278.5,1176C 1271.46,1171.48 1264.12,1167.48 1256.5,1164C 1213.65,1152.62 1169.99,1148.28 1125.5,1151C 1089.78,1153.95 1054.45,1159.29 1019.5,1167C 1002.1,1171.77 987.602,1180.94 976,1194.5C 965.247,1210.33 955.247,1226.67 946,1243.5C 939.909,1252.01 933.576,1260.35 927,1268.5C 918.515,1277.82 908.682,1285.32 897.5,1291C 896.167,1291.67 894.833,1291.67 893.5,1291C 892.359,1288.22 890.525,1286.05 888,1284.5C 886.994,1282.47 886.494,1280.3 886.5,1278C 887.622,1269.68 889.456,1261.51 892,1253.5C 898.11,1235.28 904.777,1217.28 912,1199.5C 922.179,1177.97 935.679,1158.8 952.5,1142C 969.469,1127.68 988.469,1116.68 1009.5,1109C 1034.31,1098.88 1059.98,1092.05 1086.5,1088.5C 1076.7,1078.57 1069.7,1066.9 1065.5,1053.5C 1065.83,1046.47 1065.5,1039.47 1064.5,1032.5C 1063.89,1032.62 1063.56,1032.96 1063.5,1033.5C 1039.88,1049.57 1014.55,1053.07 987.5,1044C 965.727,1033.06 951.393,1015.89 944.5,992.5C 937.712,994.429 931.046,996.763 924.5,999.5C 919.294,997.624 918.294,994.457 921.5,990C 927.952,987.794 934.286,985.294 940.5,982.5C 940.347,973.851 941.014,965.185 942.5,956.5C 943.451,955.081 943.784,953.415 943.5,951.5C 941.833,951.5 940.167,951.5 938.5,951.5C 932.95,951.237 927.45,951.57 922,952.5C 919.205,951.815 916.372,951.315 913.5,951C 910.111,946.252 911.111,942.919 916.5,941C 925.701,940.682 934.868,941.182 944,942.5C 944.833,942.167 945.667,941.833 946.5,941.5C 948.906,936.269 951.906,931.435 955.5,927C 936.188,925.511 916.855,924.178 897.5,923C 893.044,922.043 888.711,920.71 884.5,919C 875.894,911.05 876.56,904.05 886.5,898C 898.539,894.271 910.872,891.937 923.5,891C 917.105,888.818 910.771,886.485 904.5,884C 898.658,880.643 895.324,875.643 894.5,869C 896.626,859.899 902.459,855.732 912,856.5C 968.74,858.711 1022.57,872.211 1073.5,897C 1086.01,903.68 1097.18,912.18 1107,922.5C 1110.69,932.486 1107.52,939.32 1097.5,943C 1099.54,944.708 1101.21,946.708 1102.5,949C 1103.17,949.667 1103.83,949.667 1104.5,949C 1109.89,944.611 1115.56,940.611 1121.5,937C 1127.81,935.117 1134.14,935.117 1140.5,937C 1151.44,941.543 1160.61,948.377 1168,957.5C 1169.31,954.911 1169.98,952.244 1170,949.5C 1154.72,940.561 1152.38,928.895 1163,914.5C 1168.37,908.9 1174.54,904.4 1181.5,901C 1218.37,882.487 1257.04,869.153 1297.5,861C 1312.8,858.45 1328.13,856.117 1343.5,854C 1356.78,852.772 1369.78,854.105 1382.5,858C 1389.57,862.456 1391.4,868.622 1388,876.5C 1385.8,879.04 1383.3,881.207 1380.5,883C 1373.42,885.47 1366.42,888.137 1359.5,891C 1375,893.166 1390,897.166 1404.5,903C 1411.51,907.144 1413.34,912.977 1410,920.5C 1406.56,923.874 1402.39,925.707 1397.5,926C 1376.5,926.227 1355.5,926.061 1334.5,925.5 Z"/></g>
<g><path style="opacity:1" fill="#fdfdfd" d="M 995.5,914.5 C 1028.49,914.663 1058.16,924.497 1084.5,944C 1088.04,947.201 1091.2,950.701 1094,954.5C 1094.52,956.289 1094.19,957.956 1093,959.5C 1080.33,975.853 1071.66,994.187 1067,1014.5C 1063.11,1021.39 1057.61,1026.55 1050.5,1030C 1006.92,1049.14 975.083,1037.31 955,994.5C 948.656,974.895 950.322,955.895 960,937.5C 968.624,924.621 980.457,916.954 995.5,914.5 Z"/></g>
<g><path style="opacity:1" fill="#fdfdfd" d="M 1177.5,970.5 C 1178.27,968.285 1178.93,965.952 1179.5,963.5C 1179.26,955.453 1182.26,948.619 1188.5,943C 1199.8,937.015 1211.14,931.015 1222.5,925C 1242.44,916.677 1263.11,913.677 1284.5,916C 1299.1,919.594 1309.94,928.094 1317,941.5C 1330.91,978.029 1322.07,1007.86 1290.5,1031C 1248.92,1049.57 1214.76,1040.73 1188,1004.5C 1181.57,994.048 1178.07,982.714 1177.5,970.5 Z"/></g>
<g><path style="opacity:1" fill="#4f3a16" d="M 1334.5,925.5 C 1329.31,925.179 1324.31,925.513 1319.5,926.5C 1318.96,926.44 1318.62,926.107 1318.5,925.5C 1323.99,924.185 1329.32,924.185 1334.5,925.5 Z"/></g>
<g><path style="opacity:1" fill="#e697ba" d="M 1125.5,945.5 C 1138.61,946.086 1149.44,951.419 1158,961.5C 1161.36,965.356 1164.52,969.356 1167.5,973.5C 1169.52,989.738 1175.35,1004.4 1185,1017.5C 1187.42,1031.99 1186.76,1046.32 1183,1060.5C 1172.47,1083.03 1154.64,1094.36 1129.5,1094.5C 1100.93,1092.76 1083.1,1078.09 1076,1050.5C 1073.18,1006.14 1089.68,971.144 1125.5,945.5 Z"/></g>
<g><path style="opacity:1" fill="#6f511e" d="M 938.5,951.5 C 940.167,951.5 941.833,951.5 943.5,951.5C 943.784,953.415 943.451,955.081 942.5,956.5C 942.5,955.167 942.5,953.833 942.5,952.5C 940.901,952.768 939.568,952.434 938.5,951.5 Z"/></g>
<g><path style="opacity:1" fill="#a78243" d="M 1683.5,957.5 C 1681.74,958.552 1681.08,960.219 1681.5,962.5C 1679.1,953.006 1677.27,943.339 1676,933.5C 1678.56,941.48 1681.06,949.48 1683.5,957.5 Z"/></g>
<g><path style="opacity:1" fill="#7e5c23" d="M 1336.5,951.5 C 1335.43,952.434 1334.1,952.768 1332.5,952.5C 1332.5,953.833 1332.5,955.167 1332.5,956.5C 1331.55,955.081 1331.22,953.415 1331.5,951.5C 1333.17,951.5 1334.83,951.5 1336.5,951.5 Z"/></g>
<g><path style="opacity:1" fill="#cfa152" d="M 1683.5,957.5 C 1685.89,966.455 1689.56,974.955 1694.5,983C 1695.83,983.667 1697.17,984.333 1698.5,985C 1704.85,984.888 1711.19,984.221 1717.5,983C 1734.47,978.067 1751.13,972.233 1767.5,965.5C 1770.11,966.137 1772.44,967.304 1774.5,969C 1782.29,974.46 1789.13,980.96 1795,988.5C 1797.46,992.975 1798.29,997.642 1797.5,1002.5C 1794.34,999.581 1790.68,998.414 1786.5,999C 1784.56,1001.15 1784.06,1003.65 1785,1006.5C 1790.63,1010.06 1796.46,1013.23 1802.5,1016C 1811.43,1021.6 1818.27,1029.1 1823,1038.5C 1823.67,1041.83 1823.67,1045.17 1823,1048.5C 1816.81,1046.69 1814.48,1049.02 1816,1055.5C 1829.05,1063.87 1838.38,1075.2 1844,1089.5C 1845.54,1099 1843.04,1100.5 1836.5,1094C 1829.91,1091.76 1827.41,1093.92 1829,1100.5C 1839.08,1108.58 1847.75,1117.91 1855,1128.5C 1856.29,1133.11 1856.62,1137.78 1856,1142.5C 1854.5,1141 1853,1139.5 1851.5,1138C 1844.92,1136.41 1842.76,1138.91 1845,1145.5C 1858.88,1159.12 1867.05,1175.62 1869.5,1195C 1869.17,1196.5 1868.83,1198 1868.5,1199.5C 1866.13,1197.6 1863.47,1197.1 1860.5,1198C 1859.11,1198.96 1858.44,1200.29 1858.5,1202C 1861.61,1207.13 1864.77,1212.29 1868,1217.5C 1873.87,1229.52 1876.04,1242.18 1874.5,1255.5C 1871.01,1254.82 1867.84,1253.49 1865,1251.5C 1861.73,1251.6 1859.9,1253.27 1859.5,1256.5C 1872.97,1269.87 1880.31,1286.2 1881.5,1305.5C 1881.37,1309.66 1880.53,1313.66 1879,1317.5C 1878.44,1318.02 1877.77,1318.36 1877,1318.5C 1874.88,1315.7 1872.21,1313.7 1869,1312.5C 1864.79,1313.53 1863.46,1316.19 1865,1320.5C 1875.23,1330.13 1881.06,1341.96 1882.5,1356C 1882.73,1363.88 1879.4,1369.55 1872.5,1373C 1859.17,1379.33 1845.83,1385.67 1832.5,1392C 1806,1408.75 1779.66,1425.75 1753.5,1443C 1740.72,1451.95 1728.39,1461.45 1716.5,1471.5C 1715.89,1458.51 1712.73,1446.18 1707,1434.5C 1703.39,1425.32 1706.22,1419.32 1715.5,1416.5C 1716.25,1415.62 1716.75,1414.62 1717,1413.5C 1717.67,1406.5 1717.67,1399.5 1717,1392.5C 1715.02,1382.11 1712.86,1371.78 1710.5,1361.5C 1710.53,1359.97 1711.2,1358.8 1712.5,1358C 1714.43,1357.75 1716.27,1357.25 1718,1356.5C 1720.05,1348.95 1720.71,1341.28 1720,1333.5C 1718.57,1325.45 1716.07,1317.79 1712.5,1310.5C 1712.84,1308.13 1713.34,1305.8 1714,1303.5C 1717.39,1301.77 1719.73,1299.11 1721,1295.5C 1721.85,1278.2 1717.19,1262.54 1707,1248.5C 1706.33,1245.5 1706.33,1242.5 1707,1239.5C 1711.77,1238.29 1715.44,1235.62 1718,1231.5C 1715.86,1215.88 1709.86,1201.88 1700,1189.5C 1697.93,1186.21 1698.09,1183.04 1700.5,1180C 1703.01,1179.91 1705.17,1179.07 1707,1177.5C 1707.33,1174.13 1707,1170.8 1706,1167.5C 1701.94,1154.71 1696.27,1142.71 1689,1131.5C 1685.29,1129.48 1683.95,1126.48 1685,1122.5C 1689.22,1114.6 1689.22,1106.6 1685,1098.5C 1679.64,1084.82 1670.97,1073.82 1659,1065.5C 1658.29,1063.03 1658.63,1060.7 1660,1058.5C 1662.67,1057.17 1664.67,1055.17 1666,1052.5C 1665.16,1043.34 1661,1035.84 1653.5,1030C 1649.28,1027.72 1645.62,1024.72 1642.5,1021C 1634.52,1017.35 1626.86,1013.18 1619.5,1008.5C 1619.95,1007.54 1620.62,1006.71 1621.5,1006C 1639.78,1005.11 1657.45,1001.44 1674.5,995C 1677.76,992.408 1680.26,989.241 1682,985.5C 1682.32,977.83 1682.15,970.163 1681.5,962.5C 1681.08,960.219 1681.74,958.552 1683.5,957.5 Z"/></g>
<g><path style="opacity:1" fill="#040404" d="M 995.5,966.5 C 1019.28,965.772 1029.44,977.105 1026,1000.5C 1017.44,1015.58 1005.27,1019.41 989.5,1012C 983.683,1008.85 980.183,1004.02 979,997.5C 975.78,982.22 981.28,971.886 995.5,966.5 Z"/></g>
<g><path style="opacity:1" fill="#7c7c7c" d="M 1179.5,963.5 C 1178.93,965.952 1178.27,968.285 1177.5,970.5C 1176.99,967.612 1177.66,965.279 1179.5,963.5 Z"/></g>
<g><path style="opacity:1" fill="#040404" d="M 1225.5,966.5 C 1249.28,965.772 1259.44,977.105 1256,1000.5C 1247.44,1015.58 1235.27,1019.41 1219.5,1012C 1213.68,1008.85 1210.18,1004.02 1209,997.5C 1205.78,982.22 1211.28,971.886 1225.5,966.5 Z"/></g>
<g><path style="opacity:1" fill="#9c722b" d="M 1616.5,1008.5 C 1616.08,1009.22 1615.42,1009.72 1614.5,1010C 1607.85,1011 1601.18,1011.83 1594.5,1012.5C 1601.58,1010.52 1608.91,1009.19 1616.5,1008.5 Z"/></g>
<g><path style="opacity:1" fill="#9a702a" d="M 1578.5,1014.5 C 1573.45,1016.26 1568.11,1016.93 1562.5,1016.5C 1567.62,1015.19 1572.95,1014.53 1578.5,1014.5 Z"/></g>
<g><path style="opacity:1" fill="#755520" d="M 1063.5,1033.5 C 1063.56,1032.96 1063.89,1032.62 1064.5,1032.5C 1065.5,1039.47 1065.83,1046.47 1065.5,1053.5C 1064.83,1046.83 1064.17,1040.17 1063.5,1033.5 Z"/></g>
<g><path style="opacity:1" fill="#bcbcbc" d="M 283.5,1058.5 C 343.976,1061.75 404.476,1062.08 465,1059.5C 560.151,1059.27 655.317,1059.77 750.5,1061C 761.927,1061.03 773.26,1062.03 784.5,1064C 794.19,1067.69 801.356,1074.19 806,1083.5C 807.46,1088.47 808.794,1093.47 810,1098.5C 813.525,1122.08 816.191,1145.75 818,1169.5C 820.85,1179.75 823.183,1190.09 825,1200.5C 830.096,1241.37 836.43,1282.04 844,1322.5C 856.726,1422.52 871.726,1522.19 889,1621.5C 889.242,1627.88 889.908,1634.22 891,1640.5C 891.667,1648.83 891.667,1657.17 891,1665.5C 890.588,1669.49 888.754,1672.66 885.5,1675C 882.671,1677.83 879.337,1679.83 875.5,1681C 790.165,1682.68 704.832,1682.84 619.5,1681.5C 578.17,1682.22 536.837,1682.89 495.5,1683.5C 460.326,1681.1 425.159,1681.1 390,1683.5C 373.35,1682.91 356.684,1682.91 340,1683.5C 320.68,1683.97 301.513,1682.8 282.5,1680C 265.501,1676.11 254.334,1665.94 249,1649.5C 234.375,1568.75 221.375,1487.75 210,1406.5C 201.064,1362.77 194.064,1318.77 189,1274.5C 183.245,1251.81 179.245,1228.81 177,1205.5C 168.56,1162.96 162.06,1120.13 157.5,1077C 158.418,1069.41 162.418,1064.07 169.5,1061C 181.637,1059.94 193.804,1059.44 206,1059.5C 231.165,1060.28 256.332,1060.45 281.5,1060C 282.416,1059.72 283.082,1059.22 283.5,1058.5 Z"/></g>
<g><path style="opacity:1" fill="#fcfcfd" d="M 303.5,1080.5 C 315.304,1080.27 326.971,1081.43 338.5,1084C 349.864,1086.59 358.697,1092.76 365,1102.5C 368.672,1109.51 371.505,1116.84 373.5,1124.5C 380.662,1124.59 387.328,1126.42 393.5,1130C 410.616,1146.99 418.95,1167.66 418.5,1192C 418.76,1200.53 417.26,1208.69 414,1216.5C 406.932,1223.36 398.432,1227.03 388.5,1227.5C 386.619,1256.21 371.452,1271.88 343,1274.5C 323.099,1272.9 304.599,1267.07 287.5,1257C 278.969,1249.44 274.636,1239.94 274.5,1228.5C 256.07,1226.92 243.904,1217.25 238,1199.5C 232.321,1185.27 230.988,1170.61 234,1155.5C 238.223,1136.47 250.056,1127.8 269.5,1129.5C 266.256,1110.35 272.59,1095.52 288.5,1085C 293.388,1082.7 298.388,1081.2 303.5,1080.5 Z"/></g>
<g><path style="opacity:1" fill="#fefcfc" d="M 653.5,1083.5 C 663.156,1082.24 672.156,1084.07 680.5,1089C 695.45,1099.62 710.116,1110.62 724.5,1122C 745.74,1141.91 767.574,1161.08 790,1179.5C 792.248,1182.33 794.248,1185.33 796,1188.5C 799.174,1197.65 800.841,1206.98 801,1216.5C 800.202,1219.89 799.202,1223.23 798,1226.5C 791.562,1233.6 785.895,1241.27 781,1249.5C 766.553,1263.61 753.22,1278.61 741,1294.5C 732.091,1305.41 721.924,1314.91 710.5,1323C 701.701,1329.01 692.367,1330.01 682.5,1326C 670.024,1319.93 658.357,1312.6 647.5,1304C 631.833,1289.67 616.167,1275.33 600.5,1261C 584.123,1250.29 569.956,1237.13 558,1221.5C 553.287,1209.43 553.621,1197.43 559,1185.5C 564.667,1177.17 570.333,1168.83 576,1160.5C 598.176,1138.32 619.676,1115.49 640.5,1092C 644.249,1088.13 648.582,1085.3 653.5,1083.5 Z"/></g>
<g><path style="opacity:1" fill="#3a6f9d" d="M 305.5,1093.5 C 318.146,1092.58 330.48,1094.08 342.5,1098C 357.026,1105.19 364.36,1117.03 364.5,1133.5C 380.823,1132.07 392.323,1138.74 399,1153.5C 403.661,1165.64 406.828,1178.14 408.5,1191C 409.054,1200.68 405.721,1208.68 398.5,1215C 390.367,1217.77 382.034,1219.6 373.5,1220.5C 379.494,1246.18 369.327,1259.52 343,1260.5C 325.467,1260.74 309.3,1256.24 294.5,1247C 292.291,1245.13 290.458,1242.96 289,1240.5C 285.416,1232.5 282.916,1224.16 281.5,1215.5C 273.221,1217 266.054,1215 260,1209.5C 245.578,1191.89 241.911,1172.23 249,1150.5C 250.793,1147.7 252.96,1145.2 255.5,1143C 261.117,1141.95 266.784,1141.28 272.5,1141C 288.5,1140.67 304.5,1140.33 320.5,1140C 327.593,1139.65 328.926,1136.98 324.5,1132C 312.737,1131.52 301.07,1131.69 289.5,1132.5C 286.613,1132.37 284.113,1131.37 282,1129.5C 276.044,1108.4 283.877,1096.4 305.5,1093.5 Z"/></g>
<g><path style="opacity:1" fill="#f05131" d="M 659.5,1093.5 C 663.877,1093.58 668.21,1094.08 672.5,1095C 691.36,1108.19 708.693,1123.19 724.5,1140C 741.604,1153.27 758.271,1167.1 774.5,1181.5C 780.017,1187.85 784.517,1194.85 788,1202.5C 789.405,1209.72 788.071,1216.38 784,1222.5C 780.753,1226.66 777.753,1230.99 775,1235.5C 755.333,1257.83 735.667,1280.17 716,1302.5C 702.891,1316.72 688.391,1318.22 672.5,1307C 659.594,1298.1 647.927,1287.76 637.5,1276C 614.722,1257.56 592.889,1238.06 572,1217.5C 567.784,1211.12 566.451,1204.12 568,1196.5C 570.73,1190.71 573.73,1185.04 577,1179.5C 582.946,1170.62 589.612,1162.29 597,1154.5C 605.198,1146.64 613.031,1138.47 620.5,1130C 622.971,1129.29 625.305,1129.63 627.5,1131C 637.255,1138.08 646.422,1145.92 655,1154.5C 654.905,1160.09 655.905,1165.42 658,1170.5C 661.739,1173.91 665.739,1176.91 670,1179.5C 672.672,1196.7 675.505,1213.86 678.5,1231C 676.72,1233.78 674.553,1236.28 672,1238.5C 668.515,1245.48 668.682,1252.31 672.5,1259C 681.603,1265.79 689.437,1264.62 696,1255.5C 698.565,1245.86 695.899,1237.86 688,1231.5C 687,1229.5 686,1227.5 685,1225.5C 682.629,1211.37 680.463,1197.2 678.5,1183C 679.253,1177.08 681.92,1176.08 686.5,1180C 691.782,1185.73 697.615,1190.9 704,1195.5C 703.204,1205.1 706.371,1213.27 713.5,1220C 721.089,1223.82 727.589,1222.32 733,1215.5C 738.299,1198.12 731.799,1190.29 713.5,1192C 704.703,1184.87 696.203,1177.37 688,1169.5C 690.387,1150.22 682.22,1143.05 663.5,1148C 652.7,1139.7 642.367,1130.87 632.5,1121.5C 631.369,1119.93 631.202,1118.26 632,1116.5C 634.895,1112.69 638.228,1109.36 642,1106.5C 642.667,1105.17 643.333,1103.83 644,1102.5C 648.853,1098.83 654.019,1095.83 659.5,1093.5 Z"/></g>
<g><path style="opacity:1" fill="#c23e81" d="M 1164.5,1095.5 C 1204.71,1098.81 1244.05,1106.31 1282.5,1118C 1292.87,1124.7 1302.37,1132.53 1311,1141.5C 1330.98,1163.82 1350.65,1186.49 1370,1209.5C 1377.61,1220.38 1385.95,1230.72 1395,1240.5C 1404.29,1254.45 1414.29,1267.78 1425,1280.5C 1425.49,1282.13 1425.66,1283.8 1425.5,1285.5C 1421.02,1285.46 1416.69,1284.63 1412.5,1283C 1391.21,1271.62 1372.04,1257.45 1355,1240.5C 1335.84,1218.68 1316.01,1197.51 1295.5,1177C 1286.02,1169.52 1276.02,1162.85 1265.5,1157C 1260.41,1154.39 1255.07,1152.39 1249.5,1151C 1208.25,1142.43 1166.59,1139.1 1124.5,1141C 1098.11,1143.92 1071.78,1147.26 1045.5,1151C 1035.36,1154.1 1025.02,1156.43 1014.5,1158C 995.922,1163.53 980.422,1173.7 968,1188.5C 957.247,1204.33 947.247,1220.67 938,1237.5C 930.244,1249.16 921.41,1259.99 911.5,1270C 906.667,1273.5 901.833,1277 897,1280.5C 897.597,1271.68 899.264,1263.02 902,1254.5C 908.879,1234.53 916.546,1214.86 925,1195.5C 938.685,1168.95 958.185,1147.79 983.5,1132C 1017.58,1113.97 1053.75,1102.8 1092,1098.5C 1095.5,1098.67 1099,1098.83 1102.5,1099C 1123.82,1107.29 1144.48,1106.12 1164.5,1095.5 Z"/></g>
<g><path style="opacity:0.914" fill="#000000" d="M 2282.5,1099.5 C 2285.16,1099.16 2287.49,1099.83 2289.5,1101.5C 2300.51,1115.86 2305.85,1132.2 2305.5,1150.5C 2305.81,1163.12 2302.64,1174.79 2296,1185.5C 2287.32,1198.19 2277.15,1209.69 2265.5,1220C 2248.99,1230.18 2235.49,1243.34 2225,1259.5C 2222.22,1266.3 2220.22,1273.3 2219,1280.5C 2212.89,1284.29 2209.72,1282.63 2209.5,1275.5C 2211.78,1258.11 2219.44,1243.61 2232.5,1232C 2246.59,1221.25 2260.09,1209.75 2273,1197.5C 2280.48,1189.88 2286.48,1181.21 2291,1171.5C 2295.79,1155.12 2295.46,1138.79 2290,1122.5C 2287.41,1116.98 2284.08,1111.98 2280,1107.5C 2279.02,1104.18 2279.86,1101.52 2282.5,1099.5 Z"/></g>
<g><path style="opacity:1" fill="#f0c843" d="M 295.5,1109.5 C 301.057,1108.89 304.057,1111.39 304.5,1117C 304.561,1118.71 303.894,1120.04 302.5,1121C 293.294,1121.83 290.961,1118 295.5,1109.5 Z"/></g>
<g><path style="opacity:1" fill="#f5cb41" d="M 362.5,1219.5 C 362.12,1221.7 362.787,1223.36 364.5,1224.5C 368.49,1237.54 364.157,1246.04 351.5,1250C 336.183,1251.67 321.517,1249.34 307.5,1243C 303.542,1240.77 300.042,1237.93 297,1234.5C 292.041,1219.7 288.874,1204.54 287.5,1189C 286.737,1184.84 288.404,1182.51 292.5,1182C 310.163,1182.19 327.83,1182.19 345.5,1182C 349.612,1181.38 353.612,1180.38 357.5,1179C 359.076,1176.92 361.076,1175.42 363.5,1174.5C 364.584,1173.33 365.417,1172 366,1170.5C 366.499,1161.49 366.333,1152.49 365.5,1143.5C 374.437,1142.56 381.604,1145.56 387,1152.5C 394.839,1168.03 398.172,1184.36 397,1201.5C 393.387,1206.22 388.554,1208.72 382.5,1209C 364.156,1208.04 345.823,1208.37 327.5,1210C 323.915,1212.53 323.582,1215.53 326.5,1219C 338.576,1219.02 350.576,1219.18 362.5,1219.5 Z"/></g>
<g><path style="opacity:1" fill="#b0c2cf" d="M 362.5,1219.5 C 364.213,1220.64 364.88,1222.3 364.5,1224.5C 362.787,1223.36 362.12,1221.7 362.5,1219.5 Z"/></g>
<g><path style="opacity:1" fill="#407199" d="M 345.5,1227.5 C 351.726,1226.91 354.893,1229.58 355,1235.5C 351.829,1240.41 348.163,1240.75 344,1236.5C 343.068,1233.18 343.568,1230.18 345.5,1227.5 Z"/></g>
<g><path style="opacity:1" fill="#f9f9f9" d="M 505.5,1256.5 C 539.128,1260.49 569.128,1272.99 595.5,1294C 633.182,1330.38 646.682,1374.21 636,1425.5C 617.837,1476.64 581.504,1502.64 527,1503.5C 465.065,1497.87 422.065,1466.53 398,1409.5C 389.762,1382.6 389.429,1355.6 397,1328.5C 402.894,1316.38 409.561,1304.71 417,1293.5C 441.056,1267.99 470.556,1255.65 505.5,1256.5 Z"/></g>
<g><path style="opacity:0.995" fill="#010101" d="M 486.5,1267.5 C 525.651,1266.27 560.318,1278.11 590.5,1303C 620.165,1332.32 632.998,1367.82 629,1409.5C 623.71,1438.26 609.21,1461.09 585.5,1478C 561.499,1491.94 535.832,1496.28 508.5,1491C 471.711,1483.2 442.544,1464.04 421,1433.5C 417.178,1424.52 412.845,1415.86 408,1407.5C 394.691,1369.33 400.025,1333.99 424,1301.5C 440.729,1282.39 461.562,1271.06 486.5,1267.5 Z"/></g>
<g><path style="opacity:1" fill="#d6d645" d="M 516.5,1281.5 C 535.226,1283.45 551.726,1290.45 566,1302.5C 569.499,1306.83 572.499,1311.49 575,1316.5C 578.137,1327.38 580.804,1338.38 583,1349.5C 585.693,1356.39 589.527,1362.56 594.5,1368C 599.5,1371.17 604.5,1374.33 609.5,1377.5C 612.335,1380.67 612.002,1383.5 608.5,1386C 600.606,1389.56 595.106,1395.39 592,1403.5C 591.11,1414.52 590.11,1425.52 589,1436.5C 586.676,1452.47 578.509,1464.3 564.5,1472C 556.822,1474.71 548.989,1476.88 541,1478.5C 538.966,1478.65 537.299,1477.98 536,1476.5C 534.151,1467.9 533.151,1459.23 533,1450.5C 541.712,1448.48 549.046,1444.14 555,1437.5C 556.616,1433.65 557.616,1429.65 558,1425.5C 558.155,1414.79 558.822,1404.12 560,1393.5C 561.267,1389.13 563.433,1385.3 566.5,1382C 554.631,1368.76 547.798,1353.26 546,1335.5C 544.483,1329.32 541.317,1324.15 536.5,1320C 530.288,1316.73 523.954,1313.73 517.5,1311C 516.299,1310.1 515.465,1308.93 515,1307.5C 514.205,1300.17 513.871,1292.83 514,1285.5C 514.662,1284.02 515.496,1282.68 516.5,1281.5 Z"/></g>
<g><path style="opacity:1" fill="#6b7bc6" d="M 1887.5,1283.5 C 1918.87,1285.34 1948.2,1294.18 1975.5,1310C 1985.04,1316.91 1992.88,1325.41 1999,1335.5C 2005.3,1353.3 2004.97,1370.97 1998,1388.5C 1990.06,1405.11 1979.06,1419.45 1965,1431.5C 1963.68,1438.45 1966.18,1440.61 1972.5,1438C 1984.21,1427.03 1994.38,1414.87 2003,1401.5C 2015.72,1433.92 2018.72,1467.25 2012,1501.5C 2007.7,1516.62 1999.53,1529.12 1987.5,1539C 1979.53,1544.13 1970.86,1545.8 1961.5,1544C 1949.46,1526.76 1938.29,1508.92 1928,1490.5C 1921,1480.5 1914,1470.5 1907,1460.5C 1906.86,1455.15 1904.02,1452.65 1898.5,1453C 1861.77,1449.19 1827.1,1455.85 1794.5,1473C 1786.56,1477.89 1779.06,1483.39 1772,1489.5C 1770.5,1496 1773,1498.5 1779.5,1497C 1796.21,1481.48 1815.88,1471.48 1838.5,1467C 1857.85,1462.63 1877.35,1461.47 1897,1463.5C 1904.67,1474.5 1912.33,1485.5 1920,1496.5C 1933.42,1521.24 1948.42,1544.9 1965,1567.5C 1983.44,1600.66 1987.1,1635.32 1976,1671.5C 1956.21,1712.08 1923.71,1730.41 1878.5,1726.5C 1843.17,1725.4 1807.84,1725.4 1772.5,1726.5C 1748.49,1726.26 1724.49,1725.59 1700.5,1724.5C 1695.99,1724.67 1691.49,1725 1687,1725.5C 1674.6,1723.26 1662.1,1722.09 1649.5,1722C 1637.52,1719.76 1627.35,1714.26 1619,1705.5C 1608.13,1692.43 1601.63,1677.43 1599.5,1660.5C 1601.2,1660.34 1602.87,1660.51 1604.5,1661C 1605.82,1662.66 1607.48,1663.83 1609.5,1664.5C 1613.85,1678.68 1622.19,1689.85 1634.5,1698C 1650.21,1702.82 1664.54,1700.16 1677.5,1690C 1686.38,1682.05 1694.21,1673.22 1701,1663.5C 1722.26,1627.98 1729.76,1589.81 1723.5,1549C 1723.59,1547.89 1723.92,1546.89 1724.5,1546C 1734.28,1546.19 1743.95,1547.52 1753.5,1550C 1791.51,1560 1829.51,1570 1867.5,1580C 1871.69,1580.34 1875.86,1580.84 1880,1581.5C 1886.02,1580.29 1887.52,1577.13 1884.5,1572C 1879.15,1571.48 1873.81,1570.81 1868.5,1570C 1827.48,1558.1 1786.15,1547.44 1744.5,1538C 1736.88,1535.95 1729.21,1535.45 1721.5,1536.5C 1717.79,1526.13 1715.29,1515.46 1714,1504.5C 1711.94,1500.12 1710.11,1495.62 1708.5,1491C 1725.21,1477.29 1742.21,1463.95 1759.5,1451C 1784.17,1435 1808.83,1419 1833.5,1403C 1870.82,1382.91 1909.98,1368.08 1951,1358.5C 1952.86,1353.25 1951.02,1350.58 1945.5,1350.5C 1939.55,1351.9 1933.55,1353.06 1927.5,1354C 1915.57,1358.14 1903.57,1361.97 1891.5,1365.5C 1893.64,1352.01 1890.97,1339.51 1883.5,1328C 1890.3,1319.34 1892.8,1309.51 1891,1298.5C 1890.3,1293.37 1889.13,1288.37 1887.5,1283.5 Z"/></g>
<g><path style="opacity:1" fill="#d6d645" d="M 479.5,1284.5 C 482.85,1284.33 486.183,1284.5 489.5,1285C 490.333,1285.83 491.167,1286.67 492,1287.5C 492.819,1293.83 493.152,1300.16 493,1306.5C 492.535,1307.93 491.701,1309.1 490.5,1310C 472.921,1317.13 466.587,1329.96 471.5,1348.5C 473.619,1361.14 469.952,1371.64 460.5,1380C 467.647,1384.43 472.814,1390.6 476,1398.5C 479.403,1408.25 481.736,1418.25 483,1428.5C 485.729,1434.56 489.896,1439.4 495.5,1443C 501.116,1445.9 506.949,1448.06 513,1449.5C 514.807,1458.1 515.807,1466.76 516,1475.5C 497.115,1477.86 481.115,1471.86 468,1457.5C 459.077,1445.94 454.077,1432.94 453,1418.5C 449.251,1403.08 440.084,1392.25 425.5,1386C 423.034,1382.99 422.867,1379.83 425,1376.5C 429,1372.5 433,1368.5 437,1364.5C 440.049,1358.38 441.549,1351.88 441.5,1345C 438.598,1330.44 440.431,1316.6 447,1303.5C 456.466,1294.69 467.3,1288.36 479.5,1284.5 Z"/></g>
<g><path style="opacity:1" fill="#6a4e1e" d="M 1434.5,1278.5 C 1436.41,1282.19 1436.91,1286.19 1436,1290.5C 1435.62,1291.06 1435.12,1291.39 1434.5,1291.5C 1435.65,1287.19 1435.65,1282.86 1434.5,1278.5 Z"/></g>
<g><path style="opacity:1" fill="#fae6c5" d="M 1132.5,1291.5 C 1115.15,1291.25 1097.81,1291.59 1080.5,1292.5C 1081.61,1291.71 1082.94,1291.21 1084.5,1291C 1095,1290.59 1105.5,1290.09 1116,1289.5C 1121.73,1289.49 1127.23,1290.15 1132.5,1291.5 Z"/></g>
<g><path style="opacity:1" fill="#fae6c5" d="M 1218.5,1291.5 C 1201.15,1291.25 1183.81,1291.59 1166.5,1292.5C 1167.61,1291.71 1168.94,1291.21 1170.5,1291C 1181,1290.59 1191.5,1290.09 1202,1289.5C 1207.73,1289.49 1213.23,1290.15 1218.5,1291.5 Z"/></g>
<g><path style="opacity:1" fill="#fefefd" d="M 1132.5,1291.5 C 1134.13,1293.03 1134.96,1295.03 1135,1297.5C 1135.5,1323.83 1135.67,1350.16 1135.5,1376.5C 1138.17,1376.5 1140.83,1376.5 1143.5,1376.5C 1150.82,1375.96 1158.16,1375.63 1165.5,1375.5C 1165.5,1348.5 1165.5,1321.5 1165.5,1294.5C 1165.83,1293.83 1166.17,1293.17 1166.5,1292.5C 1183.81,1291.59 1201.15,1291.25 1218.5,1291.5C 1219.91,1291.97 1220.57,1292.97 1220.5,1294.5C 1221.48,1321.79 1221.82,1349.12 1221.5,1376.5C 1222.5,1376.5 1223.5,1376.5 1224.5,1376.5C 1227.77,1378.26 1231.44,1379.59 1235.5,1380.5C 1248.64,1382.06 1261.64,1384.39 1274.5,1387.5C 1292.61,1393.55 1308.94,1402.72 1323.5,1415C 1335.14,1426.64 1343.47,1440.31 1348.5,1456C 1357.25,1493.45 1349.42,1526.95 1325,1556.5C 1315.87,1563.62 1307.04,1571.12 1298.5,1579C 1338.63,1588.64 1364.63,1613.14 1376.5,1652.5C 1376.98,1660.83 1377.31,1669.16 1377.5,1677.5C 1342.81,1677.38 1308.15,1678.05 1273.5,1679.5C 1274.14,1667.69 1270.64,1657.36 1263,1648.5C 1248.4,1634.46 1230.9,1627.13 1210.5,1626.5C 1200.53,1625.3 1190.53,1624.64 1180.5,1624.5C 1165.68,1623.5 1150.68,1623.17 1135.5,1623.5C 1135.5,1642.83 1135.5,1662.17 1135.5,1681.5C 1104.16,1680.88 1072.83,1680.21 1041.5,1679.5C 1040.21,1621.17 1040.21,1562.83 1041.5,1504.5C 1041.51,1487.82 1041.01,1471.15 1040,1454.5C 1037.94,1446.43 1033.77,1439.76 1027.5,1434.5C 1020.71,1432.19 1013.71,1430.85 1006.5,1430.5C 1001.91,1432.39 998.072,1431.39 995,1427.5C 993.825,1413.07 992.992,1398.57 992.5,1384C 992.703,1381.59 993.703,1379.59 995.5,1378C 1023.5,1377.5 1051.5,1377.33 1079.5,1377.5C 1079.18,1349.09 1079.51,1320.76 1080.5,1292.5C 1097.81,1291.59 1115.15,1291.25 1132.5,1291.5 Z"/></g>
<g><path style="opacity:1" fill="#f2bf68" d="M 1220.5,1294.5 C 1221.12,1294.61 1221.62,1294.94 1222,1295.5C 1221.85,1322.72 1222.69,1349.72 1224.5,1376.5C 1223.5,1376.5 1222.5,1376.5 1221.5,1376.5C 1221.82,1349.12 1221.48,1321.79 1220.5,1294.5 Z"/></g>
<g><path style="opacity:1" fill="#686868" d="M 2223.5,1304.5 C 2257.5,1304.83 2291.5,1305.33 2325.5,1306C 2327.85,1306.35 2329.68,1307.51 2331,1309.5C 2333.71,1314.42 2336.54,1319.25 2339.5,1324C 2318.5,1324.33 2297.5,1324.67 2276.5,1325C 2272.67,1328.09 2272.67,1331.09 2276.5,1334C 2308.5,1334.58 2340.5,1335.08 2372.5,1335.5C 2372.5,1342.17 2372.5,1348.83 2372.5,1355.5C 2361.85,1356.24 2351.18,1356.91 2340.5,1357.5C 2313.18,1356.15 2285.85,1355.48 2258.5,1355.5C 2200.17,1355.98 2141.84,1355.98 2083.5,1355.5C 2083.5,1348.83 2083.5,1342.17 2083.5,1335.5C 2125.17,1335.67 2166.83,1335.5 2208.5,1335C 2211.2,1333.18 2212.04,1330.68 2211,1327.5C 2210.25,1326.87 2209.42,1326.37 2208.5,1326C 2177.17,1325.67 2145.83,1325.33 2114.5,1325C 2119.54,1319.62 2124.21,1313.96 2128.5,1308C 2137.12,1306.87 2145.79,1306.2 2154.5,1306C 2177.67,1305.83 2200.67,1305.33 2223.5,1304.5 Z"/></g>
<g><path style="opacity:1" fill="#090909" d="M 2222.5,1323.5 C 2230,1322.8 2232,1325.64 2228.5,1332C 2221.19,1332.87 2219.19,1330.04 2222.5,1323.5 Z"/></g>
<g><path style="opacity:1" fill="#040404" d="M 2245.5,1324.5 C 2251.18,1324.33 2256.84,1324.5 2262.5,1325C 2266.5,1328 2266.5,1331 2262.5,1334C 2256.83,1334.67 2251.17,1334.67 2245.5,1334C 2242.89,1330.84 2242.89,1327.67 2245.5,1324.5 Z"/></g>
<g><path style="opacity:1" fill="#f4c87e" d="M 1165.5,1294.5 C 1165.5,1321.5 1165.5,1348.5 1165.5,1375.5C 1158.16,1375.63 1150.82,1375.96 1143.5,1376.5C 1144.61,1375.71 1145.94,1375.21 1147.5,1375C 1153.16,1374.5 1158.82,1374.33 1164.5,1374.5C 1164.17,1347.66 1164.5,1320.99 1165.5,1294.5 Z"/></g>
<g><path style="opacity:1" fill="#9b6e47" d="M 2099.5,1366.5 C 2130.84,1366.36 2162.18,1366.86 2193.5,1368C 2247.49,1370.99 2301.49,1373.49 2355.5,1375.5C 2353.25,1391.15 2351.09,1406.82 2349,1422.5C 2341.43,1415.46 2332.6,1410.63 2322.5,1408C 2286.39,1396.9 2255.56,1405.07 2230,1432.5C 2202.83,1471.7 2196.83,1514.03 2212,1559.5C 2220.17,1581.03 2232.67,1599.53 2249.5,1615C 2271.36,1628.88 2294.69,1631.88 2319.5,1624C 2323.17,1622.17 2326.83,1620.33 2330.5,1618.5C 2330.83,1619 2331.17,1619.5 2331.5,1620C 2327.77,1655.12 2324.43,1690.29 2321.5,1725.5C 2295.14,1725.14 2268.81,1724.14 2242.5,1722.5C 2226.44,1722.64 2210.44,1723.64 2194.5,1725.5C 2186.93,1724.17 2179.43,1724.51 2172,1726.5C 2160.19,1725.6 2148.35,1725.26 2136.5,1725.5C 2127.17,1642.18 2118.34,1558.85 2110,1475.5C 2107.56,1448.87 2105.56,1422.2 2104,1395.5C 2103.19,1385.7 2101.69,1376.04 2099.5,1366.5 Z"/></g>
<g><path style="opacity:1" fill="#fdfdfd" d="M 1471.5,1380.5 C 1496.4,1376.19 1513.57,1385.53 1523,1408.5C 1523.49,1410.13 1523.66,1411.8 1523.5,1413.5C 1519.81,1414.18 1516.48,1415.68 1513.5,1418C 1503.81,1427.01 1495.65,1437.18 1489,1448.5C 1486.8,1445.96 1484.3,1443.79 1481.5,1442C 1479.5,1441.33 1477.5,1441.33 1475.5,1442C 1463.46,1453.04 1451.13,1463.71 1438.5,1474C 1433.95,1476.13 1429.28,1477.96 1424.5,1479.5C 1414.32,1479.49 1408.15,1474.49 1406,1464.5C 1404.52,1455.38 1405.85,1446.72 1410,1438.5C 1418.8,1417.7 1432.64,1401.2 1451.5,1389C 1458.07,1385.65 1464.74,1382.82 1471.5,1380.5 Z"/></g>
<g><path style="opacity:1" fill="#040403" d="M 719.5,1413.5 C 730.861,1413.84 741.528,1416.67 751.5,1422C 759.253,1428.34 763.753,1436.5 765,1446.5C 765.444,1456 765.278,1465.5 764.5,1475C 763.44,1487.49 766.273,1498.99 773,1509.5C 787.507,1525.5 798.174,1543.84 805,1564.5C 805.919,1570.97 805.419,1577.3 803.5,1583.5C 806.113,1585.37 808.279,1587.7 810,1590.5C 810.83,1595.14 811.497,1599.81 812,1604.5C 820.282,1612.47 821.449,1621.3 815.5,1631C 803.252,1633.29 792.919,1638.96 784.5,1648C 777.028,1652.84 769.028,1654.51 760.5,1653C 753.165,1650.33 748.665,1645.16 747,1637.5C 733.449,1631.57 719.282,1629.07 704.5,1630C 699.664,1637.92 692.664,1641.25 683.5,1640C 667.175,1632.56 650.508,1625.89 633.5,1620C 628.674,1615.54 626.841,1610.04 628,1603.5C 629.91,1600.84 631.41,1598.01 632.5,1595C 627.091,1578.07 633.258,1568.91 651,1567.5C 654.336,1557.6 657.669,1547.6 661,1537.5C 663.909,1530.68 667.576,1524.34 672,1518.5C 677.667,1512.17 683.333,1505.83 689,1499.5C 690.893,1496.38 692.226,1493.05 693,1489.5C 691.019,1471.9 692.352,1454.56 697,1437.5C 699.161,1432.51 701.828,1427.84 705,1423.5C 709.291,1419.28 714.124,1415.95 719.5,1413.5 Z"/></g>
<g><path style="opacity:1" fill="#fefefe" d="M 2285.5,1413.5 C 2303.73,1413.45 2321.07,1417.28 2337.5,1425C 2340.68,1428.35 2344.02,1431.52 2347.5,1434.5C 2347.83,1437.67 2348.17,1440.83 2348.5,1444C 2344.08,1497.57 2338.92,1551.07 2333,1604.5C 2307.82,1622.31 2281.98,1623.14 2255.5,1607C 2241.15,1593.64 2230.32,1577.8 2223,1559.5C 2207.3,1516.46 2212.3,1476.13 2238,1438.5C 2250.82,1424.18 2266.65,1415.84 2285.5,1413.5 Z"/></g>
<g><path style="opacity:1" fill="#fdfdfd" d="M 1530.5,1420.5 C 1543.4,1420.07 1553.74,1424.9 1561.5,1435C 1558.79,1437.37 1556.46,1440.04 1554.5,1443C 1544.34,1447 1536.17,1453.5 1530,1462.5C 1527.65,1469.89 1528.15,1477.06 1531.5,1484C 1526.52,1498.95 1522.35,1514.11 1519,1529.5C 1517.81,1541.13 1517.14,1552.79 1517,1564.5C 1512.58,1567.96 1507.74,1570.8 1502.5,1573C 1488.27,1574.12 1479.77,1567.62 1477,1553.5C 1473.62,1510 1484.62,1470.67 1510,1435.5C 1513.17,1432.33 1516.33,1429.17 1519.5,1426C 1523.02,1423.67 1526.68,1421.84 1530.5,1420.5 Z"/></g>
<g><path style="opacity:1" fill="#f8f8f8" d="M 1586.5,1432.5 C 1601.23,1430.18 1612.57,1435.18 1620.5,1447.5C 1618.21,1451.12 1615.55,1454.46 1612.5,1457.5C 1600.19,1447.85 1586.19,1442.35 1570.5,1441C 1575.25,1436.93 1580.58,1434.09 1586.5,1432.5 Z"/></g>
<g><path style="opacity:1" fill="#fdfdfd" d="M 1650.5,1440.5 C 1665.32,1439.16 1676.49,1444.83 1684,1457.5C 1696.04,1481.28 1704.71,1506.28 1710,1532.5C 1714.31,1551 1716.31,1569.66 1716,1588.5C 1713.83,1604.02 1709.83,1619.02 1704,1633.5C 1697,1641.84 1688.84,1648.67 1679.5,1654C 1664.02,1659.93 1648.02,1662.27 1631.5,1661C 1612.73,1656.45 1596.39,1647.45 1582.5,1634C 1576.51,1632.33 1574.01,1634.5 1575,1640.5C 1578.2,1644.04 1581.7,1647.2 1585.5,1650C 1581.28,1651.1 1576.95,1651.6 1572.5,1651.5C 1514.36,1646.85 1461.36,1628.01 1413.5,1595C 1405.17,1588.67 1396.83,1582.33 1388.5,1576C 1380.14,1568.31 1373.3,1559.48 1368,1549.5C 1364.78,1542.08 1364.78,1534.74 1368,1527.5C 1374.91,1521.94 1382.74,1520.1 1391.5,1522C 1408.51,1527.45 1424.85,1534.45 1440.5,1543C 1449.53,1549.51 1458.86,1555.51 1468.5,1561C 1476.95,1580.72 1491.28,1587.06 1511.5,1580C 1514.93,1578.2 1518.09,1576.04 1521,1573.5C 1533.35,1593.84 1549.18,1597 1568.5,1583C 1572.04,1579.8 1575.2,1576.3 1578,1572.5C 1584,1561.83 1590,1551.17 1596,1540.5C 1608.2,1554.4 1622.04,1556.57 1637.5,1547C 1652.71,1532.81 1665.21,1516.64 1675,1498.5C 1675.34,1493.18 1672.84,1491.01 1667.5,1492C 1658.18,1509.66 1646.18,1525.33 1631.5,1539C 1621.92,1544.34 1612.92,1543.51 1604.5,1536.5C 1599.38,1518.57 1600.88,1501.24 1609,1484.5C 1615.56,1467.86 1626.06,1454.36 1640.5,1444C 1644.45,1444.15 1647.78,1442.99 1650.5,1440.5 Z"/></g>
<g><path style="opacity:1" fill="#f3f3f3" d="M 708.5,1446.5 C 719.241,1447.96 722.907,1453.96 719.5,1464.5C 718.264,1465.25 716.93,1465.58 715.5,1465.5C 715.664,1462.81 715.497,1460.15 715,1457.5C 712.667,1454.83 710.333,1454.83 708,1457.5C 707.566,1461.55 707.566,1465.55 708,1469.5C 705.135,1470.04 703.135,1468.71 702,1465.5C 700.272,1457.66 702.439,1451.33 708.5,1446.5 Z"/></g>
<g><path style="opacity:1" fill="#ededed" d="M 734.5,1448.5 C 742.783,1446.72 747.45,1449.89 748.5,1458C 747.67,1462.66 746.336,1467.16 744.5,1471.5C 743.833,1471.17 743.167,1470.83 742.5,1470.5C 741.33,1467.18 741.33,1463.85 742.5,1460.5C 741.233,1456.61 738.733,1455.61 735,1457.5C 734.818,1460.23 734.318,1462.89 733.5,1465.5C 732.264,1464.75 730.93,1464.42 729.5,1464.5C 728.314,1458.15 729.98,1452.82 734.5,1448.5 Z"/></g>
<g><path style="opacity:1" fill="#b7b7b7" d="M 1561.5,1451.5 C 1576.76,1450.46 1590.76,1454.29 1603.5,1463C 1604.87,1464.24 1605.87,1465.74 1606.5,1467.5C 1604.11,1471.61 1602.28,1475.95 1601,1480.5C 1589.31,1466.72 1574.48,1461.88 1556.5,1466C 1549.85,1467.74 1544.02,1470.91 1539,1475.5C 1538.18,1472.04 1538.52,1468.7 1540,1465.5C 1545.89,1458.65 1553.06,1453.98 1561.5,1451.5 Z"/></g>
<g><path style="opacity:1" fill="#f1bc60" d="M 1136.5,1456.5 C 1136.5,1491.17 1136.5,1525.83 1136.5,1560.5C 1153.83,1560.5 1171.17,1560.5 1188.5,1560.5C 1188.5,1560.83 1188.5,1561.17 1188.5,1561.5C 1170.83,1561.5 1153.17,1561.5 1135.5,1561.5C 1135.17,1526.33 1135.5,1491.33 1136.5,1456.5 Z"/></g>
<g><path style="opacity:1" fill="#efaf42" d="M 1136.5,1456.5 C 1160,1455.93 1183.17,1457.93 1206,1462.5C 1222.93,1467.46 1237.26,1476.46 1249,1489.5C 1257.46,1502.73 1258.8,1516.73 1253,1531.5C 1244.49,1543.02 1233.65,1551.52 1220.5,1557C 1218.48,1557.5 1216.48,1558 1214.5,1558.5C 1205.68,1559.05 1197.01,1559.71 1188.5,1560.5C 1171.17,1560.5 1153.83,1560.5 1136.5,1560.5C 1136.5,1525.83 1136.5,1491.17 1136.5,1456.5 Z"/></g>
<g><path style="opacity:1" fill="#e8aa40" d="M 723.5,1473.5 C 729.194,1474.01 734.194,1476.18 738.5,1480C 740.329,1481.11 741.163,1482.61 741,1484.5C 736.528,1487.65 731.694,1490.15 726.5,1492C 723.697,1492.75 721.03,1492.42 718.5,1491C 715.317,1487.98 712.317,1484.82 709.5,1481.5C 709.977,1480.52 710.643,1479.69 711.5,1479C 715.475,1476.85 719.475,1475.02 723.5,1473.5 Z"/></g>
<g><path style="opacity:1" fill="#fdfdfd" d="M 1558.5,1475.5 C 1573.45,1472.6 1585.62,1476.93 1595,1488.5C 1594.5,1493.53 1593.5,1498.53 1592,1503.5C 1591.67,1511.17 1591.33,1518.83 1591,1526.5C 1583.95,1542.27 1575.62,1557.27 1566,1571.5C 1548.95,1587.34 1536.28,1584.34 1528,1562.5C 1526.32,1545.83 1527.99,1529.49 1533,1513.5C 1535.47,1505.09 1538.14,1496.76 1541,1488.5C 1542.12,1485.75 1543.62,1483.25 1545.5,1481C 1549.72,1478.55 1554.05,1476.72 1558.5,1475.5 Z"/></g>
<g><path style="opacity:1" fill="#fdfdfd" d="M 743.5,1494.5 C 744.586,1494.62 745.253,1495.29 745.5,1496.5C 746.682,1502.91 748.182,1509.25 750,1515.5C 755.277,1527.72 760.277,1540.05 765,1552.5C 766.806,1557.38 767.473,1562.38 767,1567.5C 765.491,1571.34 762.657,1573.51 758.5,1574C 755.727,1576.38 753.561,1579.22 752,1582.5C 750.914,1591.78 750.081,1601.11 749.5,1610.5C 731.004,1619.92 713.671,1618.26 697.5,1605.5C 704.463,1602.91 707.296,1597.91 706,1590.5C 699.874,1579.6 691.874,1570.26 682,1562.5C 683.733,1546.36 689.4,1531.69 699,1518.5C 702.528,1510.92 705.861,1503.25 709,1495.5C 715.894,1503.05 724.06,1504.55 733.5,1500C 737.056,1498.39 740.389,1496.56 743.5,1494.5 Z"/></g>
<g><path style="opacity:1" fill="#6b7bc5" d="M 892.5,1554.5 C 897.901,1557.2 902.568,1560.87 906.5,1565.5C 901.853,1570.76 902.853,1574.59 909.5,1577C 919.068,1585.9 927.901,1595.4 936,1605.5C 950.614,1628.39 963.947,1652.06 976,1676.5C 978.163,1677.77 980.33,1677.77 982.5,1676.5C 983.11,1677.39 983.443,1678.39 983.5,1679.5C 956.33,1680.83 928.997,1680.83 901.5,1679.5C 904.079,1675.93 905.579,1671.93 906,1667.5C 906.667,1660.17 906.667,1652.83 906,1645.5C 903.129,1614.9 898.629,1584.57 892.5,1554.5 Z"/></g>
<g><path style="opacity:1" fill="#f8daa9" d="M 1214.5,1558.5 C 1211.47,1560.02 1208.13,1560.85 1204.5,1561C 1199.18,1561.5 1193.84,1561.67 1188.5,1561.5C 1188.5,1561.17 1188.5,1560.83 1188.5,1560.5C 1197.01,1559.71 1205.68,1559.05 1214.5,1558.5 Z"/></g>
<g><path style="opacity:1" fill="#ecac41" d="M 663.5,1566.5 C 666.365,1566.05 668.865,1566.72 671,1568.5C 676.046,1587.59 684.046,1605.25 695,1621.5C 695.753,1625.49 694.253,1628.33 690.5,1630C 685.515,1629.7 680.515,1629.03 675.5,1628C 663.109,1622.54 650.942,1616.71 639,1610.5C 638.333,1608.83 638.333,1607.17 639,1605.5C 643.928,1600.28 644.595,1594.61 641,1588.5C 639.542,1584.22 640.708,1581.05 644.5,1579C 648.719,1578.83 652.719,1577.83 656.5,1576C 658.965,1572.89 661.298,1569.73 663.5,1566.5 Z"/></g>
<g><path style="opacity:1" fill="#080605" d="M 906.5,1565.5 C 909.237,1566.03 911.904,1566.86 914.5,1568C 925.067,1577.9 934.9,1588.4 944,1599.5C 958.359,1622.21 971.692,1645.55 984,1669.5C 984.833,1672.17 984.333,1674.5 982.5,1676.5C 980.33,1677.77 978.163,1677.77 976,1676.5C 963.947,1652.06 950.614,1628.39 936,1605.5C 927.901,1595.4 919.068,1585.9 909.5,1577C 902.853,1574.59 901.853,1570.76 906.5,1565.5 Z"/></g>
<g><path style="opacity:1" fill="#ecad41" d="M 762.5,1583.5 C 766.173,1589 771.173,1592.83 777.5,1595C 784.418,1593.95 791.418,1593.29 798.5,1593C 799,1593.5 799.5,1594 800,1594.5C 800.333,1598.17 800.667,1601.83 801,1605.5C 803.64,1610.3 806.473,1614.97 809.5,1619.5C 809.471,1621.03 808.804,1622.2 807.5,1623C 796.165,1625.83 786.499,1631.5 778.5,1640C 773.56,1643.1 768.226,1644.1 762.5,1643C 760.43,1642.05 758.93,1640.55 758,1638.5C 759.825,1621.62 760.825,1604.62 761,1587.5C 761.791,1586.26 762.291,1584.92 762.5,1583.5 Z"/></g>
<g><path style="opacity:1" fill="#f2be67" d="M 1180.5,1624.5 C 1165.83,1624.5 1151.17,1624.5 1136.5,1624.5C 1136.5,1643.5 1136.5,1662.5 1136.5,1681.5C 1136.17,1681.5 1135.83,1681.5 1135.5,1681.5C 1135.5,1662.17 1135.5,1642.83 1135.5,1623.5C 1150.68,1623.17 1165.68,1623.5 1180.5,1624.5 Z"/></g>
<g><path style="opacity:1" fill="#eeae42" d="M 1180.5,1624.5 C 1190.53,1624.64 1200.53,1625.3 1210.5,1626.5C 1230.9,1627.13 1248.4,1634.46 1263,1648.5C 1270.64,1657.36 1274.14,1667.69 1273.5,1679.5C 1239.28,1678.94 1205.12,1679.94 1171,1682.5C 1159.51,1681.88 1148.01,1681.55 1136.5,1681.5C 1136.5,1662.5 1136.5,1643.5 1136.5,1624.5C 1151.17,1624.5 1165.83,1624.5 1180.5,1624.5 Z"/></g>
<g><path style="opacity:1" fill="#6b7bc6" d="M 1530.5,1656.5 C 1541.87,1657.67 1553.2,1659.17 1564.5,1661C 1572.52,1661.66 1580.52,1661.49 1588.5,1660.5C 1591.46,1679.56 1598.96,1696.56 1611,1711.5C 1615.88,1716.05 1621.04,1720.21 1626.5,1724C 1576.16,1724.41 1525.82,1724.75 1475.5,1725C 1485.54,1711.08 1495.71,1697.24 1506,1683.5C 1514.37,1674.63 1522.54,1665.63 1530.5,1656.5 Z"/></g>
<g><path style="opacity:1" fill="#f9deb2" d="M 1376.5,1652.5 C 1377.31,1654.29 1377.81,1656.29 1378,1658.5C 1378.5,1664.82 1378.67,1671.16 1378.5,1677.5C 1378.17,1677.5 1377.83,1677.5 1377.5,1677.5C 1377.31,1669.16 1376.98,1660.83 1376.5,1652.5 Z"/></g>
<g><path style="opacity:1" fill="#bbbbbb" d="M 885.5,1690.5 C 892.896,1690.2 900.229,1690.7 907.5,1692C 910.668,1695.17 912.002,1699.01 911.5,1703.5C 910.696,1711.88 909.029,1720.04 906.5,1728C 899.198,1728.93 891.864,1729.43 884.5,1729.5C 846.155,1728.9 807.822,1728.23 769.5,1727.5C 703.507,1728.18 637.507,1728.84 571.5,1729.5C 466.798,1729.33 362.131,1729.16 257.5,1729C 251.079,1719.99 246.412,1710.16 243.5,1699.5C 243.119,1696.68 244.119,1694.51 246.5,1693C 254.167,1692.83 261.833,1692.67 269.5,1692.5C 416.668,1693.22 563.835,1693.55 711,1693.5C 755,1692.83 799,1692.16 843,1691.5C 857.368,1693.14 871.535,1692.8 885.5,1690.5 Z"/></g>
<g><path style="opacity:1" fill="#080808" d="M 873.5,1702.5 C 881.584,1702.07 885.417,1705.74 885,1713.5C 882.103,1718.15 877.937,1719.65 872.5,1718C 866.873,1712.27 867.206,1707.11 873.5,1702.5 Z"/></g>
<g><path style="opacity:1" fill="#b8b8b8" d="M 1266.5,1705.5 C 1275.84,1705.33 1285.17,1705.5 1294.5,1706C 1302.22,1709.74 1302.38,1713.58 1295,1717.5C 1285.53,1716.7 1276.03,1716.2 1266.5,1716C 1262.57,1712.5 1262.57,1709 1266.5,1705.5 Z"/></g>
<g><path style="opacity:1" fill="#b9b9b9" d="M 1336.5,1707.5 C 1346.48,1708.17 1356.48,1708.67 1366.5,1709C 1369.06,1712.07 1369.06,1715.07 1366.5,1718C 1357.14,1718.48 1347.8,1718.81 1338.5,1719C 1333.92,1716 1333.25,1712.17 1336.5,1707.5 Z"/></g>
<g><path style="opacity:0.882" fill="#000000" d="M 2365.5,1724.5 C 2371.85,1724.73 2378.18,1725.23 2384.5,1726C 2387.71,1730.99 2386.55,1734.49 2381,1736.5C 2375.98,1736.15 2370.48,1735.65 2364.5,1735C 2360.69,1731.24 2361.03,1727.74 2365.5,1724.5 Z"/></g>
<g><path style="opacity:0.826" fill="#000000" d="M 2398.5,1725.5 C 2401.52,1725.34 2404.52,1725.5 2407.5,1726C 2410.85,1732.45 2408.85,1735.95 2401.5,1736.5C 2395.02,1734.26 2394.02,1730.59 2398.5,1725.5 Z"/></g>
<g><path style="opacity:0.87" fill="#000000" d="M 193.5,1726.5 C 197.846,1726.33 202.179,1726.5 206.5,1727C 210.436,1730.51 210.436,1733.84 206.5,1737C 201.628,1737.25 196.795,1737.75 192,1738.5C 187.79,1737.41 186.123,1734.74 187,1730.5C 188.748,1728.37 190.915,1727.04 193.5,1726.5 Z"/></g>
<g><path style="opacity:1" fill="#825f24" d="M 1397.5,1725.5 C 1403.98,1726.49 1410.65,1726.82 1417.5,1726.5C 1410.66,1727.82 1403.66,1727.82 1396.5,1726.5C 1396.62,1725.89 1396.96,1725.56 1397.5,1725.5 Z"/></g>
</svg>
