<?xml version="1.0" encoding="UTF-8"?>
<!DOCTYPE svg PUBLIC "-//W3C//DTD SVG 1.1//EN" "http://www.w3.org/Graphics/SVG/1.1/DTD/svg11.dtd">
<svg xmlns="http://www.w3.org/2000/svg" version="1.1" width="2480px" height="2480px" style="shape-rendering:geometricPrecision; text-rendering:geometricPrecision; image-rendering:optimizeQuality; fill-rule:evenodd; clip-rule:evenodd" xmlns:xlink="http://www.w3.org/1999/xlink">
<g><path style="opacity:0.98" fill="#070505" d="M 1241.5,195.5 C 1284.06,191.257 1324.06,199.257 1361.5,219.5C 1374.13,229.298 1385.3,240.632 1395,253.5C 1398.41,259.997 1402.08,266.33 1406,272.5C 1407.6,278.756 1408.76,285.089 1409.5,291.5C 1428.05,295.88 1438.88,307.546 1442,326.5C 1440.96,373.757 1421.12,410.924 1382.5,438C 1392.36,441.452 1402.36,444.619 1412.5,447.5C 1413.17,447.167 1413.83,446.833 1414.5,446.5C 1451.73,458.614 1487.06,474.781 1520.5,495C 1533.17,503 1545.83,511 1558.5,519C 1572.94,530.27 1586.94,542.103 1600.5,554.5C 1608.42,542.996 1615.59,530.996 1622,518.5C 1635.67,500.167 1649.33,481.833 1663,463.5C 1689.04,434.463 1714.71,405.129 1740,375.5C 1761.53,354.302 1783.36,333.468 1805.5,313C 1820.17,302 1834.83,291 1849.5,280C 1864.67,270.248 1879.67,260.248 1894.5,250C 1913.4,242.216 1932.07,233.882 1950.5,225C 1967.27,218.409 1984.27,212.409 2001.5,207C 2017.61,203.747 2033.77,201.247 2050,199.5C 2057.4,199.469 2064.9,199.636 2072.5,200C 2082.8,202.492 2093.13,204.825 2103.5,207C 2113.99,212.503 2122.83,220.003 2130,229.5C 2160.87,274.585 2182.53,323.918 2195,377.5C 2201.43,415.72 2207.09,454.053 2212,492.5C 2213.01,528.52 2214.18,565.187 2215.5,602.5C 2215.4,633.928 2215.4,665.262 2215.5,696.5C 2214.58,710.758 2213.24,724.925 2211.5,739C 2210.39,753.978 2208.89,769.145 2207,784.5C 2202.63,814.631 2197.63,844.631 2192,874.5C 2174.84,932.157 2158.84,989.824 2144,1047.5C 2109.09,1140.32 2066.42,1229.32 2016,1314.5C 2005.74,1331.35 1994.74,1347.68 1983,1363.5C 1974.67,1378.84 1965.33,1393.51 1955,1407.5C 1952.3,1411.56 1950.14,1415.89 1948.5,1420.5C 1952.25,1426.33 1955.75,1432.33 1959,1438.5C 1959.76,1442.36 1960.26,1446.03 1960.5,1449.5C 1959.32,1452.85 1958.49,1456.18 1958,1459.5C 1964.84,1465.84 1971.34,1472.5 1977.5,1479.5C 1983.9,1487.42 1987.23,1496.25 1987.5,1506C 1985.29,1509.59 1982.96,1513.09 1980.5,1516.5C 1984.16,1520.75 1988.32,1524.41 1993,1527.5C 1999.11,1534.27 2004.44,1541.61 2009,1549.5C 2014.93,1558.79 2016.77,1568.79 2014.5,1579.5C 2023.45,1580.99 2032.45,1582.16 2041.5,1583C 2070.65,1583.01 2099.65,1585.01 2128.5,1589C 2147.49,1592.84 2153.32,1603.67 2146,1621.5C 2143.36,1625.4 2139.86,1628.23 2135.5,1630C 2125.71,1633.02 2115.71,1635.02 2105.5,1636C 2117.11,1643.95 2128.45,1652.28 2139.5,1661C 2149.53,1669.03 2156.36,1679.19 2160,1691.5C 2158.67,1709.81 2148.84,1717.31 2130.5,1714C 2127.49,1713.22 2124.65,1712.05 2122,1710.5C 2115.48,1720.35 2106.31,1724.18 2094.5,1722C 2090.36,1721.07 2086.36,1719.73 2082.5,1718C 2059.08,1705.29 2035.08,1693.63 2010.5,1683C 2002.22,1680.14 1993.72,1678.31 1985,1677.5C 1980.43,1677.84 1978.26,1680.34 1978.5,1685C 1979.19,1690.28 1980.35,1695.44 1982,1700.5C 1988.23,1714.95 1993.89,1729.62 1999,1744.5C 1999.63,1774.77 1986.79,1781.94 1960.5,1766C 1951.76,1757.67 1944.1,1748.5 1937.5,1738.5C 1935.75,1770.35 1932.25,1802.02 1927,1833.5C 1922.64,1851.99 1919.3,1870.65 1917,1889.5C 1910.68,1921.75 1901.35,1953.09 1889,1983.5C 1874.96,2013.76 1855.46,2039.93 1830.5,2062C 1826.33,2065.07 1821.83,2066.23 1817,2065.5C 1813.8,2066.67 1810.47,2067.34 1807,2067.5C 1800.72,2066.93 1794.55,2065.76 1788.5,2064C 1756.95,2053.4 1728.62,2037.4 1703.5,2016C 1659.52,1977.35 1619.69,1934.85 1584,1888.5C 1571.58,1870 1559.42,1851.34 1547.5,1832.5C 1522.66,1831.14 1497.99,1828.3 1473.5,1824C 1449.38,1817.43 1426.05,1808.93 1403.5,1798.5C 1403.43,1801.97 1403.43,1805.47 1403.5,1809C 1401.99,1811.11 1401.65,1813.28 1402.5,1815.5C 1399.6,1823.23 1394.27,1828.4 1386.5,1831C 1388.79,1840.67 1390.13,1850.33 1390.5,1860C 1389.2,1869.07 1384.87,1876.74 1377.5,1883C 1375.61,1883.97 1373.61,1884.64 1371.5,1885C 1372.13,1885.75 1372.63,1886.58 1373,1887.5C 1375.67,1899.15 1376.34,1910.82 1375,1922.5C 1373.58,1931.92 1368.42,1937.09 1359.5,1938C 1358.94,1938.72 1358.61,1939.56 1358.5,1940.5C 1359.07,1944.73 1359.74,1948.89 1360.5,1953C 1359.98,1953.56 1359.64,1954.23 1359.5,1955C 1362.8,1967.73 1361.47,1979.9 1355.5,1991.5C 1353.49,1993.01 1351.83,1994.84 1350.5,1997C 1348.13,1997.54 1346.13,1998.7 1344.5,2000.5C 1345.81,2006.99 1346.81,2013.32 1347.5,2019.5C 1347.51,2026.67 1347.01,2034 1346,2041.5C 1344.24,2050.92 1338.74,2056.75 1329.5,2059C 1336.22,2075.82 1336.06,2092.32 1329,2108.5C 1324.17,2113.29 1318.34,2115.95 1311.5,2116.5C 1309.87,2119.6 1307.87,2122.43 1305.5,2125C 1312.12,2136.36 1315.62,2148.53 1316,2161.5C 1314.72,2166.72 1312.39,2171.39 1309,2175.5C 1306.3,2177.9 1303.13,2179.24 1299.5,2179.5C 1298.49,2190.23 1298.49,2200.73 1299.5,2211C 1295.66,2243.86 1289.83,2276.36 1282,2308.5C 1273.43,2335.82 1259.6,2359.98 1240.5,2381C 1233.72,2386.43 1226.39,2391.09 1218.5,2395C 1202.35,2403.06 1187.02,2401.72 1172.5,2391C 1155.85,2376.12 1145.35,2357.62 1141,2335.5C 1139.08,2326.55 1137.41,2317.55 1136,2308.5C 1135.53,2288.46 1135.36,2268.63 1135.5,2249C 1136.15,2241.33 1137.15,2233.66 1138.5,2226C 1136.39,2222.88 1133.89,2220.05 1131,2217.5C 1127.84,2209.25 1127.67,2200.92 1130.5,2192.5C 1123.28,2190.67 1117.44,2187.33 1113,2182.5C 1109.7,2174.14 1108.7,2165.47 1110,2156.5C 1112.16,2143.71 1115.32,2131.21 1119.5,2119C 1113.55,2117.38 1109.05,2113.88 1106,2108.5C 1103.54,2100.64 1103.37,2092.8 1105.5,2085C 1105.26,2084.13 1104.93,2083.29 1104.5,2082.5C 1107.66,2074.77 1109.66,2066.93 1110.5,2059C 1107.37,2056.19 1104.53,2053.03 1102,2049.5C 1101.78,2047.62 1101.12,2045.95 1100,2044.5C 1098.69,2039.07 1098.19,2033.74 1098.5,2028.5C 1100.67,2018.14 1103.01,2007.81 1105.5,1997.5C 1100.69,1994.53 1096.52,1990.53 1093,1985.5C 1091.23,1975.13 1092.07,1964.96 1095.5,1955C 1095.04,1954.59 1094.71,1954.09 1094.5,1953.5C 1095.98,1949.36 1097.65,1945.19 1099.5,1941C 1096.71,1940.3 1094.21,1938.47 1092,1935.5C 1089.2,1931.56 1087.2,1927.22 1086,1922.5C 1085.76,1917.9 1085.59,1913.4 1085.5,1909C 1086.38,1903.96 1087.55,1898.8 1089,1893.5C 1089.96,1892.42 1090.79,1891.25 1091.5,1890C 1090.43,1888.75 1090.43,1887.42 1091.5,1886C 1089.39,1883.49 1086.89,1881.32 1084,1879.5C 1082.19,1876.01 1080.69,1872.35 1079.5,1868.5C 1078.79,1858.18 1080.79,1848.02 1085.5,1838C 1080.37,1832.24 1076.37,1825.74 1073.5,1818.5C 1064.12,1822.09 1054.46,1824.59 1044.5,1826C 1023.58,1828.98 1002.58,1831.14 981.5,1832.5C 969.582,1851.34 957.416,1870 945,1888.5C 928.419,1909.75 911.086,1930.42 893,1950.5C 876.11,1967.06 859.61,1983.89 843.5,2001C 827.069,2014.77 810.069,2027.77 792.5,2040C 770.675,2053.5 747.175,2062.66 722,2067.5C 718.531,2067.34 715.197,2066.67 712,2065.5C 707.171,2066.23 702.671,2065.07 698.5,2062C 665.707,2032.95 642.541,1997.45 629,1955.5C 606.411,1876.39 593.578,1795.72 590.5,1713.5C 593.904,1671.37 598.737,1629.37 605,1587.5C 611.172,1562.15 617.338,1536.81 623.5,1511.5C 608.293,1516.49 593.626,1515.32 579.5,1508C 573.36,1502.59 570.526,1495.75 571,1487.5C 556.728,1482.37 544.728,1474.04 535,1462.5C 530.511,1455.89 528.178,1448.55 528,1440.5C 515.333,1433.17 505.333,1423.17 498,1410.5C 496.104,1403.63 496.937,1396.8 500.5,1390C 488.671,1381.51 479.838,1370.68 474,1357.5C 472.903,1350.42 473.736,1343.59 476.5,1337C 451.614,1317.41 431.78,1293.57 417,1265.5C 412.123,1255.54 409.29,1245.04 408.5,1234C 408.536,1228.45 409.536,1223.11 411.5,1218C 404.086,1202.81 405.252,1188.31 415,1174.5C 414.056,1166.81 414.389,1159.15 416,1151.5C 418.521,1147.1 420.354,1142.44 421.5,1137.5C 406.781,1106.43 394.115,1074.6 383.5,1042C 383.833,1041.67 384.167,1041.33 384.5,1041C 369.061,985.416 353.228,929.916 337,874.5C 328.699,829.864 321.866,785.031 316.5,740C 316.833,739.667 317.167,739.333 317.5,739C 315.757,724.925 314.424,710.758 313.5,696.5C 313.96,655.264 314.127,613.931 314,572.5C 314.987,555.615 315.82,538.782 316.5,522C 316.627,517.909 316.294,513.909 315.5,510C 320.209,462.909 327.042,416.075 336,369.5C 348.732,318.912 369.732,272.246 399,229.5C 406.175,220.003 415.008,212.503 425.5,207C 435.866,204.825 446.2,202.492 456.5,200C 464.102,199.636 471.602,199.469 479,199.5C 495.227,201.247 511.394,203.747 527.5,207C 544.727,212.409 561.727,218.409 578.5,225C 596.93,233.882 615.597,242.216 634.5,250C 649.328,260.248 664.328,270.248 679.5,280C 699.042,293.941 718.042,308.607 736.5,324C 754.305,340.804 771.805,357.971 789,375.5C 814.294,405.129 839.961,434.463 866,463.5C 879.667,481.833 893.333,500.167 907,518.5C 913.412,530.996 920.578,542.996 928.5,554.5C 954.163,529.999 982.497,509.166 1013.5,492C 1045.54,473.264 1079.2,458.097 1114.5,446.5C 1115.17,446.833 1115.83,447.167 1116.5,447.5C 1130.27,443.477 1143.94,439.311 1157.5,435C 1151.32,429.48 1145.82,423.313 1141,416.5C 1136.27,406.708 1131.27,397.041 1126,387.5C 1119.56,369.696 1115.73,351.362 1114.5,332.5C 1114.8,316.662 1116.3,300.662 1119,284.5C 1125.88,265.072 1136.54,248.072 1151,233.5C 1166.59,219.112 1184.76,208.945 1205.5,203C 1217.48,199.731 1229.48,197.231 1241.5,195.5 Z M 491.5,1111.5 C 492.16,1112.96 492.493,1114.63 492.5,1116.5C 492.082,1120.84 491.582,1125.18 491,1129.5C 488.649,1128.29 486.149,1127.45 483.5,1127C 486.831,1122.17 489.497,1117.01 491.5,1111.5 Z"/></g>
<g><path style="opacity:1" fill="#d9d9d9" d="M 1243.5,206.5 C 1276.36,203.932 1308.03,208.765 1338.5,221C 1344.34,225.424 1350.68,229.091 1357.5,232C 1393.28,258.127 1407.12,293.293 1399,337.5C 1397.62,344.929 1394.62,351.596 1390,357.5C 1388.56,363.371 1390.72,366.204 1396.5,366C 1404.08,357.664 1408.58,347.831 1410,336.5C 1410.33,325.5 1410.67,314.5 1411,303.5C 1427.09,310.998 1433.75,323.664 1431,341.5C 1424.26,380.859 1404.1,411.026 1370.5,432C 1367.83,432.667 1365.17,432.667 1362.5,432C 1358.66,427.073 1353.99,423.073 1348.5,420C 1299.85,394.833 1249.85,391.833 1198.5,411C 1187.68,415.572 1177.68,421.405 1168.5,428.5C 1163.86,425.69 1160.02,422.023 1157,417.5C 1145.98,402.456 1137.31,386.123 1131,368.5C 1112.51,275.049 1150.01,221.049 1243.5,206.5 Z"/></g>
<g><path style="opacity:1" fill="#fdfdfe" d="M 578.5,237.5 C 578.349,249.194 578.849,260.861 580,272.5C 584.354,291.251 589.021,309.918 594,328.5C 598.678,335.52 602.012,343.186 604,351.5C 607.727,359.955 611.727,368.288 616,376.5C 628.428,397.017 640.094,418.017 651,439.5C 669.518,469.87 687.518,500.537 705,531.5C 719.831,561.329 731.498,592.329 740,624.5C 742.341,641.761 743.008,659.094 742,676.5C 741.224,688.692 739.558,700.692 737,712.5C 740.333,719.833 743.667,727.167 747,734.5C 755.64,748.783 763.474,763.45 770.5,778.5C 769.669,785.817 769.002,793.151 768.5,800.5C 755.542,773.251 742.042,746.251 728,719.5C 727.5,719 727,718.5 726.5,718C 695.56,715.436 666.893,706.103 640.5,690C 632.384,683.22 623.718,677.22 614.5,672C 598.721,657.554 583.554,642.387 569,626.5C 552.238,605.982 535.238,585.648 518,565.5C 481.134,525.354 445.467,484.354 411,442.5C 405.762,432.924 400.096,423.59 394,414.5C 392.486,418.714 391.153,423.047 390,427.5C 389.113,439.27 387.446,450.937 385,462.5C 378.13,519.223 372.296,576.056 367.5,633C 368.03,639.322 368.364,645.655 368.5,652C 367.803,664.832 367.137,677.665 366.5,690.5C 366.858,697.85 367.025,705.184 367,712.5C 366.163,714.007 364.996,714.507 363.5,714C 353.834,704.148 345.001,693.648 337,682.5C 332.909,676.594 329.076,670.594 325.5,664.5C 325.169,607.812 326.002,551.145 328,494.5C 332.898,458.446 338.231,422.446 344,386.5C 348.942,368.511 353.775,350.511 358.5,332.5C 374.404,360.257 390.571,387.924 407,415.5C 439.029,459.21 473.695,500.877 511,540.5C 538,572.167 565,603.833 592,635.5C 600.53,644.364 609.363,652.864 618.5,661C 630.776,668.944 642.776,677.277 654.5,686C 676.522,696.477 699.689,703.31 724,706.5C 725.884,704.55 727.218,702.216 728,699.5C 731.163,680.968 732.163,662.301 731,643.5C 728.376,625.09 724.043,607.09 718,589.5C 711.112,571.503 703.445,553.837 695,536.5C 661.8,480.937 629.8,424.604 599,367.5C 588.608,341.992 579.608,315.992 572,289.5C 570.071,280.926 568.904,272.259 568.5,263.5C 547.192,258.218 525.526,255.885 503.5,256.5C 480.027,254.494 460.861,262.494 446,280.5C 427.744,310.588 413.744,342.588 404,376.5C 400.714,380.485 397.381,380.485 394,376.5C 384.331,357.822 374.164,339.489 363.5,321.5C 371.693,299.779 381.526,278.779 393,258.5C 401.334,244.501 411.5,232.001 423.5,221C 426.417,219.472 429.417,218.139 432.5,217C 463.245,210.784 493.912,211.118 524.5,218C 542.714,224.015 560.714,230.515 578.5,237.5 Z"/></g>
<g><path style="opacity:1" fill="#fdfdfe" d="M 2165.5,321.5 C 2154.64,340.726 2143.64,359.892 2132.5,379C 2129.32,380.036 2126.82,379.203 2125,376.5C 2115.26,342.588 2101.26,310.588 2083,280.5C 2077.8,274.967 2072.3,269.8 2066.5,265C 2052.69,258.705 2038.19,255.872 2023,256.5C 2001.77,255.802 1980.94,258.136 1960.5,263.5C 1959.39,278.819 1956.56,293.819 1952,308.5C 1945.5,328.489 1938.17,348.156 1930,367.5C 1899.2,424.604 1867.2,480.937 1834,536.5C 1822.06,560.721 1812.06,585.721 1804,611.5C 1802.33,622.233 1800.33,632.899 1798,643.5C 1797.29,658.854 1797.63,674.188 1799,689.5C 1799.8,694.657 1801.14,699.657 1803,704.5C 1803.67,705.578 1804.67,706.245 1806,706.5C 1829.97,703.136 1852.81,696.303 1874.5,686C 1886.22,677.277 1898.22,668.944 1910.5,661C 1919.64,652.864 1928.47,644.364 1937,635.5C 1985.25,578.575 2034.25,522.242 2084,466.5C 2089.85,458.136 2096.19,450.136 2103,442.5C 2109.33,433.5 2115.67,424.5 2122,415.5C 2138.43,387.924 2154.6,360.257 2170.5,332.5C 2175.22,350.511 2180.06,368.511 2185,386.5C 2190.77,422.446 2196.1,458.446 2201,494.5C 2203,551.145 2203.83,607.812 2203.5,664.5C 2194.76,678.294 2185.26,691.628 2175,704.5C 2171.83,707.667 2168.67,710.833 2165.5,714C 2164,714.507 2162.84,714.007 2162,712.5C 2161.98,705.184 2162.14,697.85 2162.5,690.5C 2161.86,677.665 2161.2,664.832 2160.5,652C 2160.64,645.655 2160.97,639.322 2161.5,633C 2156.7,576.056 2150.87,519.223 2144,462.5C 2141.55,450.937 2139.89,439.27 2139,427.5C 2137.85,423.047 2136.51,418.714 2135,414.5C 2128.9,423.59 2123.24,432.924 2118,442.5C 2083.53,484.354 2047.87,525.354 2011,565.5C 1993.76,585.648 1976.76,605.982 1960,626.5C 1945.45,642.387 1930.28,657.554 1914.5,672C 1905.28,677.22 1896.62,683.22 1888.5,690C 1861.65,705.802 1832.65,715.302 1801.5,718.5C 1787.29,745.584 1773.62,772.917 1760.5,800.5C 1760,793.151 1759.33,785.817 1758.5,778.5C 1765.53,763.45 1773.36,748.783 1782,734.5C 1785.33,727.167 1788.67,719.833 1792,712.5C 1789.44,700.692 1787.78,688.692 1787,676.5C 1785.99,659.094 1786.66,641.761 1789,624.5C 1797.5,592.329 1809.17,561.329 1824,531.5C 1841.48,500.537 1859.48,469.87 1878,439.5C 1888.91,418.017 1900.57,397.017 1913,376.5C 1919.77,363.629 1925.44,350.296 1930,336.5C 1932.06,334.099 1933.73,331.433 1935,328.5C 1939.98,309.918 1944.65,291.251 1949,272.5C 1950.15,260.861 1950.65,249.194 1950.5,237.5C 1974.64,226.954 1999.64,219.121 2025.5,214C 2050.08,211.195 2074.41,212.528 2098.5,218C 2100.72,219.275 2103.05,220.275 2105.5,221C 2117.5,232.001 2127.67,244.501 2136,258.5C 2147.47,278.779 2157.31,299.779 2165.5,321.5 Z"/></g>
<g><path style="opacity:1" fill="#c29afe" d="M 578.5,237.5 C 581.907,239.181 585.241,240.847 588.5,242.5C 588.805,250.883 589.638,259.216 591,267.5C 591.36,269.421 592.194,271.088 593.5,272.5C 596.852,273.226 600.185,274.059 603.5,275C 648.575,292.508 691.909,313.341 733.5,337.5C 748.518,351.685 763.351,366.019 778,380.5C 802.667,408.5 827.333,436.5 852,464.5C 866.576,483.321 880.91,502.321 895,521.5C 902.795,535.597 910.962,549.43 919.5,563C 904.374,577.125 889.541,591.625 875,606.5C 850.425,634.067 827.758,663.067 807,693.5C 790.668,719.982 778.501,748.316 770.5,778.5C 763.474,763.45 755.64,748.783 747,734.5C 743.667,727.167 740.333,719.833 737,712.5C 739.558,700.692 741.224,688.692 742,676.5C 743.008,659.094 742.341,641.761 740,624.5C 731.498,592.329 719.831,561.329 705,531.5C 687.518,500.537 669.518,469.87 651,439.5C 640.094,418.017 628.428,397.017 616,376.5C 611.727,368.288 607.727,359.955 604,351.5C 602.012,343.186 598.678,335.52 594,328.5C 589.021,309.918 584.354,291.251 580,272.5C 578.849,260.861 578.349,249.194 578.5,237.5 Z"/></g>
<g><path style="opacity:1" fill="#c29afe" d="M 1950.5,237.5 C 1950.65,249.194 1950.15,260.861 1949,272.5C 1944.65,291.251 1939.98,309.918 1935,328.5C 1933.73,331.433 1932.06,334.099 1930,336.5C 1925.44,350.296 1919.77,363.629 1913,376.5C 1900.57,397.017 1888.91,418.017 1878,439.5C 1859.48,469.87 1841.48,500.537 1824,531.5C 1809.17,561.329 1797.5,592.329 1789,624.5C 1786.66,641.761 1785.99,659.094 1787,676.5C 1787.78,688.692 1789.44,700.692 1792,712.5C 1788.67,719.833 1785.33,727.167 1782,734.5C 1773.36,748.783 1765.53,763.45 1758.5,778.5C 1750.5,748.316 1738.33,719.982 1722,693.5C 1701.24,663.067 1678.58,634.067 1654,606.5C 1639.46,591.625 1624.63,577.125 1609.5,563C 1618.04,549.43 1626.2,535.597 1634,521.5C 1648.09,502.321 1662.42,483.321 1677,464.5C 1701.67,436.5 1726.33,408.5 1751,380.5C 1766.02,365.729 1781.19,351.063 1796.5,336.5C 1836.95,313.443 1878.95,293.276 1922.5,276C 1926.35,274.384 1930.35,273.384 1934.5,273C 1936.49,271.681 1937.65,269.848 1938,267.5C 1939.36,259.216 1940.2,250.883 1940.5,242.5C 1943.58,240.463 1946.92,238.797 1950.5,237.5 Z"/></g>
<g><path style="opacity:1" fill="#fcfbfc" d="M 588.5,242.5 C 642.043,266.423 690.376,298.09 733.5,337.5C 691.909,313.341 648.575,292.508 603.5,275C 600.185,274.059 596.852,273.226 593.5,272.5C 592.194,271.088 591.36,269.421 591,267.5C 589.638,259.216 588.805,250.883 588.5,242.5 Z"/></g>
<g><path style="opacity:1" fill="#fcfbfc" d="M 1940.5,242.5 C 1940.2,250.883 1939.36,259.216 1938,267.5C 1937.65,269.848 1936.49,271.681 1934.5,273C 1930.35,273.384 1926.35,274.384 1922.5,276C 1878.95,293.276 1836.95,313.443 1796.5,336.5C 1839.43,297.607 1887.43,266.274 1940.5,242.5 Z"/></g>
<g><path style="opacity:1" fill="#c39bfe" d="M 358.5,332.5 C 359.989,328.677 361.656,325.01 363.5,321.5C 374.164,339.489 384.331,357.822 394,376.5C 397.381,380.485 400.714,380.485 404,376.5C 413.744,342.588 427.744,310.588 446,280.5C 460.861,262.494 480.027,254.494 503.5,256.5C 525.526,255.885 547.192,258.218 568.5,263.5C 568.904,272.259 570.071,280.926 572,289.5C 579.608,315.992 588.608,341.992 599,367.5C 629.8,424.604 661.8,480.937 695,536.5C 703.445,553.837 711.112,571.503 718,589.5C 724.043,607.09 728.376,625.09 731,643.5C 732.163,662.301 731.163,680.968 728,699.5C 727.218,702.216 725.884,704.55 724,706.5C 699.689,703.31 676.522,696.477 654.5,686C 642.776,677.277 630.776,668.944 618.5,661C 609.363,652.864 600.53,644.364 592,635.5C 565,603.833 538,572.167 511,540.5C 473.695,500.877 439.029,459.21 407,415.5C 390.571,387.924 374.404,360.257 358.5,332.5 Z"/></g>
<g><path style="opacity:1" fill="#c39bfe" d="M 2165.5,321.5 C 2167.34,325.01 2169.01,328.677 2170.5,332.5C 2154.6,360.257 2138.43,387.924 2122,415.5C 2115.67,424.5 2109.33,433.5 2103,442.5C 2096.19,450.136 2089.85,458.136 2084,466.5C 2034.25,522.242 1985.25,578.575 1937,635.5C 1928.47,644.364 1919.64,652.864 1910.5,661C 1898.22,668.944 1886.22,677.277 1874.5,686C 1852.81,696.303 1829.97,703.136 1806,706.5C 1804.67,706.245 1803.67,705.578 1803,704.5C 1801.14,699.657 1799.8,694.657 1799,689.5C 1797.63,674.188 1797.29,658.854 1798,643.5C 1800.33,632.899 1802.33,622.233 1804,611.5C 1812.06,585.721 1822.06,560.721 1834,536.5C 1867.2,480.937 1899.2,424.604 1930,367.5C 1938.17,348.156 1945.5,328.489 1952,308.5C 1956.56,293.819 1959.39,278.819 1960.5,263.5C 1980.94,258.136 2001.77,255.802 2023,256.5C 2038.19,255.872 2052.69,258.705 2066.5,265C 2072.3,269.8 2077.8,274.967 2083,280.5C 2101.26,310.588 2115.26,342.588 2125,376.5C 2126.82,379.203 2129.32,380.036 2132.5,379C 2143.64,359.892 2154.64,340.726 2165.5,321.5 Z"/></g>
<g><path style="opacity:1" fill="#bf3d7f" d="M 1248.5,409.5 C 1276.91,407.604 1304.24,412.104 1330.5,423C 1335.49,425.161 1340.16,427.828 1344.5,431C 1317.7,429.723 1290.87,428.89 1264,428.5C 1237.45,428.825 1210.95,429.659 1184.5,431C 1204.32,419.116 1225.65,411.949 1248.5,409.5 Z"/></g>
<g><path style="opacity:1" fill="#c29afe" d="M 768.5,800.5 C 769.735,805.813 769.735,811.147 768.5,816.5C 762.099,820.792 755.933,825.458 750,830.5C 745.304,836.556 741.637,843.223 739,850.5C 737.027,858.894 738.861,866.228 744.5,872.5C 731.894,882.269 722.06,894.269 715,908.5C 712.689,916.674 714.856,923.174 721.5,928C 709.828,938.517 700.995,951.017 695,965.5C 693.791,971.886 694.791,977.886 698,983.5C 700.855,986.355 703.688,989.188 706.5,992C 700.819,1000.5 695.819,1009.33 691.5,1018.5C 673.722,1010.11 657.055,999.946 641.5,988C 635.342,985.505 630.009,981.838 625.5,977C 620.167,974 614.833,971 609.5,968C 592.201,954.349 574.201,941.683 555.5,930C 548.603,923.596 541.603,917.429 534.5,911.5C 535.457,887.109 537.123,862.775 539.5,838.5C 557.852,852.668 576.519,866.335 595.5,879.5C 598.579,879.2 601.079,877.867 603,875.5C 598.2,849.349 591.7,823.515 583.5,798C 599.936,782.903 616.436,767.736 633,752.5C 636.382,748.375 636.216,744.542 632.5,741C 608.885,742.602 585.218,743.769 561.5,744.5C 557.033,721.329 551.866,698.329 546,675.5C 543.442,671.788 539.942,670.622 535.5,672C 533.951,673.214 532.785,674.714 532,676.5C 524.27,697.961 515.437,718.961 505.5,739.5C 502.216,740.657 498.882,740.824 495.5,740C 478.77,735.322 461.936,731.155 445,727.5C 442.003,728.704 438.836,729.537 435.5,730C 432.793,731.864 431.959,734.364 433,737.5C 447.643,756.311 462.476,774.977 477.5,793.5C 471.993,804.513 467.16,815.846 463,827.5C 460.539,831.096 458.373,834.763 456.5,838.5C 417.471,803.646 383.305,764.646 354,721.5C 343.875,709.888 334.375,697.888 325.5,685.5C 325.5,678.5 325.5,671.5 325.5,664.5C 329.076,670.594 332.909,676.594 337,682.5C 345.001,693.648 353.834,704.148 363.5,714C 364.996,714.507 366.163,714.007 367,712.5C 367.025,705.184 366.858,697.85 366.5,690.5C 367.137,677.665 367.803,664.832 368.5,652C 368.364,645.655 368.03,639.322 367.5,633C 372.296,576.056 378.13,519.223 385,462.5C 387.446,450.937 389.113,439.27 390,427.5C 391.153,423.047 392.486,418.714 394,414.5C 400.096,423.59 405.762,432.924 411,442.5C 445.467,484.354 481.134,525.354 518,565.5C 535.238,585.648 552.238,605.982 569,626.5C 583.554,642.387 598.721,657.554 614.5,672C 623.718,677.22 632.384,683.22 640.5,690C 666.893,706.103 695.56,715.436 726.5,718C 727,718.5 727.5,719 728,719.5C 742.042,746.251 755.542,773.251 768.5,800.5 Z"/></g>
<g><path style="opacity:1" fill="#c39bfe" d="M 2203.5,664.5 C 2203.5,671.5 2203.5,678.5 2203.5,685.5C 2194.63,697.888 2185.13,709.888 2175,721.5C 2170.09,728.328 2165.42,735.328 2161,742.5C 2145.67,761.167 2130.33,779.833 2115,798.5C 2091.58,822.253 2067.75,845.753 2043.5,869C 2018.83,890.333 1994.17,911.667 1969.5,933C 1952,943.499 1935.34,955.165 1919.5,968C 1914.17,971 1908.83,974 1903.5,977C 1894.83,983.333 1886.17,989.667 1877.5,996C 1864.6,1004.28 1851.26,1011.78 1837.5,1018.5C 1833.18,1009.33 1828.18,1000.5 1822.5,992C 1826.73,988.439 1830.23,984.272 1833,979.5C 1834.48,974.924 1834.81,970.257 1834,965.5C 1828.01,951.017 1819.17,938.517 1807.5,928C 1814.14,923.174 1816.31,916.674 1814,908.5C 1806.94,894.269 1797.11,882.269 1784.5,872.5C 1790.14,866.228 1791.97,858.894 1790,850.5C 1784.23,835.565 1774.39,824.232 1760.5,816.5C 1759.26,811.147 1759.26,805.813 1760.5,800.5C 1773.62,772.917 1787.29,745.584 1801.5,718.5C 1832.65,715.302 1861.65,705.802 1888.5,690C 1896.62,683.22 1905.28,677.22 1914.5,672C 1930.28,657.554 1945.45,642.387 1960,626.5C 1976.76,605.982 1993.76,585.648 2011,565.5C 2047.87,525.354 2083.53,484.354 2118,442.5C 2123.24,432.924 2128.9,423.59 2135,414.5C 2136.51,418.714 2137.85,423.047 2139,427.5C 2139.89,439.27 2141.55,450.937 2144,462.5C 2150.87,519.223 2156.7,576.056 2161.5,633C 2160.97,639.322 2160.64,645.655 2160.5,652C 2161.2,664.832 2161.86,677.665 2162.5,690.5C 2162.14,697.85 2161.98,705.184 2162,712.5C 2162.84,714.007 2164,714.507 2165.5,714C 2168.67,710.833 2171.83,707.667 2175,704.5C 2185.26,691.628 2194.76,678.294 2203.5,664.5 Z"/></g>
<g><path style="opacity:1" fill="#d9d8d8" d="M 1253.5,439.5 C 1276.16,440.014 1298.83,440.514 1321.5,441C 1356.3,443.094 1389.97,450.427 1422.5,463C 1426.15,463.774 1429.81,464.441 1433.5,465C 1509.09,494.673 1574.59,538.839 1630,597.5C 1643.67,612.5 1657.33,627.5 1671,642.5C 1684.73,659.633 1697.73,677.3 1710,695.5C 1726.68,721.534 1739.01,749.534 1747,779.5C 1748.19,788.275 1748.52,797.275 1748,806.5C 1742.75,803.459 1737.58,800.292 1732.5,797C 1735.92,793.761 1737.58,789.761 1737.5,785C 1737.26,780.694 1736.42,776.527 1735,772.5C 1724.36,758.025 1710.86,747.025 1694.5,739.5C 1696.18,730.4 1693.85,722.4 1687.5,715.5C 1672.18,700.883 1654.18,690.883 1633.5,685.5C 1632.77,682.891 1632.27,680.224 1632,677.5C 1628.3,674.133 1624.96,670.466 1622,666.5C 1614.18,643.528 1604.18,621.528 1592,600.5C 1576.04,577.534 1557.54,556.701 1536.5,538C 1511.76,517.967 1483.76,504.3 1452.5,497C 1411.24,488.771 1369.91,488.438 1328.5,496C 1310.66,499.61 1293.83,505.777 1278,514.5C 1277.33,520.829 1280.17,523.329 1286.5,522C 1312.45,509.743 1339.78,503.077 1368.5,502C 1397.07,501.446 1425.41,503.779 1453.5,509C 1480.01,516.257 1504.34,527.757 1526.5,543.5C 1536.46,553.626 1546.63,563.626 1557,573.5C 1591.16,612.492 1611.82,657.825 1619,709.5C 1622.13,732.529 1618.79,754.529 1609,775.5C 1610.14,749.807 1609.47,724.141 1607,698.5C 1604.34,694.165 1601,693.499 1597,696.5C 1596.02,698.366 1595.52,700.366 1595.5,702.5C 1596.27,707.509 1597.1,712.509 1598,717.5C 1598.99,753.197 1599.32,788.864 1599,824.5C 1599.56,831.977 1600.9,839.311 1603,846.5C 1605.31,854.109 1607.98,861.442 1611,868.5C 1603.37,863.207 1596.71,856.874 1591,849.5C 1578.96,827.365 1569.3,804.365 1562,780.5C 1560.36,773.259 1559.36,765.925 1559,758.5C 1553.92,736.428 1548.59,714.428 1543,692.5C 1533.7,671.884 1522.36,652.551 1509,634.5C 1498.78,624.944 1488.61,615.444 1478.5,606C 1439.91,581.381 1397.91,565.715 1352.5,559C 1277.42,545.958 1203.09,549.291 1129.5,569C 1105.72,576.392 1082.72,585.725 1060.5,597C 1028.25,617.592 1005.09,645.758 991,681.5C 985.486,698.754 981.819,716.421 980,734.5C 979.888,753.197 979.222,771.863 978,790.5C 974.826,799.2 969.492,806.2 962,811.5C 964.206,799.453 966.04,787.287 967.5,775C 969.303,767.808 966.636,764.808 959.5,766C 958.299,766.903 957.465,768.069 957,769.5C 956.689,783.433 953.689,796.767 948,809.5C 938.109,830.383 925.443,849.383 910,866.5C 899.104,878.065 887.604,888.899 875.5,899C 861.801,908.016 847.134,915.182 831.5,920.5C 830.833,920.167 830.167,919.833 829.5,919.5C 858.51,884.496 880.01,845.163 894,801.5C 897.231,787.988 899.564,774.321 901,760.5C 902.603,731.094 904.937,701.761 908,672.5C 909.736,661.151 912.736,650.151 917,639.5C 923.794,623.244 931.628,607.578 940.5,592.5C 945.773,589.391 949.939,585.058 953,579.5C 978.178,551.987 1008.01,531.153 1042.5,517C 1089.71,502.683 1137.71,499.017 1186.5,506C 1198.1,508.758 1209.77,511.091 1221.5,513C 1230.17,516 1238.83,519 1247.5,522C 1255.69,524.306 1258.69,521.473 1256.5,513.5C 1190.83,487.459 1123.83,483.625 1055.5,502C 1036.77,507.348 1019.11,515.015 1002.5,525C 1001.26,526.154 1000.26,527.488 999.5,529C 976.419,540.957 957.252,557.457 942,578.5C 939.297,581.538 936.297,584.205 933,586.5C 918.253,607.997 907.253,631.331 900,656.5C 898.29,666.148 896.79,675.814 895.5,685.5C 874.826,690.875 856.826,700.875 841.5,715.5C 835.154,722.4 832.821,730.4 834.5,739.5C 818.145,747.025 804.645,758.025 794,772.5C 791.38,779.068 791.047,785.735 793,792.5C 793.785,794.286 794.951,795.786 796.5,797C 791.417,800.292 786.25,803.459 781,806.5C 780.031,786.007 783.698,766.34 792,747.5C 799.439,729.286 808.439,711.953 819,695.5C 831.268,677.3 844.268,659.633 858,642.5C 871.667,627.5 885.333,612.5 899,597.5C 925.807,569.343 954.973,544.176 986.5,522C 1020.06,500.217 1055.39,481.55 1092.5,466C 1116.08,459.143 1139.74,452.476 1163.5,446C 1193.47,441.351 1223.47,439.185 1253.5,439.5 Z"/></g>
<g><path style="opacity:1" fill="#eeae41" d="M 1868.5,1282.5 C 1866.72,1283.99 1866.05,1285.99 1866.5,1288.5C 1863.92,1286.04 1860.92,1284.87 1857.5,1285C 1853.9,1286.33 1852.73,1288.83 1854,1292.5C 1855.81,1295.28 1857.98,1297.78 1860.5,1300C 1874.94,1308.61 1886.94,1319.78 1896.5,1333.5C 1897.83,1336.83 1897.83,1340.17 1896.5,1343.5C 1892.94,1343.62 1889.28,1343.78 1885.5,1344C 1883.52,1346.5 1883.02,1349.33 1884,1352.5C 1895.82,1359.64 1906.49,1368.31 1916,1378.5C 1917.42,1381.01 1919.09,1383.34 1921,1385.5C 1921.5,1387.81 1921.66,1390.14 1921.5,1392.5C 1918.36,1394.29 1915.69,1393.79 1913.5,1391C 1907,1389.5 1904.5,1392 1906,1398.5C 1918.97,1410.14 1931.31,1422.47 1943,1435.5C 1946.41,1439.91 1947.91,1444.91 1947.5,1450.5C 1945.14,1450.75 1943.14,1450.08 1941.5,1448.5C 1940.73,1447.85 1939.73,1447.52 1938.5,1447.5C 1936.65,1447.34 1935.31,1448.01 1934.5,1449.5C 1933.44,1452.07 1933.28,1454.74 1934,1457.5C 1948.25,1467.08 1960.59,1478.75 1971,1492.5C 1974.62,1497.41 1975.45,1502.74 1973.5,1508.5C 1971.22,1508.39 1969.22,1507.56 1967.5,1506C 1961.66,1504.52 1958.83,1506.69 1959,1512.5C 1970.25,1522.75 1981.25,1533.42 1992,1544.5C 1998.04,1552.24 2002.2,1560.91 2004.5,1570.5C 2004.33,1578.51 2000.33,1582.01 1992.5,1581C 1987.71,1579.76 1983.04,1578.26 1978.5,1576.5C 1979.33,1567.51 1975.83,1565.18 1968,1569.5C 1967.33,1592.81 1956,1601.14 1934,1594.5C 1931.08,1594.8 1928.74,1596.13 1927,1598.5C 1927.56,1609.68 1925.56,1620.34 1921,1630.5C 1919.83,1631.67 1918.67,1632.83 1917.5,1634C 1910.44,1635.75 1904.27,1634.25 1899,1629.5C 1898.02,1625.73 1896.52,1622.23 1894.5,1619C 1887.69,1616.8 1884.86,1619.3 1886,1626.5C 1887.14,1629.58 1888.47,1632.58 1890,1635.5C 1892.35,1637.68 1894.52,1640.02 1896.5,1642.5C 1895.91,1643.8 1894.91,1644.63 1893.5,1645C 1885,1647.33 1879.16,1644.5 1876,1636.5C 1872.74,1622.71 1871.08,1608.71 1871,1594.5C 1867.58,1590.63 1864.25,1590.63 1861,1594.5C 1860.5,1598.15 1860.33,1601.82 1860.5,1605.5C 1856.45,1605.82 1852.45,1605.49 1848.5,1604.5C 1846.03,1601.53 1844.2,1598.19 1843,1594.5C 1842.05,1588.11 1840.88,1581.78 1839.5,1575.5C 1839.67,1562.83 1839.5,1550.16 1839,1537.5C 1838.33,1536.75 1837.5,1536.41 1836.5,1536.5C 1833.64,1536.05 1831.14,1536.72 1829,1538.5C 1828.67,1542.5 1828.33,1546.5 1828,1550.5C 1826.12,1552.58 1823.95,1552.91 1821.5,1551.5C 1818.94,1547.71 1816.94,1543.71 1815.5,1539.5C 1815.45,1533.54 1814.45,1527.87 1812.5,1522.5C 1811.73,1514.55 1811.23,1506.55 1811,1498.5C 1808.29,1494.97 1804.79,1493.8 1800.5,1495C 1799.02,1496.3 1798.35,1497.97 1798.5,1500C 1798.79,1502.19 1799.12,1504.35 1799.5,1506.5C 1797.86,1506.71 1796.36,1506.38 1795,1505.5C 1792.67,1501.5 1790.33,1497.5 1788,1493.5C 1786.11,1478.91 1784.95,1464.24 1784.5,1449.5C 1780.96,1445.55 1777.46,1445.55 1774,1449.5C 1773.5,1453.15 1773.33,1456.82 1773.5,1460.5C 1771.71,1460.79 1770.05,1460.45 1768.5,1459.5C 1765.37,1455.05 1762.71,1450.39 1760.5,1445.5C 1760.66,1441.24 1759.99,1437.24 1758.5,1433.5C 1757.03,1429.63 1756.53,1425.63 1757,1421.5C 1763.53,1407.28 1769.36,1392.78 1774.5,1378C 1772.42,1370.86 1770.42,1363.69 1768.5,1356.5C 1770.2,1355.64 1771.36,1354.3 1772,1352.5C 1774.47,1345.42 1777.14,1338.42 1780,1331.5C 1788.17,1331.08 1794.84,1327.75 1800,1321.5C 1803.65,1314.88 1806.32,1307.88 1808,1300.5C 1808.61,1288.81 1808.27,1277.14 1807,1265.5C 1806.71,1259.87 1803.87,1257.04 1798.5,1257C 1796.2,1258.13 1794.86,1259.97 1794.5,1262.5C 1797.21,1274.68 1798.04,1287.02 1797,1299.5C 1795.48,1305.53 1793.15,1311.2 1790,1316.5C 1787.87,1318.38 1785.37,1319.38 1782.5,1319.5C 1782.42,1315.8 1782.75,1312.13 1783.5,1308.5C 1782.5,1301.43 1779,1299.76 1773,1303.5C 1772.64,1315.98 1769.97,1327.98 1765,1339.5C 1754.14,1311.11 1740.14,1284.44 1723,1259.5C 1711.18,1245.19 1699.85,1230.53 1689,1215.5C 1668.17,1193.33 1644,1175.83 1616.5,1163C 1575.44,1151.53 1533.77,1148.86 1491.5,1155C 1473.19,1157.52 1455.19,1161.52 1437.5,1167C 1404.22,1177.87 1371.22,1189.54 1338.5,1202C 1311.25,1214.78 1286.58,1231.28 1264.5,1251.5C 1247.74,1236.62 1229.74,1223.46 1210.5,1212C 1198.95,1206.39 1187.29,1201.06 1175.5,1196C 1140.62,1182.93 1105.28,1171.26 1069.5,1161C 1032.55,1153.23 995.22,1150.56 957.5,1153C 942.241,1155.23 927.241,1158.57 912.5,1163C 882.389,1176.77 856.556,1196.27 835,1221.5C 824.91,1235.35 814.576,1249.01 804,1262.5C 787.78,1286.6 774.447,1312.27 764,1339.5C 759.876,1327.19 757.543,1314.52 757,1301.5C 754.374,1297.93 751.374,1297.59 748,1300.5C 746.943,1303.21 746.443,1306.04 746.5,1309C 747.239,1316.51 748.073,1324.01 749,1331.5C 751.863,1338.42 754.53,1345.42 757,1352.5C 757.637,1354.3 758.803,1355.64 760.5,1356.5C 758.577,1363.69 756.577,1370.86 754.5,1378C 756.805,1381.9 757.639,1386.07 757,1390.5C 752.481,1402.33 745.647,1412.5 736.5,1421C 733.5,1422.5 730.5,1424 727.5,1425.5C 726.679,1422.55 726.179,1419.55 726,1416.5C 722.667,1412.5 719.333,1412.5 716,1416.5C 714.332,1428.17 710.665,1439.17 705,1449.5C 702.537,1452.96 699.704,1456.13 696.5,1459C 693.634,1460.46 690.634,1460.79 687.5,1460C 690.328,1452.84 687.995,1449.84 680.5,1451C 675.801,1463.9 669.634,1476.07 662,1487.5C 658.595,1490.78 655.095,1493.95 651.5,1497C 647.903,1498.28 644.236,1498.61 640.5,1498C 640.421,1495.7 640.254,1493.2 640,1490.5C 637.421,1488.65 634.588,1488.15 631.5,1489C 619.805,1503.17 605.472,1506.84 588.5,1500C 584.952,1497.41 583.618,1493.91 584.5,1489.5C 591.693,1490.15 594.193,1487.15 592,1480.5C 578.641,1478.08 566.141,1473.24 554.5,1466C 548.291,1461.13 543.624,1455.13 540.5,1448C 540.667,1447.5 540.833,1447 541,1446.5C 548.164,1449.33 551.164,1446.99 550,1439.5C 542.583,1434.87 535.083,1430.37 527.5,1426C 522,1420.5 516.5,1415 511,1409.5C 508.35,1405.29 508.017,1400.96 510,1396.5C 517.791,1401.77 521.458,1399.77 521,1390.5C 506.382,1382.22 494.715,1370.88 486,1356.5C 482.253,1346.32 485.753,1340.98 496.5,1340.5C 502.785,1341.4 508.785,1343.24 514.5,1346C 517.167,1346.67 519.833,1346.67 522.5,1346C 523.701,1345.1 524.535,1343.93 525,1342.5C 524.608,1329.73 530.774,1323.39 543.5,1323.5C 549.218,1324.38 554.885,1325.21 560.5,1326C 562.124,1324.88 563.124,1323.38 563.5,1321.5C 559.442,1309.46 562.442,1299.63 572.5,1292C 578.249,1288.02 583.249,1288.68 587.5,1294C 594.947,1294.63 597.113,1291.46 594,1284.5C 591.93,1282.21 589.43,1280.55 586.5,1279.5C 585.336,1273.53 585.17,1267.53 586,1261.5C 587.216,1259.04 587.882,1256.37 588,1253.5C 588.388,1252.57 589.055,1251.91 590,1251.5C 597.07,1252.56 601.736,1256.56 604,1263.5C 605,1266.83 606,1270.17 607,1273.5C 607.066,1281.27 607.733,1288.94 609,1296.5C 616.141,1298.21 619.641,1295.21 619.5,1287.5C 624.26,1289.76 627.427,1293.43 629,1298.5C 630.207,1304.2 631.54,1309.87 633,1315.5C 633.055,1324.6 633.722,1333.6 635,1342.5C 637.833,1343.87 640.5,1343.54 643,1341.5C 644.379,1336.96 644.879,1332.3 644.5,1327.5C 651.968,1328.68 656.801,1333.02 659,1340.5C 660.821,1348.94 660.987,1357.44 659.5,1366C 659.305,1371.14 661.638,1373.47 666.5,1373C 668.333,1372.5 669.5,1371.33 670,1369.5C 671.794,1359.15 671.794,1348.81 670,1338.5C 666.513,1325.16 658.013,1318.49 644.5,1318.5C 643.46,1310.01 641.627,1301.67 639,1293.5C 637.58,1289.65 635.413,1286.32 632.5,1283.5C 638.491,1280.45 644.825,1278.28 651.5,1277C 655.782,1274.26 656.448,1270.93 653.5,1267C 649.797,1266.42 646.131,1266.59 642.5,1267.5C 642.248,1264.68 642.748,1262.01 644,1259.5C 647.042,1256.07 650.542,1253.23 654.5,1251C 664.452,1246.02 674.785,1242.02 685.5,1239C 688.167,1236 688.167,1233 685.5,1230C 682.386,1229.88 679.386,1229.71 676.5,1229.5C 675.182,1227.09 675.349,1224.75 677,1222.5C 687.138,1212.51 698.971,1205.18 712.5,1200.5C 715.368,1197.01 715.035,1193.84 711.5,1191C 708.167,1190.33 704.833,1189.67 701.5,1189C 697.427,1186.52 695.427,1182.86 695.5,1178C 698.399,1159.37 705.566,1142.53 717,1127.5C 718.5,1121 716,1118.5 709.5,1120C 707.595,1121.82 705.928,1123.82 704.5,1126C 698.453,1127.95 694.953,1125.79 694,1119.5C 692.517,1110.37 693.851,1101.71 698,1093.5C 704.5,1079.82 712.5,1067.15 722,1055.5C 724.877,1048.56 722.71,1045.56 715.5,1046.5C 713.115,1048.88 711.115,1051.55 709.5,1054.5C 700.881,1056.89 696.548,1053.56 696.5,1044.5C 698.313,1029.55 703.48,1015.88 712,1003.5C 717.626,995.865 723.46,988.531 729.5,981.5C 728.017,975.926 724.684,974.426 719.5,977C 718.042,979.46 716.209,981.627 714,983.5C 707.588,980.009 704.921,974.676 706,967.5C 715.371,950.123 727.704,935.123 743,922.5C 743.668,916.171 740.834,913.671 734.5,915C 727.761,921.625 724.928,920.125 726,910.5C 731.359,901.469 737.859,893.302 745.5,886C 754.333,879.167 763.167,872.333 772,865.5C 774.005,858.51 771.505,855.676 764.5,857C 761.132,861.429 756.799,863.429 751.5,863C 749.477,859.817 748.977,856.317 750,852.5C 753.982,844.511 759.482,837.677 766.5,832C 781.623,819.025 798.123,808.192 816,799.5C 817.123,796.044 816.29,793.21 813.5,791C 805.283,793.118 801.783,789.951 803,781.5C 806.279,774.209 811.112,768.042 817.5,763C 829.48,753.676 842.814,747.01 857.5,743C 861.485,739.619 861.485,736.286 857.5,733C 853.358,732.675 849.358,733.175 845.5,734.5C 845.421,731.729 845.921,729.063 847,726.5C 859.177,712.526 874.343,703.192 892.5,698.5C 892.758,724.563 891.258,750.563 888,776.5C 879.156,816.733 863.156,853.733 840,887.5C 830.667,900.167 821.333,912.833 812,925.5C 810.58,932.08 813.246,934.747 820,933.5C 827.701,933.027 835.201,931.527 842.5,929C 854.112,923.861 865.446,918.194 876.5,912C 907.166,888.34 932.499,860.006 952.5,827C 971.566,822.267 983.733,810.434 989,791.5C 990.17,772.857 990.837,754.19 991,735.5C 994.08,696.91 1008.08,662.91 1033,633.5C 1047.51,618.835 1064.01,607.002 1082.5,598C 1094.07,594.256 1105.4,589.922 1116.5,585C 1137.57,577.317 1159.23,571.984 1181.5,569C 1256.47,556.774 1330.47,561.107 1403.5,582C 1426.57,590.536 1448.57,601.203 1469.5,614C 1480.55,623.371 1491.38,633.205 1502,643.5C 1518.2,664.571 1530.2,687.905 1538,713.5C 1543.19,751.461 1552.19,788.461 1565,824.5C 1575.45,852.607 1593.95,873.44 1620.5,887C 1626.72,888.726 1630.72,886.559 1632.5,880.5C 1612.71,853.74 1605.37,823.74 1610.5,790.5C 1613.19,788.644 1615.36,786.311 1617,783.5C 1630.57,756.388 1634.4,727.888 1628.5,698C 1649.63,700.658 1667.47,710.158 1682,726.5C 1683.08,729.063 1683.58,731.729 1683.5,734.5C 1679.51,733.656 1675.51,733.156 1671.5,733C 1667.12,737.452 1667.79,741.119 1673.5,744C 1694.03,749.219 1710.87,760.052 1724,776.5C 1727.39,781.564 1727.22,786.397 1723.5,791C 1720.83,791 1718.17,791 1715.5,791C 1712.71,793.21 1711.88,796.044 1713,799.5C 1737.16,810.765 1758.16,826.432 1776,846.5C 1779.82,851.841 1780.32,857.341 1777.5,863C 1772.58,863.784 1768.58,862.118 1765.5,858C 1758.08,855.078 1755.25,857.578 1757,865.5C 1773.23,876.397 1787.56,889.397 1800,904.5C 1803.03,908.387 1804.03,912.72 1803,917.5C 1802.26,918.574 1801.26,919.241 1800,919.5C 1797.89,918.392 1796.05,916.892 1794.5,915C 1788.17,913.671 1785.33,916.171 1786,922.5C 1801.3,935.123 1813.63,950.123 1823,967.5C 1824.08,974.676 1821.41,980.009 1815,983.5C 1812.79,981.627 1810.96,979.46 1809.5,977C 1804.12,974.039 1800.78,975.539 1799.5,981.5C 1805.54,988.531 1811.37,995.865 1817,1003.5C 1825.52,1015.88 1830.69,1029.55 1832.5,1044.5C 1832.45,1053.56 1828.12,1056.89 1819.5,1054.5C 1817.47,1050.47 1814.47,1047.47 1810.5,1045.5C 1805.42,1047.36 1804.25,1050.69 1807,1055.5C 1819.16,1070.15 1828.49,1086.48 1835,1104.5C 1835.67,1109.5 1835.67,1114.5 1835,1119.5C 1834.05,1125.79 1830.55,1127.95 1824.5,1126C 1823.07,1123.82 1821.4,1121.82 1819.5,1120C 1813,1118.5 1810.5,1121 1812,1127.5C 1823.43,1142.53 1830.6,1159.37 1833.5,1178C 1833.55,1181.89 1832.22,1185.23 1829.5,1188C 1823.79,1189.23 1818.13,1190.56 1812.5,1192C 1809.69,1195.29 1810.02,1198.29 1813.5,1201C 1828.61,1208.45 1840.11,1219.61 1848,1234.5C 1849.17,1237.89 1848.33,1240.56 1845.5,1242.5C 1842.38,1240.65 1839.04,1240.15 1835.5,1241C 1834.4,1243.4 1834.23,1245.9 1835,1248.5C 1845.21,1255.03 1854.54,1262.7 1863,1271.5C 1865.39,1274.95 1867.23,1278.62 1868.5,1282.5 Z"/></g>
<g><path style="opacity:1" fill="#050302" d="M 1402.5,644.5 C 1404.97,644.245 1406.97,643.245 1408.5,641.5C 1416.56,637.922 1424.9,634.922 1433.5,632.5C 1440.17,633.953 1446.84,635.453 1453.5,637C 1455.29,637.785 1456.79,638.951 1458,640.5C 1459.77,647.789 1458.1,654.123 1453,659.5C 1449.09,664.083 1444.59,667.917 1439.5,671C 1446.22,670.658 1452.88,669.658 1459.5,668C 1468.83,667.333 1478.17,667.333 1487.5,668C 1489.95,668.29 1492.29,668.956 1494.5,670C 1495.72,672.944 1497.56,675.444 1500,677.5C 1500.96,681.819 1500.3,685.819 1498,689.5C 1492.88,693.312 1487.38,696.479 1481.5,699C 1461.26,703.381 1440.93,707.381 1420.5,711C 1411.7,713.06 1403.03,715.56 1394.5,718.5C 1407.63,725.968 1417.3,736.634 1423.5,750.5C 1441.14,750.574 1458.81,750.741 1476.5,751C 1480.49,750.893 1483.99,752.059 1487,754.5C 1488.04,757.636 1487.21,760.136 1484.5,762C 1466.16,761.29 1447.82,761.457 1429.5,762.5C 1428.83,762.833 1428.17,763.167 1427.5,763.5C 1428.79,766.021 1429.45,768.687 1429.5,771.5C 1429.5,775.167 1429.5,778.833 1429.5,782.5C 1442.81,784.053 1456.14,785.386 1469.5,786.5C 1473.94,787.813 1478.61,788.646 1483.5,789C 1486.36,792.03 1486.03,794.697 1482.5,797C 1467.14,795.964 1451.81,794.464 1436.5,792.5C 1433.61,792.067 1431.11,790.733 1429,788.5C 1427.96,789.244 1427.46,790.244 1427.5,791.5C 1426.44,795.844 1425.28,800.177 1424,804.5C 1420.24,811.695 1416.24,818.695 1412,825.5C 1392.49,843.164 1369.66,850.331 1343.5,847C 1333.54,845.46 1324.37,841.96 1316,836.5C 1317.43,843.397 1318.76,850.397 1320,857.5C 1321.17,868.803 1319.84,879.803 1316,890.5C 1314.88,893.249 1313.38,895.749 1311.5,898C 1333.17,899.805 1354.83,901.805 1376.5,904C 1397.88,907.388 1419.22,911.055 1440.5,915C 1455.68,919.422 1470.01,925.755 1483.5,934C 1527.28,970.048 1559.45,1014.55 1580,1067.5C 1581.35,1075.31 1578.18,1079.98 1570.5,1081.5C 1560.3,1080.4 1551.3,1076.56 1543.5,1070C 1528.46,1056.3 1515.63,1040.8 1505,1023.5C 1500.05,1018.96 1496.05,1013.63 1493,1007.5C 1484.19,997.356 1473.69,989.523 1461.5,984C 1436.44,975.876 1410.78,970.209 1384.5,967C 1344.52,962.875 1304.52,959.708 1264.5,957.5C 1226.11,959.385 1187.77,962.219 1149.5,966C 1132.17,969 1114.83,972 1097.5,975C 1082.11,978.408 1067.44,983.741 1053.5,991C 1042.82,999.012 1034.32,1008.85 1028,1020.5C 1026.49,1021.26 1025.15,1022.26 1024,1023.5C 1013.37,1040.8 1000.54,1056.3 985.5,1070C 976.456,1077.36 966.123,1081.02 954.5,1081C 949.466,1077.77 947.632,1073.27 949,1067.5C 969.552,1014.55 1001.72,970.048 1045.5,934C 1058.8,926.016 1072.8,919.683 1087.5,915C 1111.14,910.84 1134.81,906.84 1158.5,903C 1178.17,901.375 1197.84,899.708 1217.5,898C 1211.29,888.127 1208.29,877.294 1208.5,865.5C 1208.95,855.319 1210.95,845.486 1214.5,836C 1179.73,854.52 1147.23,851.02 1117,825.5C 1110.58,816.664 1105.75,806.998 1102.5,796.5C 1102.21,795.351 1101.38,794.684 1100,794.5C 1085.93,796.296 1072.1,798.629 1058.5,801.5C 1054.63,801.356 1050.79,801.69 1047,802.5C 1045.3,802.613 1044.13,801.947 1043.5,800.5C 1043.15,797.547 1044.15,795.213 1046.5,793.5C 1048.44,792.85 1050.44,792.517 1052.5,792.5C 1066.96,790.238 1081.29,787.905 1095.5,785.5C 1096.83,785.5 1098.17,785.5 1099.5,785.5C 1099.33,779.491 1099.5,773.491 1100,767.5C 1100.27,765.899 1100.77,764.399 1101.5,763C 1092.2,761.945 1082.87,761.445 1073.5,761.5C 1063.81,761.794 1054.15,761.961 1044.5,762C 1040.5,758.667 1040.5,755.333 1044.5,752C 1047.17,751.667 1049.83,751.333 1052.5,751C 1069.85,750.455 1087.19,750.455 1104.5,751C 1109.25,743.246 1114.41,735.746 1120,728.5C 1124.22,724.303 1129.06,720.97 1134.5,718.5C 1126.06,715.309 1117.39,712.809 1108.5,711C 1088.67,707.634 1069,703.634 1049.5,699C 1044.65,696.41 1039.65,694.076 1034.5,692C 1029.98,687.788 1028.14,682.621 1029,676.5C 1031.4,674.695 1033.07,672.362 1034,669.5C 1035.83,667.926 1037.99,667.093 1040.5,667C 1047.83,666.333 1055.17,666.333 1062.5,667C 1071.19,668.304 1079.85,669.304 1088.5,670C 1081.63,664.793 1075.79,658.626 1071,651.5C 1070.33,647.833 1070.33,644.167 1071,640.5C 1073.54,637.628 1076.37,635.128 1079.5,633C 1083.02,632.623 1086.52,632.123 1090,631.5C 1094.17,632.333 1098.33,633.167 1102.5,634C 1121.16,641.494 1139.49,649.828 1157.5,659C 1181.9,674.871 1205.24,692.204 1227.5,711C 1236.92,718.737 1244.42,727.904 1250,738.5C 1250.67,742.833 1250.67,747.167 1250,751.5C 1246.18,754.324 1242.68,757.49 1239.5,761C 1240.96,769.762 1241.79,778.595 1242,787.5C 1248.96,783.269 1256.46,780.603 1264.5,779.5C 1272.47,780.878 1279.97,783.544 1287,787.5C 1287.21,778.595 1288.04,769.762 1289.5,761C 1286.36,757.534 1282.86,754.367 1279,751.5C 1276.94,743.645 1278.27,736.312 1283,729.5C 1291.11,721.387 1299.28,713.221 1307.5,705C 1329.15,688.842 1351.15,673.176 1373.5,658C 1383.18,653.391 1392.85,648.891 1402.5,644.5 Z"/></g>
<g><path style="opacity:1" fill="#543e19" d="M 1408.5,641.5 C 1406.97,643.245 1404.97,644.245 1402.5,644.5C 1404.03,642.755 1406.03,641.755 1408.5,641.5 Z"/></g>
<g><path style="opacity:1" fill="#fdfdfe" d="M 325.5,685.5 C 334.375,697.888 343.875,709.888 354,721.5C 383.305,764.646 417.471,803.646 456.5,838.5C 455.562,842.313 454.229,845.979 452.5,849.5C 445.68,844.247 439.013,838.747 432.5,833C 411.176,811.393 390.343,789.227 370,766.5C 369.262,768.953 368.762,771.453 368.5,774C 376.661,833.794 384.827,893.627 393,953.5C 396.744,973.554 400.744,993.554 405,1013.5C 413.679,1046.55 422.512,1079.55 431.5,1112.5C 430.513,1115.15 429.513,1117.81 428.5,1120.5C 427.833,1121.83 427.167,1121.83 426.5,1120.5C 408.665,1081.5 394.498,1041.16 384,999.5C 373.468,959.706 362.468,920.039 351,880.5C 340.631,832.253 332.965,783.586 328,734.5C 326.473,718.199 325.639,701.866 325.5,685.5 Z"/></g>
<g><path style="opacity:1" fill="#fdfcfe" d="M 2203.5,685.5 C 2201.72,733.849 2196.55,781.849 2188,829.5C 2184.08,847.784 2180.41,866.117 2177,884.5C 2160.27,946.098 2142.6,1007.43 2124,1068.5C 2118.61,1082.95 2112.94,1097.28 2107,1111.5C 2096.28,1132.95 2086.11,1154.61 2076.5,1176.5C 2075.4,1175.4 2075.24,1174.07 2076,1172.5C 2081.63,1160.29 2086.46,1147.79 2090.5,1135C 2041.2,1136.81 1991.86,1138.31 1942.5,1139.5C 1908.28,1140 1874.28,1137.66 1840.5,1132.5C 1842.69,1129.45 1844.36,1126.11 1845.5,1122.5C 1880,1126.94 1914.67,1128.94 1949.5,1128.5C 1997.53,1126.92 2045.53,1124.92 2093.5,1122.5C 2113.22,1061.29 2128.39,998.954 2139,935.5C 2145.73,881.55 2152.9,827.717 2160.5,774C 2160.24,771.453 2159.74,768.953 2159,766.5C 2146.29,780.203 2133.96,794.203 2122,808.5C 2096.56,831.941 2071.72,856.107 2047.5,881C 2023.58,900.251 2000.24,920.251 1977.5,941C 1960,951.499 1943.34,963.165 1927.5,976C 1922.42,979.401 1917.09,982.401 1911.5,985C 1901.02,992.412 1890.69,1000.08 1880.5,1008C 1867.47,1015.18 1854.47,1022.35 1841.5,1029.5C 1840.19,1025.92 1838.86,1022.25 1837.5,1018.5C 1851.26,1011.78 1864.6,1004.28 1877.5,996C 1886.17,989.667 1894.83,983.333 1903.5,977C 1908.83,974 1914.17,971 1919.5,968C 1935.34,955.165 1952,943.499 1969.5,933C 1994.17,911.667 2018.83,890.333 2043.5,869C 2067.75,845.753 2091.58,822.253 2115,798.5C 2130.33,779.833 2145.67,761.167 2161,742.5C 2165.42,735.328 2170.09,728.328 2175,721.5C 2185.13,709.888 2194.63,697.888 2203.5,685.5 Z"/></g>
<g><path style="opacity:1" fill="#fcf38d" d="M 537.5,693.5 C 538.966,694.347 539.8,695.68 540,697.5C 544,714.833 548,732.167 552,749.5C 553.117,755.963 556.617,758.13 562.5,756C 579.837,754.982 597.17,754.315 614.5,754C 603.466,764.702 592.133,775.036 580.5,785C 576.907,788.085 573.907,791.585 571.5,795.5C 577.095,815.122 582.595,834.789 588,854.5C 588.667,856.5 588.667,858.5 588,860.5C 569.411,846.788 550.911,832.955 532.5,819C 530.5,818.333 528.5,818.333 526.5,819C 523.113,822.053 519.447,824.72 515.5,827C 504.167,833 492.833,839 481.5,845C 476.27,847.449 470.937,849.616 465.5,851.5C 465.167,851 464.833,850.5 464.5,850C 473.098,830.801 481.432,811.468 489.5,792C 489.375,790.373 488.875,788.873 488,787.5C 474.362,772.868 461.862,757.368 450.5,741C 465.606,743.524 480.606,746.858 495.5,751C 500.197,751.28 504.863,751.78 509.5,752.5C 510.938,752.281 512.271,751.781 513.5,751C 521.075,731.679 529.075,712.513 537.5,693.5 Z"/></g>
<g><path style="opacity:1" fill="#473518" d="M 1150.5,725.5 C 1151.96,724.84 1153.63,724.507 1155.5,724.5C 1158.2,724.316 1160.54,724.983 1162.5,726.5C 1158.52,725.979 1154.52,725.646 1150.5,725.5 Z"/></g>
<g><path style="opacity:1" fill="#fcfcfc" d="M 1150.5,725.5 C 1154.52,725.646 1158.52,725.979 1162.5,726.5C 1164.21,727.738 1166.21,728.405 1168.5,728.5C 1170.51,730.065 1172.84,731.065 1175.5,731.5C 1188.47,737.319 1201.14,743.652 1213.5,750.5C 1213.97,751.906 1214.97,752.573 1216.5,752.5C 1219.08,754.568 1222.08,755.901 1225.5,756.5C 1235.87,785.477 1228.87,809.644 1204.5,829C 1171.87,844.342 1144.03,838.175 1121,810.5C 1105.86,785.121 1107.53,761.121 1126,738.5C 1132.82,731.673 1140.99,727.339 1150.5,725.5 Z"/></g>
<g><path style="opacity:1" fill="#fdfcfc" d="M 1371.5,725.5 C 1383.38,725.193 1393.55,729.193 1402,737.5C 1424.48,765.769 1423.64,793.436 1399.5,820.5C 1374.38,841.009 1348.05,842.842 1320.5,826C 1316,820.833 1311.5,815.667 1307,810.5C 1297.66,793.122 1296.49,775.122 1303.5,756.5C 1317.12,749.021 1330.79,741.521 1344.5,734C 1353.64,731.133 1362.64,728.299 1371.5,725.5 Z"/></g>
<g><path style="opacity:1" fill="#57401b" d="M 1168.5,728.5 C 1171.49,728.166 1173.82,729.166 1175.5,731.5C 1172.84,731.065 1170.51,730.065 1168.5,728.5 Z"/></g>
<g><path style="opacity:1" fill="#896934" d="M 1213.5,750.5 C 1215.03,750.427 1216.03,751.094 1216.5,752.5C 1214.97,752.573 1213.97,751.906 1213.5,750.5 Z"/></g>
<g><path style="opacity:1" fill="#c29bfe" d="M 452.5,849.5 C 445.069,864.355 449.069,869.355 464.5,864.5C 474.63,873.46 484.63,882.627 494.5,892C 499.047,895.761 503.714,899.261 508.5,902.5C 505.228,945.157 501.895,987.824 498.5,1030.5C 488.309,1028.62 479.809,1031.62 473,1039.5C 457.637,1063.01 443.804,1087.35 431.5,1112.5C 422.512,1079.55 413.679,1046.55 405,1013.5C 400.744,993.554 396.744,973.554 393,953.5C 384.827,893.627 376.661,833.794 368.5,774C 368.762,771.453 369.262,768.953 370,766.5C 390.343,789.227 411.176,811.393 432.5,833C 439.013,838.747 445.68,844.247 452.5,849.5 Z"/></g>
<g><path style="opacity:1" fill="#c39bfe" d="M 1845.5,1122.5 C 1846.46,1115.52 1846.62,1108.52 1846,1101.5C 1841.48,1089.32 1835.65,1077.82 1828.5,1067C 1841.15,1060.76 1845.99,1050.59 1843,1036.5C 1842.34,1034.19 1841.84,1031.85 1841.5,1029.5C 1854.47,1022.35 1867.47,1015.18 1880.5,1008C 1890.69,1000.08 1901.02,992.412 1911.5,985C 1917.09,982.401 1922.42,979.401 1927.5,976C 1943.34,963.165 1960,951.499 1977.5,941C 2000.24,920.251 2023.58,900.251 2047.5,881C 2071.72,856.107 2096.56,831.941 2122,808.5C 2133.96,794.203 2146.29,780.203 2159,766.5C 2159.74,768.953 2160.24,771.453 2160.5,774C 2152.9,827.717 2145.73,881.55 2139,935.5C 2128.39,998.954 2113.22,1061.29 2093.5,1122.5C 2045.53,1124.92 1997.53,1126.92 1949.5,1128.5C 1914.67,1128.94 1880,1126.94 1845.5,1122.5 Z"/></g>
<g><path style="opacity:1" fill="#c3c3c3" d="M 1361.5,785.5 C 1359.69,784.37 1357.69,783.704 1355.5,783.5C 1350.36,782.512 1345.03,782.179 1339.5,782.5C 1339.92,781.778 1340.58,781.278 1341.5,781C 1347.72,779.939 1353.72,780.606 1359.5,783C 1360.38,783.708 1361.05,784.542 1361.5,785.5 Z"/></g>
<g><path style="opacity:1" fill="#ca9337" d="M 1429.5,771.5 C 1430.48,774.625 1430.81,777.958 1430.5,781.5C 1440.85,782.049 1451.19,782.882 1461.5,784C 1464.31,784.782 1466.98,785.616 1469.5,786.5C 1456.14,785.386 1442.81,784.053 1429.5,782.5C 1429.5,778.833 1429.5,775.167 1429.5,771.5 Z"/></g>
<g><path style="opacity:1" fill="#050505" d="M 1355.5,783.5 C 1357.69,783.704 1359.69,784.37 1361.5,785.5C 1368.27,793.749 1369.27,802.749 1364.5,812.5C 1358.45,818.518 1351.12,821.185 1342.5,820.5C 1333.11,817.611 1327.44,811.444 1325.5,802C 1325.65,799.784 1325.99,797.617 1326.5,795.5C 1328.73,791.594 1331.73,788.261 1335.5,785.5C 1342.02,783.731 1348.68,783.064 1355.5,783.5 Z"/></g>
<g><path style="opacity:1" fill="#4d4d4d" d="M 1339.5,782.5 C 1345.03,782.179 1350.36,782.512 1355.5,783.5C 1348.68,783.064 1342.02,783.731 1335.5,785.5C 1336.59,784.143 1337.92,783.143 1339.5,782.5 Z"/></g>
<g><path style="opacity:1" fill="#080808" d="M 1172.5,784.5 C 1182.27,783.396 1190.77,786.063 1198,792.5C 1201.72,810.348 1194.39,819.681 1176,820.5C 1163.08,818.367 1157.74,810.7 1160,797.5C 1163,792.002 1167.17,787.668 1172.5,784.5 Z"/></g>
<g><path style="opacity:1" fill="#a3a3a3" d="M 1339.5,782.5 C 1337.92,783.143 1336.59,784.143 1335.5,785.5C 1331.73,788.261 1328.73,791.594 1326.5,795.5C 1326.34,794.127 1326.51,792.793 1327,791.5C 1329.83,788.667 1332.67,785.833 1335.5,783C 1336.79,782.51 1338.13,782.343 1339.5,782.5 Z"/></g>
<g><path style="opacity:1" fill="#cb9538" d="M 1095.5,785.5 C 1081.29,787.905 1066.96,790.238 1052.5,792.5C 1053.06,791.21 1054.06,790.377 1055.5,790C 1068.7,787.575 1082.04,786.075 1095.5,785.5 Z"/></g>
<g><path style="opacity:1" fill="#aeaeae" d="M 1361.5,785.5 C 1363.39,786.048 1365.06,787.048 1366.5,788.5C 1369.64,794.986 1370.14,801.652 1368,808.5C 1367.5,810.544 1366.34,811.878 1364.5,812.5C 1369.27,802.749 1368.27,793.749 1361.5,785.5 Z"/></g>
<g><path style="opacity:1" fill="#423113" d="M 1436.5,792.5 C 1433.46,792.492 1430.46,792.159 1427.5,791.5C 1427.46,790.244 1427.96,789.244 1429,788.5C 1431.11,790.733 1433.61,792.067 1436.5,792.5 Z"/></g>
<g><path style="opacity:1" fill="#e597ba" d="M 1258.5,791.5 C 1264.93,790.698 1270.93,791.864 1276.5,795C 1299.15,817.467 1309.65,844.633 1308,876.5C 1304.98,893.419 1295.14,903.919 1278.5,908C 1259.04,913.094 1242.21,908.594 1228,894.5C 1222.74,885.894 1220.24,876.56 1220.5,866.5C 1222.33,838.682 1232.99,814.849 1252.5,795C 1254.43,793.541 1256.43,792.375 1258.5,791.5 Z"/></g>
<g><path style="opacity:1" fill="#5e451a" d="M 1046.5,793.5 C 1044.15,795.213 1043.15,797.547 1043.5,800.5C 1041.67,797.022 1042.67,794.689 1046.5,793.5 Z"/></g>
<g><path style="opacity:1" fill="#ca9438" d="M 1102.5,796.5 C 1087.99,798.639 1073.33,800.306 1058.5,801.5C 1072.1,798.629 1085.93,796.296 1100,794.5C 1101.38,794.684 1102.21,795.351 1102.5,796.5 Z"/></g>
<g><path style="opacity:1" fill="#8e8e8e" d="M 1364.5,812.5 C 1360.92,818.711 1355.42,821.711 1348,821.5C 1345.97,821.494 1344.13,821.161 1342.5,820.5C 1351.12,821.185 1358.45,818.518 1364.5,812.5 Z"/></g>
<g><path style="opacity:1" fill="#c19afc" d="M 509.5,889.5 C 497.876,880.21 486.876,870.21 476.5,859.5C 488.2,853.815 499.866,847.815 511.5,841.5C 511.833,843 512.167,844.5 512.5,846C 511.192,860.482 510.192,874.982 509.5,889.5 Z"/></g>
<g><path style="opacity:1" fill="#fcfbfd" d="M 476.5,859.5 C 486.876,870.21 497.876,880.21 509.5,889.5C 508.705,893.785 508.372,898.119 508.5,902.5C 503.714,899.261 499.047,895.761 494.5,892C 484.63,882.627 474.63,873.46 464.5,864.5C 468.099,862.072 472.099,860.406 476.5,859.5 Z"/></g>
<g><path style="opacity:1" fill="#c23e81" d="M 1202.5,909.5 C 1211.51,909.334 1220.51,909.5 1229.5,910C 1253.09,925.254 1276.75,925.254 1300.5,910C 1320.18,910.26 1339.85,911.26 1359.5,913C 1385.92,916.792 1412.25,921.126 1438.5,926C 1450.26,928.918 1461.26,933.585 1471.5,940C 1477.55,945.053 1483.89,949.719 1490.5,954C 1525.08,986.739 1551.08,1025.24 1568.5,1069.5C 1560.43,1068.13 1553.43,1064.63 1547.5,1059C 1530.42,1040.93 1515.26,1021.43 1502,1000.5C 1491.54,988.524 1479.04,979.357 1464.5,973C 1436.08,964.316 1407.08,958.316 1377.5,955C 1338.94,950.841 1300.27,948.341 1261.5,947.5C 1224.09,948.673 1186.75,951.173 1149.5,955C 1120.53,958.327 1092.2,964.327 1064.5,973C 1049.96,979.357 1037.46,988.524 1027,1000.5C 1013.74,1021.43 998.577,1040.93 981.5,1059C 975.572,1064.63 968.572,1068.13 960.5,1069.5C 977.92,1025.24 1003.92,986.739 1038.5,954C 1049.7,945.15 1061.7,937.483 1074.5,931C 1080.64,928.397 1086.98,926.397 1093.5,925C 1110.86,922.217 1128.2,919.217 1145.5,916C 1164.64,913.781 1183.64,911.614 1202.5,909.5 Z"/></g>
<g><path style="opacity:1" fill="#fdfcfe" d="M 534.5,911.5 C 541.603,917.429 548.603,923.596 555.5,930C 574.201,941.683 592.201,954.349 609.5,968C 614.833,971 620.167,974 625.5,977C 630.009,981.838 635.342,985.505 641.5,988C 657.055,999.946 673.722,1010.11 691.5,1018.5C 690.141,1022.25 688.807,1025.92 687.5,1029.5C 662.334,1017.42 639,1002.59 617.5,985C 614.167,983.333 610.833,981.667 607.5,980C 589.532,966.014 570.865,953.014 551.5,941C 545.603,935.594 539.603,930.428 533.5,925.5C 533.181,920.637 533.514,915.97 534.5,911.5 Z"/></g>
<g><path style="opacity:1" fill="#c29afe" d="M 533.5,925.5 C 539.603,930.428 545.603,935.594 551.5,941C 570.865,953.014 589.532,966.014 607.5,980C 610.833,981.667 614.167,983.333 617.5,985C 639,1002.59 662.334,1017.42 687.5,1029.5C 685.652,1036.72 685.152,1044.06 686,1051.5C 688.408,1058.91 693.242,1064.08 700.5,1067C 693.352,1077.82 687.518,1089.32 683,1101.5C 682.377,1108.52 682.543,1115.52 683.5,1122.5C 642.655,1127.21 601.655,1129.21 560.5,1128.5C 560.92,1118.72 560.086,1109.05 558,1099.5C 554.167,1090.33 547.667,1083.83 538.5,1080C 533.023,1079.02 527.856,1079.85 523,1082.5C 525.132,1029.95 528.632,977.612 533.5,925.5 Z"/></g>
<g><path style="opacity:0.004" fill="#000000" d="M 350.5,943.5 C 351.833,944.167 351.833,944.167 350.5,943.5 Z"/></g>
<g><path style="opacity:0.004" fill="#000000" d="M 2177.5,943.5 C 2178.83,944.167 2178.83,944.167 2177.5,943.5 Z"/></g>
<g><path style="opacity:0.03" fill="#000000" d="M 352.5,949.5 C 351.427,948.749 351.26,947.749 352,946.5C 352.483,947.448 352.649,948.448 352.5,949.5 Z"/></g>
<g><path style="opacity:0.03" fill="#000000" d="M 2176.5,949.5 C 2176.35,948.448 2176.52,947.448 2177,946.5C 2177.74,947.749 2177.57,948.749 2176.5,949.5 Z"/></g>
<g><path style="opacity:0.027" fill="#000000" d="M 352.5,949.5 C 353.573,950.251 353.74,951.251 353,952.5C 352.517,951.552 352.351,950.552 352.5,949.5 Z"/></g>
<g><path style="opacity:0.027" fill="#000000" d="M 2176.5,949.5 C 2176.65,950.552 2176.48,951.552 2176,952.5C 2175.26,951.251 2175.43,950.251 2176.5,949.5 Z"/></g>
<g><path style="opacity:0.027" fill="#000000" d="M 353.5,953.5 C 354.573,954.251 354.74,955.251 354,956.5C 353.517,955.552 353.351,954.552 353.5,953.5 Z"/></g>
<g><path style="opacity:0.027" fill="#000000" d="M 2174.5,953.5 C 2175.57,954.251 2175.74,955.251 2175,956.5C 2174.52,955.552 2174.35,954.552 2174.5,953.5 Z"/></g>
<g><path style="opacity:0.035" fill="#000000" d="M 354.5,957.5 C 355.525,957.897 355.692,958.563 355,959.5C 354.536,958.906 354.369,958.239 354.5,957.5 Z"/></g>
<g><path style="opacity:0.035" fill="#000000" d="M 2173.5,957.5 C 2174.53,957.897 2174.69,958.563 2174,959.5C 2173.54,958.906 2173.37,958.239 2173.5,957.5 Z"/></g>
<g><path style="opacity:1" fill="#fcfcfc" d="M 490.5,1040.5 C 491.978,1040.24 493.311,1040.57 494.5,1041.5C 495.083,1043 495.916,1044.33 497,1045.5C 497.384,1053.85 497.05,1062.18 496,1070.5C 490.344,1089.8 482.178,1107.97 471.5,1125C 459.507,1124.75 448.007,1126.91 437,1131.5C 437.361,1128.08 438.361,1124.74 440,1121.5C 451.998,1096.83 464.998,1072.83 479,1049.5C 482.213,1045.42 486.046,1042.42 490.5,1040.5 Z"/></g>
<g><path style="opacity:1" fill="#fdfdfd" d="M 574.5,1262.5 C 573.795,1268.4 573.128,1274.4 572.5,1280.5C 558.251,1286.31 550.917,1296.98 550.5,1312.5C 532.579,1309.95 520.245,1316.95 513.5,1333.5C 504.788,1329.85 495.788,1328.68 486.5,1330C 462.203,1311.22 442.703,1288.39 428,1261.5C 425.471,1255.58 423.137,1249.58 421,1243.5C 417.567,1217.86 428.401,1202.02 453.5,1196C 462.816,1194.5 471.483,1196.16 479.5,1201C 482.803,1204.79 483.303,1208.96 481,1213.5C 479.581,1214.46 478.081,1215.29 476.5,1216C 469.487,1216.39 462.821,1218.06 456.5,1221C 451.413,1224.56 450.413,1228.89 453.5,1234C 455.5,1234.67 457.5,1234.67 459.5,1234C 461.208,1231.96 463.208,1230.29 465.5,1229C 471.706,1228.26 477.706,1226.76 483.5,1224.5C 483.833,1226.17 484.167,1227.83 484.5,1229.5C 482.48,1245.45 481.646,1261.45 482,1277.5C 483.699,1281.2 486.533,1283.37 490.5,1284C 496.019,1285 501.353,1284.5 506.5,1282.5C 508.047,1263.84 509.547,1245.17 511,1226.5C 520.922,1220.32 525.256,1211.32 524,1199.5C 521.458,1193.58 518.291,1188.08 514.5,1183C 516.21,1180.63 518.544,1178.96 521.5,1178C 530.314,1168.38 530.814,1158.21 523,1147.5C 521.667,1146.17 520.333,1144.83 519,1143.5C 518.458,1128.76 519.291,1114.09 521.5,1099.5C 530.817,1086.99 539.317,1087.66 547,1101.5C 547.882,1104.79 548.548,1108.12 549,1111.5C 549.333,1124.83 549.667,1138.17 550,1151.5C 555.668,1171.51 562.335,1191.17 570,1210.5C 573.768,1222.24 576.268,1234.24 577.5,1246.5C 575.547,1251.65 574.547,1256.98 574.5,1262.5 Z"/></g>
<g><path style="opacity:1" fill="#fdfcfe" d="M 683.5,1122.5 C 684.639,1126.11 686.306,1129.45 688.5,1132.5C 646.048,1138.22 603.381,1140.55 560.5,1139.5C 560.5,1135.83 560.5,1132.17 560.5,1128.5C 601.655,1129.21 642.655,1127.21 683.5,1122.5 Z"/></g>
<g><path style="opacity:1" fill="#c29afe" d="M 688.5,1132.5 C 690.999,1135.23 693.999,1137.23 697.5,1138.5C 687.224,1153.39 683.39,1169.73 686,1187.5C 687.738,1191.24 690.238,1194.41 693.5,1197C 684.541,1201.73 676.374,1207.56 669,1214.5C 664.458,1220.52 663.291,1227.19 665.5,1234.5C 652.014,1237.99 641.181,1245.32 633,1256.5C 631.528,1261.53 631.028,1266.53 631.5,1271.5C 626.954,1273.79 622.287,1275.45 617.5,1276.5C 617.677,1261.68 611.677,1250.18 599.5,1242C 595.687,1240.23 591.687,1239.39 587.5,1239.5C 586.425,1228.96 584.258,1218.62 581,1208.5C 575.273,1193.99 569.94,1179.32 565,1164.5C 562.661,1156.31 561.161,1147.97 560.5,1139.5C 603.381,1140.55 646.048,1138.22 688.5,1132.5 Z"/></g>
<g><path style="opacity:1" fill="#c29afe" d="M 1840.5,1132.5 C 1874.28,1137.66 1908.28,1140 1942.5,1139.5C 1991.86,1138.31 2041.2,1136.81 2090.5,1135C 2086.46,1147.79 2081.63,1160.29 2076,1172.5C 2075.24,1174.07 2075.4,1175.4 2076.5,1176.5C 2050.06,1232.73 2020.06,1286.73 1986.5,1338.5C 1950.46,1320.98 1914.79,1302.65 1879.5,1283.5C 1879.03,1277.22 1876.87,1271.56 1873,1266.5C 1867.17,1260.67 1861.34,1254.84 1855.5,1249C 1860.75,1240.51 1860.58,1232.01 1855,1223.5C 1851.28,1219.45 1847.95,1215.12 1845,1210.5C 1840.45,1206.29 1835.62,1202.45 1830.5,1199C 1842.83,1192.97 1847.33,1183.13 1844,1169.5C 1841.89,1158.33 1837.72,1148 1831.5,1138.5C 1834.7,1136.74 1837.7,1134.74 1840.5,1132.5 Z"/></g>
<g><path style="opacity:1" fill="#fafafa" d="M 455.5,1136.5 C 464.208,1136.3 472.875,1136.8 481.5,1138C 493.418,1140.88 504.251,1146.04 514,1153.5C 520.982,1164.52 517.982,1170.86 505,1172.5C 494.771,1166.47 483.938,1161.64 472.5,1158C 456.798,1154.58 441.798,1156.41 427.5,1163.5C 425.66,1156.46 427.66,1150.62 433.5,1146C 440.475,1141.74 447.809,1138.57 455.5,1136.5 Z"/></g>
<g><path style="opacity:1" fill="#45d473" d="M 979.5,1163.5 C 1007.47,1162.73 1035.14,1165.23 1062.5,1171C 1110.75,1184.31 1157.75,1200.97 1203.5,1221C 1224.22,1233.06 1243.22,1247.39 1260.5,1264C 1263.17,1264.67 1265.83,1264.67 1268.5,1264C 1288.83,1243.99 1311.83,1227.66 1337.5,1215C 1379.58,1197.75 1422.58,1183.09 1466.5,1171C 1501.86,1163.73 1537.52,1161.73 1573.5,1165C 1591.63,1167.36 1608.96,1172.36 1625.5,1180C 1649.95,1193.11 1670.78,1210.61 1688,1232.5C 1696.94,1246.04 1706.6,1259.04 1717,1271.5C 1721.94,1280.1 1727.27,1288.43 1733,1296.5C 1738.62,1307.41 1743.95,1318.41 1749,1329.5C 1754.33,1345.47 1758.83,1361.64 1762.5,1378C 1754.06,1399.3 1745.23,1420.47 1736,1441.5C 1712.84,1452.11 1689.34,1461.94 1665.5,1471C 1632.77,1481.13 1600.11,1491.46 1567.5,1502C 1541.4,1507.29 1515.4,1512.95 1489.5,1519C 1468.63,1521.53 1447.96,1525.19 1427.5,1530C 1289.69,1551.21 1153.02,1545.54 1017.5,1513C 998.713,1509.98 980.046,1506.31 961.5,1502C 928.906,1491.47 896.239,1481.14 863.5,1471C 839.924,1461.92 816.591,1452.25 793.5,1442C 783.912,1420.9 774.912,1399.57 766.5,1378C 770.174,1361.64 774.674,1345.47 780,1329.5C 785.045,1318.41 790.378,1307.41 796,1296.5C 812.838,1270.66 830.838,1245.66 850,1221.5C 869.126,1201.37 891.292,1185.54 916.5,1174C 937.15,1167.45 958.15,1163.95 979.5,1163.5 Z"/></g>
<g><path style="opacity:1" fill="#fbfbfb" d="M 447.5,1167.5 C 470.896,1166.12 490.729,1173.79 507,1190.5C 513.03,1197.49 514.03,1205.16 510,1213.5C 508.278,1215.44 506.111,1216.44 503.5,1216.5C 500.066,1215.3 496.9,1213.64 494,1211.5C 494.756,1202.85 491.59,1196.01 484.5,1191C 464.178,1181.06 444.845,1182.73 426.5,1196C 423.285,1198.21 420.785,1201.05 419,1204.5C 416.977,1191.72 421.144,1181.55 431.5,1174C 436.744,1171.32 442.077,1169.15 447.5,1167.5 Z"/></g>
<g><path style="opacity:1" fill="#0c0802" d="M 730.5,1264.5 C 735.463,1263.32 738.463,1265.15 739.5,1270C 735.965,1284.42 736.965,1298.42 742.5,1312C 740.192,1317.95 736.692,1318.79 732,1314.5C 729.941,1310.32 728.274,1305.99 727,1301.5C 726.181,1290.46 726.514,1279.46 728,1268.5C 728.662,1267.02 729.496,1265.68 730.5,1264.5 Z"/></g>
<g><path style="opacity:1" fill="#a9a9a9" d="M 574.5,1262.5 C 575.12,1268.93 574.453,1274.93 572.5,1280.5C 573.128,1274.4 573.795,1268.4 574.5,1262.5 Z"/></g>
<g><path style="opacity:1" fill="#fdfdfd" d="M 1235.5,1278.5 C 1241.19,1279.02 1246.86,1279.69 1252.5,1280.5C 1253.06,1291.84 1253.73,1303.18 1254.5,1314.5C 1259.5,1314.5 1264.5,1314.5 1269.5,1314.5C 1269.59,1303.82 1270.09,1293.15 1271,1282.5C 1271.75,1281.87 1272.58,1281.37 1273.5,1281C 1278.83,1280.33 1284.17,1280.33 1289.5,1281C 1290.67,1281.5 1291.5,1282.33 1292,1283.5C 1293.4,1294.1 1293.9,1304.77 1293.5,1315.5C 1306.9,1316.14 1319.23,1319.97 1330.5,1327C 1346.83,1341.13 1350,1357.97 1340,1377.5C 1337.02,1381.31 1333.85,1384.98 1330.5,1388.5C 1359.91,1401.21 1368.74,1422.55 1357,1452.5C 1345.4,1470.4 1328.9,1480.9 1307.5,1484C 1302.91,1484.2 1298.41,1484.7 1294,1485.5C 1292.96,1496.14 1292.46,1506.81 1292.5,1517.5C 1285.87,1518.22 1279.2,1518.05 1272.5,1517C 1272,1516.5 1271.5,1516 1271,1515.5C 1270.04,1505.85 1269.54,1496.19 1269.5,1486.5C 1264.24,1486 1259.07,1486 1254,1486.5C 1253.82,1496.74 1253.32,1506.91 1252.5,1517C 1246.66,1516.43 1240.83,1516.59 1235,1517.5C 1233.29,1517.56 1231.96,1516.89 1231,1515.5C 1229.77,1505.46 1229.27,1495.46 1229.5,1485.5C 1215.61,1485.81 1201.78,1485.81 1188,1485.5C 1185.61,1476.5 1185.27,1467.5 1187,1458.5C 1189.23,1456.85 1191.56,1456.52 1194,1457.5C 1197.44,1456.43 1200.94,1455.6 1204.5,1455C 1206.94,1454.23 1208.77,1452.73 1210,1450.5C 1210.91,1446.21 1211.58,1441.87 1212,1437.5C 1212.18,1413.46 1212.68,1389.46 1213.5,1365.5C 1212.71,1360.22 1212.21,1354.89 1212,1349.5C 1210.43,1345.17 1207.59,1342.01 1203.5,1340C 1197.12,1339.1 1190.79,1338.1 1184.5,1337C 1183.3,1336.1 1182.47,1334.93 1182,1333.5C 1181.21,1327.45 1181.38,1321.45 1182.5,1315.5C 1188.94,1314.32 1195.44,1313.66 1202,1313.5C 1211.15,1314.2 1220.32,1314.53 1229.5,1314.5C 1229.56,1303.48 1230.06,1292.48 1231,1281.5C 1232.41,1280.22 1233.91,1279.22 1235.5,1278.5 Z"/></g>
<g><path style="opacity:0.998" fill="#fcfbfe" d="M 1879.5,1283.5 C 1914.79,1302.65 1950.46,1320.98 1986.5,1338.5C 1984.73,1341.71 1982.73,1344.71 1980.5,1347.5C 1963.95,1340.22 1947.61,1332.39 1931.5,1324C 1914.96,1314.9 1898.3,1306.07 1881.5,1297.5C 1881.17,1297.5 1880.83,1297.5 1880.5,1297.5C 1880.16,1296.66 1879.49,1296.33 1878.5,1296.5C 1877.91,1295.85 1877.24,1295.18 1876.5,1294.5C 1878.12,1290.99 1879.12,1287.32 1879.5,1283.5 Z"/></g>
<g><path style="opacity:1" fill="#f1e5d1" d="M 1868.5,1282.5 C 1868.74,1284.9 1868.07,1286.9 1866.5,1288.5C 1866.05,1285.99 1866.72,1283.99 1868.5,1282.5 Z"/></g>
<g><path style="opacity:1" fill="#c199fc" d="M 1881.5,1297.5 C 1898.3,1306.07 1914.96,1314.9 1931.5,1324C 1947.61,1332.39 1963.95,1340.22 1980.5,1347.5C 1966.83,1369.51 1952.66,1391.18 1938,1412.5C 1933.78,1409.95 1930.61,1406.45 1928.5,1402C 1934.11,1395.07 1934.94,1387.57 1931,1379.5C 1924.01,1369.51 1915.68,1360.85 1906,1353.5C 1905.26,1352.25 1905.43,1351.25 1906.5,1350.5C 1907.75,1350.42 1908.58,1349.76 1909,1348.5C 1909.82,1343.32 1909.65,1338.32 1908.5,1333.5C 1907.18,1328.52 1905.01,1323.86 1902,1319.5C 1894.96,1312.3 1887.8,1305.3 1880.5,1298.5C 1881.17,1298.5 1881.5,1298.17 1881.5,1297.5 Z"/></g>
<g><path style="opacity:1" fill="#47d474" d="M 1266.5,1341.5 C 1277.72,1341.12 1288.39,1343.29 1298.5,1348C 1310.12,1364.83 1306.12,1376.49 1286.5,1383C 1275.98,1386.24 1265.31,1387.07 1254.5,1385.5C 1253.93,1371.5 1254.43,1357.5 1256,1343.5C 1259.6,1342.86 1263.1,1342.2 1266.5,1341.5 Z"/></g>
<g><path style="opacity:1" fill="#8368ab" d="M 1908.5,1333.5 C 1909.65,1338.32 1909.82,1343.32 1909,1348.5C 1908.58,1349.76 1907.75,1350.42 1906.5,1350.5C 1908.35,1345.05 1909.01,1339.39 1908.5,1333.5 Z"/></g>
<g><path style="opacity:1" fill="#c29afe" d="M 788.5,1541.5 C 785.784,1541.68 783.117,1542.18 780.5,1543C 760.9,1550.53 741.233,1557.87 721.5,1565C 686.047,1579.73 651.38,1596.06 617.5,1614C 615.866,1614.49 614.199,1614.66 612.5,1614.5C 612.529,1610.36 613.196,1606.36 614.5,1602.5C 618.273,1600.78 621.939,1598.78 625.5,1596.5C 627.329,1583.92 628.495,1571.25 629,1558.5C 632.031,1542.04 635.531,1525.71 639.5,1509.5C 651.463,1509.9 661.296,1505.57 669,1496.5C 674.429,1488.89 679.263,1480.89 683.5,1472.5C 698.549,1472.61 709.383,1465.94 716,1452.5C 718.459,1447.62 720.625,1442.62 722.5,1437.5C 733.893,1436.05 743.393,1431.05 751,1422.5C 755.727,1416.1 760.06,1409.44 764,1402.5C 776.997,1435.83 792.164,1468.16 809.5,1499.5C 801.927,1513.31 794.927,1527.31 788.5,1541.5 Z"/></g>
<g><path style="opacity:1" fill="#46d473" d="M 1263.5,1411.5 C 1271.51,1411.33 1279.51,1411.5 1287.5,1412C 1297.09,1412.31 1305.25,1415.81 1312,1422.5C 1317.98,1433.86 1316.15,1443.7 1306.5,1452C 1289.48,1459.17 1271.82,1461.33 1253.5,1458.5C 1253.33,1443.5 1253.5,1428.5 1254,1413.5C 1257.27,1412.87 1260.44,1412.2 1263.5,1411.5 Z"/></g>
<g><path style="opacity:1" fill="#654a1c" d="M 1758.5,1433.5 C 1759.99,1437.24 1760.66,1441.24 1760.5,1445.5C 1758.86,1441.79 1758.2,1437.79 1758.5,1433.5 Z"/></g>
<g><path style="opacity:1" fill="#c099fc" d="M 1764.5,1471.5 C 1764.61,1472.12 1764.94,1472.62 1765.5,1473C 1767.81,1473.5 1770.14,1473.66 1772.5,1473.5C 1772.52,1478.87 1773.02,1484.21 1774,1489.5C 1774.28,1490.42 1774.78,1491.08 1775.5,1491.5C 1778.21,1500.75 1782.88,1508.92 1789.5,1516C 1792.88,1517.9 1796.54,1518.73 1800.5,1518.5C 1801.49,1529.42 1803.65,1540.08 1807,1550.5C 1809.3,1554.3 1811.8,1557.97 1814.5,1561.5C 1815.94,1562.95 1817.61,1563.95 1819.5,1564.5C 1821.61,1565.47 1823.94,1565.8 1826.5,1565.5C 1826.5,1567.83 1826.5,1570.17 1826.5,1572.5C 1801.14,1563.32 1775.81,1553.82 1750.5,1544C 1747.22,1542.86 1743.89,1542.02 1740.5,1541.5C 1734.07,1527.31 1727.07,1513.31 1719.5,1499.5C 1729.27,1480.96 1738.77,1462.29 1748,1443.5C 1750.9,1454.52 1756.4,1463.86 1764.5,1471.5 Z"/></g>
<g><path style="opacity:1" fill="#5f451a" d="M 1941.5,1448.5 C 1939.1,1448.45 1936.76,1448.78 1934.5,1449.5C 1935.31,1448.01 1936.65,1447.34 1938.5,1447.5C 1939.73,1447.52 1940.73,1447.85 1941.5,1448.5 Z"/></g>
<g><path style="opacity:1" fill="#318c4e" d="M 801.5,1459.5 C 801.56,1458.96 801.893,1458.62 802.5,1458.5C 820.156,1466.83 838.156,1474.33 856.5,1481C 890.228,1491.46 923.895,1502.13 957.5,1513C 985.206,1518.87 1012.87,1524.87 1040.5,1531C 1061.24,1534.23 1081.91,1537.9 1102.5,1542C 1189.51,1555.79 1276.84,1558.45 1364.5,1550C 1385.17,1547.33 1405.83,1544.67 1426.5,1542C 1447.09,1537.9 1467.76,1534.23 1488.5,1531C 1514.74,1524.96 1541.08,1519.3 1567.5,1514C 1601.5,1503.33 1635.5,1492.67 1669.5,1482C 1689.17,1474.82 1708.5,1467.15 1727.5,1459C 1722.37,1470.25 1716.71,1481.25 1710.5,1492C 1706.42,1492.69 1702.42,1493.69 1698.5,1495C 1681.39,1501.72 1664.39,1508.72 1647.5,1516C 1622.83,1523.33 1598.17,1530.67 1573.5,1538C 1546.38,1544.74 1519.05,1550.41 1491.5,1555C 1421.85,1566.23 1351.85,1574.06 1281.5,1578.5C 1270.17,1577.17 1258.83,1577.17 1247.5,1578.5C 1177.15,1574.06 1107.15,1566.23 1037.5,1555C 1011.33,1550.53 985.333,1545.19 959.5,1539C 933.441,1531.54 907.441,1523.87 881.5,1516C 864.614,1508.72 847.614,1501.72 830.5,1495C 826.58,1493.69 822.58,1492.69 818.5,1492C 812.392,1481.28 806.725,1470.45 801.5,1459.5 Z"/></g>
<g><path style="opacity:1" fill="#9375c0" d="M 1764.5,1471.5 C 1767.43,1472.3 1770.43,1472.63 1773.5,1472.5C 1773.65,1478.89 1774.31,1485.23 1775.5,1491.5C 1774.78,1491.08 1774.28,1490.42 1774,1489.5C 1773.02,1484.21 1772.52,1478.87 1772.5,1473.5C 1770.14,1473.66 1767.81,1473.5 1765.5,1473C 1764.94,1472.62 1764.61,1472.12 1764.5,1471.5 Z"/></g>
<g><path style="opacity:1" fill="#45d473" d="M 819.5,1504.5 C 821.927,1504.52 824.26,1505.02 826.5,1506C 880.72,1529.07 936.72,1546.74 994.5,1559C 1038.36,1566.82 1082.36,1573.82 1126.5,1580C 1183.3,1586.99 1240.3,1589.99 1297.5,1589C 1332.56,1586.6 1367.56,1583.6 1402.5,1580C 1446.64,1573.82 1490.64,1566.82 1534.5,1559C 1593.92,1546.14 1651.58,1527.97 1707.5,1504.5C 1709.09,1505.01 1710.25,1506.01 1711,1507.5C 1740.85,1562.38 1759.01,1620.88 1765.5,1683C 1764.67,1690.77 1764,1698.6 1763.5,1706.5C 1742.64,1711.25 1721.64,1711.75 1700.5,1708C 1676.44,1702.74 1652.78,1696.07 1629.5,1688C 1616.38,1682.27 1603.38,1676.27 1590.5,1670C 1586.83,1667 1583.17,1664 1579.5,1661C 1573.89,1659.64 1570.22,1661.64 1568.5,1667C 1571.41,1678.01 1573.57,1689.17 1575,1700.5C 1579.16,1733.93 1578.83,1766.93 1574,1799.5C 1573.11,1805.28 1570.94,1810.45 1567.5,1815C 1550.07,1819.78 1532.4,1820.78 1514.5,1818C 1476.63,1814.2 1440.63,1803.87 1406.5,1787C 1387.87,1777.74 1369.21,1768.4 1350.5,1759C 1336.66,1749.58 1322.99,1739.91 1309.5,1730C 1305.21,1725.71 1300.88,1721.38 1296.5,1717C 1295.55,1716.38 1294.72,1716.55 1294,1717.5C 1285.81,1709.31 1277.64,1701.14 1269.5,1693C 1266.17,1691 1262.83,1691 1259.5,1693C 1234.75,1719.1 1207.08,1741.43 1176.5,1760C 1145.17,1775.84 1113.5,1790.84 1081.5,1805C 1051.95,1813.46 1021.78,1818.29 991,1819.5C 980.991,1819.14 971.158,1817.64 961.5,1815C 958.059,1810.45 955.893,1805.28 955,1799.5C 950.169,1766.93 949.836,1733.93 954,1700.5C 955.427,1689.17 957.593,1678.01 960.5,1667C 958.777,1661.64 955.11,1659.64 949.5,1661C 945.833,1664 942.167,1667 938.5,1670C 914.996,1682.61 890.329,1692.28 864.5,1699C 852.445,1701.8 840.445,1704.8 828.5,1708C 807.359,1711.75 786.359,1711.25 765.5,1706.5C 763.143,1690.58 763.31,1674.58 766,1658.5C 773.805,1613.27 787.472,1569.94 807,1528.5C 811.447,1520.6 815.614,1512.6 819.5,1504.5 Z"/></g>
<g><path style="opacity:1" fill="#f7f6f8" d="M 639.5,1509.5 C 635.531,1525.71 632.031,1542.04 629,1558.5C 628.495,1571.25 627.329,1583.92 625.5,1596.5C 621.939,1598.78 618.273,1600.78 614.5,1602.5C 619.961,1575.03 626.128,1547.7 633,1520.5C 634.011,1516.63 635.511,1512.97 637.5,1509.5C 638.257,1508.23 638.923,1508.23 639.5,1509.5 Z"/></g>
<g><path style="opacity:1" fill="#745520" d="M 1812.5,1522.5 C 1814.45,1527.87 1815.45,1533.54 1815.5,1539.5C 1813.86,1534.07 1812.86,1528.41 1812.5,1522.5 Z"/></g>
<g><path style="opacity:1" fill="#fdfdfe" d="M 788.5,1541.5 C 787.424,1546.06 785.757,1550.39 783.5,1554.5C 729.723,1573.14 677.556,1595.47 627,1621.5C 627.705,1664.41 631.372,1707.08 638,1749.5C 646.661,1788.81 655.828,1827.98 665.5,1867C 662.783,1873.74 658.45,1879.41 652.5,1884C 647.866,1887.63 643.533,1891.63 639.5,1896C 635.646,1899.09 631.646,1901.92 627.5,1904.5C 623.535,1890.79 621.035,1876.79 620,1862.5C 606.892,1806.87 601.559,1750.53 604,1693.5C 606.182,1667.08 609.016,1640.75 612.5,1614.5C 614.199,1614.66 615.866,1614.49 617.5,1614C 651.38,1596.06 686.047,1579.73 721.5,1565C 741.233,1557.87 760.9,1550.53 780.5,1543C 783.117,1542.18 785.784,1541.68 788.5,1541.5 Z"/></g>
<g><path style="opacity:1" fill="#fcfbfd" d="M 1740.5,1541.5 C 1743.89,1542.02 1747.22,1542.86 1750.5,1544C 1775.81,1553.82 1801.14,1563.32 1826.5,1572.5C 1826.5,1573.17 1826.83,1573.5 1827.5,1573.5C 1828.08,1577.81 1828.41,1582.14 1828.5,1586.5C 1801.17,1575 1773.5,1564.33 1745.5,1554.5C 1743.24,1550.39 1741.58,1546.06 1740.5,1541.5 Z"/></g>
<g><path style="opacity:1" fill="#c29bfe" d="M 783.5,1554.5 C 768.485,1592.23 758.318,1631.23 753,1671.5C 752.414,1682.85 752.747,1694.19 754,1705.5C 755.867,1707.81 756.867,1710.47 757,1713.5C 761.354,1717.49 766.52,1719.65 772.5,1720C 795.416,1722.7 818.082,1721.53 840.5,1716.5C 835.883,1722.96 831.049,1729.29 826,1735.5C 804.167,1758 782.333,1780.5 760.5,1803C 720.178,1837.66 680.178,1872.66 640.5,1908C 637.536,1910.81 634.202,1912.98 630.5,1914.5C 629.5,1911.17 628.5,1907.83 627.5,1904.5C 631.646,1901.92 635.646,1899.09 639.5,1896C 643.533,1891.63 647.866,1887.63 652.5,1884C 658.45,1879.41 662.783,1873.74 665.5,1867C 655.828,1827.98 646.661,1788.81 638,1749.5C 631.372,1707.08 627.705,1664.41 627,1621.5C 677.556,1595.47 729.723,1573.14 783.5,1554.5 Z"/></g>
<g><path style="opacity:1" fill="#c29afe" d="M 1745.5,1554.5 C 1773.5,1564.33 1801.17,1575 1828.5,1586.5C 1830.08,1593 1832.25,1599.34 1835,1605.5C 1837.14,1609.46 1839.97,1612.8 1843.5,1615.5C 1843.92,1616.22 1844.58,1616.72 1845.5,1617C 1849.49,1617.5 1853.49,1617.67 1857.5,1617.5C 1858.58,1617.46 1859.58,1617.13 1860.5,1616.5C 1861.81,1627.25 1864.64,1637.58 1869,1647.5C 1876.04,1655.4 1884.87,1658.57 1895.5,1657C 1897.59,1661 1899.25,1665.17 1900.5,1669.5C 1898.75,1696.28 1895.58,1722.95 1891,1749.5C 1882.34,1788.81 1873.17,1827.98 1863.5,1867C 1866.22,1873.74 1870.55,1879.41 1876.5,1884C 1881.13,1887.63 1885.47,1891.63 1889.5,1896C 1893.35,1899.09 1897.35,1901.92 1901.5,1904.5C 1900.35,1908.11 1899.35,1911.77 1898.5,1915.5C 1855.36,1877.86 1812.03,1840.36 1768.5,1803C 1746.67,1780.5 1724.83,1758 1703,1735.5C 1697.95,1729.29 1693.12,1722.96 1688.5,1716.5C 1710.91,1721.67 1733.58,1722.84 1756.5,1720C 1761.36,1718.7 1766.03,1717.04 1770.5,1715C 1771.88,1711.81 1773.38,1708.64 1775,1705.5C 1776.25,1694.19 1776.59,1682.85 1776,1671.5C 1770.68,1631.23 1760.52,1592.23 1745.5,1554.5 Z"/></g>
<g><path style="opacity:1" fill="#47385c" d="M 1819.5,1564.5 C 1822.17,1564.5 1824.83,1564.5 1827.5,1564.5C 1827.5,1567.5 1827.5,1570.5 1827.5,1573.5C 1826.83,1573.5 1826.5,1573.17 1826.5,1572.5C 1826.5,1570.17 1826.5,1567.83 1826.5,1565.5C 1823.94,1565.8 1821.61,1565.47 1819.5,1564.5 Z"/></g>
<g><path style="opacity:1" fill="#876325" d="M 1836.5,1536.5 C 1837.5,1536.41 1838.33,1536.75 1839,1537.5C 1839.5,1550.16 1839.67,1562.83 1839.5,1575.5C 1838.67,1563.34 1838.17,1551.01 1838,1538.5C 1837.28,1537.96 1836.78,1537.29 1836.5,1536.5 Z"/></g>
<g><path style="opacity:1" fill="#fcfcfc" d="M 1976.5,1588.5 C 1987.54,1592.57 1998.7,1593.24 2010,1590.5C 2036.67,1594.43 2063.5,1596.26 2090.5,1596C 2100.17,1597 2109.83,1598 2119.5,1599C 2124.74,1599.73 2129.74,1601.23 2134.5,1603.5C 2139.84,1610.74 2138.17,1616.24 2129.5,1620C 2116.64,1622.78 2103.64,1624.61 2090.5,1625.5C 2080.2,1619.68 2069.87,1613.85 2059.5,1608C 2053,1606.5 2050.5,1609 2052,1615.5C 2080.29,1632.39 2107.46,1650.89 2133.5,1671C 2143.03,1678.22 2147.53,1687.72 2147,1699.5C 2143.26,1703.26 2138.76,1704.43 2133.5,1703C 2129.5,1701.33 2125.5,1699.67 2121.5,1698C 2117.99,1690.82 2113.32,1684.49 2107.5,1679C 2089.68,1665.92 2071.35,1653.59 2052.5,1642C 2048.42,1640.53 2044.42,1638.86 2040.5,1637C 2032.07,1635.42 2029.74,1638.42 2033.5,1646C 2040.25,1648.81 2046.92,1651.81 2053.5,1655C 2068.83,1665.67 2084.17,1676.33 2099.5,1687C 2103.04,1690.2 2106.2,1693.7 2109,1697.5C 2110,1700.8 2110.33,1704.13 2110,1707.5C 2109.1,1708.7 2107.93,1709.53 2106.5,1710C 2102.17,1710.67 2097.83,1710.67 2093.5,1710C 2073.22,1700.53 2053.22,1690.53 2033.5,1680C 2019.92,1674.1 2005.92,1669.44 1991.5,1666C 1973.29,1664.87 1965.46,1673.37 1968,1691.5C 1972.35,1709.21 1978.69,1726.21 1987,1742.5C 1989.58,1749.5 1988.75,1756 1984.5,1762C 1975.75,1762.55 1968.59,1759.38 1963,1752.5C 1949.04,1736.2 1937.04,1718.54 1927,1699.5C 1919.6,1683.88 1912.1,1668.38 1904.5,1653C 1905.48,1651.34 1906.48,1649.68 1907.5,1648C 1910.83,1647.67 1914.17,1647.33 1917.5,1647C 1924.38,1643.49 1929.54,1638.32 1933,1631.5C 1935.69,1623.72 1937.19,1615.72 1937.5,1607.5C 1955.21,1610.48 1968.21,1604.14 1976.5,1588.5 Z"/></g>
<g><path style="opacity:1" fill="#4e3e66" d="M 1843.5,1615.5 C 1848.34,1615.91 1853.01,1616.58 1857.5,1617.5C 1853.49,1617.67 1849.49,1617.5 1845.5,1617C 1844.58,1616.72 1843.92,1616.22 1843.5,1615.5 Z"/></g>
<g><path style="opacity:1" fill="#fdfdfe" d="M 1900.5,1669.5 C 1907.31,1686.13 1915.48,1702.13 1925,1717.5C 1925.18,1766.37 1919.85,1814.7 1909,1862.5C 1907.97,1876.79 1905.47,1890.79 1901.5,1904.5C 1897.35,1901.92 1893.35,1899.09 1889.5,1896C 1885.47,1891.63 1881.13,1887.63 1876.5,1884C 1870.55,1879.41 1866.22,1873.74 1863.5,1867C 1873.17,1827.98 1882.34,1788.81 1891,1749.5C 1895.58,1722.95 1898.75,1696.28 1900.5,1669.5 Z"/></g>
<g><path style="opacity:1" fill="#c29bfe" d="M 957.5,1848.5 C 932.169,1879.99 903.003,1907.66 870,1931.5C 876.212,1911.39 883.879,1891.72 893,1872.5C 905.971,1832.93 917.304,1792.93 927,1752.5C 931.72,1729.29 935.553,1705.96 938.5,1682.5C 940.473,1681.51 942.473,1680.51 944.5,1679.5C 944.833,1680 945.167,1680.5 945.5,1681C 938.886,1719.71 938.052,1758.55 943,1797.5C 944.458,1808.56 948.625,1818.39 955.5,1827C 960.21,1827.38 964.877,1828.04 969.5,1829C 965.364,1835.44 961.364,1841.94 957.5,1848.5 Z"/></g>
<g><path style="opacity:1" fill="#c29bfe" d="M 1590.5,1682.5 C 1593.45,1705.96 1597.28,1729.29 1602,1752.5C 1611.7,1792.93 1623.03,1832.93 1636,1872.5C 1645.12,1891.72 1652.79,1911.39 1659,1931.5C 1626,1907.66 1596.83,1879.99 1571.5,1848.5C 1567.64,1841.94 1563.64,1835.44 1559.5,1829C 1564.08,1827.86 1568.75,1827.19 1573.5,1827C 1580.38,1818.39 1584.54,1808.56 1586,1797.5C 1590.96,1758.72 1590.13,1720.05 1583.5,1681.5C 1583.83,1680.83 1584.17,1680.17 1584.5,1679.5C 1586.53,1680.51 1588.53,1681.51 1590.5,1682.5 Z"/></g>
<g><path style="opacity:1" fill="#fcfbfd" d="M 938.5,1682.5 C 935.553,1705.96 931.72,1729.29 927,1752.5C 917.304,1792.93 905.971,1832.93 893,1872.5C 883.879,1891.72 876.212,1911.39 870,1931.5C 903.003,1907.66 932.169,1879.99 957.5,1848.5C 935.893,1882.29 911.393,1913.96 884,1943.5C 868.272,1959.4 852.438,1975.06 836.5,1990.5C 849.783,1949.82 864.95,1909.82 882,1870.5C 898.776,1820.73 912.109,1770.06 922,1718.5C 923.742,1708.9 924.909,1699.23 925.5,1689.5C 929.639,1686.93 933.973,1684.6 938.5,1682.5 Z"/></g>
<g><path style="opacity:1" fill="#fcfbfd" d="M 1590.5,1682.5 C 1595.03,1684.6 1599.36,1686.93 1603.5,1689.5C 1605.18,1709.4 1608.35,1729.06 1613,1748.5C 1622.15,1789.77 1633.48,1830.43 1647,1870.5C 1664.05,1909.82 1679.22,1949.82 1692.5,1990.5C 1656.61,1957.12 1623.78,1921.12 1594,1882.5C 1586.67,1871.01 1579.17,1859.68 1571.5,1848.5C 1596.83,1879.99 1626,1907.66 1659,1931.5C 1652.79,1911.39 1645.12,1891.72 1636,1872.5C 1623.03,1832.93 1611.7,1792.93 1602,1752.5C 1597.28,1729.29 1593.45,1705.96 1590.5,1682.5 Z"/></g>
<g><path style="opacity:1" fill="#c39bfe" d="M 925.5,1689.5 C 924.909,1699.23 923.742,1708.9 922,1718.5C 912.109,1770.06 898.776,1820.73 882,1870.5C 864.95,1909.82 849.783,1949.82 836.5,1990.5C 830.141,1996.2 823.808,2001.86 817.5,2007.5C 824.134,1992.05 829.801,1976.22 834.5,1960C 833.035,1955.6 830.368,1954.6 826.5,1957C 811.759,1966.2 796.092,1973.54 779.5,1979C 769.876,1980.66 760.21,1981.82 750.5,1982.5C 734.256,1983.29 720.756,1977.63 710,1965.5C 698.993,1952.17 689.993,1937.5 683,1921.5C 680.058,1911.89 676.891,1902.39 673.5,1893C 702.833,1867.67 732.167,1842.33 761.5,1817C 780.333,1798.17 799.167,1779.33 818,1760.5C 832.101,1744.58 845.934,1728.58 859.5,1712.5C 881.935,1706.06 903.935,1698.39 925.5,1689.5 Z"/></g>
<g><path style="opacity:1" fill="#c39bfe" d="M 1603.5,1689.5 C 1624.86,1699.01 1646.86,1706.67 1669.5,1712.5C 1683.07,1728.58 1696.9,1744.58 1711,1760.5C 1729.83,1779.33 1748.67,1798.17 1767.5,1817C 1796.83,1842.33 1826.17,1867.67 1855.5,1893C 1847.93,1923.16 1833.59,1949.49 1812.5,1972C 1802.45,1979.52 1791.11,1983.02 1778.5,1982.5C 1751.23,1982.03 1726.57,1973.86 1704.5,1958C 1696.46,1954.37 1693.63,1956.87 1696,1965.5C 1700.49,1979.47 1705.65,1993.13 1711.5,2006.5C 1709.07,2005.25 1706.73,2003.75 1704.5,2002C 1700.66,1997.99 1696.66,1994.16 1692.5,1990.5C 1679.22,1949.82 1664.05,1909.82 1647,1870.5C 1633.48,1830.43 1622.15,1789.77 1613,1748.5C 1608.35,1729.06 1605.18,1709.4 1603.5,1689.5 Z"/></g>
<g><path style="opacity:1" fill="#edae41" d="M 1288.5,1771.5 C 1287.79,1774.79 1287.46,1778.12 1287.5,1781.5C 1285.8,1781.66 1284.13,1781.49 1282.5,1781C 1280.93,1777.43 1278.6,1774.43 1275.5,1772C 1269.12,1771.38 1266.62,1774.21 1268,1780.5C 1274.45,1788.86 1278.79,1798.19 1281,1808.5C 1282.38,1814.11 1282.72,1819.78 1282,1825.5C 1278.9,1829.08 1275.73,1829.25 1272.5,1826C 1266,1825.17 1263.17,1828 1264,1834.5C 1279.61,1846.7 1286.77,1862.53 1285.5,1882C 1284.39,1882.64 1283.22,1883.14 1282,1883.5C 1276.85,1876.57 1272.35,1876.9 1268.5,1884.5C 1269.94,1889.45 1272.77,1893.45 1277,1896.5C 1280.33,1903.83 1283.67,1911.17 1287,1918.5C 1288.54,1925.08 1288.88,1931.75 1288,1938.5C 1287.26,1939.57 1286.26,1940.24 1285,1940.5C 1283.05,1938.12 1281.22,1935.62 1279.5,1933C 1269.9,1930.96 1267.4,1934.46 1272,1943.5C 1279.62,1952.47 1285.62,1962.47 1290,1973.5C 1291.2,1979.13 1291.53,1984.8 1291,1990.5C 1287.65,1993.21 1285.98,1992.21 1286,1987.5C 1283.79,1984.71 1280.96,1983.88 1277.5,1985C 1275.41,1986.26 1274.41,1988.09 1274.5,1990.5C 1280.68,2002.2 1286.35,2014.2 1291.5,2026.5C 1293.15,2032.29 1293.82,2038.29 1293.5,2044.5C 1292.34,2046.38 1290.67,2046.88 1288.5,2046C 1285.98,2042.77 1283.65,2039.43 1281.5,2036C 1276.54,2034.31 1273.54,2035.98 1272.5,2041C 1278.22,2050.4 1284.38,2059.57 1291,2068.5C 1298.24,2081.9 1301.58,2096.23 1301,2111.5C 1300.33,2112.83 1299.67,2114.17 1299,2115.5C 1296.2,2112.02 1292.87,2109.35 1289,2107.5C 1286.06,2107.94 1284.23,2109.61 1283.5,2112.5C 1288.23,2118.95 1292.73,2125.62 1297,2132.5C 1300.54,2140.09 1303.38,2147.92 1305.5,2156C 1304.46,2161.24 1301.8,2165.41 1297.5,2168.5C 1296.12,2165.62 1294.12,2163.12 1291.5,2161C 1287.07,2159.75 1284.41,2161.41 1283.5,2166C 1288.15,2174.42 1289.32,2183.25 1287,2192.5C 1286.31,2195.06 1284.81,2196.89 1282.5,2198C 1278.37,2199.9 1274.03,2200.73 1269.5,2200.5C 1268.43,2199.57 1267.1,2199.23 1265.5,2199.5C 1265.78,2197.59 1265.45,2195.92 1264.5,2194.5C 1261.89,2190.5 1259.05,2190.5 1256,2194.5C 1255.56,2201.03 1254.23,2207.36 1252,2213.5C 1249.74,2216.89 1246.9,2219.72 1243.5,2222C 1241.8,2222.96 1239.97,2223.46 1238,2223.5C 1234.5,2223 1231,2222.5 1227.5,2222C 1226.17,2220.33 1224.83,2218.67 1223.5,2217C 1221.5,2216.33 1219.5,2216.33 1217.5,2217C 1215.17,2221.3 1212.84,2225.63 1210.5,2230C 1194.73,2235.89 1182.56,2231.39 1174,2216.5C 1173.01,2213.58 1172.35,2210.58 1172,2207.5C 1169.83,2204.71 1167,2203.88 1163.5,2205C 1161.2,2208.3 1158.54,2211.3 1155.5,2214C 1152.41,2214.15 1149.58,2214.98 1147,2216.5C 1140.01,2212.85 1137.68,2207.18 1140,2199.5C 1142.41,2191.45 1144.91,2183.45 1147.5,2175.5C 1146.81,2170.85 1144.14,2169.35 1139.5,2171C 1137.34,2172.65 1136,2174.81 1135.5,2177.5C 1132.67,2178.93 1129.67,2179.6 1126.5,2179.5C 1125.16,2176.63 1123.99,2173.63 1123,2170.5C 1122.43,2164.46 1122.76,2158.46 1124,2152.5C 1125.97,2146.04 1127.3,2139.37 1128,2132.5C 1130.24,2124.78 1133.07,2117.28 1136.5,2110C 1135.19,2105.67 1132.19,2103.83 1127.5,2104.5C 1124.39,2104.74 1121.39,2104.4 1118.5,2103.5C 1116.39,2089.84 1117.89,2076.5 1123,2063.5C 1125.6,2057.2 1128.1,2050.87 1130.5,2044.5C 1129.42,2039.62 1126.42,2037.79 1121.5,2039C 1119.54,2041.11 1117.71,2043.27 1116,2045.5C 1113.91,2043.65 1112.57,2041.32 1112,2038.5C 1111.33,2034.17 1111.33,2029.83 1112,2025.5C 1114.89,2016.7 1116.89,2007.7 1118,1998.5C 1120.89,1992.9 1123.05,1987.07 1124.5,1981C 1122.18,1974.41 1118.34,1973.24 1113,1977.5C 1112.68,1982.3 1110.35,1983.63 1106,1981.5C 1105.43,1973.8 1105.76,1966.14 1107,1958.5C 1110.26,1948.36 1114.1,1938.53 1118.5,1929C 1117.61,1924.04 1114.61,1922.38 1109.5,1924C 1108.35,1926.18 1106.69,1927.68 1104.5,1928.5C 1101.78,1926.93 1099.94,1924.6 1099,1921.5C 1098.23,1914.04 1098.9,1906.71 1101,1899.5C 1104.34,1888.49 1108.5,1877.83 1113.5,1867.5C 1109.84,1860 1105.67,1859.66 1101,1866.5C 1100.19,1868.44 1099.69,1870.44 1099.5,1872.5C 1096.17,1872.97 1094,1871.64 1093,1868.5C 1092.05,1860.91 1093.05,1853.58 1096,1846.5C 1099.24,1839.44 1103.07,1832.78 1107.5,1826.5C 1105.9,1822.37 1102.9,1820.87 1098.5,1822C 1096.64,1823.56 1095.14,1825.39 1094,1827.5C 1089.92,1823.94 1087.76,1819.44 1087.5,1814C 1100.78,1809.43 1113.78,1804.09 1126.5,1798C 1147.45,1787.86 1168.12,1777.19 1188.5,1766C 1216.01,1748.34 1241.34,1727.84 1264.5,1704.5C 1272.59,1711.45 1278.09,1720.11 1281,1730.5C 1285.65,1743.75 1288.15,1757.42 1288.5,1771.5 Z"/></g>
<g><path style="opacity:1" fill="#fefdfe" d="M 859.5,1712.5 C 845.934,1728.58 832.101,1744.58 818,1760.5C 799.167,1779.33 780.333,1798.17 761.5,1817C 732.167,1842.33 702.833,1867.67 673.5,1893C 676.891,1902.39 680.058,1911.89 683,1921.5C 689.993,1937.5 698.993,1952.17 710,1965.5C 720.756,1977.63 734.256,1983.29 750.5,1982.5C 760.21,1981.82 769.876,1980.66 779.5,1979C 796.092,1973.54 811.759,1966.2 826.5,1957C 830.368,1954.6 833.035,1955.6 834.5,1960C 829.801,1976.22 824.134,1992.05 817.5,2007.5C 796.193,2025.92 772.193,2040.09 745.5,2050C 735.898,2054.24 725.898,2055.9 715.5,2055C 710.375,2053.18 705.375,2051.18 700.5,2049C 676.083,2026.26 658.583,1999.09 648,1967.5C 646.667,1966.83 645.667,1965.83 645,1964.5C 638.617,1948.3 633.784,1931.64 630.5,1914.5C 634.202,1912.98 637.536,1910.81 640.5,1908C 680.178,1872.66 720.178,1837.66 760.5,1803C 782.333,1780.5 804.167,1758 826,1735.5C 831.049,1729.29 835.883,1722.96 840.5,1716.5C 846.731,1714.69 853.064,1713.36 859.5,1712.5 Z"/></g>
<g><path style="opacity:1" fill="#fefdfe" d="M 1669.5,1712.5 C 1675.89,1713.58 1682.23,1714.91 1688.5,1716.5C 1693.12,1722.96 1697.95,1729.29 1703,1735.5C 1724.83,1758 1746.67,1780.5 1768.5,1803C 1812.03,1840.36 1855.36,1877.86 1898.5,1915.5C 1895.06,1932.26 1890.23,1948.6 1884,1964.5C 1883.33,1965.83 1882.33,1966.83 1881,1967.5C 1870.42,1999.09 1852.92,2026.26 1828.5,2049C 1824.46,2050.46 1820.46,2052.13 1816.5,2054C 1806.97,2056.29 1797.64,2055.63 1788.5,2052C 1759.6,2041.9 1733.93,2026.73 1711.5,2006.5C 1705.65,1993.13 1700.49,1979.47 1696,1965.5C 1693.63,1956.87 1696.46,1954.37 1704.5,1958C 1726.57,1973.86 1751.23,1982.03 1778.5,1982.5C 1791.11,1983.02 1802.45,1979.52 1812.5,1972C 1833.59,1949.49 1847.93,1923.16 1855.5,1893C 1826.17,1867.67 1796.83,1842.33 1767.5,1817C 1748.67,1798.17 1729.83,1779.33 1711,1760.5C 1696.9,1744.58 1683.07,1728.58 1669.5,1712.5 Z"/></g>
<g><path style="opacity:1" fill="#cda052" d="M 1373.5,1831.5 C 1375.18,1841.65 1375.84,1851.99 1375.5,1862.5C 1374.76,1867.91 1371.76,1870.91 1366.5,1871.5C 1365.49,1866.65 1362.49,1864.82 1357.5,1866C 1355.64,1867.18 1354.64,1868.85 1354.5,1871C 1361.39,1887.95 1363.56,1905.45 1361,1923.5C 1359.06,1925.98 1356.9,1926.15 1354.5,1924C 1354.23,1918.06 1351.23,1915.39 1345.5,1916C 1344.67,1916.83 1343.83,1917.67 1343,1918.5C 1344.27,1931.13 1345.44,1943.79 1346.5,1956.5C 1346.83,1961.83 1347.17,1967.17 1347.5,1972.5C 1347.66,1974.53 1347.5,1976.53 1347,1978.5C 1345.91,1981.69 1344.07,1984.36 1341.5,1986.5C 1340.29,1983.7 1338.62,1981.2 1336.5,1979C 1329.62,1977.88 1326.78,1980.72 1328,1987.5C 1333.28,2003.72 1334.95,2020.38 1333,2037.5C 1332.98,2042.19 1330.65,2044.52 1326,2044.5C 1323.44,2044.04 1320.94,2043.38 1318.5,2042.5C 1313.21,2043.3 1311.38,2046.3 1313,2051.5C 1322.6,2066.75 1324.93,2083.09 1320,2100.5C 1317.94,2103.77 1315.61,2104.11 1313,2101.5C 1312.91,2089.48 1309.58,2078.48 1303,2068.5C 1302.31,2064.3 1300.48,2060.63 1297.5,2057.5C 1303.92,2053.66 1306.92,2047.99 1306.5,2040.5C 1305.81,2034.09 1304.65,2027.75 1303,2021.5C 1300.1,2015.96 1297.27,2010.46 1294.5,2005C 1297.56,2001.05 1300.22,1996.88 1302.5,1992.5C 1303.65,1987.68 1303.82,1982.68 1303,1977.5C 1302.8,1974.2 1301.96,1971.2 1300.5,1968.5C 1298,1962.66 1295.33,1956.83 1292.5,1951C 1295.74,1948.43 1298.24,1945.26 1300,1941.5C 1300.67,1934.5 1300.67,1927.5 1300,1920.5C 1296.79,1911.72 1293.29,1903.05 1289.5,1894.5C 1292.63,1891.84 1295.46,1888.84 1298,1885.5C 1300.37,1867.94 1295.87,1852.44 1284.5,1839C 1293.21,1832.71 1296.38,1824.21 1294,1813.5C 1291.7,1806.62 1289.86,1799.62 1288.5,1792.5C 1294.29,1792.04 1297.96,1789.04 1299.5,1783.5C 1301.03,1780.3 1301.7,1776.8 1301.5,1773C 1301.5,1770.31 1301.16,1767.81 1300.5,1765.5C 1299.39,1760.25 1298.56,1754.92 1298,1749.5C 1296,1743.5 1294.34,1737.5 1293,1731.5C 1309.39,1744.28 1326.22,1756.45 1343.5,1768C 1357.68,1775.59 1372.01,1782.92 1386.5,1790C 1388,1791.49 1388.84,1793.32 1389,1795.5C 1390.09,1802.72 1389.42,1809.72 1387,1816.5C 1385.61,1817.55 1384.11,1817.72 1382.5,1817C 1382.19,1812.39 1380.19,1808.72 1376.5,1806C 1370.17,1805.33 1367.67,1808.17 1369,1814.5C 1371.28,1819.97 1372.78,1825.64 1373.5,1831.5 Z"/></g>
<g><path style="opacity:1" fill="#a0752c" d="M 1288.5,1771.5 C 1289.86,1774.96 1289.53,1778.29 1287.5,1781.5C 1287.46,1778.12 1287.79,1774.79 1288.5,1771.5 Z"/></g>
<g><path style="opacity:1" fill="#7b6031" d="M 1300.5,1765.5 C 1301.16,1767.81 1301.5,1770.31 1301.5,1773C 1301.7,1776.8 1301.03,1780.3 1299.5,1783.5C 1300.31,1777.54 1300.64,1771.54 1300.5,1765.5 Z"/></g>
<g><path style="opacity:1" fill="#97753c" d="M 1373.5,1831.5 C 1376.55,1841.68 1377.22,1852.01 1375.5,1862.5C 1375.84,1851.99 1375.18,1841.65 1373.5,1831.5 Z"/></g>
<g><path style="opacity:1" fill="#6d552b" d="M 1346.5,1956.5 C 1348.31,1961.78 1348.64,1967.11 1347.5,1972.5C 1347.17,1967.17 1346.83,1961.83 1346.5,1956.5 Z"/></g>
<g><path style="opacity:1" fill="#5a4623" d="M 1300.5,1968.5 C 1301.96,1971.2 1302.8,1974.2 1303,1977.5C 1303.82,1982.68 1303.65,1987.68 1302.5,1992.5C 1302.68,1984.42 1302.02,1976.42 1300.5,1968.5 Z"/></g>
<g><path style="opacity:1" fill="#a77a2e" d="M 1291.5,2026.5 C 1292.79,2027.84 1293.63,2029.51 1294,2031.5C 1294.81,2036.02 1294.65,2040.35 1293.5,2044.5C 1293.82,2038.29 1293.15,2032.29 1291.5,2026.5 Z"/></g>
<g><path style="opacity:1" fill="#73541f" d="M 1118.5,2103.5 C 1121.39,2104.4 1124.39,2104.74 1127.5,2104.5C 1126.21,2105.16 1124.71,2105.49 1123,2105.5C 1121.01,2105.43 1119.51,2104.76 1118.5,2103.5 Z"/></g>
<g><path style="opacity:1" fill="#785821" d="M 1264.5,2194.5 C 1265.45,2195.92 1265.78,2197.59 1265.5,2199.5C 1267.1,2199.23 1268.43,2199.57 1269.5,2200.5C 1267.83,2200.5 1266.17,2200.5 1264.5,2200.5C 1264.5,2198.5 1264.5,2196.5 1264.5,2194.5 Z"/></g>
<g><path style="opacity:1" fill="#45d472" d="M 1285.5,2208.5 C 1286.78,2209.69 1287.44,2211.36 1287.5,2213.5C 1283.63,2242.73 1278.46,2271.73 1272,2300.5C 1263.95,2331.84 1247.78,2358.01 1223.5,2379C 1216.85,2382.83 1209.85,2385.83 1202.5,2388C 1198.09,2388.7 1193.76,2388.36 1189.5,2387C 1185.24,2385.07 1181.24,2382.73 1177.5,2380C 1168.79,2370.75 1161.95,2360.25 1157,2348.5C 1148.55,2322.82 1145.22,2296.48 1147,2269.5C 1147.19,2255.12 1148.03,2240.78 1149.5,2226.5C 1154.56,2226.59 1159.23,2225.26 1163.5,2222.5C 1169.43,2231.26 1177.09,2238.09 1186.5,2243C 1201.92,2247.64 1214.76,2243.8 1225,2231.5C 1232.82,2235.1 1240.65,2235.27 1248.5,2232C 1257.23,2227.79 1262.23,2220.95 1263.5,2211.5C 1271.32,2213.3 1278.65,2212.3 1285.5,2208.5 Z"/></g>
<g><path style="opacity:0.018" fill="#000000" d="M 1302.5,2238.5 C 1303.53,2238.9 1303.69,2239.56 1303,2240.5C 1302.54,2239.91 1302.37,2239.24 1302.5,2238.5 Z"/></g>
</svg>
