<?xml version="1.0" encoding="UTF-8"?>
<!DOCTYPE svg PUBLIC "-//W3C//DTD SVG 1.1//EN" "http://www.w3.org/Graphics/SVG/1.1/DTD/svg11.dtd">
<svg xmlns="http://www.w3.org/2000/svg" version="1.1" width="2480px" height="2480px" style="shape-rendering:geometricPrecision; text-rendering:geometricPrecision; image-rendering:optimizeQuality; fill-rule:evenodd; clip-rule:evenodd" xmlns:xlink="http://www.w3.org/1999/xlink">
<g><path style="opacity:0.971" fill="#030203" d="M 1307.5,129.5 C 1321.04,129.853 1332.21,135.186 1341,145.5C 1347.41,143.086 1354.07,142.086 1361,142.5C 1379.32,141.184 1392.48,148.684 1400.5,165C 1417.41,163.678 1431.91,168.845 1444,180.5C 1446.31,183.912 1448.14,187.579 1449.5,191.5C 1459.84,193.672 1469.51,197.505 1478.5,203C 1484.84,207.179 1488.5,213.013 1489.5,220.5C 1509.28,224.45 1520.78,236.45 1524,256.5C 1539.36,263.858 1548.7,275.858 1552,292.5C 1563.3,299.467 1571.3,309.134 1576,321.5C 1577.2,327.052 1576.36,332.219 1573.5,337C 1582.29,344.777 1589.12,353.944 1594,364.5C 1595.41,370.316 1594.24,375.483 1590.5,380C 1595.59,383.083 1600.09,386.917 1604,391.5C 1610.37,383.232 1618.2,376.732 1627.5,372C 1631.09,370.848 1634.76,370.015 1638.5,369.5C 1641.19,369.679 1643.52,370.679 1645.5,372.5C 1657.34,361.068 1671.34,355.568 1687.5,356C 1694,346.833 1702.34,339.833 1712.5,335C 1719.47,333.247 1726.47,333.08 1733.5,334.5C 1737.94,331.559 1741.94,328.059 1745.5,324C 1749.71,321.398 1754.04,319.064 1758.5,317C 1764.09,314.622 1769.42,315.122 1774.5,318.5C 1782.36,310.073 1791.69,303.907 1802.5,300C 1806.77,298.97 1811.11,298.303 1815.5,298C 1824.14,287.004 1835.14,279.671 1848.5,276C 1852.77,274.992 1856.77,275.492 1860.5,277.5C 1869.21,268.474 1879.55,261.974 1891.5,258C 1898.24,256.298 1904.08,257.798 1909,262.5C 1917.53,253.973 1926.03,245.473 1934.5,237C 1942.42,232.532 1949.42,226.865 1955.5,220C 1967.47,211.344 1979.47,202.678 1991.5,194C 2009.5,184 2027.5,174 2045.5,164C 2055.51,160.327 2065.51,156.66 2075.5,153C 2093.38,148.89 2100.88,155.724 2098,173.5C 2095.39,178.435 2092.39,183.102 2089,187.5C 2075.5,200.324 2061,211.824 2045.5,222C 2054.11,225.613 2061.94,230.446 2069,236.5C 2076.27,247.22 2078.6,258.887 2076,271.5C 2074.82,275.363 2072.99,278.863 2070.5,282C 2073.81,284.778 2075.97,288.278 2077,292.5C 2078.74,303.044 2076.9,312.877 2071.5,322C 2077.35,333.338 2076.51,344.171 2069,354.5C 2058.45,365.111 2045.78,371.777 2031,374.5C 2024.31,374.078 2017.98,372.412 2012,369.5C 2007.08,371.708 2002.58,374.542 1998.5,378C 1985.64,383.613 1971.97,385.946 1957.5,385C 1954.77,384.79 1952.27,383.956 1950,382.5C 1948.22,385.941 1946.06,389.108 1943.5,392C 1938.52,395.48 1933.18,398.314 1927.5,400.5C 1932.46,404.957 1937.29,409.624 1942,414.5C 1944.9,419.966 1948.07,425.299 1951.5,430.5C 1969.07,440.032 1987.23,448.366 2006,455.5C 2034.27,463.622 2062.44,472.122 2090.5,481C 2097.33,483.275 2103.99,485.942 2110.5,489C 2116.5,495.817 2118.66,503.65 2117,512.5C 2114.11,515.057 2110.94,517.224 2107.5,519C 2058.84,525.081 2011.17,535.748 1964.5,551C 1943.25,559.374 1922.75,569.207 1903,580.5C 1902.19,583.446 1900.86,586.112 1899,588.5C 1897.47,595.114 1899.14,600.78 1904,605.5C 1911.2,613.031 1918.7,620.198 1926.5,627C 1959.68,651.423 1992.68,676.09 2025.5,701C 2062.8,728.967 2095.3,761.467 2123,798.5C 2142.29,825.692 2153.29,856.025 2156,889.5C 2156.67,906.5 2156.67,923.5 2156,940.5C 2152.34,957.148 2148.67,973.814 2145,990.5C 2140.39,1004.98 2135.39,1019.32 2130,1033.5C 2116.19,1060.46 2100.86,1086.46 2084,1111.5C 2073.08,1124.14 2061.58,1136.31 2049.5,1148C 2040.01,1155.58 2030.35,1162.91 2020.5,1170C 2018.28,1171.28 2015.95,1172.28 2013.5,1173C 1981.84,1197.43 1947.67,1217.93 1911,1234.5C 1911.65,1263.42 1911.65,1292.42 1911,1321.5C 1909.85,1344.42 1904.85,1366.42 1896,1387.5C 1887.02,1401.82 1876.52,1414.99 1864.5,1427C 1853.06,1436.44 1841.06,1445.11 1828.5,1453C 1786.94,1473.77 1743.6,1490.11 1698.5,1502C 1650.83,1516.5 1602.16,1524.33 1552.5,1525.5C 1544.64,1538.52 1535.81,1550.86 1526,1562.5C 1514.26,1574.24 1503.26,1586.57 1493,1599.5C 1486.65,1605.19 1480.98,1611.52 1476,1618.5C 1455.13,1637.7 1433.96,1656.54 1412.5,1675C 1451.34,1673.44 1490.34,1670.11 1529.5,1665C 1559.54,1663.83 1589.21,1661.5 1618.5,1658C 1658.92,1655.13 1699.59,1651.96 1740.5,1648.5C 1752.64,1648.95 1764.97,1649.78 1777.5,1651C 1794.52,1651.55 1809.19,1657.55 1821.5,1669C 1829.14,1676.3 1835.64,1684.47 1841,1693.5C 1846.74,1705.32 1852.74,1716.99 1859,1728.5C 1864.8,1743.58 1870.8,1758.58 1877,1773.5C 1885.81,1800.26 1894.81,1826.93 1904,1853.5C 1905.21,1856.77 1905.55,1860.1 1905,1863.5C 1903.83,1864.89 1902.33,1865.73 1900.5,1866C 1874.23,1867.78 1853.07,1858.28 1837,1837.5C 1833,1831.5 1829,1825.5 1825,1819.5C 1825.38,1830.39 1826.55,1841.22 1828.5,1852C 1828.36,1854.15 1827.36,1855.82 1825.5,1857C 1802.24,1859.12 1784.74,1849.95 1773,1829.5C 1766.74,1816.38 1761.07,1803.04 1756,1789.5C 1753.94,1777.27 1750.94,1765.27 1747,1753.5C 1745.83,1751 1744,1749.17 1741.5,1748C 1732.9,1746.51 1724.23,1745.67 1715.5,1745.5C 1657.68,1746.88 1600.18,1751.55 1543,1759.5C 1542.67,1759.17 1542.33,1758.83 1542,1758.5C 1500.78,1761.17 1459.62,1765 1418.5,1770C 1399.48,1770.67 1380.48,1770.33 1361.5,1769C 1351.79,1766.49 1342.12,1763.82 1332.5,1761C 1302.46,1747.41 1291.96,1724.58 1301,1692.5C 1307.47,1664.98 1314.64,1637.64 1322.5,1610.5C 1322.17,1609.83 1321.83,1609.17 1321.5,1608.5C 1287.77,1628.03 1253.44,1646.53 1218.5,1664C 1195.68,1677.58 1172.68,1690.91 1149.5,1704C 1139.1,1711.39 1128.44,1718.39 1117.5,1725C 1106.33,1734.83 1095.17,1744.67 1084,1754.5C 1073.28,1767.55 1062.95,1780.88 1053,1794.5C 1052.64,1796.61 1051.97,1798.61 1051,1800.5C 1029.1,1832.77 1010.1,1866.77 994,1902.5C 986.069,1922.63 978.736,1942.96 972,1963.5C 969.674,1968.47 967.341,1973.47 965,1978.5C 956.933,2004.37 948.266,2030.03 939,2055.5C 928.214,2080.41 916.881,2105.07 905,2129.5C 895.767,2145.08 884.6,2159.25 871.5,2172C 821.688,2211.39 771.022,2249.56 719.5,2286.5C 713.929,2285.43 710.429,2282.1 709,2276.5C 702.555,2253.9 706.222,2232.57 720,2212.5C 723.167,2208.67 726.333,2204.83 729.5,2201C 720.228,2204.13 711.228,2208.13 702.5,2213C 699.901,2213.77 697.401,2213.6 695,2212.5C 685.895,2179.89 695.062,2153.72 722.5,2134C 737.004,2124.92 751.337,2115.58 765.5,2106C 783.22,2098.73 799.053,2088.56 813,2075.5C 833.56,2029.16 854.893,1983.16 877,1937.5C 901.237,1878.11 926.237,1819.11 952,1760.5C 961.212,1742.74 969.878,1724.74 978,1706.5C 983.497,1696.17 989.497,1686.17 996,1676.5C 1004.27,1666.9 1013.77,1658.73 1024.5,1652C 1032.11,1648.86 1039.45,1645.19 1046.5,1641C 1060.83,1628 1075.17,1615 1089.5,1602C 1108.09,1585.08 1125.59,1567.25 1142,1548.5C 1158.85,1531.91 1175.35,1515.08 1191.5,1498C 1176.27,1498.47 1161.27,1498.14 1146.5,1497C 1129.51,1493.17 1112.51,1489.17 1095.5,1485C 1078.48,1479.57 1062.98,1471.41 1049,1460.5C 1042.71,1451.85 1043.21,1443.69 1050.5,1436C 1030.51,1431.56 1010.84,1425.89 991.5,1419C 976.068,1412.79 961.735,1404.79 948.5,1395C 940.028,1388.88 935.028,1380.71 933.5,1370.5C 934.374,1368.25 934.708,1365.92 934.5,1363.5C 880.767,1353.68 830.767,1363.85 784.5,1394C 763.036,1414.26 745.703,1437.59 732.5,1464C 705.182,1461.89 686.016,1448.05 675,1422.5C 670.366,1408.84 670.366,1395.18 675,1381.5C 680.084,1369.77 686.75,1359.1 695,1349.5C 719.049,1327.39 746.882,1311.89 778.5,1303C 754.624,1302.42 731.291,1305.76 708.5,1313C 699.18,1316.99 690.513,1321.99 682.5,1328C 671.646,1336.92 668.312,1348.08 672.5,1361.5C 672.144,1364.69 670.477,1366.85 667.5,1368C 655.157,1369 643.49,1366.33 632.5,1360C 605.404,1343 590.071,1318.5 586.5,1286.5C 585.857,1265.53 591.357,1245.87 603,1227.5C 619.63,1208.26 640.464,1195.76 665.5,1190C 645.105,1188.21 626.105,1192.55 608.5,1203C 598.078,1208.89 588.744,1216.22 580.5,1225C 577.833,1227 575.167,1227 572.5,1225C 570.319,1221.45 568.819,1217.62 568,1213.5C 564.089,1166.47 575.756,1123.8 603,1085.5C 621.818,1059.34 644.985,1038.17 672.5,1022C 707.113,1006.6 743.113,1002.27 780.5,1009C 806.049,1014.44 830.049,1023.78 852.5,1037C 863.167,1043.67 873.833,1050.33 884.5,1057C 894.167,1065.17 903.833,1073.33 913.5,1081.5C 905.827,1068.56 895.827,1057.06 883.5,1047C 879.719,1044.78 875.719,1043.11 871.5,1042C 869.044,1036.94 869.711,1032.27 873.5,1028C 883.488,1022.28 894.155,1018.45 905.5,1016.5C 927.546,1018.45 944.713,1028.78 957,1047.5C 961.543,1055.25 965.543,1063.25 969,1071.5C 974.075,1087.31 978.908,1103.14 983.5,1119C 989.809,1120.88 996.142,1120.88 1002.5,1119C 1029.16,1111.33 1055.16,1102 1080.5,1091C 1099.98,1080.76 1119.65,1070.76 1139.5,1061C 1159.29,1052.6 1178.96,1043.94 1198.5,1035C 1194.83,1032.5 1191.17,1030 1187.5,1027.5C 1174.46,1034.2 1163.62,1031.53 1155,1019.5C 1152.12,1015.58 1149.62,1011.42 1147.5,1007C 1140.93,1009.49 1134.6,1008.83 1128.5,1005C 1120.53,998.041 1114.53,989.707 1110.5,980C 1102.78,982.877 1096.28,981.044 1091,974.5C 1082.6,965.035 1077.43,954.035 1075.5,941.5C 1044.84,941.903 1016.18,934.569 989.5,919.5C 981.557,931.129 970.557,935.629 956.5,933C 943.65,930.246 932.984,923.912 924.5,914C 910.371,913.765 898.705,908.432 889.5,898C 872.856,900.676 860.856,894.343 853.5,879C 840.091,878.692 829.924,872.525 823,860.5C 815.393,863.004 808.56,861.338 802.5,855.5C 795.184,847.841 791.684,838.841 792,828.5C 782.388,823.957 777.888,816.29 778.5,805.5C 778.227,798.818 779.893,792.652 783.5,787C 779.214,780.658 778.381,773.824 781,766.5C 785.634,756.529 792.467,748.363 801.5,742C 796.292,734.852 796.459,727.685 802,720.5C 807.09,713.408 813.424,707.741 821,703.5C 819.014,697.424 819.681,691.757 823,686.5C 829.807,679.355 837.473,673.355 846,668.5C 845.172,661.484 846.505,654.817 850,648.5C 852.833,645 855.667,641.5 858.5,638C 864.415,633.791 870.582,629.958 877,626.5C 876.228,619.895 877.562,613.561 881,607.5C 886.01,601.324 891.51,595.657 897.5,590.5C 889.458,579.729 887.958,568.396 893,556.5C 895.452,551.093 898.286,545.926 901.5,541C 893.495,530.285 892.328,518.785 898,506.5C 900.12,501.758 902.62,497.258 905.5,493C 899.917,490.245 896.917,485.745 896.5,479.5C 898.028,467.282 902.694,456.448 910.5,447C 904.885,441.25 903.052,434.417 905,426.5C 908.739,416.683 914.239,408.016 921.5,400.5C 914.921,395.593 913.088,389.259 916,381.5C 919.955,372.877 925.455,365.377 932.5,359C 928.248,353.757 927.415,347.924 930,341.5C 935.403,331.43 942.903,323.263 952.5,317C 949.268,309.832 949.768,302.665 954,295.5C 960.527,286.303 968.861,279.303 979,274.5C 976.116,266.509 977.45,259.176 983,252.5C 989.717,245.556 997.55,240.223 1006.5,236.5C 1004.61,229.672 1006.11,223.672 1011,218.5C 1021.04,209.233 1032.87,203.899 1046.5,202.5C 1046.76,198.56 1047.92,194.893 1050,191.5C 1062.29,178.347 1077.45,173.014 1095.5,175.5C 1098.65,160.154 1108.15,153.154 1124,154.5C 1131,154.401 1137.84,155.401 1144.5,157.5C 1150.83,147.589 1159.66,142.923 1171,143.5C 1178.81,144.38 1186.31,146.38 1193.5,149.5C 1196.77,142.699 1202.1,138.532 1209.5,137C 1221.37,136.3 1232.7,138.467 1243.5,143.5C 1253.06,135.593 1264.06,132.426 1276.5,134C 1279.9,134.578 1283.07,135.745 1286,137.5C 1292.87,133.714 1300.04,131.047 1307.5,129.5 Z M 2022.5,978.5 C 2021.24,978.96 2020.07,980.293 2019,982.5C 2017.9,988.863 2014.73,995.03 2009.5,1001C 1997.99,1012.17 1984.65,1020.5 1969.5,1026C 1932.79,1024.85 1895.79,1024.51 1858.5,1025C 1837.17,1026.13 1816.34,1029.97 1796,1036.5C 1795.17,1036.33 1794.33,1036.17 1793.5,1036C 1777.75,1018.92 1760.75,1003.25 1742.5,989C 1713.16,970.167 1681.49,956.5 1647.5,948C 1633.16,944.999 1618.83,941.999 1604.5,939C 1596.48,938.144 1588.48,937.311 1580.5,936.5C 1561.37,936.423 1542.37,936.589 1523.5,937C 1531.15,930.204 1535.48,921.704 1536.5,911.5C 1547.32,908.964 1554.48,902.297 1558,891.5C 1559.65,886.246 1560.98,880.913 1562,875.5C 1564.92,874.813 1567.75,873.813 1570.5,872.5C 1580.49,861.864 1585.16,849.197 1584.5,834.5C 1591.47,833.469 1596.97,830.135 1601,824.5C 1603.9,816.42 1605.74,808.087 1606.5,799.5C 1616.16,793.166 1620.16,784.166 1618.5,772.5C 1618.47,768.448 1618.14,764.448 1617.5,760.5C 1620.52,757.651 1623.35,754.651 1626,751.5C 1630.44,739.183 1629.94,727.016 1624.5,715C 1629.85,711.977 1633.35,707.477 1635,701.5C 1636.26,690.236 1635.1,679.236 1631.5,668.5C 1634.32,664.205 1637.15,659.872 1640,655.5C 1641.55,642.634 1639.38,630.467 1633.5,619C 1641.58,612.175 1643.74,603.675 1640,593.5C 1637.99,587.297 1635.49,581.297 1632.5,575.5C 1641.23,567.444 1642.73,558.11 1637,547.5C 1634.56,542.733 1631.73,538.233 1628.5,534C 1630,532.5 1631.5,531 1633,529.5C 1642.88,530.643 1652.38,528.809 1661.5,524C 1665.42,520.754 1668.58,516.921 1671,512.5C 1679.96,514.123 1688.79,513.623 1697.5,511C 1703.3,507.52 1707.3,502.52 1709.5,496C 1725.94,495.294 1737.94,487.794 1745.5,473.5C 1752.86,471.628 1760.19,469.628 1767.5,467.5C 1767.83,467.833 1768.17,468.167 1768.5,468.5C 1767.23,471.796 1766.07,475.129 1765,478.5C 1760.29,503.325 1759.29,528.325 1762,553.5C 1766.95,580.369 1776.62,605.369 1791,628.5C 1799.03,641.216 1808.03,653.216 1818,664.5C 1851.05,694.558 1885.55,722.725 1921.5,749C 1937.65,762.312 1953.65,775.812 1969.5,789.5C 1988.01,807.503 2004.85,826.836 2020,847.5C 2039.85,885.883 2042.85,925.55 2029,966.5C 2027.48,970.959 2025.31,974.959 2022.5,978.5 Z"/></g>
<g><path style="opacity:1" fill="#eeae42" d="M 1564.5,862.5 C 1563.83,859.5 1563.17,856.5 1562.5,853.5C 1559.12,849.522 1555.62,849.522 1552,853.5C 1552.49,867.033 1550.16,880.033 1545,892.5C 1540.08,901.12 1537.75,900.453 1538,890.5C 1534.67,886.5 1531.33,886.5 1528,890.5C 1527.96,902.99 1524.96,914.657 1519,925.5C 1516.2,927.293 1513.7,929.46 1511.5,932C 1508.79,933.069 1506.13,934.236 1503.5,935.5C 1503.32,933.328 1503.16,930.995 1503,928.5C 1501.14,925.793 1498.64,924.959 1495.5,926C 1492.88,929.412 1490.38,932.912 1488,936.5C 1484.83,939 1481.67,941.5 1478.5,944C 1467.69,945.702 1457.02,948.036 1446.5,951C 1421.35,959.606 1396.35,968.606 1371.5,978C 1368.18,978.498 1364.85,978.665 1361.5,978.5C 1360.53,972.078 1357.2,967.245 1351.5,964C 1340.35,959.262 1328.68,956.929 1316.5,957C 1307.34,945.56 1295.51,941.393 1281,944.5C 1278.39,944.375 1276.06,945.042 1274,946.5C 1271.05,944.607 1267.88,943.107 1264.5,942C 1252.8,940.021 1241.8,941.855 1231.5,947.5C 1226.88,948.007 1222.55,947.174 1218.5,945C 1210.75,937.485 1204.75,928.818 1200.5,919C 1197.63,917.543 1194.63,917.21 1191.5,918C 1189.48,921.566 1186.81,922.232 1183.5,920C 1174.23,911.567 1168.73,901.067 1167,888.5C 1163.12,885.993 1159.12,885.993 1155,888.5C 1148.25,884.073 1143.25,878.073 1140,870.5C 1138.2,865.625 1136.86,860.625 1136,855.5C 1132.85,853.264 1129.35,851.764 1125.5,851C 1124.67,850.167 1123.83,849.333 1123,848.5C 1121.75,842.742 1120.58,837.075 1119.5,831.5C 1119.33,824.332 1117,817.999 1112.5,812.5C 1117.28,805.871 1117.78,798.871 1114,791.5C 1104.88,782.063 1093.72,776.729 1080.5,775.5C 1078.18,772.69 1077.01,769.356 1077,765.5C 1075.98,756.193 1075.32,746.86 1075,737.5C 1074.35,735.277 1072.85,734.11 1070.5,734C 1067.49,733.872 1064.49,733.872 1061.5,734C 1060.11,732.829 1059.27,731.329 1059,729.5C 1059.12,717.12 1059.79,704.787 1061,692.5C 1057.65,690.469 1054.15,690.136 1050.5,691.5C 1049.81,690.975 1049.31,690.308 1049,689.5C 1046.14,674.808 1047.64,660.641 1053.5,647C 1051.56,641.281 1047.73,639.447 1042,641.5C 1040.96,640.377 1040.29,639.044 1040,637.5C 1039.33,631.5 1039.33,625.5 1040,619.5C 1041.22,614.073 1042.72,608.74 1044.5,603.5C 1043.56,597.023 1040.06,594.357 1034,595.5C 1032.42,589.612 1032.09,583.612 1033,577.5C 1035.46,570.108 1038.29,562.941 1041.5,556C 1040.49,550.642 1037.15,548.475 1031.5,549.5C 1031.38,544.768 1031.88,540.102 1033,535.5C 1035.37,528.865 1038.2,522.532 1041.5,516.5C 1040.84,512.809 1038.51,510.976 1034.5,511C 1033.67,510.167 1032.83,509.333 1032,508.5C 1031.34,504.428 1031.68,500.428 1033,496.5C 1036.53,490.28 1039.36,483.78 1041.5,477C 1040.02,472.857 1037.19,470.023 1033,468.5C 1032.87,462.546 1034.2,456.88 1037,451.5C 1040.56,444.629 1044.06,437.796 1047.5,431C 1045.95,425.377 1042.28,422.544 1036.5,422.5C 1036.94,415.605 1039.11,409.272 1043,403.5C 1047.07,396.681 1052.07,390.681 1058,385.5C 1058.67,381.833 1058.67,378.167 1058,374.5C 1056.56,372.845 1054.72,372.178 1052.5,372.5C 1055.6,360.291 1061.77,349.957 1071,341.5C 1071.67,339.833 1071.67,338.167 1071,336.5C 1069.3,334.44 1068.14,332.107 1067.5,329.5C 1068.72,326.053 1070.22,322.72 1072,319.5C 1079.09,312.735 1086.42,306.401 1094,300.5C 1094.67,298.167 1094.67,295.833 1094,293.5C 1088.72,290.857 1088.05,287.19 1092,282.5C 1097.71,274.126 1105.21,267.96 1114.5,264C 1116.62,262.263 1117.46,260.096 1117,257.5C 1115.41,254.659 1113.58,251.993 1111.5,249.5C 1119.97,235.866 1131.97,227.032 1147.5,223C 1151.01,221.093 1152.18,218.26 1151,214.5C 1149.44,213.275 1148.27,211.775 1147.5,210C 1157.45,197.521 1170.45,190.521 1186.5,189C 1188.75,186.104 1189.08,182.937 1187.5,179.5C 1191.41,174.536 1196.41,171.036 1202.5,169C 1207.68,167.039 1213.01,165.706 1218.5,165C 1224.3,158.45 1231.63,155.284 1240.5,155.5C 1246.73,156.728 1251.73,154.562 1255.5,149C 1262.44,145.603 1269.77,144.603 1277.5,146C 1281.48,148.436 1285.82,149.102 1290.5,148C 1303.05,139.468 1315.38,139.468 1327.5,148C 1330.8,150.295 1333.8,152.962 1336.5,156C 1344.45,155.084 1352.45,154.251 1360.5,153.5C 1375.84,152.831 1386.17,159.665 1391.5,174C 1392.83,174.667 1394.17,175.333 1395.5,176C 1407.58,174.894 1418.91,177.227 1429.5,183C 1433.03,185.026 1435.69,187.859 1437.5,191.5C 1432.15,193.914 1431.15,197.581 1434.5,202.5C 1447.65,202.47 1459.98,205.636 1471.5,212C 1473.5,214 1475.5,216 1477.5,218C 1474.77,218.21 1472.27,219.044 1470,220.5C 1469.24,222.809 1469.74,224.809 1471.5,226.5C 1480.95,229.361 1490.28,232.528 1499.5,236C 1504.32,239.817 1507.99,244.484 1510.5,250C 1510.33,250.5 1510.17,251 1510,251.5C 1503.31,249.871 1500.97,252.537 1503,259.5C 1515.11,263.889 1525.78,270.555 1535,279.5C 1536.17,281.833 1537.33,284.167 1538.5,286.5C 1533.31,287.343 1531.48,290.343 1533,295.5C 1537.93,298.714 1543.09,301.548 1548.5,304C 1555.1,308.594 1560.26,314.427 1564,321.5C 1565.15,323.754 1565.48,326.087 1565,328.5C 1561.94,328.763 1558.77,328.93 1555.5,329C 1553.56,331.153 1553.06,333.653 1554,336.5C 1561.29,342.126 1568.29,348.126 1575,354.5C 1578.74,358.82 1581.58,363.653 1583.5,369C 1583.53,371.64 1582.19,372.973 1579.5,373C 1576.19,372.785 1572.86,372.785 1569.5,373C 1567.56,375.153 1567.06,377.653 1568,380.5C 1574.72,384.446 1581.55,388.279 1588.5,392C 1598.07,399.974 1602.57,410.141 1602,422.5C 1598.85,424.736 1595.35,426.236 1591.5,427C 1588.83,429.667 1588.83,432.333 1591.5,435C 1603.59,441.754 1612.09,451.587 1617,464.5C 1617.85,468.625 1617.52,472.625 1616,476.5C 1614.03,479.118 1612.19,478.952 1610.5,476C 1603.26,474.902 1600.76,477.735 1603,484.5C 1615.48,494.121 1622.14,506.788 1623,522.5C 1621.98,523.687 1620.81,524.687 1619.5,525.5C 1614.49,520.934 1610.82,521.767 1608.5,528C 1608.67,528.833 1608.83,529.667 1609,530.5C 1617.6,537.103 1623.94,545.436 1628,555.5C 1628.78,558.429 1628.61,561.263 1627.5,564C 1624.29,563.083 1620.95,562.75 1617.5,563C 1615.85,564.47 1614.85,566.303 1614.5,568.5C 1622.21,578.254 1627.54,589.254 1630.5,601.5C 1629.63,604.066 1628.63,606.566 1627.5,609C 1624.54,608.68 1621.54,608.68 1618.5,609C 1615.42,613.659 1616.25,617.492 1621,620.5C 1629.54,632.319 1630.71,644.652 1624.5,657.5C 1619.46,653.01 1615.8,654.01 1613.5,660.5C 1616.82,665.138 1619.66,670.138 1622,675.5C 1624.1,682.714 1624.77,690.047 1624,697.5C 1621.64,705.013 1618.64,705.346 1615,698.5C 1609.9,695.093 1606.73,696.426 1605.5,702.5C 1609.76,709.355 1613.26,716.688 1616,724.5C 1617.38,730.109 1617.72,735.775 1617,741.5C 1616.44,744.29 1615.11,746.623 1613,748.5C 1612,743.243 1608.83,741.409 1603.5,743C 1601.65,745.579 1601.15,748.412 1602,751.5C 1607.09,760.531 1608.76,770.198 1607,780.5C 1606.48,783.251 1605.32,785.584 1603.5,787.5C 1602.48,784.258 1600.81,781.425 1598.5,779C 1595.65,778.056 1593.15,778.556 1591,780.5C 1592.4,787.123 1593.23,793.956 1593.5,801C 1593.45,806.213 1592.95,811.38 1592,816.5C 1590.27,819.893 1587.61,822.226 1584,823.5C 1583.33,814.198 1579.33,812.198 1572,817.5C 1574.22,829.59 1573.55,841.59 1570,853.5C 1568.16,856.528 1566.32,859.528 1564.5,862.5 Z"/></g>
<g><path style="opacity:1" fill="#cfa152" d="M 1240.5,155.5 C 1231.63,155.284 1224.3,158.45 1218.5,165C 1213.01,165.706 1207.68,167.039 1202.5,169C 1196.41,171.036 1191.41,174.536 1187.5,179.5C 1189.08,182.937 1188.75,186.104 1186.5,189C 1170.45,190.521 1157.45,197.521 1147.5,210C 1148.27,211.775 1149.44,213.275 1151,214.5C 1152.18,218.26 1151.01,221.093 1147.5,223C 1131.97,227.032 1119.97,235.866 1111.5,249.5C 1113.58,251.993 1115.41,254.659 1117,257.5C 1117.46,260.096 1116.62,262.263 1114.5,264C 1105.21,267.96 1097.71,274.126 1092,282.5C 1088.05,287.19 1088.72,290.857 1094,293.5C 1094.67,295.833 1094.67,298.167 1094,300.5C 1086.42,306.401 1079.09,312.735 1072,319.5C 1070.22,322.72 1068.72,326.053 1067.5,329.5C 1068.14,332.107 1069.3,334.44 1071,336.5C 1071.67,338.167 1071.67,339.833 1071,341.5C 1061.77,349.957 1055.6,360.291 1052.5,372.5C 1054.72,372.178 1056.56,372.845 1058,374.5C 1058.67,378.167 1058.67,381.833 1058,385.5C 1052.07,390.681 1047.07,396.681 1043,403.5C 1039.11,409.272 1036.94,415.605 1036.5,422.5C 1042.28,422.544 1045.95,425.377 1047.5,431C 1044.06,437.796 1040.56,444.629 1037,451.5C 1034.2,456.88 1032.87,462.546 1033,468.5C 1037.19,470.023 1040.02,472.857 1041.5,477C 1039.36,483.78 1036.53,490.28 1033,496.5C 1031.68,500.428 1031.34,504.428 1032,508.5C 1032.83,509.333 1033.67,510.167 1034.5,511C 1038.51,510.976 1040.84,512.809 1041.5,516.5C 1038.2,522.532 1035.37,528.865 1033,535.5C 1031.88,540.102 1031.38,544.768 1031.5,549.5C 1037.15,548.475 1040.49,550.642 1041.5,556C 1038.29,562.941 1035.46,570.108 1033,577.5C 1032.09,583.612 1032.42,589.612 1034,595.5C 1040.06,594.357 1043.56,597.023 1044.5,603.5C 1042.72,608.74 1041.22,614.073 1040,619.5C 1039.33,625.5 1039.33,631.5 1040,637.5C 1040.29,639.044 1040.96,640.377 1042,641.5C 1047.73,639.447 1051.56,641.281 1053.5,647C 1047.64,660.641 1046.14,674.808 1049,689.5C 1049.31,690.308 1049.81,690.975 1050.5,691.5C 1054.15,690.136 1057.65,690.469 1061,692.5C 1059.79,704.787 1059.12,717.12 1059,729.5C 1059.27,731.329 1060.11,732.829 1061.5,734C 1064.49,733.872 1067.49,733.872 1070.5,734C 1072.85,734.11 1074.35,735.277 1075,737.5C 1075.32,746.86 1075.98,756.193 1077,765.5C 1077.01,769.356 1078.18,772.69 1080.5,775.5C 1050.75,775.187 1023.08,782.521 997.5,797.5C 992.744,798.522 988.078,799.856 983.5,801.5C 980.625,798.28 977.625,795.113 974.5,792C 964.895,787.932 954.895,785.432 944.5,784.5C 943.095,780.615 942.095,776.615 941.5,772.5C 953.052,771.125 960.552,764.792 964,753.5C 965.056,747.105 966.39,740.772 968,734.5C 976.978,734.512 983.978,730.845 989,723.5C 994.74,713.61 998.907,703.11 1001.5,692C 999.762,686.286 996.429,685.119 991.5,688.5C 994.745,679.256 997.079,669.756 998.5,660C 999.645,650.681 995.978,644.347 987.5,641C 985.951,639.786 984.785,638.286 984,636.5C 985.243,631.357 985.576,626.023 985,620.5C 979.081,613.743 971.581,610.243 962.5,610C 958.139,606.371 957.473,602.205 960.5,597.5C 957.654,589.059 951.654,585.059 942.5,585.5C 937.645,585.675 932.979,586.675 928.5,588.5C 929.413,585.459 928.413,582.959 925.5,581C 918.877,581.768 912.21,582.101 905.5,582C 901.809,577.827 900.642,572.993 902,567.5C 905.683,554.789 912.35,543.789 922,534.5C 923.5,528 921,525.5 914.5,527C 913,528.5 911.5,530 910,531.5C 906.369,528.244 905.036,524.244 906,519.5C 908.48,508.202 913.813,498.535 922,490.5C 925.563,483.229 923.396,480.062 915.5,481C 913.875,483.82 911.875,484.153 909.5,482C 908.205,478.158 908.372,474.325 910,470.5C 914.416,460.657 920.083,451.657 927,443.5C 927.852,435.426 924.685,433.426 917.5,437.5C 915.066,434.018 914.899,430.351 917,426.5C 919,423.167 921,419.833 923,416.5C 928.69,409.812 934.69,403.478 941,397.5C 941.812,390.999 938.979,388.832 932.5,391C 930.273,392.835 928.44,392.335 927,389.5C 926.333,388.167 926.333,386.833 927,385.5C 932.394,374.106 940.56,365.273 951.5,359C 954.579,352.063 952.246,349.063 944.5,350C 942.53,351.871 940.863,351.538 939.5,349C 942.319,342.512 946.319,336.845 951.5,332C 958.246,326.875 965.412,322.375 973,318.5C 973.944,315.653 973.444,313.153 971.5,311C 968.132,310.457 964.799,310.624 961.5,311.5C 962.307,303.494 965.973,296.994 972.5,292C 980.296,286.742 988.463,282.242 997,278.5C 998.771,273.279 996.938,270.445 991.5,270C 990.101,268.938 989.101,267.605 988.5,266C 990.71,260.455 994.377,256.121 999.5,253C 1008.55,248.305 1017.88,244.472 1027.5,241.5C 1029.47,232.82 1026.13,230.153 1017.5,233.5C 1017.07,230.138 1018.07,227.305 1020.5,225C 1033.83,215.062 1048.83,211.062 1065.5,213C 1067.65,210.445 1067.98,207.612 1066.5,204.5C 1063.71,203.044 1060.71,202.044 1057.5,201.5C 1062.85,193.149 1070.52,188.316 1080.5,187C 1091.21,186.811 1101.88,186.311 1112.5,185.5C 1116.37,179.269 1114.7,175.936 1107.5,175.5C 1108.24,170.263 1111.24,167.096 1116.5,166C 1128.46,165.382 1140.13,167.049 1151.5,171C 1157.08,172.928 1160.42,171.094 1161.5,165.5C 1160.73,162.896 1159.06,161.062 1156.5,160C 1158.16,158.171 1160.16,156.837 1162.5,156C 1175.83,154.748 1188.16,157.748 1199.5,165C 1204.46,166.69 1207.46,165.023 1208.5,160C 1207.98,157.478 1206.65,155.478 1204.5,154C 1205.44,152.056 1206.77,150.389 1208.5,149C 1220.01,147.535 1230.68,149.702 1240.5,155.5 Z"/></g>
<g><path style="opacity:1" fill="#fbfbfb" d="M 1988.5,250.5 C 1992.39,250.354 1996.05,249.687 1999.5,248.5C 2009.8,247.406 2020.13,247.24 2030.5,248C 2035.31,248.466 2037.48,250.966 2037,255.5C 2033.94,260.14 2030.11,263.973 2025.5,267C 2008.66,273.913 1991.66,280.58 1974.5,287C 1969.47,294.173 1971.47,297.34 1980.5,296.5C 1981.5,296.5 1982.5,296.5 1983.5,296.5C 1983.5,301.5 1983.5,306.5 1983.5,311.5C 1983.09,316.818 1981.59,321.818 1979,326.5C 1974.67,332.167 1969.67,337.167 1964,341.5C 1963.19,348.001 1966.02,350.168 1972.5,348C 1981.27,341.234 1987.77,332.734 1992,322.5C 1993.93,327.294 1996.76,331.461 2000.5,335C 1995.86,337.651 1993.86,341.651 1994.5,347C 1994.49,350.258 1994.99,353.425 1996,356.5C 1998.08,358.076 1999.58,360.076 2000.5,362.5C 1985.17,373.066 1968.51,376.233 1950.5,372C 1949.1,366.921 1946.43,362.588 1942.5,359C 1941.55,358.517 1940.55,358.351 1939.5,358.5C 1939.88,351.411 1939.38,344.411 1938,337.5C 1934.76,330.755 1929.6,326.422 1922.5,324.5C 1924.71,313.42 1923.55,302.754 1919,292.5C 1917.14,289.642 1914.97,287.142 1912.5,285C 1912.93,280.609 1914.1,276.443 1916,272.5C 1921.8,265.698 1927.97,259.198 1934.5,253C 1949.83,240.333 1965.17,227.667 1980.5,215C 2003.43,200.86 2026.76,187.194 2050.5,174C 2058.27,171.408 2065.94,168.408 2073.5,165C 2078.1,163.878 2082.77,163.378 2087.5,163.5C 2087.79,166.649 2087.29,169.649 2086,172.5C 2071.94,188.897 2055.78,202.73 2037.5,214C 2032.94,217.445 2027.94,220.112 2022.5,222C 2018.17,224.664 2017.5,227.997 2020.5,232C 2033.66,229.826 2045.66,232.826 2056.5,241C 2067.42,251.717 2068.92,263.551 2061,276.5C 2055.41,284.09 2048.58,290.256 2040.5,295C 2029.59,299.849 2018.92,299.516 2008.5,294C 2007,291.379 2006.67,288.712 2007.5,286C 2021.63,282.024 2033.8,274.858 2044,264.5C 2052.23,251.693 2049.06,242.859 2034.5,238C 2031.32,237.593 2028.15,237.093 2025,236.5C 2001.92,236.281 1979.42,239.781 1957.5,247C 1953.9,248.334 1952.73,250.834 1954,254.5C 1955.12,256.124 1956.62,257.124 1958.5,257.5C 1968.21,253.906 1978.21,251.572 1988.5,250.5 Z"/></g>
<g><path style="opacity:1" fill="#050302" d="M 1463.5,314.5 C 1463.41,317.152 1464.08,319.485 1465.5,321.5C 1469.54,346.922 1459.88,364.755 1436.5,375C 1429.87,376.052 1423.21,376.552 1416.5,376.5C 1415.9,382.978 1413.9,388.978 1410.5,394.5C 1443.13,395.903 1469.97,408.903 1491,433.5C 1504.9,454.376 1514.4,477.042 1519.5,501.5C 1517.5,514.314 1510.83,517.481 1499.5,511C 1489.53,494.23 1478.7,478.064 1467,462.5C 1460.48,455.829 1453.31,449.995 1445.5,445C 1408.95,438.556 1372.95,440.556 1337.5,451C 1322.01,455.495 1307.01,461.161 1292.5,468C 1274.84,477.83 1257.5,488.163 1240.5,499C 1218.26,515.237 1196.59,532.237 1175.5,550C 1167.71,554.354 1159.38,556.021 1150.5,555C 1145.54,553.062 1143.71,549.562 1145,544.5C 1146.23,540.941 1147.89,537.608 1150,534.5C 1181.49,493.342 1218.99,458.842 1262.5,431C 1287.41,416.14 1314.08,405.807 1342.5,400C 1335.95,389.682 1331.29,378.515 1328.5,366.5C 1320.18,378.145 1308.85,384.145 1294.5,384.5C 1289.46,384.587 1284.46,384.254 1279.5,383.5C 1258.28,377.449 1244.45,363.783 1238,342.5C 1237.36,334.086 1237.86,325.753 1239.5,317.5C 1223.37,317.187 1207.37,315.687 1191.5,313C 1184.14,306.125 1185.14,300.792 1194.5,297C 1207.48,295.514 1220.48,294.181 1233.5,293C 1223.12,289.874 1212.79,286.54 1202.5,283C 1197.6,276.242 1198.94,270.909 1206.5,267C 1214.17,266.333 1221.83,266.333 1229.5,267C 1246.46,269.764 1263.13,273.764 1279.5,279C 1296.1,285.533 1312.77,291.866 1329.5,298C 1334.42,300.993 1336.09,305.16 1334.5,310.5C 1335.35,311.845 1336.51,312.845 1338,313.5C 1341,309.913 1344.84,307.746 1349.5,307C 1357.31,305.981 1364.97,306.481 1372.5,308.5C 1373.38,303.627 1374.88,298.961 1377,294.5C 1399.32,273.178 1424.16,255.344 1451.5,241C 1457.77,238.028 1462.93,239.194 1467,244.5C 1467.58,247.257 1467.25,249.923 1466,252.5C 1461.37,258.135 1456.37,263.468 1451,268.5C 1450.33,269.167 1450.33,269.833 1451,270.5C 1463.17,264.924 1475.67,263.757 1488.5,267C 1490.52,270.183 1491.02,273.683 1490,277.5C 1487.8,280.04 1485.3,282.207 1482.5,284C 1471.78,287.292 1461.45,291.459 1451.5,296.5C 1456.51,301.869 1460.51,307.869 1463.5,314.5 Z"/></g>
<g><path style="opacity:1" fill="#8d8d8d" d="M 1999.5,248.5 C 1996.05,249.687 1992.39,250.354 1988.5,250.5C 1991.84,248.783 1995.51,248.116 1999.5,248.5 Z"/></g>
<g><path style="opacity:1" fill="#cfa152" d="M 1891.5,269.5 C 1901.26,268.597 1904.93,272.931 1902.5,282.5C 1897.87,281.7 1894.04,283.034 1891,286.5C 1889.73,290.731 1891.23,293.398 1895.5,294.5C 1904.58,291.795 1910.08,295.129 1912,304.5C 1912.17,306.5 1912.33,308.5 1912.5,310.5C 1911.72,316.903 1910.88,323.236 1910,329.5C 1910.83,330.333 1911.67,331.167 1912.5,332C 1926.03,334.219 1931.2,342.052 1928,355.5C 1926.94,358.618 1925.61,361.618 1924,364.5C 1923.35,368.693 1925.18,371.026 1929.5,371.5C 1932.28,370.799 1934.62,369.632 1936.5,368C 1941.52,375.866 1939.86,381.866 1931.5,386C 1920.01,392.784 1908.35,393.118 1896.5,387C 1881.63,385.973 1866.97,387.14 1852.5,390.5C 1851.43,378.544 1848.93,366.878 1845,355.5C 1842.79,352.71 1839.96,351.877 1836.5,353C 1835.06,354.126 1834.39,355.626 1834.5,357.5C 1838.45,369.535 1840.78,381.868 1841.5,394.5C 1837.06,396.072 1832.73,397.572 1828.5,399C 1824.26,392.092 1819.26,385.759 1813.5,380C 1807.24,377.588 1804.41,379.755 1805,386.5C 1810.03,392.691 1814.86,399.024 1819.5,405.5C 1802.06,418.576 1787.72,434.409 1776.5,453C 1770.74,454.253 1765.07,455.92 1759.5,458C 1749.6,460.318 1739.6,461.985 1729.5,463C 1725.18,467.562 1725.84,471.395 1731.5,474.5C 1725.57,480.627 1718.23,483.793 1709.5,484C 1703.48,484.33 1697.48,484.33 1691.5,484C 1687.63,487.249 1687.63,490.582 1691.5,494C 1693.13,494.494 1694.8,494.66 1696.5,494.5C 1695.68,498.817 1693.01,501.317 1688.5,502C 1678.96,502.966 1669.63,501.966 1660.5,499C 1653.03,496.492 1649.86,498.992 1651,506.5C 1652.51,508.919 1654.68,509.919 1657.5,509.5C 1656.68,513.817 1654.01,516.317 1649.5,517C 1644.52,517.748 1639.52,518.248 1634.5,518.5C 1632.98,506.755 1628.65,496.255 1621.5,487C 1628.09,480.095 1630.26,471.928 1628,462.5C 1623.74,450.738 1616.9,440.738 1607.5,432.5C 1612.85,427.279 1614.68,420.946 1613,413.5C 1612.61,410.373 1611.77,407.373 1610.5,404.5C 1615.62,393.424 1623.95,385.758 1635.5,381.5C 1636.55,381.68 1637.55,382.013 1638.5,382.5C 1642.83,391.811 1647.33,391.811 1652,382.5C 1659.64,373.933 1669.14,368.933 1680.5,367.5C 1680.32,373.82 1683.32,376.32 1689.5,375C 1695.35,366.307 1701.68,357.974 1708.5,350C 1714.16,345.502 1720.49,344.002 1727.5,345.5C 1725.91,349.262 1726.24,352.762 1728.5,356C 1730.5,356.667 1732.5,356.667 1734.5,356C 1739.24,345.914 1746.24,337.581 1755.5,331C 1759.39,327.97 1763.72,326.97 1768.5,328C 1775.07,336.086 1780.24,335.253 1784,325.5C 1790.69,317.916 1798.85,313.083 1808.5,311C 1806.99,314.429 1807.65,317.429 1810.5,320C 1812.92,320.687 1815.09,320.187 1817,318.5C 1823.11,304.724 1832.94,294.558 1846.5,288C 1848.81,287.338 1851.15,286.838 1853.5,286.5C 1853.64,291.813 1856.31,293.979 1861.5,293C 1870.28,283.367 1880.28,275.533 1891.5,269.5 Z"/></g>
<g><path style="opacity:1" fill="#f9f9f9" d="M 2061.5,291.5 C 2062.82,291.33 2063.99,291.663 2065,292.5C 2067.92,304.841 2064.42,315.007 2054.5,323C 2046.87,328.567 2038.37,331.734 2029,332.5C 2022.77,331.76 2016.61,330.593 2010.5,329C 2001.24,322.363 1998.57,313.863 2002.5,303.5C 2017.52,311.463 2032.52,311.297 2047.5,303C 2052.65,299.68 2057.31,295.847 2061.5,291.5 Z"/></g>
<g><path style="opacity:1" fill="#fafafa" d="M 1407.5,311.5 C 1408.5,311.5 1409.5,311.5 1410.5,311.5C 1410.2,314.059 1410.53,316.393 1411.5,318.5C 1412.4,327.23 1417.23,331.563 1426,331.5C 1436.7,329.809 1441.37,323.476 1440,312.5C 1438.58,308.655 1436.41,305.322 1433.5,302.5C 1434.35,301.009 1435.68,300.342 1437.5,300.5C 1446.4,305.253 1452.23,312.586 1455,322.5C 1457.32,339.546 1451.49,353.046 1437.5,363C 1430.6,364.6 1423.6,365.433 1416.5,365.5C 1414.34,352.188 1409.18,340.188 1401,329.5C 1397.62,325.956 1394.12,322.623 1390.5,319.5C 1396.06,316.553 1401.73,313.887 1407.5,311.5 Z"/></g>
<g><path style="opacity:1" fill="#acacac" d="M 1980.5,296.5 C 1981.57,295.566 1982.9,295.232 1984.5,295.5C 1984.82,301.026 1984.49,306.36 1983.5,311.5C 1983.5,306.5 1983.5,301.5 1983.5,296.5C 1982.5,296.5 1981.5,296.5 1980.5,296.5 Z"/></g>
<g><path style="opacity:1" fill="#9a9a9a" d="M 1407.5,311.5 C 1408.57,310.566 1409.9,310.232 1411.5,310.5C 1411.5,313.167 1411.5,315.833 1411.5,318.5C 1410.53,316.393 1410.2,314.059 1410.5,311.5C 1409.5,311.5 1408.5,311.5 1407.5,311.5 Z"/></g>
<g><path style="opacity:1" fill="#fafafa" d="M 1251.5,316.5 C 1262.17,316.333 1272.84,316.5 1283.5,317C 1286.55,317.179 1289.55,317.679 1292.5,318.5C 1287.82,329.626 1290.49,338.459 1300.5,345C 1312.94,346.895 1319.94,341.562 1321.5,329C 1321.5,325.349 1320.5,322.016 1318.5,319C 1321.55,318.179 1324.55,318.345 1327.5,319.5C 1330.3,337.82 1325.3,353.653 1312.5,367C 1292.19,378.805 1274.03,375.972 1258,358.5C 1254.75,352.992 1251.75,347.325 1249,341.5C 1247.96,332.887 1248.79,324.553 1251.5,316.5 Z"/></g>
<g><path style="opacity:1" fill="#e596b9" d="M 1349.5,317.5 C 1366.96,317.153 1381.12,323.82 1392,337.5C 1406.54,353.78 1409.21,371.78 1400,391.5C 1389.26,402.851 1376.43,406.018 1361.5,401C 1358.73,399.533 1356.23,397.7 1354,395.5C 1341.14,379.439 1336.48,361.106 1340,340.5C 1340.21,336.082 1340.87,331.749 1342,327.5C 1344.27,323.958 1346.77,320.625 1349.5,317.5 Z"/></g>
<g><path style="opacity:1" fill="#563f18" d="M 1463.5,314.5 C 1464.92,316.515 1465.59,318.848 1465.5,321.5C 1464.08,319.485 1463.41,317.152 1463.5,314.5 Z"/></g>
<g><path style="opacity:1" fill="#f8f8f8" d="M 2031.5,361.5 C 2027.14,361.414 2022.81,361.08 2018.5,360.5C 2009.82,360.327 2005.16,355.827 2004.5,347C 2004.44,345.289 2005.11,343.956 2006.5,343C 2009.04,341.953 2011.71,341.453 2014.5,341.5C 2025.28,343.16 2035.94,342.66 2046.5,340C 2051.84,337.333 2056.84,334.166 2061.5,330.5C 2063.87,331.55 2064.87,333.383 2064.5,336C 2062.92,343.584 2058.92,349.584 2052.5,354C 2046.11,358.187 2039.11,360.687 2031.5,361.5 Z"/></g>
<g><path style="opacity:1" fill="#959595" d="M 2018.5,360.5 C 2022.81,361.08 2027.14,361.414 2031.5,361.5C 2027.07,362.861 2022.74,362.527 2018.5,360.5 Z"/></g>
<g><path style="opacity:1" fill="#483515" d="M 1279.5,383.5 C 1284.46,384.254 1289.46,384.587 1294.5,384.5C 1292.7,385.162 1290.7,385.495 1288.5,385.5C 1285.19,385.657 1282.19,384.991 1279.5,383.5 Z"/></g>
<g><path style="opacity:1" fill="#ad85fd" d="M 2020.5,517.5 C 2026.17,518.167 2031.83,518.833 2037.5,519.5C 1987.86,528.322 1941.19,545.156 1897.5,570C 1888.55,577.863 1885.38,587.696 1888,599.5C 1889.06,602.618 1890.39,605.618 1892,608.5C 1899.47,616.97 1907.3,625.137 1915.5,633C 1963.35,667.85 2010.35,703.85 2056.5,741C 2073.37,757.873 2089.54,775.373 2105,793.5C 2117.9,809.965 2128.24,827.965 2136,847.5C 2142.77,869.699 2145.61,892.366 2144.5,915.5C 2142.47,911.304 2139.8,907.47 2136.5,904C 2128.91,900.185 2122.41,901.685 2117,908.5C 2114.47,912.221 2112.47,916.221 2111,920.5C 2109.67,911.853 2106.67,903.853 2102,896.5C 2093.26,888.197 2084.93,888.53 2077,897.5C 2073.82,903.527 2071.49,909.86 2070,916.5C 2066.97,904.633 2059.47,897.967 2047.5,896.5C 2044.56,870.176 2035.06,846.509 2019,825.5C 2011.29,817.463 2003.96,809.13 1997,800.5C 1985.05,787.88 1972.55,776.046 1959.5,765C 1913.88,731.061 1869.72,695.228 1827,657.5C 1802.36,629.57 1785.03,597.57 1775,561.5C 1767.63,526.677 1770.96,493.01 1785,460.5C 1795.39,443.544 1808.23,428.711 1823.5,416C 1845.49,402.133 1869.49,396.133 1895.5,398C 1909.63,402.317 1921.8,409.817 1932,420.5C 1940.45,431.291 1943.28,443.458 1940.5,457C 1940.93,462.089 1943.59,463.756 1948.5,462C 1949.33,461.167 1950.17,460.333 1951,459.5C 1951.5,454.177 1951.67,448.844 1951.5,443.5C 1966.56,451.695 1982.23,458.861 1998.5,465C 2032.69,475.048 2066.69,485.715 2100.5,497C 2101.5,497.5 2102.5,498 2103.5,498.5C 2104.26,501.157 2104.93,503.823 2105.5,506.5C 2099.77,509.548 2093.6,510.881 2087,510.5C 2069.8,509.721 2052.64,508.554 2035.5,507C 2018.33,506.358 2001.16,506.525 1984,507.5C 1978.68,507.714 1973.51,507.047 1968.5,505.5C 1944.04,508.533 1919.7,512.367 1895.5,517C 1886.43,519.35 1877.93,522.85 1870,527.5C 1868.68,534.505 1871.51,537.005 1878.5,535C 1894.72,527.885 1911.72,523.552 1929.5,522C 1959.77,519.199 1990.1,517.699 2020.5,517.5 Z"/></g>
<g><path style="opacity:1" fill="#c13e81" d="M 1400.5,406.5 C 1445.57,404.275 1477.4,423.608 1496,464.5C 1502.07,476.225 1506.24,488.558 1508.5,501.5C 1508.17,501.833 1507.83,502.167 1507.5,502.5C 1497.42,486.018 1486.59,470.018 1475,454.5C 1466.29,445.231 1456.12,438.065 1444.5,433C 1420.2,430.131 1395.87,429.798 1371.5,432C 1344.01,437.164 1317.34,445.164 1291.5,456C 1272.5,466.496 1253.84,477.496 1235.5,489C 1212.55,506.285 1189.88,523.951 1167.5,542C 1165.04,542.981 1162.54,543.815 1160,544.5C 1159.17,544.167 1158.33,543.833 1157.5,543.5C 1161.42,537.326 1165.59,531.326 1170,525.5C 1184.11,512.721 1197.61,499.221 1210.5,485C 1223.12,474.392 1235.78,463.726 1248.5,453C 1276.66,433.158 1307.66,419.491 1341.5,412C 1354.22,412.017 1366.89,412.684 1379.5,414C 1386.17,413.416 1392.5,411.75 1398.5,409C 1399.38,408.292 1400.05,407.458 1400.5,406.5 Z"/></g>
<g><path style="opacity:1" fill="#050406" d="M 1904.5,420.5 C 1920.15,420.966 1929.65,428.966 1933,444.5C 1933.82,450.902 1933.48,457.235 1932,463.5C 1926.72,480.055 1915.89,491.222 1899.5,497C 1879.57,498.729 1868.9,489.729 1867.5,470C 1868.74,452.849 1876.08,438.849 1889.5,428C 1894.35,425.007 1899.35,422.507 1904.5,420.5 Z"/></g>
<g><path style="opacity:1" fill="#fbfbfb" d="M 1906.5,431.5 C 1913.71,431.256 1918.04,434.589 1919.5,441.5C 1911.39,442.77 1906.22,447.437 1904,455.5C 1901,463.145 1900.83,470.811 1903.5,478.5C 1903.28,479.938 1902.78,481.271 1902,482.5C 1891.69,488.844 1884.02,486.511 1879,475.5C 1878.07,468.996 1878.74,462.662 1881,456.5C 1883.63,450.728 1887.13,445.561 1891.5,441C 1896.16,437.149 1901.16,433.982 1906.5,431.5 Z"/></g>
<g><path style="opacity:1" fill="#060409" d="M 1997.5,476.5 C 2006.22,478.683 2014.89,481.183 2023.5,484C 2026.52,486.264 2027.19,489.097 2025.5,492.5C 2024.31,493.84 2022.81,494.507 2021,494.5C 2012.71,492.405 2004.55,489.905 1996.5,487C 1993.65,483.107 1993.98,479.607 1997.5,476.5 Z"/></g>
<g><path style="opacity:1" fill="#745aab" d="M 2020.5,517.5 C 2026.54,517.171 2032.54,517.504 2038.5,518.5C 2038.38,519.107 2038.04,519.44 2037.5,519.5C 2031.83,518.833 2026.17,518.167 2020.5,517.5 Z"/></g>
<g><path style="opacity:1" fill="#fefefd" d="M 1494.5,751.5 C 1496.05,763.105 1496.72,774.771 1496.5,786.5C 1493.08,799.804 1485.74,810.638 1474.5,819C 1465.21,824.198 1455.88,829.198 1446.5,834C 1435.66,837.141 1424.66,839.641 1413.5,841.5C 1414.5,857.508 1415.5,873.508 1416.5,889.5C 1408.79,890.201 1401.12,891.201 1393.5,892.5C 1391.5,892.333 1389.5,892.167 1387.5,892C 1387,891.5 1386.5,891 1386,890.5C 1384.55,874.484 1383.05,858.484 1381.5,842.5C 1375.84,842.907 1370.17,843.24 1364.5,843.5C 1366.36,860.122 1367.7,876.789 1368.5,893.5C 1358.57,895.317 1348.57,896.151 1338.5,896C 1337.66,894.989 1337.33,893.822 1337.5,892.5C 1336.82,879.622 1335.48,866.955 1333.5,854.5C 1333.78,851.552 1333.44,848.719 1332.5,846C 1326.67,845.902 1321,846.402 1315.5,847.5C 1306.8,847.745 1298.14,848.412 1289.5,849.5C 1286.18,850.016 1284.02,848.683 1283,845.5C 1282.23,837.758 1281.06,830.091 1279.5,822.5C 1279.69,820.423 1280.19,818.423 1281,816.5C 1286.93,815.988 1292.76,814.821 1298.5,813C 1303.06,810.044 1305.73,805.877 1306.5,800.5C 1307.66,789.674 1307.83,778.674 1307,767.5C 1306.52,761.551 1305.35,755.884 1303.5,750.5C 1302.2,727.159 1300.7,703.826 1299,680.5C 1298.68,674.616 1297.85,668.949 1296.5,663.5C 1296.17,656.356 1295,649.356 1293,642.5C 1291.53,639.213 1289.37,636.546 1286.5,634.5C 1286.08,633.778 1285.42,633.278 1284.5,633C 1278.26,633.026 1272.26,632.193 1266.5,630.5C 1265.53,622.812 1264.53,614.979 1263.5,607C 1263.54,605.236 1263.88,603.569 1264.5,602C 1280.12,600.115 1295.78,598.949 1311.5,598.5C 1311.71,592.122 1311.37,585.789 1310.5,579.5C 1310.56,574.269 1309.89,569.269 1308.5,564.5C 1307.71,558.593 1307.71,552.759 1308.5,547C 1318.06,544.963 1327.73,544.296 1337.5,545C 1339.1,548.267 1339.93,551.767 1340,555.5C 1341.53,568.459 1342.36,581.459 1342.5,594.5C 1344.17,594.5 1345.83,594.5 1347.5,594.5C 1351.79,594.802 1355.79,594.136 1359.5,592.5C 1358.78,582.838 1358.11,573.171 1357.5,563.5C 1357.05,556.841 1356.71,550.174 1356.5,543.5C 1361.55,542.994 1366.55,542.161 1371.5,541C 1376.17,540.333 1380.83,540.333 1385.5,541C 1386,541.5 1386.5,542 1387,542.5C 1388.51,558.876 1390.34,575.21 1392.5,591.5C 1400.42,592.929 1408.42,593.762 1416.5,594C 1463.51,605.852 1480.01,635.018 1466,681.5C 1461,691.165 1454.5,699.665 1446.5,707C 1463.54,711.272 1477.37,720.439 1488,734.5C 1491.26,739.79 1493.43,745.457 1494.5,751.5 Z"/></g>
<g><path style="opacity:1" fill="#f5cb86" d="M 1356.5,543.5 C 1356.71,550.174 1357.05,556.841 1357.5,563.5C 1356,559.777 1355.34,555.777 1355.5,551.5C 1355.5,548.645 1355.84,545.978 1356.5,543.5 Z"/></g>
<g><path style="opacity:1" fill="#f8dbaa" d="M 1308.5,564.5 C 1309.89,569.269 1310.56,574.269 1310.5,579.5C 1308.97,574.75 1308.3,569.75 1308.5,564.5 Z"/></g>
<g><path style="opacity:1" fill="#edae41" d="M 991.5,688.5 C 988.514,700.303 983.514,711.136 976.5,721C 974.655,722.128 972.655,722.628 970.5,722.5C 971.501,716 968.835,713.5 962.5,715C 961.667,715.833 960.833,716.667 960,717.5C 958.121,729.35 955.454,741.017 952,752.5C 946.635,760.355 939.135,764.355 929.5,764.5C 918.937,762.358 908.27,762.025 897.5,763.5C 894.572,767.302 895.239,770.468 899.5,773C 906.833,773.333 914.167,773.667 921.5,774C 927.529,775.197 931.529,778.697 933.5,784.5C 926.424,785.518 924.758,789.018 928.5,795C 941.105,794.784 953.438,796.45 965.5,800C 974.335,805.418 975.835,812.584 970,821.5C 966.639,824.345 962.972,826.679 959,828.5C 957.524,833.748 958.857,838.081 963,841.5C 964.669,845.008 965.836,848.675 966.5,852.5C 966.237,855.028 965.404,857.361 964,859.5C 960.333,862.5 956.667,865.5 953,868.5C 952.333,870.833 952.333,873.167 953,875.5C 961.312,881.455 964.646,889.455 963,899.5C 960.512,901.743 957.846,903.743 955,905.5C 953.349,910.141 954.849,912.807 959.5,913.5C 964.545,912.478 968.879,910.144 972.5,906.5C 975.06,908.273 977.393,910.273 979.5,912.5C 974.891,920.551 967.891,923.718 958.5,922C 951.058,919.113 944.058,915.446 937.5,911C 932.396,905.575 927.729,899.908 923.5,894C 918.338,893.665 916.005,896.165 916.5,901.5C 912.144,900.489 908.144,898.656 904.5,896C 899.788,890.957 895.455,885.623 891.5,880C 885.824,879.174 883.157,881.674 883.5,887.5C 875.343,887.333 869.176,883.666 865,876.5C 863.116,871.671 860.949,867.005 858.5,862.5C 853.331,860.344 850.331,862.011 849.5,867.5C 846.984,867.245 844.65,866.411 842.5,865C 834.87,858.723 829.204,851.056 825.5,842C 819.165,840.5 816.499,843 817.5,849.5C 810.679,848.518 806.513,844.518 805,837.5C 804.288,828.378 804.622,819.378 806,810.5C 799.478,806.97 795.478,808.97 794,816.5C 792.171,814.844 790.837,812.844 790,810.5C 788.866,799.11 792.866,790.11 802,783.5C 804.981,777.88 803.481,774.713 797.5,774C 795.667,775.167 793.833,776.333 792,777.5C 791.056,776.737 790.556,775.737 790.5,774.5C 793.299,766.405 797.966,759.572 804.5,754C 809.952,749.858 815.785,746.358 822,743.5C 823.201,736.046 820.201,733.712 813,736.5C 809.795,735.202 808.795,732.868 810,729.5C 813.27,724.776 817.103,720.609 821.5,717C 828.968,714.404 836.134,711.237 843,707.5C 845.745,702.323 844.245,699.323 838.5,698.5C 836.407,698.486 834.574,699.152 833,700.5C 832.21,697.366 832.543,694.366 834,691.5C 837.833,688.333 841.667,685.167 845.5,682C 854.226,678.208 862.726,674.041 871,669.5C 872.623,664.304 870.79,661.304 865.5,660.5C 863.014,661.988 860.347,662.988 857.5,663.5C 858.83,655.991 862.496,649.824 868.5,645C 877.276,639.279 886.609,634.612 896.5,631C 900.01,627.952 900.343,624.619 897.5,621C 894.534,620.105 891.867,620.605 889.5,622.5C 889.167,621.833 888.833,621.167 888.5,620.5C 891.764,611.067 897.764,603.9 906.5,599C 913.733,594.994 921.066,591.494 928.5,588.5C 932.979,586.675 937.645,585.675 942.5,585.5C 951.654,585.059 957.654,589.059 960.5,597.5C 957.473,602.205 958.139,606.371 962.5,610C 971.581,610.243 979.081,613.743 985,620.5C 985.576,626.023 985.243,631.357 984,636.5C 984.785,638.286 985.951,639.786 987.5,641C 995.978,644.347 999.645,650.681 998.5,660C 997.079,669.756 994.745,679.256 991.5,688.5 Z"/></g>
<g><path style="opacity:1" fill="#f9dfb4" d="M 1359.5,592.5 C 1355.79,594.136 1351.79,594.802 1347.5,594.5C 1351.21,592.864 1355.21,592.198 1359.5,592.5 Z"/></g>
<g><path style="opacity:1" fill="#f6ce8d" d="M 1266.5,630.5 C 1272.26,632.193 1278.26,633.026 1284.5,633C 1285.42,633.278 1286.08,633.778 1286.5,634.5C 1280.53,633.802 1274.53,633.302 1268.5,633C 1267.62,632.292 1266.95,631.458 1266.5,630.5 Z"/></g>
<g><path style="opacity:1" fill="#fae3be" d="M 1375.5,641.5 C 1366.46,641.252 1357.46,641.585 1348.5,642.5C 1348.7,648.509 1349.03,654.509 1349.5,660.5C 1347.82,654.416 1347.16,648.082 1347.5,641.5C 1356.97,640.235 1366.31,640.235 1375.5,641.5 Z"/></g>
<g><path style="opacity:1" fill="#efaf43" d="M 1375.5,641.5 C 1388.95,641.485 1400.78,645.818 1411,654.5C 1418.22,662.071 1420.55,671.071 1418,681.5C 1412.46,691.85 1403.96,698.183 1392.5,700.5C 1385.98,700.79 1379.65,701.457 1373.5,702.5C 1366.9,703.354 1360.23,704.02 1353.5,704.5C 1352.47,689.796 1351.13,675.13 1349.5,660.5C 1349.03,654.509 1348.7,648.509 1348.5,642.5C 1357.46,641.585 1366.46,641.252 1375.5,641.5 Z"/></g>
<g><path style="opacity:1" fill="#f4c577" d="M 1296.5,663.5 C 1297.85,668.949 1298.68,674.616 1299,680.5C 1300.7,703.826 1302.2,727.159 1303.5,750.5C 1300.11,721.722 1297.77,692.722 1296.5,663.5 Z"/></g>
<g><path style="opacity:1" fill="#f9dbac" d="M 1392.5,700.5 C 1386.43,702.248 1380.09,702.915 1373.5,702.5C 1379.65,701.457 1385.98,700.79 1392.5,700.5 Z"/></g>
<g><path style="opacity:1" fill="#efaf43" d="M 1368.5,739.5 C 1383.53,739.217 1398.53,739.717 1413.5,741C 1431.49,746.655 1439.33,758.821 1437,777.5C 1433.05,786.57 1426.55,793.07 1417.5,797C 1399.18,799.387 1380.85,801.554 1362.5,803.5C 1360.89,782.495 1359.23,761.495 1357.5,740.5C 1361.37,740.815 1365.04,740.482 1368.5,739.5 Z"/></g>
<g><path style="opacity:1" fill="#0c0803" d="M 868.5,746.5 C 876.023,745.927 883.356,746.76 890.5,749C 894.125,751.206 895.292,754.373 894,758.5C 890.439,761.163 886.939,760.997 883.5,758C 877.479,757.67 871.479,757.67 865.5,758C 862.913,756.475 862.08,754.308 863,751.5C 864.704,749.627 866.537,747.96 868.5,746.5 Z"/></g>
<g><path style="opacity:1" fill="#f8d8a4" d="M 1494.5,751.5 C 1495.43,754.675 1496.26,758.009 1497,761.5C 1497.82,770.01 1497.66,778.344 1496.5,786.5C 1496.72,774.771 1496.05,763.105 1494.5,751.5 Z"/></g>
<g><path style="opacity:1" fill="#f4c87d" d="M 1303.5,750.5 C 1305.35,755.884 1306.52,761.551 1307,767.5C 1307.83,778.674 1307.66,789.674 1306.5,800.5C 1307.12,783.672 1306.12,767.005 1303.5,750.5 Z"/></g>
<g><path style="opacity:1" fill="#fcfcfc" d="M 1061.5,786.5 C 1072.41,785.692 1083.08,786.859 1093.5,790C 1097.44,791.886 1100.94,794.386 1104,797.5C 1104.67,799.833 1104.67,802.167 1104,804.5C 1103.59,804.957 1103.09,805.291 1102.5,805.5C 1094.47,800.782 1085.81,799.282 1076.5,801C 1070.42,803.584 1065.75,807.75 1062.5,813.5C 1057.38,810.605 1052.05,808.272 1046.5,806.5C 1041.85,807.193 1040.35,809.859 1042,814.5C 1053.59,822.419 1066.42,827.086 1080.5,828.5C 1085.99,828.051 1087.99,825.051 1086.5,819.5C 1083.48,819.665 1080.48,819.498 1077.5,819C 1075.17,817.757 1074.5,816.091 1075.5,814C 1079.35,810.973 1083.68,809.973 1088.5,811C 1100.8,814.301 1107.8,822.301 1109.5,835C 1106.62,844.218 1100.62,850.551 1091.5,854C 1086.68,855.869 1081.68,856.869 1076.5,857C 1073.83,860 1073.83,863 1076.5,866C 1085.26,867.626 1093.43,866.126 1101,861.5C 1103.59,862.661 1105.26,864.661 1106,867.5C 1106.53,882.219 1099.7,892.052 1085.5,897C 1080.56,898.085 1075.56,898.752 1070.5,899C 1067.66,902.619 1067.99,905.952 1071.5,909C 1078.11,910.089 1084.44,909.256 1090.5,906.5C 1091.48,906.977 1092.31,907.643 1093,908.5C 1093.67,911.5 1093.67,914.5 1093,917.5C 1089.4,923.104 1084.56,927.271 1078.5,930C 1039.53,931.677 1005.36,919.844 976,894.5C 974.383,886.266 970.883,878.932 965.5,872.5C 979.093,861.776 981.093,849.11 971.5,834.5C 979.188,829.131 983.855,821.797 985.5,812.5C 999.789,808.461 1013.46,802.961 1026.5,796C 1038.01,791.708 1049.68,788.541 1061.5,786.5 Z"/></g>
<g><path style="opacity:1" fill="#cfa152" d="M 1119.5,831.5 C 1120.58,837.075 1121.75,842.742 1123,848.5C 1123.83,849.333 1124.67,850.167 1125.5,851C 1129.35,851.764 1132.85,853.264 1136,855.5C 1136.86,860.625 1138.2,865.625 1140,870.5C 1143.25,878.073 1148.25,884.073 1155,888.5C 1159.12,885.993 1163.12,885.993 1167,888.5C 1168.73,901.067 1174.23,911.567 1183.5,920C 1186.81,922.232 1189.48,921.566 1191.5,918C 1194.63,917.21 1197.63,917.543 1200.5,919C 1204.75,928.818 1210.75,937.485 1218.5,945C 1222.55,947.174 1226.88,948.007 1231.5,947.5C 1224.31,951.03 1217.81,955.697 1212,961.5C 1210.8,968.801 1213.63,971.134 1220.5,968.5C 1217.78,976.82 1219.62,983.82 1226,989.5C 1227.12,993.484 1226.12,996.818 1223,999.5C 1221.95,1005.81 1222.78,1011.81 1225.5,1017.5C 1219.05,1015.45 1216.55,1017.79 1218,1024.5C 1219.08,1025.67 1219.92,1027 1220.5,1028.5C 1217.22,1029.66 1213.88,1029.82 1210.5,1029C 1200.97,1023.14 1192.3,1016.14 1184.5,1008C 1181.32,1006.96 1178.82,1007.8 1177,1010.5C 1176.41,1013.73 1176.91,1016.73 1178.5,1019.5C 1172.2,1020.27 1167.37,1017.93 1164,1012.5C 1158.93,1004.29 1154.43,995.787 1150.5,987C 1148.5,986.333 1146.5,986.333 1144.5,987C 1143.17,990.333 1141.83,993.667 1140.5,997C 1138.21,997.418 1136.21,996.751 1134.5,995C 1124.8,985.094 1118.63,973.261 1116,959.5C 1112.33,955.5 1108.67,955.5 1105,959.5C 1104.46,962.17 1104.96,964.67 1106.5,967C 1105.79,968.442 1104.62,969.275 1103,969.5C 1093.42,960.999 1088.08,950.333 1087,937.5C 1091.28,934.885 1095.28,931.885 1099,928.5C 1104.98,919.852 1105.82,910.852 1101.5,901.5C 1104.48,898.015 1107.65,894.682 1111,891.5C 1119.78,879.032 1119.61,866.698 1110.5,854.5C 1117.13,848.24 1120.13,840.573 1119.5,831.5 Z"/></g>
<g><path style="opacity:1" fill="#f4c577" d="M 1333.5,854.5 C 1332.53,852.393 1332.2,850.059 1332.5,847.5C 1326.83,847.5 1321.17,847.5 1315.5,847.5C 1321,846.402 1326.67,845.902 1332.5,846C 1333.44,848.719 1333.78,851.552 1333.5,854.5 Z"/></g>
<g><path style="opacity:1" fill="#6c4f1d" d="M 1562.5,853.5 C 1563.17,856.5 1563.83,859.5 1564.5,862.5C 1564.44,863.043 1564.11,863.376 1563.5,863.5C 1562.51,860.232 1562.18,856.898 1562.5,853.5 Z"/></g>
<g><path style="opacity:1" fill="#f4c67a" d="M 1333.5,854.5 C 1335.48,866.955 1336.82,879.622 1337.5,892.5C 1335.83,886.077 1334.66,879.41 1334,872.5C 1333.5,866.509 1333.33,860.509 1333.5,854.5 Z"/></g>
<g><path style="opacity:1" fill="#62249b" d="M 2089.5,902.5 C 2091.39,902.297 2092.89,902.963 2094,904.5C 2099.16,916.307 2102.49,928.64 2104,941.5C 2106.47,947.158 2109.97,947.825 2114.5,943.5C 2117.05,935.407 2119.88,927.407 2123,919.5C 2124.46,917.04 2126.29,914.873 2128.5,913C 2129.33,912.312 2130,912.479 2130.5,913.5C 2137.78,926.514 2141.45,940.514 2141.5,955.5C 2129.33,1018.18 2101.99,1073.18 2059.5,1120.5C 2058.27,1121.28 2056.94,1121.78 2055.5,1122C 2049.2,1129.3 2042.53,1136.3 2035.5,1143C 2019.81,1153.85 2004.48,1165.18 1989.5,1177C 1953.66,1201.92 1915,1221.59 1873.5,1236C 1867.8,1238.83 1867.13,1242.5 1871.5,1247C 1872.67,1247.17 1873.83,1247.33 1875,1247.5C 1883,1244.66 1891,1241.66 1899,1238.5C 1899.33,1239.17 1899.67,1239.83 1900,1240.5C 1900.13,1263.52 1899.63,1286.52 1898.5,1309.5C 1902.15,1363.37 1881.48,1404.87 1836.5,1434C 1827.49,1439.84 1818.16,1445.17 1808.5,1450C 1785.84,1460.16 1762.84,1469.5 1739.5,1478C 1706.45,1488.02 1673.11,1497.02 1639.5,1505C 1613.5,1509.69 1587.34,1512.85 1561,1514.5C 1551.36,1515.62 1546.19,1511.45 1545.5,1502C 1547.63,1488.57 1553.13,1476.74 1562,1466.5C 1562.58,1457.74 1559.08,1455.58 1551.5,1460C 1544.5,1465.67 1537.5,1471.33 1530.5,1477C 1513.81,1487.03 1497.15,1497.03 1480.5,1507C 1465.38,1514.39 1449.71,1520.39 1433.5,1525C 1427.1,1525.82 1420.76,1525.48 1414.5,1524C 1412.81,1522.09 1412.31,1519.92 1413,1517.5C 1417.04,1510.46 1422.2,1504.29 1428.5,1499C 1439.92,1492.21 1451.09,1485.04 1462,1477.5C 1465.1,1470.6 1462.93,1467.77 1455.5,1469C 1431.55,1486.15 1405.88,1500.48 1378.5,1512C 1357.28,1519.09 1335.62,1521.75 1313.5,1520C 1310.05,1518.59 1308.55,1516.09 1309,1512.5C 1320.69,1507.74 1332.19,1502.57 1343.5,1497C 1346.64,1490.12 1344.3,1487.12 1336.5,1488C 1306.55,1505.73 1274.21,1512.73 1239.5,1509C 1234.88,1507.71 1230.71,1505.54 1227,1502.5C 1226.94,1496.85 1229.78,1493.01 1235.5,1491C 1256.6,1486.51 1277.27,1480.51 1297.5,1473C 1317.37,1464.07 1336.7,1454.07 1355.5,1443C 1361.68,1436.15 1368.52,1429.98 1376,1424.5C 1378.33,1420.85 1377.83,1417.68 1374.5,1415C 1370.83,1414.33 1367.17,1414.33 1363.5,1415C 1324.6,1421.07 1285.6,1426.4 1246.5,1431C 1235.13,1431.83 1223.79,1431.49 1212.5,1430C 1211.09,1429.63 1210.09,1428.8 1209.5,1427.5C 1216.69,1418.56 1225.69,1412.06 1236.5,1408C 1242.42,1405.47 1248.42,1403.14 1254.5,1401C 1257.21,1399.14 1258.04,1396.64 1257,1393.5C 1254.92,1391.88 1252.75,1390.38 1250.5,1389C 1228.9,1386.7 1207.23,1385.37 1185.5,1385C 1144.83,1383.39 1104.16,1383.39 1063.5,1385C 1057.55,1386.55 1052.72,1389.72 1049,1394.5C 1048.07,1401.48 1050.57,1406.98 1056.5,1411C 1062.9,1415.73 1069.56,1420.06 1076.5,1424C 1072.87,1424.99 1069.2,1425.82 1065.5,1426.5C 1041.22,1422.68 1017.56,1416.51 994.5,1408C 977.149,1400.96 961.649,1391.13 948,1378.5C 945.588,1375.2 945.088,1371.7 946.5,1368C 948.833,1367.33 951.167,1367.33 953.5,1368C 956.055,1369.44 958.721,1370.61 961.5,1371.5C 966.078,1370.13 967.578,1367.13 966,1362.5C 962.579,1360.54 959.079,1358.71 955.5,1357C 927.921,1349.64 899.921,1346.98 871.5,1349C 891.416,1332.59 914.416,1325.26 940.5,1327C 942.478,1324.5 942.978,1321.67 942,1318.5C 934.493,1310 925.993,1302.5 916.5,1296C 900.339,1284.75 883.673,1274.25 866.5,1264.5C 872.925,1257.28 880.925,1252.62 890.5,1250.5C 894.463,1249.62 898.463,1248.95 902.5,1248.5C 908.569,1249.46 914.569,1250.29 920.5,1251C 923.287,1248.83 924.12,1246 923,1242.5C 899.558,1218.36 871.392,1202.36 838.5,1194.5C 845.096,1184.75 854.096,1178.25 865.5,1175C 891.612,1166.36 915.612,1170.36 937.5,1187C 943.667,1188.17 946.167,1185.67 945,1179.5C 928.398,1163.37 921.065,1143.7 923,1120.5C 923.732,1116.89 925.065,1113.55 927,1110.5C 938.341,1121.17 948.175,1133 956.5,1146C 961.458,1147.69 964.458,1146.02 965.5,1141C 952.567,1118.31 938.734,1096.14 924,1074.5C 917.645,1065.8 910.811,1057.47 903.5,1049.5C 898.223,1043.72 892.223,1038.88 885.5,1035C 899.74,1026.44 914.073,1026.44 928.5,1035C 937.721,1039.89 944.555,1047.05 949,1056.5C 959.854,1077.73 967.521,1100.06 972,1123.5C 974.312,1127.58 977.812,1130.08 982.5,1131C 990.548,1131.78 998.548,1131.44 1006.5,1130C 1032.92,1121.86 1058.92,1112.53 1084.5,1102C 1116.83,1083.51 1150.49,1067.67 1185.5,1054.5C 1209.54,1059.14 1233.54,1063.97 1257.5,1069C 1273.12,1073.37 1288.12,1079.21 1302.5,1086.5C 1306.88,1094.55 1313.55,1099.55 1322.5,1101.5C 1324.43,1110.46 1327.26,1119.13 1331,1127.5C 1334.92,1133.54 1340.42,1135.88 1347.5,1134.5C 1346.98,1145.74 1349.15,1156.41 1354,1166.5C 1357.61,1170.93 1362.28,1173.26 1368,1173.5C 1367.7,1183.99 1369.7,1193.99 1374,1203.5C 1377.64,1207.33 1382.14,1209.33 1387.5,1209.5C 1385.01,1221.87 1386.84,1233.54 1393,1244.5C 1394.83,1246.33 1396.67,1248.17 1398.5,1250C 1401.15,1250.5 1403.81,1250.66 1406.5,1250.5C 1405.28,1261.72 1407.12,1272.39 1412,1282.5C 1415.72,1286.27 1419.88,1289.44 1424.5,1292C 1427.59,1292.31 1430.59,1291.81 1433.5,1290.5C 1439.79,1310.42 1448.29,1329.42 1459,1347.5C 1464.33,1356.5 1471.83,1363 1481.5,1367C 1488.97,1367.86 1496.3,1367.19 1503.5,1365C 1514.06,1358.88 1523.73,1351.55 1532.5,1343C 1535,1341.92 1537.33,1340.59 1539.5,1339C 1561.31,1317.53 1582.81,1295.69 1604,1273.5C 1611.04,1262.77 1619.04,1252.77 1628,1243.5C 1636.79,1231.25 1643.46,1217.92 1648,1203.5C 1653.16,1178.13 1642.82,1165.13 1617,1164.5C 1586.71,1170.99 1557.05,1179.66 1528,1190.5C 1526.67,1184.18 1524.01,1178.51 1520,1173.5C 1515.45,1168.82 1510.62,1164.48 1505.5,1160.5C 1506.56,1151.31 1504.73,1142.64 1500,1134.5C 1493.56,1125.89 1485.72,1118.89 1476.5,1113.5C 1477.15,1103.43 1473.81,1094.77 1466.5,1087.5C 1463.15,1084.31 1459.65,1081.31 1456,1078.5C 1458.9,1066.53 1455.4,1056.69 1445.5,1049C 1441.7,1046.7 1438.03,1044.2 1434.5,1041.5C 1436.3,1035.45 1435.46,1029.79 1432,1024.5C 1424,1015.91 1414.16,1010.58 1402.5,1008.5C 1400.99,998.652 1395.66,991.652 1386.5,987.5C 1385,986.41 1384.66,985.243 1385.5,984C 1407.28,975.782 1429.28,968.115 1451.5,961C 1524.33,941.819 1596.67,943.486 1668.5,966C 1678.94,969.723 1689.28,973.723 1699.5,978C 1708.55,983.524 1717.88,988.524 1727.5,993C 1748.29,1006.78 1766.96,1023.12 1783.5,1042C 1777.87,1044.49 1777.21,1047.82 1781.5,1052C 1789.08,1051.26 1796.41,1049.26 1803.5,1046C 1817.68,1042.23 1832.01,1039.23 1846.5,1037C 1856.34,1036.64 1866.17,1036.14 1876,1035.5C 1907.84,1036.53 1939.67,1037.36 1971.5,1038C 1983.9,1032.97 1995.57,1026.63 2006.5,1019C 2010.7,1014.47 2015.2,1010.3 2020,1006.5C 2040.83,976.926 2050.66,943.926 2049.5,907.5C 2054.24,909.283 2057.4,912.616 2059,917.5C 2061.38,925.03 2063.05,932.697 2064,940.5C 2067.39,944.779 2071.39,945.445 2076,942.5C 2078.02,930.999 2080.69,919.665 2084,908.5C 2085.36,905.977 2087.19,903.977 2089.5,902.5 Z"/></g>
<g><path style="opacity:1" fill="#edae41" d="M 1225.5,1017.5 C 1222.78,1011.81 1221.95,1005.81 1223,999.5C 1226.12,996.818 1227.12,993.484 1226,989.5C 1219.62,983.82 1217.78,976.82 1220.5,968.5C 1232.4,955.725 1247.07,950.559 1264.5,953C 1265.87,954.441 1266.87,956.108 1267.5,958C 1272.04,958.732 1276.37,958.066 1280.5,956C 1285.83,955.333 1291.17,955.333 1296.5,956C 1300.21,956.936 1303.37,958.769 1306,961.5C 1306.12,963.107 1305.62,964.607 1304.5,966C 1304.95,967.285 1305.62,968.452 1306.5,969.5C 1316.78,969.533 1327.11,969.7 1337.5,970C 1340.79,971.328 1344.12,972.661 1347.5,974C 1348.57,974.739 1349.24,975.739 1349.5,977C 1347.03,978.799 1345.36,981.132 1344.5,984C 1344.64,986.151 1345.64,987.818 1347.5,989C 1363.49,987.329 1377.32,991.829 1389,1002.5C 1390.01,1004.02 1390.51,1005.69 1390.5,1007.5C 1382.18,1007.99 1380.51,1011.49 1385.5,1018C 1399.21,1017.3 1411.38,1021.13 1422,1029.5C 1423.71,1031.91 1424.54,1034.58 1424.5,1037.5C 1420.11,1035.54 1416.28,1036.2 1413,1039.5C 1411.96,1042.64 1412.79,1045.14 1415.5,1047C 1424.27,1049.05 1432.27,1052.72 1439.5,1058C 1443.82,1061.48 1445.82,1065.98 1445.5,1071.5C 1442.2,1070.62 1438.87,1070.46 1435.5,1071C 1433.01,1073.63 1432.85,1076.46 1435,1079.5C 1446.34,1083.84 1455.68,1090.84 1463,1100.5C 1464.34,1103.02 1465.17,1105.69 1465.5,1108.5C 1458.1,1108.22 1455.1,1111.56 1456.5,1118.5C 1462.59,1119.03 1468.25,1120.86 1473.5,1124C 1477.97,1128.5 1482.81,1132.67 1488,1136.5C 1492.27,1141.03 1494.27,1146.36 1494,1152.5C 1486.84,1149.67 1483.84,1152.01 1485,1159.5C 1493.54,1164.77 1501.54,1170.77 1509,1177.5C 1511.42,1181.34 1513.59,1185.34 1515.5,1189.5C 1514.9,1190.79 1514.4,1192.13 1514,1193.5C 1509.79,1195.69 1505.45,1197.69 1501,1199.5C 1500.67,1192.8 1497.5,1190.64 1491.5,1193C 1489.49,1200.4 1487.65,1207.9 1486,1215.5C 1481.11,1223.09 1474.28,1225.59 1465.5,1223C 1460.36,1225.91 1457.86,1230.41 1458,1236.5C 1455.53,1242.63 1451.36,1247.13 1445.5,1250C 1442.43,1250.65 1439.6,1250.15 1437,1248.5C 1432.95,1249.21 1431.28,1251.54 1432,1255.5C 1433.31,1257.13 1434.14,1258.97 1434.5,1261C 1433.77,1267.14 1433.27,1273.31 1433,1279.5C 1431.53,1281.32 1429.7,1281.82 1427.5,1281C 1422.95,1279.41 1420.11,1276.25 1419,1271.5C 1417.96,1266.57 1417.46,1261.57 1417.5,1256.5C 1418.06,1248.83 1418.22,1241.16 1418,1233.5C 1411.29,1229.7 1407.79,1231.7 1407.5,1239.5C 1405.53,1239.74 1403.7,1239.41 1402,1238.5C 1400.47,1234.91 1399.14,1231.24 1398,1227.5C 1397.62,1216.08 1398.29,1204.74 1400,1193.5C 1393.83,1189.76 1390.33,1191.42 1389.5,1198.5C 1384.43,1198.87 1381.59,1196.53 1381,1191.5C 1378.44,1179.93 1377.78,1168.26 1379,1156.5C 1375.34,1153.67 1372,1154 1369,1157.5C 1368.51,1158.79 1368.34,1160.13 1368.5,1161.5C 1363.81,1162.32 1361.31,1160.32 1361,1155.5C 1358.96,1144.61 1357.96,1133.61 1358,1122.5C 1355.79,1119.71 1352.96,1118.88 1349.5,1120C 1345.06,1126.3 1341.56,1125.8 1339,1118.5C 1335.11,1106.03 1332.11,1093.37 1330,1080.5C 1326.93,1077.94 1323.93,1077.94 1321,1080.5C 1320.67,1083.5 1320.33,1086.5 1320,1089.5C 1309.75,1078.99 1303.75,1066.32 1302,1051.5C 1299.74,1048.48 1296.9,1047.81 1293.5,1049.5C 1292.02,1052.62 1291.02,1055.95 1290.5,1059.5C 1289.39,1060.61 1288.06,1061.28 1286.5,1061.5C 1282.5,1058.4 1278.33,1055.4 1274,1052.5C 1271.38,1046.09 1267.88,1040.25 1263.5,1035C 1257.32,1033.68 1254.32,1036.18 1254.5,1042.5C 1250.67,1042.75 1247.34,1041.58 1244.5,1039C 1237.19,1032.53 1230.85,1025.36 1225.5,1017.5 Z"/></g>
<g><path style="opacity:1" fill="#fefefe" d="M 739.5,1017.5 C 769.436,1017.59 798.103,1023.75 825.5,1036C 860.284,1052.3 891.117,1074.14 918,1101.5C 909.176,1122.14 909.676,1142.8 919.5,1163.5C 893.915,1156.55 869.248,1159.38 845.5,1172C 834.923,1178.98 827.589,1188.48 823.5,1200.5C 823.928,1203.43 825.595,1205.26 828.5,1206C 856.332,1208.75 880.666,1219.42 901.5,1238C 880.708,1239.14 864.208,1247.97 852,1264.5C 851.333,1266.17 851.333,1267.83 852,1269.5C 878.094,1282.94 902.594,1298.77 925.5,1317C 899.076,1317.47 876.909,1327.3 859,1346.5C 858.167,1348.17 857.333,1349.83 856.5,1351.5C 830.441,1357.91 805.774,1367.74 782.5,1381C 759.199,1400.8 740.533,1424.3 726.5,1451.5C 704.806,1447.66 690.64,1434.99 684,1413.5C 681.373,1401.22 683.04,1389.55 689,1378.5C 698.46,1361.71 711.293,1348.21 727.5,1338C 745.664,1326.92 764.998,1318.58 785.5,1313C 799.997,1309.64 814.664,1307.47 829.5,1306.5C 836.392,1307.93 843.226,1309.6 850,1311.5C 855.952,1309.19 856.785,1305.69 852.5,1301C 806.994,1287.81 761.327,1287.14 715.5,1299C 698.35,1303.66 683.184,1311.82 670,1323.5C 661.889,1333.33 658.056,1344.66 658.5,1357.5C 623.969,1347.8 604.136,1325.13 599,1289.5C 595.71,1256.25 608.21,1231.08 636.5,1214C 654.828,1204.67 674.161,1198.34 694.5,1195C 699.666,1191.47 699.833,1187.64 695,1183.5C 658.532,1172.28 624.699,1177.45 593.5,1199C 588.692,1202.31 584.025,1205.81 579.5,1209.5C 579.167,1205.17 578.833,1200.83 578.5,1196.5C 579.265,1185.5 580.099,1174.5 581,1163.5C 594.423,1109.42 624.257,1066.92 670.5,1036C 692.338,1024.94 715.338,1018.77 739.5,1017.5 Z"/></g>
<g><path style="opacity:1" fill="#856b2a" d="M 1611.5,1175.5 C 1619.04,1175.06 1626.21,1176.4 1633,1179.5C 1633.49,1180.79 1633.66,1182.13 1633.5,1183.5C 1629.31,1183.95 1625.31,1185.12 1621.5,1187C 1616.99,1190.09 1612.65,1193.42 1608.5,1197C 1581.03,1224.14 1553.86,1251.64 1527,1279.5C 1507.32,1301.01 1490.15,1324.35 1475.5,1349.5C 1471.97,1346.76 1469.13,1343.43 1467,1339.5C 1457.87,1324.43 1450.87,1308.43 1446,1291.5C 1445.28,1286.02 1444.78,1280.52 1444.5,1275C 1444.28,1270.29 1445.11,1265.79 1447,1261.5C 1459.48,1256.24 1466.98,1246.9 1469.5,1233.5C 1486.53,1235.14 1496.2,1227.47 1498.5,1210.5C 1536.33,1198.97 1573.99,1187.3 1611.5,1175.5 Z"/></g>
<g><path style="opacity:1" fill="#fdfdfd" d="M 1081.5,1394.5 C 1131.87,1393.96 1182.21,1395.12 1232.5,1398C 1220.87,1402.73 1210.7,1409.56 1202,1418.5C 1195.84,1424.89 1196.01,1431.06 1202.5,1437C 1216.72,1442.1 1231.39,1443.76 1246.5,1442C 1282.63,1437.84 1318.63,1433.17 1354.5,1428C 1322.56,1452.13 1286.9,1468.46 1247.5,1477C 1234.03,1479.02 1220.7,1481.69 1207.5,1485C 1162.09,1489.49 1118.42,1482.82 1076.5,1465C 1070.33,1461.08 1064.33,1456.91 1058.5,1452.5C 1056.74,1450.81 1056.24,1448.81 1057,1446.5C 1062.49,1439.67 1069.65,1435.84 1078.5,1435C 1086.5,1434.67 1094.5,1434.33 1102.5,1434C 1104.65,1431.44 1104.98,1428.61 1103.5,1425.5C 1088.47,1418.79 1074.47,1410.46 1061.5,1400.5C 1060.61,1399.68 1060.28,1398.68 1060.5,1397.5C 1067.63,1396.43 1074.63,1395.43 1081.5,1394.5 Z"/></g>
<g><path style="opacity:1" fill="#ad85fd" d="M 1537.5,1484.5 C 1538.04,1484.56 1538.38,1484.89 1538.5,1485.5C 1532.05,1498.2 1533.38,1509.87 1542.5,1520.5C 1534.25,1532.92 1525.41,1544.92 1516,1556.5C 1503.01,1571.16 1489.67,1585.49 1476,1599.5C 1473,1603.5 1470,1607.5 1467,1611.5C 1442.81,1633.03 1418.64,1654.53 1394.5,1676C 1383.93,1680.52 1372.93,1683.52 1361.5,1685C 1356.79,1690.47 1357.96,1693.97 1365,1695.5C 1373.34,1694.4 1381.5,1692.57 1389.5,1690C 1413.05,1686.72 1436.72,1684.72 1460.5,1684C 1490.7,1679.94 1521.04,1677.27 1551.5,1676C 1603.1,1670.86 1654.77,1666.2 1706.5,1662C 1730.88,1659.69 1755.21,1660.02 1779.5,1663C 1793.8,1665.2 1806.3,1671.03 1817,1680.5C 1820,1684.17 1823,1687.83 1826,1691.5C 1840.13,1715.09 1852.13,1739.76 1862,1765.5C 1872.34,1795.03 1882.18,1824.7 1891.5,1854.5C 1873.39,1854.19 1858.89,1846.86 1848,1832.5C 1843.75,1827.01 1839.75,1821.34 1836,1815.5C 1829.98,1801.47 1823.98,1787.47 1818,1773.5C 1816.21,1752.63 1813.21,1731.97 1809,1711.5C 1803.38,1707.05 1799.88,1708.39 1798.5,1715.5C 1800.32,1722.77 1801.82,1730.1 1803,1737.5C 1808.04,1773.73 1812.21,1810.07 1815.5,1846.5C 1805.12,1844.89 1796.28,1840.22 1789,1832.5C 1783.5,1824.32 1778.83,1815.65 1775,1806.5C 1768.86,1788.74 1763.52,1770.74 1759,1752.5C 1754.62,1740.05 1745.79,1734.22 1732.5,1735C 1679.73,1733.98 1627.23,1737.14 1575,1744.5C 1524.75,1747.42 1474.59,1751.92 1424.5,1758C 1404.17,1758.67 1383.83,1758.67 1363.5,1758C 1354.27,1754.92 1344.94,1752.26 1335.5,1750C 1323.1,1743.93 1314.6,1734.43 1310,1721.5C 1309.83,1718.83 1309.67,1716.17 1309.5,1713.5C 1314.73,1680.75 1322.4,1648.59 1332.5,1617C 1354.1,1601.75 1375.43,1586.08 1396.5,1570C 1408,1559.83 1419.5,1549.67 1431,1539.5C 1431.49,1538.21 1431.66,1536.87 1431.5,1535.5C 1446.47,1533.12 1460.8,1528.62 1474.5,1522C 1496.56,1510.98 1517.56,1498.48 1537.5,1484.5 Z"/></g>
<g><path style="opacity:1" fill="#ad85fe" d="M 1206.5,1496.5 C 1209.17,1496.5 1211.83,1496.5 1214.5,1496.5C 1215.98,1508.49 1222.65,1515.99 1234.5,1519C 1249.45,1520.58 1264.45,1520.92 1279.5,1520C 1285.04,1519.02 1290.54,1517.85 1296,1516.5C 1298.82,1523.65 1303.98,1528.48 1311.5,1531C 1343.22,1534.04 1373.22,1528.2 1401.5,1513.5C 1399.17,1522.63 1402.17,1529.46 1410.5,1534C 1402.06,1542.38 1393.06,1550.04 1383.5,1557C 1370.33,1565.42 1357.33,1574.09 1344.5,1583C 1291.14,1613.02 1237.14,1642.02 1182.5,1670C 1158.16,1684.83 1134.16,1700.17 1110.5,1716C 1103.08,1723.42 1095.08,1730.09 1086.5,1736C 1069.82,1753.34 1054.65,1771.84 1041,1791.5C 1019.87,1826.08 1000.54,1861.75 983,1898.5C 972.857,1925.93 962.523,1953.27 952,1980.5C 945.124,2003.8 937.457,2026.8 929,2049.5C 919.941,2070.62 910.608,2091.62 901,2112.5C 889.883,2133.95 875.383,2152.78 857.5,2169C 811.833,2203.5 766.167,2238 720.5,2272.5C 718.053,2266.79 717.053,2260.79 717.5,2254.5C 717.249,2248.02 718.082,2241.68 720,2235.5C 733.733,2210.43 752.9,2190.6 777.5,2176C 795.108,2168.2 812.441,2159.86 829.5,2151C 833.327,2143.48 830.993,2140.48 822.5,2142C 782.833,2161.17 743.167,2180.33 703.5,2199.5C 701.862,2188.09 703.362,2177.09 708,2166.5C 712.137,2160.4 716.637,2154.56 721.5,2149C 745.179,2131.68 770.179,2116.35 796.5,2103C 807.665,2096.82 817.165,2088.66 825,2078.5C 844.915,2032 865.915,1986 888,1940.5C 911.684,1884.47 935.351,1828.47 959,1772.5C 972.614,1743.27 987.281,1714.6 1003,1686.5C 1011.29,1675.54 1021.46,1666.71 1033.5,1660C 1040.59,1657.42 1047.25,1654.09 1053.5,1650C 1076.42,1629.08 1099.42,1608.08 1122.5,1587C 1149.55,1557.28 1177.38,1528.11 1206,1499.5C 1206.48,1498.55 1206.65,1497.55 1206.5,1496.5 Z"/></g>
<g><path style="opacity:0.951" fill="#ae86ff" d="M 334.5,1918.5 C 346.04,1918.57 356.707,1922.07 366.5,1929C 370.115,1932.62 372.949,1936.79 375,1941.5C 375.833,1947.33 373.333,1949.83 367.5,1949C 364.537,1947.3 362.537,1944.8 361.5,1941.5C 350.181,1931.39 337.181,1928.55 322.5,1933C 306.686,1938.09 297.52,1948.92 295,1965.5C 294.335,1970.52 294.502,1975.52 295.5,1980.5C 295.373,1983.39 294.373,1985.89 292.5,1988C 278.369,1987.37 266.536,1992.21 257,2002.5C 249.679,2010.31 245.179,2019.47 243.5,2030C 244.353,2054.71 254.686,2074.37 274.5,2089C 282.627,2093.15 291.127,2096.32 300,2098.5C 308.682,2098.55 317.515,2098.38 326.5,2098C 329.903,2097.42 333.07,2096.26 336,2094.5C 335.852,2075.29 343.685,2060.46 359.5,2050C 367.339,2046.51 372.839,2048.68 376,2056.5C 376.547,2076.79 367.714,2091.46 349.5,2100.5C 348.511,2105.4 349.344,2110.07 352,2114.5C 360.078,2123.79 370.245,2129.29 382.5,2131C 392.141,2132.15 401.307,2132.65 410,2132.5C 418.207,2131.5 426.373,2130.16 434.5,2128.5C 441.041,2131.06 442.041,2134.89 437.5,2140C 434.226,2141.2 430.893,2142.2 427.5,2143C 412.5,2143.67 397.5,2143.67 382.5,2143C 366.618,2141.31 353.451,2134.48 343,2122.5C 340.159,2117.82 337.993,2112.82 336.5,2107.5C 282.625,2118.14 247.792,2097.14 232,2044.5C 229.729,2018.78 239.229,1998.61 260.5,1984C 266.913,1979.81 273.913,1977.31 281.5,1976.5C 282.616,1941.73 300.282,1922.39 334.5,1918.5 Z"/></g>
<g><path style="opacity:0.949" fill="#ae86ff" d="M 424.5,1935.5 C 456.114,1932.9 485.448,1939.74 512.5,1956C 544.277,1985.85 549.777,2019.68 529,2057.5C 523.623,2065.21 516.956,2071.54 509,2076.5C 503.518,2093.3 493.352,2106.47 478.5,2116C 473.137,2118.95 469.47,2117.62 467.5,2112C 468.083,2109.5 469.416,2107.5 471.5,2106C 481,2100.5 488.5,2093 494,2083.5C 495.009,2081.98 495.509,2080.31 495.5,2078.5C 483.794,2079.49 475.794,2074.66 471.5,2064C 471.469,2054.01 476.636,2048.17 487,2046.5C 497.623,2046.8 504.957,2051.8 509,2061.5C 519.9,2051.91 526.567,2039.91 529,2025.5C 530.167,1986.67 512.001,1962.17 474.5,1952C 437.19,1941.89 402.524,1947.55 370.5,1969C 362.001,1970 359.667,1966.67 363.5,1959C 382.174,1946.72 402.507,1938.89 424.5,1935.5 Z"/></g>
<g><path style="opacity:1" fill="#fbf9ff" d="M 484.5,2058.5 C 489.649,2057.93 493.815,2059.6 497,2063.5C 497.49,2064.79 497.657,2066.13 497.5,2067.5C 492.285,2068.3 487.785,2066.96 484,2063.5C 483.36,2061.73 483.527,2060.07 484.5,2058.5 Z"/></g>
<g><path style="opacity:1" fill="#faf7ff" d="M 363.5,2060.5 C 364.693,2060.97 365.36,2061.97 365.5,2063.5C 362.999,2073.84 357.499,2082.17 349,2088.5C 348.54,2081.96 350.206,2075.96 354,2070.5C 357.059,2067.06 360.226,2063.72 363.5,2060.5 Z"/></g>
<g><path style="opacity:0.89" fill="#ad86ff" d="M 456.5,2118.5 C 464.744,2118.23 467.078,2121.73 463.5,2129C 459.876,2131.65 455.876,2132.65 451.5,2132C 448.064,2128.94 447.731,2125.61 450.5,2122C 452.727,2121.06 454.727,2119.89 456.5,2118.5 Z"/></g>
<g><path style="opacity:0.947" fill="#ae86ff" d="M 552.5,2157.5 C 560.668,2156.95 568.668,2157.78 576.5,2160C 578.641,2161.31 580.641,2162.81 582.5,2164.5C 584.821,2169.7 583.321,2173.03 578,2174.5C 575.204,2173.06 572.371,2171.56 569.5,2170C 550.3,2168.18 534.134,2174.35 521,2188.5C 514.45,2197.01 513.783,2206.01 519,2215.5C 520.979,2219.96 523.813,2223.79 527.5,2227C 535.124,2231.21 543.124,2233.55 551.5,2234C 555.292,2236.05 556.458,2239.22 555,2243.5C 552.066,2245.19 548.899,2246.19 545.5,2246.5C 542.889,2275.05 555.222,2284.89 582.5,2276C 599.267,2267.16 608.267,2253.16 609.5,2234C 609.751,2218.84 604.084,2206.51 592.5,2197C 587.375,2193.12 581.709,2191.62 575.5,2192.5C 569.957,2191.08 568.457,2187.74 571,2182.5C 573.473,2181.05 576.139,2180.05 579,2179.5C 597.853,2182.98 610.853,2193.98 618,2212.5C 625.055,2237.57 619.555,2259.41 601.5,2278C 587.94,2288.58 572.606,2292.58 555.5,2290C 541.757,2284.21 533.757,2273.88 531.5,2259C 532.496,2254 533.496,2249 534.5,2244C 525.338,2240.85 517.838,2235.35 512,2227.5C 498.709,2207.15 501.209,2188.98 519.5,2173C 529.559,2165.63 540.559,2160.47 552.5,2157.5 Z"/></g>
<g><path style="opacity:0.975" fill="#d6d6d6" d="M 1127.5,2323.5 C 1162.87,2323.82 1198.2,2325.15 1233.5,2327.5C 1237.5,2327.17 1241.5,2326.83 1245.5,2326.5C 1283.85,2329.86 1322.18,2331.52 1360.5,2331.5C 1410.9,2334.88 1461.24,2339.05 1511.5,2344C 1524.12,2347.59 1536.79,2350.92 1549.5,2354C 1553.33,2357.31 1554.49,2361.47 1553,2366.5C 1551.16,2369.18 1548.66,2371.01 1545.5,2372C 1535.63,2374.63 1525.63,2376.63 1515.5,2378C 1484.61,2381.35 1453.78,2384.51 1423,2387.5C 1374.96,2386.59 1326.79,2385.59 1278.5,2384.5C 1253.17,2385.39 1227.67,2386.39 1202,2387.5C 1191.36,2386.44 1180.7,2385.78 1170,2385.5C 1142.94,2386.43 1116.27,2386.77 1090,2386.5C 1022.18,2383.81 954.35,2381.64 886.5,2380C 843.705,2377.96 801.038,2375.29 758.5,2372C 742.174,2368.75 725.84,2365.42 709.5,2362C 705.658,2360.39 702.158,2358.22 699,2355.5C 696.446,2350.32 697.279,2345.82 701.5,2342C 708.269,2339.22 715.269,2337.22 722.5,2336C 750.865,2332.72 779.199,2329.39 807.5,2326C 818.834,2325.51 830.167,2325.01 841.5,2324.5C 889.659,2324.93 937.826,2325.93 986,2327.5C 1033.3,2325.29 1080.47,2323.96 1127.5,2323.5 Z"/></g>
</svg>
